<svg width="40" height="40" viewBox="0 0 40 40" fill="none" xmlns="http://www.w3.org/2000/svg">
<path d="M39.3971 24.8381C36.726 35.5525 25.8741 42.0731 15.1584 39.4012C4.44722 36.7301 -2.07335 25.8775 0.598971 15.1639C3.26894 4.44838 14.1209 -2.07268 24.8332 0.598468C35.5481 3.26961 42.0683 14.1234 39.3968 24.8383L39.397 24.8381H39.3971Z" fill="#F3BA2F"/>
<path fill-rule="evenodd" clip-rule="evenodd" d="M20.0001 12.6933L14.8212 17.8722L14.8213 17.872L11.8081 14.8586L20.0001 6.66663L28.1947 14.8611L25.1814 17.8744L20.0001 12.6933ZM9.68019 16.9861L6.66675 20L9.67998 23.0128L12.6934 19.9993L9.68019 16.9861ZM14.8212 22.1281L20.0001 27.3066L25.1813 22.1256L28.1962 25.1373L28.1947 25.1389L20.0001 33.3333L11.8081 25.1413L11.8038 25.137L14.8212 22.1281ZM30.3202 16.9878L27.3067 20.0012L30.3201 23.0145L33.3334 20.001L30.3202 16.9878Z" fill="white"/>
<path d="M23.0562 19.9984H23.0575L20 16.9407L17.74 19.2L17.4804 19.4597L16.9449 19.9953L16.9407 19.9994L16.9449 20.0038L20 23.0593L23.0577 20.0016L23.0592 19.9999L23.0564 19.9984" fill="white"/>
</svg>
