<svg width="40" height="40" viewBox="0 0 40 40" fill="none" xmlns="http://www.w3.org/2000/svg">
<path d="M39.402 24.8381C36.7309 35.5525 25.8789 42.0731 15.1633 39.4012C4.4521 36.7301 -2.06846 25.8775 0.603853 15.1639C3.27382 4.44838 14.1258 -2.07268 24.8381 0.598468C35.553 3.26961 42.0732 14.1234 39.4017 24.8383L39.4019 24.8381H39.402Z" fill="#F7931A"/>
<path fill-rule="evenodd" clip-rule="evenodd" d="M28.8219 17.1514C29.22 14.4898 27.1936 13.0592 24.4228 12.1047L25.3217 8.49942L23.127 7.95256L22.252 11.463C21.675 11.3191 21.0825 11.1835 20.4936 11.0491L21.375 7.51549L19.1817 6.96863L18.2823 10.5728C17.8048 10.4641 17.3359 10.3566 16.8809 10.2434L16.8835 10.2321L13.857 9.47632L13.2732 11.8204C13.2732 11.8204 14.9014 12.1936 14.8671 12.2166C15.7558 12.4384 15.9166 13.0267 15.8899 13.493L14.8659 17.6003C14.9271 17.6159 15.0065 17.6383 15.0941 17.6735L15.0305 17.6577L15.0304 17.6576C14.9762 17.6441 14.9199 17.63 14.8621 17.6162L13.4269 23.3699C13.3183 23.6399 13.0427 24.0451 12.4213 23.8913C12.4433 23.9231 10.8262 23.4932 10.8262 23.4932L9.73657 26.0054L12.5926 26.7173C12.9053 26.7958 13.2144 26.8763 13.5203 26.9561L13.5205 26.9562C13.7343 27.0119 13.9464 27.0672 14.1573 27.1211L13.2491 30.7678L15.4413 31.3146L16.3406 27.7067C16.9395 27.8692 17.5207 28.0192 18.0896 28.1605L17.1933 31.7515L19.388 32.2984L20.2961 28.6585C24.0385 29.3668 26.8525 29.0812 28.0369 25.6963C28.9913 22.971 27.9894 21.399 26.0205 20.3739C27.4546 20.0432 28.5347 19.1 28.8227 17.1517L28.822 17.1512L28.8219 17.1514ZM23.8076 24.1828C23.1853 26.6832 19.2716 25.6495 17.4809 25.1765L17.4809 25.1765C17.3198 25.134 17.1759 25.0959 17.0531 25.0655L18.2583 20.2343C18.4079 20.2716 18.5908 20.3126 18.7979 20.3591C20.6502 20.7748 24.4452 21.6265 23.8077 24.1828H23.8076ZM19.1694 18.1169C20.6624 18.5153 23.9191 19.3845 24.4863 17.1119H24.4865C25.0657 14.7877 21.9007 14.087 20.3548 13.7447C20.1809 13.7062 20.0275 13.6723 19.9023 13.641L18.8096 18.0226C18.9128 18.0484 19.0338 18.0807 19.1694 18.1169Z" fill="white"/>
</svg>
