<svg width="382" height="128" viewBox="0 0 382 128" fill="none" xmlns="http://www.w3.org/2000/svg">
<g filter="url(#filter0_d_1270_33922)">
<path d="M16 28C16 19.1634 23.1634 12 32 12H350C358.837 12 366 19.1634 366 28V92C366 100.837 358.837 108 350 108H32C23.1634 108 16 100.837 16 92V28Z" fill="white" shape-rendering="crispEdges"/>
<path d="M32 12.5H350C358.56 12.5 365.5 19.4396 365.5 28V92C365.5 100.56 358.56 107.5 350 107.5H32C23.4396 107.5 16.5 100.56 16.5 92V28C16.5 19.4396 23.4396 12.5 32 12.5Z" stroke="#EBEBF5" shape-rendering="crispEdges"/>
<path d="M28 35.1323C28 28.9841 32.9841 24 39.1323 24H49.397C55.5452 24 60.5293 28.9841 60.5293 35.1323C60.5293 41.2805 55.5452 46.2647 49.397 46.2647H39.1323C32.9841 46.2647 28 41.2805 28 35.1323Z" fill="#FFBDC6"/>
<path d="M37.729 39.242C37.2832 39.242 36.8739 39.1871 36.5011 39.0775C36.1284 38.9606 35.7922 38.7888 35.4925 38.5622C35.1929 38.3357 34.9261 38.0616 34.6922 37.74L35.6241 36.6875C35.9822 37.1845 36.333 37.528 36.6765 37.7181C37.0201 37.9081 37.4074 38.0031 37.8386 38.0031C38.0871 38.0031 38.3137 37.9666 38.5184 37.8935C38.723 37.8131 38.8838 37.7071 39.0007 37.5756C39.1177 37.4367 39.1761 37.2796 39.1761 37.1041C39.1761 36.9799 39.1506 36.8666 39.0994 36.7643C39.0555 36.6547 38.9861 36.5596 38.8911 36.4792C38.7961 36.3915 38.6791 36.3111 38.5403 36.2381C38.4014 36.165 38.2443 36.1028 38.0689 36.0517C37.8935 36.0005 37.6998 35.953 37.4878 35.9092C37.0858 35.8288 36.735 35.7228 36.4354 35.5912C36.1357 35.4524 35.8835 35.2843 35.6789 35.0869C35.4742 34.8823 35.3244 34.6557 35.2294 34.4072C35.1344 34.1514 35.0869 33.8627 35.0869 33.5411C35.0869 33.2195 35.1563 32.9235 35.2952 32.6531C35.4414 32.3827 35.6387 32.1488 35.8872 31.9515C36.1357 31.7541 36.4244 31.6006 36.7533 31.491C37.0822 31.3814 37.4367 31.3266 37.8167 31.3266C38.2479 31.3266 38.6316 31.3777 38.9678 31.48C39.3114 31.5824 39.611 31.7359 39.8668 31.9405C40.1299 32.1378 40.3455 32.379 40.5136 32.6641L39.5708 33.5959C39.4246 33.3694 39.2602 33.183 39.0775 33.0368C38.8948 32.8833 38.6974 32.77 38.4855 32.697C38.2735 32.6166 38.0506 32.5764 37.8167 32.5764C37.5536 32.5764 37.3234 32.6129 37.126 32.686C36.936 32.7591 36.7862 32.8651 36.6765 33.0039C36.5669 33.1355 36.5121 33.2963 36.5121 33.4863C36.5121 33.6325 36.545 33.764 36.6108 33.881C36.6765 33.9906 36.7679 34.0893 36.8848 34.177C37.0091 34.2647 37.1662 34.3414 37.3563 34.4072C37.5463 34.473 37.7619 34.5315 38.0031 34.5826C38.4051 34.663 38.7668 34.7726 39.0884 34.9115C39.41 35.0431 39.6841 35.2039 39.9107 35.3939C40.1372 35.5766 40.309 35.7886 40.4259 36.0298C40.5429 36.2636 40.6014 36.5267 40.6014 36.8191C40.6014 37.3234 40.4808 37.7583 40.2396 38.1237C40.0057 38.4818 39.6731 38.7596 39.2419 38.9569C38.8107 39.1469 38.3064 39.242 37.729 39.242ZM44.6353 39.242C44.0286 39.242 43.4915 39.1141 43.0237 38.8582C42.5632 38.6024 42.2015 38.2553 41.9383 37.8167C41.6825 37.3709 41.5546 36.863 41.5546 36.2929C41.5546 35.8397 41.6277 35.4268 41.7739 35.054C41.9201 34.6813 42.1211 34.3597 42.3769 34.0893C42.64 33.8115 42.9506 33.5996 43.3087 33.4534C43.6742 33.2999 44.0725 33.2232 44.5037 33.2232C44.8838 33.2232 45.2383 33.2963 45.5671 33.4424C45.896 33.5886 46.1811 33.7896 46.4223 34.0454C46.6635 34.2939 46.8462 34.5936 46.9704 34.9444C47.102 35.2879 47.1641 35.6643 47.1568 36.0736L47.1458 36.545H42.4646L42.2124 35.6241H46.0166L45.8412 35.8105V35.5693C45.8193 35.3427 45.7462 35.1454 45.622 34.9773C45.4977 34.8019 45.3369 34.6667 45.1396 34.5717C44.9496 34.4693 44.7376 34.4182 44.5037 34.4182C44.1456 34.4182 43.8423 34.4876 43.5938 34.6265C43.3526 34.7653 43.1699 34.9663 43.0456 35.2294C42.9214 35.4852 42.8592 35.8068 42.8592 36.1942C42.8592 36.5669 42.936 36.8922 43.0895 37.1699C43.2503 37.4477 43.4732 37.6633 43.7582 37.8167C44.0506 37.9629 44.3904 38.036 44.7778 38.036C45.0482 38.036 45.2967 37.9922 45.5233 37.9045C45.7499 37.8167 45.9947 37.6596 46.2578 37.433L46.9266 38.3649C46.7292 38.5476 46.5027 38.7048 46.2469 38.8363C45.9984 38.9606 45.7352 39.0592 45.4575 39.1323C45.1798 39.2054 44.9057 39.242 44.6353 39.242ZM48.3621 39.1323V31.0196H49.7215V39.1323H48.3621ZM51.317 39.1323V31.0196H52.6764V39.1323H51.317Z" fill="#0B2330"/>
<path d="M59.5211 71.1351C57.3842 79.7066 48.7027 84.9231 40.1301 82.7856C31.5612 80.6487 26.3447 71.9666 28.4826 63.3958C30.6186 54.8234 39.3001 49.6065 47.87 51.7434C56.4419 53.8803 61.658 62.5634 59.5209 71.1353L59.521 71.1351H59.5211Z" fill="#F7931A"/>
<path fill-rule="evenodd" clip-rule="evenodd" d="M51.0568 64.9851C51.3753 62.8558 49.7542 61.7113 47.5375 60.9478L48.2567 58.0635L46.5009 57.626L45.8009 60.4343C45.3393 60.3192 44.8653 60.2107 44.3942 60.1032L45.0993 57.2764L43.3447 56.8389L42.6252 59.7222C42.2432 59.6352 41.868 59.5493 41.5041 59.4587L41.5061 59.4496L39.0849 58.845L38.6179 60.7203C38.6179 60.7203 39.9205 61.0189 39.893 61.0372C40.604 61.2147 40.7326 61.6853 40.7112 62.0584L39.8921 65.3442C39.941 65.3567 40.0045 65.3746 40.0746 65.4028L40.0236 65.3901C39.9803 65.3792 39.9353 65.368 39.889 65.3569L38.7409 69.9599C38.654 70.1759 38.4334 70.5001 37.9364 70.377C37.954 70.4025 36.6603 70.0585 36.6603 70.0585L35.7886 72.0683L38.0734 72.6378C38.3236 72.7006 38.5708 72.765 38.8156 72.8288C38.9866 72.8734 39.1564 72.9177 39.3252 72.9608L38.5986 75.8782L40.3523 76.3157L41.0718 73.4293C41.5509 73.5593 42.0158 73.6793 42.471 73.7924L41.7539 76.6652L43.5098 77.1027L44.2362 74.1908C47.2301 74.7574 49.4813 74.529 50.4288 71.821C51.1924 69.6407 50.3908 68.3832 48.8158 67.5631C49.963 67.2985 50.8271 66.544 51.0575 64.9853L51.0569 64.9849L51.0568 64.9851ZM47.0454 70.6102C46.5476 72.6105 43.4165 71.7835 41.984 71.4051C41.8551 71.3711 41.74 71.3407 41.6418 71.3163L42.6059 67.4513C42.7256 67.4812 42.8719 67.514 43.0376 67.5512L43.0376 67.5512C44.5194 67.8838 47.5554 68.5651 47.0455 70.6102H47.0454ZM43.3349 65.7574C44.5292 66.0762 47.1346 66.7715 47.5884 64.9535H47.5885C48.0519 63.0941 45.5198 62.5335 44.2832 62.2597C44.1441 62.2289 44.0213 62.2018 43.9211 62.1768L43.047 65.6821C43.1295 65.7026 43.2264 65.7285 43.3349 65.7574Z" fill="white"/>
<path d="M69.764 73.7646V61.1646H75.02C75.824 61.1646 76.502 61.2846 77.054 61.5246C77.606 61.7646 78.02 62.1246 78.296 62.6046C78.584 63.0726 78.728 63.6486 78.728 64.3326C78.728 65.0166 78.536 65.5986 78.152 66.0786C77.78 66.5586 77.258 66.8886 76.586 67.0686V66.7086C77.15 66.8286 77.642 67.0446 78.062 67.3566C78.482 67.6566 78.806 68.0346 79.034 68.4906C79.274 68.9466 79.394 69.4686 79.394 70.0566C79.394 70.6566 79.298 71.1906 79.106 71.6586C78.926 72.1146 78.65 72.4986 78.278 72.8106C77.918 73.1226 77.48 73.3626 76.964 73.5306C76.448 73.6866 75.86 73.7646 75.2 73.7646H69.764ZM71.708 71.8926H75.092C75.584 71.8926 75.998 71.8206 76.334 71.6766C76.682 71.5326 76.946 71.3226 77.126 71.0466C77.318 70.7586 77.414 70.4166 77.414 70.0206C77.414 69.6486 77.312 69.3306 77.108 69.0666C76.916 68.8026 76.64 68.6046 76.28 68.4726C75.92 68.3286 75.494 68.2566 75.002 68.2566H71.708V71.8926ZM71.708 66.3846H74.912C75.272 66.3846 75.59 66.3126 75.866 66.1686C76.154 66.0246 76.376 65.8266 76.532 65.5746C76.7 65.3226 76.784 65.0346 76.784 64.7106C76.784 64.1706 76.604 63.7566 76.244 63.4686C75.884 63.1806 75.368 63.0366 74.696 63.0366H71.708V66.3846ZM81.674 73.7646V64.3146H83.528V73.7646H81.674ZM82.574 62.2266C82.178 62.2266 81.872 62.1246 81.656 61.9206C81.44 61.7166 81.332 61.4286 81.332 61.0566C81.332 60.7086 81.44 60.4266 81.656 60.2106C81.884 59.9946 82.19 59.8866 82.574 59.8866C82.97 59.8866 83.276 59.9886 83.492 60.1926C83.708 60.3966 83.816 60.6846 83.816 61.0566C83.816 61.4046 83.702 61.6866 83.474 61.9026C83.258 62.1186 82.958 62.2266 82.574 62.2266ZM87.3677 73.7646V61.9026H89.2217V73.7646H87.3677ZM85.4057 66.1146V64.3146H91.4177V66.1146H85.4057ZM96.852 73.9446C95.976 73.9446 95.19 73.7286 94.494 73.2966C93.81 72.8646 93.264 72.2766 92.856 71.5326C92.46 70.7886 92.262 69.9546 92.262 69.0306C92.262 68.1066 92.46 67.2726 92.856 66.5286C93.264 65.7846 93.81 65.1966 94.494 64.7646C95.19 64.3326 95.976 64.1166 96.852 64.1166C97.692 64.1166 98.454 64.2906 99.138 64.6386C99.834 64.9746 100.362 65.4366 100.722 66.0246L99.696 67.2846C99.504 67.0086 99.258 66.7566 98.958 66.5286C98.658 66.3006 98.34 66.1206 98.004 65.9886C97.668 65.8566 97.344 65.7906 97.032 65.7906C96.456 65.7906 95.94 65.9346 95.484 66.2226C95.04 66.4986 94.686 66.8826 94.422 67.3746C94.158 67.8666 94.026 68.4186 94.026 69.0306C94.026 69.6426 94.164 70.1946 94.44 70.6866C94.716 71.1666 95.082 71.5506 95.538 71.8386C95.994 72.1266 96.498 72.2706 97.05 72.2706C97.374 72.2706 97.686 72.2166 97.986 72.1086C98.298 72.0006 98.598 71.8386 98.886 71.6226C99.174 71.4066 99.444 71.1426 99.696 70.8306L100.722 72.0906C100.338 72.6306 99.786 73.0746 99.066 73.4226C98.358 73.7706 97.62 73.9446 96.852 73.9446ZM106.539 73.9446C105.615 73.9446 104.787 73.7346 104.055 73.3146C103.335 72.8826 102.765 72.3006 102.345 71.5686C101.925 70.8246 101.715 69.9786 101.715 69.0306C101.715 68.0826 101.925 67.2426 102.345 66.5106C102.765 65.7666 103.335 65.1846 104.055 64.7646C104.787 64.3326 105.615 64.1166 106.539 64.1166C107.451 64.1166 108.267 64.3326 108.987 64.7646C109.719 65.1846 110.295 65.7666 110.715 66.5106C111.135 67.2426 111.345 68.0826 111.345 69.0306C111.345 69.9786 111.135 70.8246 110.715 71.5686C110.295 72.3006 109.719 72.8826 108.987 73.3146C108.267 73.7346 107.451 73.9446 106.539 73.9446ZM106.539 72.2526C107.103 72.2526 107.607 72.1146 108.051 71.8386C108.495 71.5506 108.843 71.1666 109.095 70.6866C109.347 70.1946 109.467 69.6426 109.455 69.0306C109.467 68.4066 109.347 67.8546 109.095 67.3746C108.843 66.8826 108.495 66.4986 108.051 66.2226C107.607 65.9466 107.103 65.8086 106.539 65.8086C105.975 65.8086 105.465 65.9526 105.009 66.2406C104.565 66.5166 104.217 66.9006 103.965 67.3926C103.713 67.8726 103.593 68.4186 103.605 69.0306C103.593 69.6426 103.713 70.1946 103.965 70.6866C104.217 71.1666 104.565 71.5506 105.009 71.8386C105.465 72.1146 105.975 72.2526 106.539 72.2526ZM113.491 73.7646V64.3146H115.345V73.7646H113.491ZM114.391 62.2266C113.995 62.2266 113.689 62.1246 113.473 61.9206C113.257 61.7166 113.149 61.4286 113.149 61.0566C113.149 60.7086 113.257 60.4266 113.473 60.2106C113.701 59.9946 114.007 59.8866 114.391 59.8866C114.787 59.8866 115.093 59.9886 115.309 60.1926C115.525 60.3966 115.633 60.6846 115.633 61.0566C115.633 61.4046 115.519 61.6866 115.291 61.9026C115.075 62.1186 114.775 62.2266 114.391 62.2266ZM118.015 73.7646V64.3146H119.869V66.2586L119.545 66.4746C119.665 66.0546 119.899 65.6706 120.247 65.3226C120.595 64.9626 121.009 64.6746 121.489 64.4586C121.969 64.2306 122.461 64.1166 122.965 64.1166C123.685 64.1166 124.285 64.2606 124.765 64.5486C125.245 64.8246 125.605 65.2506 125.845 65.8266C126.085 66.4026 126.205 67.1286 126.205 68.0046V73.7646H124.351V68.1306C124.351 67.5906 124.279 67.1466 124.135 66.7986C123.991 66.4386 123.769 66.1806 123.469 66.0246C123.169 65.8566 122.797 65.7846 122.353 65.8086C121.993 65.8086 121.663 65.8686 121.363 65.9886C121.063 66.0966 120.799 66.2526 120.571 66.4566C120.355 66.6606 120.181 66.9006 120.049 67.1766C119.929 67.4406 119.869 67.7286 119.869 68.0406V73.7646H118.951C118.795 73.7646 118.639 73.7646 118.483 73.7646C118.327 73.7646 118.171 73.7646 118.015 73.7646Z" fill="#0B2330"/>
<path d="M143.354 70.9111C143.158 71.1064 142.842 71.1064 142.646 70.9111L137.854 66.1182C137.539 65.8032 137.762 65.2646 138.207 65.2646H147.793C148.238 65.2646 148.461 65.8032 148.146 66.1182L143.354 70.9111Z" fill="#0B2330"/>
<g clip-path="url(#clip0_1270_33922)">
<path d="M236.423 51.103C238.413 50.0697 240.944 49.1164 243.306 48.5354C243.997 48.3654 244.711 48.621 245.071 49.235C245.327 49.6737 245.641 50.275 245.972 51.061M247.625 54.287C247.604 53.7295 247.571 53.1725 247.527 52.6164C247.458 51.766 246.797 51.1264 245.946 51.0674C244.966 50.9994 243.454 50.9314 241.333 50.9314C239.212 50.9314 237.7 50.9994 236.72 51.0674C235.869 51.126 235.209 51.766 235.14 52.6164C235.068 53.4944 235 54.8024 235 56.598C235 58.3937 235.068 59.7014 235.14 60.5797C235.209 61.43 235.869 62.0697 236.72 62.1287C237.7 62.1967 239.212 62.2647 241.333 62.2647C243.454 62.2647 244.967 62.1967 245.946 62.1287C246.797 62.07 247.458 61.43 247.527 60.5797C247.563 60.1354 247.599 59.581 247.625 58.909M243.688 57.639C243.72 58.349 244.267 58.878 244.977 58.9064C245.338 58.921 245.788 58.9314 246.333 58.9314C246.879 58.9314 247.328 58.921 247.69 58.9064C248.4 58.878 248.947 58.349 248.979 57.639C248.991 57.35 249 57.0044 249 56.598C249 56.1914 248.991 55.846 248.979 55.557C248.947 54.847 248.4 54.318 247.69 54.2897C247.238 54.2723 246.786 54.264 246.333 54.2647C245.788 54.2647 245.338 54.275 244.977 54.2897C244.267 54.318 243.72 54.847 243.688 55.557C243.673 55.9038 243.666 56.2509 243.667 56.598C243.667 57.0047 243.675 57.35 243.688 57.639Z" stroke="#6A6A78" stroke-width="1.2" stroke-linecap="round" stroke-linejoin="round"/>
<path d="M246 56.2646V56.9313" stroke="#6A6A78" stroke-width="1.2" stroke-linecap="round" stroke-linejoin="round"/>
</g>
<path d="M255.442 60.2646V50.4646H259.418C259.987 50.4646 260.477 50.5673 260.888 50.7726C261.308 50.9686 261.63 51.2533 261.854 51.6266C262.078 51.9906 262.19 52.4246 262.19 52.9286C262.19 53.47 262.036 53.9366 261.728 54.3286C261.42 54.7113 261 54.9773 260.468 55.1266L260.44 54.8606C260.897 54.9446 261.294 55.108 261.63 55.3506C261.966 55.584 262.227 55.8733 262.414 56.2186C262.61 56.564 262.708 56.9513 262.708 57.3806C262.708 57.8193 262.633 58.216 262.484 58.5706C262.335 58.9253 262.12 59.2286 261.84 59.4806C261.569 59.7326 261.238 59.9286 260.846 60.0686C260.463 60.1993 260.034 60.2646 259.558 60.2646H255.442ZM256.534 59.2006H259.474C259.894 59.2006 260.258 59.1306 260.566 58.9906C260.883 58.8413 261.126 58.6313 261.294 58.3606C261.471 58.09 261.56 57.7773 261.56 57.4226C261.56 57.0866 261.467 56.7926 261.28 56.5406C261.103 56.2886 260.851 56.0926 260.524 55.9526C260.207 55.8126 259.833 55.7426 259.404 55.7426H256.534V59.2006ZM256.534 54.6786H259.334C259.67 54.6786 259.969 54.6133 260.23 54.4826C260.491 54.3426 260.697 54.156 260.846 53.9226C260.995 53.68 261.07 53.4093 261.07 53.1106C261.07 52.6346 260.907 52.252 260.58 51.9626C260.263 51.6733 259.815 51.5286 259.236 51.5286H256.534V54.6786ZM267.117 60.4046C266.482 60.4046 265.908 60.2413 265.395 59.9146C264.882 59.5786 264.476 59.126 264.177 58.5566C263.878 57.978 263.729 57.3246 263.729 56.5966C263.729 55.8593 263.883 55.206 264.191 54.6366C264.499 54.0673 264.91 53.6193 265.423 53.2926C265.946 52.966 266.529 52.8026 267.173 52.8026C267.556 52.8026 267.91 52.8586 268.237 52.9706C268.564 53.0826 268.853 53.2413 269.105 53.4466C269.366 53.6426 269.581 53.876 269.749 54.1466C269.926 54.408 270.048 54.6926 270.113 55.0006L269.805 54.8466L269.847 52.9566H270.897V60.2646H269.833V58.4726L270.113 58.2906C270.048 58.5706 269.922 58.8413 269.735 59.1026C269.548 59.3546 269.32 59.5786 269.049 59.7746C268.788 59.9706 268.489 60.1246 268.153 60.2366C267.826 60.3486 267.481 60.4046 267.117 60.4046ZM267.355 59.3966C267.84 59.3966 268.274 59.28 268.657 59.0466C269.04 58.804 269.338 58.4726 269.553 58.0526C269.777 57.6233 269.889 57.138 269.889 56.5966C269.889 56.0553 269.777 55.5746 269.553 55.1546C269.338 54.7346 269.04 54.4033 268.657 54.1606C268.274 53.918 267.84 53.7966 267.355 53.7966C266.86 53.7966 266.422 53.918 266.039 54.1606C265.666 54.4033 265.367 54.7346 265.143 55.1546C264.928 55.5746 264.821 56.0553 264.821 56.5966C264.821 57.1286 264.928 57.6093 265.143 58.0386C265.358 58.4586 265.656 58.79 266.039 59.0326C266.422 59.2753 266.86 59.3966 267.355 59.3966ZM272.831 60.2646V49.9046H273.881V60.2646H272.831ZM278.526 60.4046C277.892 60.4046 277.318 60.2413 276.804 59.9146C276.291 59.5786 275.885 59.126 275.586 58.5566C275.288 57.978 275.138 57.3246 275.138 56.5966C275.138 55.8593 275.292 55.206 275.6 54.6366C275.908 54.0673 276.319 53.6193 276.832 53.2926C277.355 52.966 277.938 52.8026 278.582 52.8026C278.965 52.8026 279.32 52.8586 279.646 52.9706C279.973 53.0826 280.262 53.2413 280.514 53.4466C280.776 53.6426 280.99 53.876 281.158 54.1466C281.336 54.408 281.457 54.6926 281.522 55.0006L281.214 54.8466L281.256 52.9566H282.306V60.2646H281.242V58.4726L281.522 58.2906C281.457 58.5706 281.331 58.8413 281.144 59.1026C280.958 59.3546 280.729 59.5786 280.458 59.7746C280.197 59.9706 279.898 60.1246 279.562 60.2366C279.236 60.3486 278.89 60.4046 278.526 60.4046ZM278.764 59.3966C279.25 59.3966 279.684 59.28 280.066 59.0466C280.449 58.804 280.748 58.4726 280.962 58.0526C281.186 57.6233 281.298 57.138 281.298 56.5966C281.298 56.0553 281.186 55.5746 280.962 55.1546C280.748 54.7346 280.449 54.4033 280.066 54.1606C279.684 53.918 279.25 53.7966 278.764 53.7966C278.27 53.7966 277.831 53.918 277.448 54.1606C277.075 54.4033 276.776 54.7346 276.552 55.1546C276.338 55.5746 276.23 56.0553 276.23 56.5966C276.23 57.1286 276.338 57.6093 276.552 58.0386C276.767 58.4586 277.066 58.79 277.448 59.0326C277.831 59.2753 278.27 59.3966 278.764 59.3966ZM284.212 60.2646V52.9566H285.248L285.29 54.4826L285.122 54.5526C285.215 54.2353 285.397 53.946 285.668 53.6846C285.939 53.4233 286.261 53.2133 286.634 53.0546C287.017 52.8866 287.409 52.8026 287.81 52.8026C288.351 52.8026 288.804 52.91 289.168 53.1246C289.532 53.3393 289.807 53.6706 289.994 54.1186C290.181 54.5666 290.274 55.136 290.274 55.8266V60.2646H289.21V55.8826C289.21 55.3973 289.145 55.0006 289.014 54.6926C288.893 54.3753 288.701 54.142 288.44 53.9926C288.179 53.8433 287.857 53.7733 287.474 53.7826C287.157 53.7826 286.863 53.8386 286.592 53.9506C286.321 54.0533 286.088 54.198 285.892 54.3846C285.696 54.5713 285.542 54.786 285.43 55.0286C285.318 55.2713 285.262 55.5326 285.262 55.8126V60.2646H284.744C284.679 60.2646 284.604 60.2646 284.52 60.2646C284.436 60.2646 284.333 60.2646 284.212 60.2646ZM295.218 60.4046C294.528 60.4046 293.912 60.2413 293.37 59.9146C292.829 59.5786 292.4 59.126 292.082 58.5566C291.774 57.978 291.62 57.3246 291.62 56.5966C291.62 55.8686 291.774 55.22 292.082 54.6506C292.4 54.072 292.829 53.6193 293.37 53.2926C293.912 52.966 294.532 52.8026 295.232 52.8026C295.858 52.8026 296.427 52.9286 296.94 53.1806C297.454 53.4233 297.864 53.764 298.172 54.2026L297.556 54.9586C297.379 54.7253 297.164 54.52 296.912 54.3426C296.67 54.1653 296.404 54.03 296.114 53.9366C295.834 53.834 295.554 53.7826 295.274 53.7826C294.78 53.7826 294.336 53.9086 293.944 54.1606C293.552 54.4033 293.24 54.7346 293.006 55.1546C292.782 55.5746 292.67 56.0553 292.67 56.5966C292.67 57.138 292.782 57.6233 293.006 58.0526C293.24 58.4726 293.552 58.804 293.944 59.0466C294.336 59.2893 294.775 59.4106 295.26 59.4106C295.54 59.4106 295.816 59.3686 296.086 59.2846C296.357 59.1913 296.614 59.0606 296.856 58.8926C297.099 58.7246 297.323 58.5146 297.528 58.2626L298.144 59.0186C297.827 59.4386 297.402 59.7746 296.87 60.0266C296.338 60.2786 295.788 60.4046 295.218 60.4046ZM302.588 60.4046C301.86 60.4046 301.211 60.246 300.642 59.9286C300.082 59.6113 299.643 59.168 299.326 58.5986C299.008 58.0293 298.85 57.376 298.85 56.6386C298.85 56.0693 298.938 55.556 299.116 55.0986C299.293 54.632 299.54 54.226 299.858 53.8806C300.184 53.5353 300.572 53.2693 301.02 53.0826C301.468 52.8866 301.953 52.7886 302.476 52.7886C302.97 52.7886 303.418 52.8773 303.82 53.0546C304.23 53.232 304.58 53.4793 304.87 53.7966C305.168 54.1046 305.392 54.4733 305.542 54.9026C305.691 55.332 305.756 55.8033 305.738 56.3166L305.724 56.8066H299.634L299.48 55.9246H304.926L304.674 56.1626V55.8266C304.655 55.4906 304.557 55.1686 304.38 54.8606C304.202 54.5433 303.95 54.2866 303.624 54.0906C303.306 53.8946 302.924 53.7966 302.476 53.7966C301.953 53.7966 301.5 53.904 301.118 54.1186C300.735 54.324 300.441 54.632 300.236 55.0426C300.03 55.4533 299.928 55.962 299.928 56.5686C299.928 57.1473 300.04 57.6513 300.264 58.0806C300.488 58.5006 300.805 58.8273 301.216 59.0606C301.636 59.294 302.14 59.4106 302.728 59.4106C303.073 59.4106 303.414 59.3546 303.75 59.2426C304.095 59.1213 304.473 58.888 304.884 58.5426L305.43 59.2986C305.215 59.5133 304.958 59.7046 304.66 59.8726C304.361 60.0313 304.034 60.162 303.68 60.2646C303.325 60.358 302.961 60.4046 302.588 60.4046Z" fill="#6A6A78"/>
<path d="M315.06 60.3066C314.453 60.3066 313.898 60.1806 313.394 59.9286C312.899 59.6673 312.503 59.322 312.204 58.8926C311.905 58.454 311.756 57.9733 311.756 57.4506C311.756 57.1613 311.798 56.8906 311.882 56.6386C311.975 56.3773 312.106 56.1393 312.274 55.9246C312.451 55.7006 312.666 55.5 312.918 55.3226C313.17 55.136 313.459 54.9773 313.786 54.8466L313.702 55.1406C313.45 55.066 313.221 54.9586 313.016 54.8186C312.811 54.6786 312.638 54.52 312.498 54.3426C312.358 54.156 312.251 53.9553 312.176 53.7406C312.101 53.5166 312.064 53.288 312.064 53.0546C312.064 52.5786 312.195 52.1446 312.456 51.7526C312.727 51.3606 313.086 51.048 313.534 50.8146C313.991 50.5813 314.5 50.4646 315.06 50.4646C315.611 50.4646 316.11 50.5813 316.558 50.8146C317.015 51.048 317.375 51.3606 317.636 51.7526C317.907 52.1446 318.042 52.5786 318.042 53.0546C318.042 53.288 318.005 53.512 317.93 53.7266C317.865 53.9413 317.762 54.142 317.622 54.3286C317.482 54.506 317.305 54.6646 317.09 54.8046C316.885 54.9446 316.651 55.0566 316.39 55.1406L316.348 54.9026C316.647 55.0053 316.917 55.15 317.16 55.3366C317.412 55.514 317.627 55.7146 317.804 55.9386C317.981 56.1626 318.117 56.4053 318.21 56.6666C318.313 56.9186 318.364 57.18 318.364 57.4506C318.364 57.9826 318.215 58.468 317.916 58.9066C317.627 59.336 317.23 59.6766 316.726 59.9286C316.231 60.1806 315.676 60.3066 315.06 60.3066ZM315.06 59.2706C315.48 59.2706 315.853 59.1913 316.18 59.0326C316.516 58.8646 316.777 58.6406 316.964 58.3606C317.16 58.0806 317.258 57.768 317.258 57.4226C317.258 57.068 317.16 56.7553 316.964 56.4846C316.777 56.2046 316.516 55.9853 316.18 55.8266C315.853 55.6586 315.48 55.5746 315.06 55.5746C314.64 55.5746 314.262 55.6586 313.926 55.8266C313.599 55.9853 313.338 56.2046 313.142 56.4846C312.955 56.7553 312.862 57.068 312.862 57.4226C312.862 57.768 312.955 58.0806 313.142 58.3606C313.338 58.6313 313.599 58.8506 313.926 59.0186C314.262 59.1866 314.64 59.2706 315.06 59.2706ZM315.06 54.6366C315.415 54.6366 315.732 54.5713 316.012 54.4406C316.301 54.31 316.525 54.128 316.684 53.8946C316.852 53.6613 316.936 53.3906 316.936 53.0826C316.936 52.784 316.852 52.518 316.684 52.2846C316.525 52.042 316.301 51.8506 316.012 51.7106C315.732 51.5706 315.415 51.5006 315.06 51.5006C314.696 51.5006 314.369 51.5706 314.08 51.7106C313.8 51.8506 313.576 52.042 313.408 52.2846C313.249 52.518 313.17 52.784 313.17 53.0826C313.17 53.3813 313.249 53.652 313.408 53.8946C313.576 54.128 313.8 54.31 314.08 54.4406C314.369 54.5713 314.696 54.6366 315.06 54.6366ZM322.565 60.4046C321.874 60.4046 321.263 60.2506 320.731 59.9426C320.208 59.6253 319.718 59.0886 319.261 58.3326L320.157 57.7726C320.409 58.174 320.666 58.496 320.927 58.7386C321.198 58.972 321.473 59.14 321.753 59.2426C322.033 59.3453 322.332 59.3966 322.649 59.3966C323.041 59.3966 323.4 59.3033 323.727 59.1166C324.054 58.9206 324.315 58.6593 324.511 58.3326C324.707 57.9966 324.805 57.6233 324.805 57.2126C324.805 56.7926 324.716 56.424 324.539 56.1066C324.362 55.7893 324.114 55.542 323.797 55.3646C323.489 55.1873 323.13 55.0986 322.719 55.0986C322.57 55.0986 322.406 55.1173 322.229 55.1546C322.061 55.1826 321.874 55.2433 321.669 55.3366C321.473 55.4206 321.258 55.5466 321.025 55.7146L320.703 54.8466L324.161 51.0806L324.399 51.4866H319.947V50.4646H325.239L325.519 51.0246L322.159 54.6086L321.879 54.3286C322 54.254 322.145 54.1933 322.313 54.1466C322.481 54.0906 322.649 54.0626 322.817 54.0626C323.246 54.0626 323.648 54.142 324.021 54.3006C324.394 54.4593 324.716 54.6833 324.987 54.9726C325.267 55.2526 325.486 55.5793 325.645 55.9526C325.804 56.326 325.883 56.732 325.883 57.1706C325.883 57.7773 325.738 58.328 325.449 58.8226C325.16 59.308 324.763 59.6953 324.259 59.9846C323.755 60.2646 323.19 60.4046 322.565 60.4046ZM331.571 60.2646V51.7666L331.879 51.8646L327.819 56.8206L327.707 56.5686H334.343V57.6046H327.301L326.783 56.5686L331.781 50.4646H332.635V60.2646H331.571ZM336.389 60.4046C336.137 60.4046 335.941 60.33 335.801 60.1806C335.67 60.0313 335.605 59.8166 335.605 59.5366C335.605 59.2846 335.675 59.0793 335.815 58.9206C335.964 58.7526 336.156 58.6686 336.389 58.6686C336.641 58.6686 336.832 58.748 336.963 58.9066C337.103 59.056 337.173 59.266 337.173 59.5366C337.173 59.798 337.098 60.008 336.949 60.1666C336.809 60.3253 336.622 60.4046 336.389 60.4046ZM341.436 60.3626C340.792 60.3626 340.209 60.218 339.686 59.9286C339.164 59.63 338.73 59.2053 338.384 58.6546L339.042 57.9406C339.434 58.4633 339.826 58.8273 340.218 59.0326C340.62 59.2286 341.03 59.3266 341.45 59.3266C341.898 59.3266 342.304 59.224 342.668 59.0186C343.042 58.804 343.336 58.5193 343.55 58.1646C343.765 57.81 343.872 57.418 343.872 56.9886C343.872 56.5686 343.774 56.1906 343.578 55.8546C343.382 55.5093 343.116 55.2386 342.78 55.0426C342.444 54.8373 342.057 54.7346 341.618 54.7346C341.385 54.7346 341.152 54.7626 340.918 54.8186C340.685 54.8653 340.442 54.9446 340.19 55.0566C339.948 55.1593 339.686 55.29 339.406 55.4486L338.79 54.6226L339.364 50.4646H344.656V51.4866H339.938L340.288 51.2346L339.77 54.6646L339.448 54.4406C339.598 54.3193 339.798 54.2026 340.05 54.0906C340.302 53.9786 340.578 53.89 340.876 53.8246C341.184 53.75 341.483 53.7126 341.772 53.7126C342.379 53.7126 342.92 53.8526 343.396 54.1326C343.872 54.4033 344.25 54.7813 344.53 55.2666C344.81 55.7426 344.95 56.2933 344.95 56.9186C344.95 57.572 344.796 58.16 344.488 58.6826C344.18 59.196 343.76 59.6066 343.228 59.9146C342.696 60.2133 342.099 60.3626 341.436 60.3626ZM349.743 60.3346C349.258 60.3346 348.805 60.2506 348.385 60.0826C347.975 59.9146 347.615 59.6766 347.307 59.3686C347.009 59.0513 346.775 58.6826 346.607 58.2626C346.439 57.8333 346.355 57.3666 346.355 56.8626C346.355 56.62 346.388 56.354 346.453 56.0646C346.519 55.766 346.617 55.444 346.747 55.0986C346.878 54.744 347.037 54.3753 347.223 53.9926C347.41 53.61 347.625 53.2133 347.867 52.8026L349.295 50.3806H350.359L350.415 50.5206L348.833 53.1806C348.609 53.554 348.404 53.9226 348.217 54.2866C348.04 54.6506 347.872 55.0193 347.713 55.3926C347.555 55.7566 347.401 56.13 347.251 56.5126L347.055 55.5046C347.233 55.206 347.424 54.9446 347.629 54.7206C347.844 54.4966 348.073 54.3053 348.315 54.1466C348.558 53.9786 348.815 53.8573 349.085 53.7826C349.365 53.6986 349.65 53.6566 349.939 53.6566C350.509 53.6566 351.022 53.806 351.479 54.1046C351.946 54.394 352.319 54.7813 352.599 55.2666C352.879 55.752 353.019 56.2933 353.019 56.8906C353.019 57.544 352.875 58.132 352.585 58.6546C352.296 59.1773 351.899 59.588 351.395 59.8866C350.901 60.1853 350.35 60.3346 349.743 60.3346ZM349.701 59.3126C350.121 59.3126 350.499 59.21 350.835 59.0046C351.171 58.7993 351.437 58.524 351.633 58.1786C351.829 57.824 351.927 57.4273 351.927 56.9886C351.927 56.578 351.829 56.2 351.633 55.8546C351.437 55.5 351.171 55.22 350.835 55.0146C350.499 54.8 350.126 54.6926 349.715 54.6926C349.277 54.6926 348.885 54.7953 348.539 55.0006C348.203 55.206 347.937 55.4813 347.741 55.8266C347.545 56.172 347.447 56.5546 347.447 56.9746C347.447 57.4133 347.545 57.81 347.741 58.1646C347.937 58.51 348.203 58.79 348.539 59.0046C348.885 59.21 349.272 59.3126 349.701 59.3126Z" fill="#6A6A78"/>
<path d="M256.35 83.2646L260.144 73.4646H261.684L265.45 83.2646H263.84L261.6 77.3566C261.572 77.2913 261.516 77.1326 261.432 76.8806C261.357 76.6286 261.269 76.3486 261.166 76.0406C261.063 75.7326 260.97 75.4526 260.886 75.2006C260.802 74.9393 260.746 74.7713 260.718 74.6966L261.04 74.6826C260.984 74.8413 260.914 75.042 260.83 75.2846C260.755 75.5273 260.671 75.784 260.578 76.0546C260.494 76.3253 260.41 76.582 260.326 76.8246C260.242 77.058 260.172 77.254 260.116 77.4126L257.89 83.2646H256.35ZM258.03 80.8286L258.59 79.3726H263.042L263.686 80.8286H258.03ZM266.783 83.2646V75.9146H268.239V77.4826L267.973 77.6506C268.047 77.408 268.164 77.1746 268.323 76.9506C268.491 76.7266 268.691 76.5306 268.925 76.3626C269.167 76.1853 269.424 76.0453 269.695 75.9426C269.975 75.84 270.259 75.7886 270.549 75.7886C270.969 75.7886 271.337 75.8586 271.655 75.9986C271.972 76.1386 272.233 76.3486 272.439 76.6286C272.644 76.9086 272.793 77.2586 272.887 77.6786L272.663 77.6226L272.761 77.3846C272.863 77.17 273.003 76.9693 273.181 76.7826C273.367 76.5866 273.577 76.414 273.811 76.2646C274.044 76.1153 274.291 75.9986 274.553 75.9146C274.814 75.8306 275.071 75.7886 275.323 75.7886C275.873 75.7886 276.326 75.9006 276.681 76.1246C277.045 76.3486 277.315 76.6893 277.493 77.1466C277.679 77.604 277.773 78.1733 277.773 78.8546V83.2646H276.317V78.9386C276.317 78.5186 276.261 78.178 276.149 77.9166C276.046 77.646 275.887 77.4453 275.673 77.3146C275.458 77.184 275.183 77.1186 274.847 77.1186C274.585 77.1186 274.338 77.1653 274.105 77.2586C273.881 77.3426 273.685 77.464 273.517 77.6226C273.349 77.7813 273.218 77.968 273.125 78.1826C273.031 78.388 272.985 78.6166 272.985 78.8686V83.2646H271.529V78.9106C271.529 78.528 271.473 78.206 271.361 77.9446C271.249 77.674 271.085 77.4686 270.871 77.3286C270.656 77.1886 270.395 77.1186 270.087 77.1186C269.825 77.1186 269.583 77.1653 269.359 77.2586C269.135 77.3426 268.939 77.464 268.771 77.6226C268.603 77.772 268.472 77.954 268.379 78.1686C268.285 78.374 268.239 78.598 268.239 78.8406V83.2646H266.783ZM283.007 83.4046C282.289 83.4046 281.645 83.2413 281.075 82.9146C280.515 82.5786 280.072 82.126 279.745 81.5566C279.419 80.978 279.255 80.32 279.255 79.5826C279.255 78.8453 279.419 78.192 279.745 77.6226C280.072 77.044 280.515 76.5913 281.075 76.2646C281.645 75.9286 282.289 75.7606 283.007 75.7606C283.717 75.7606 284.351 75.9286 284.911 76.2646C285.481 76.5913 285.929 77.044 286.255 77.6226C286.582 78.192 286.745 78.8453 286.745 79.5826C286.745 80.32 286.582 80.978 286.255 81.5566C285.929 82.126 285.481 82.5786 284.911 82.9146C284.351 83.2413 283.717 83.4046 283.007 83.4046ZM283.007 82.0886C283.446 82.0886 283.838 81.9813 284.183 81.7666C284.529 81.5426 284.799 81.244 284.995 80.8706C285.191 80.488 285.285 80.0586 285.275 79.5826C285.285 79.0973 285.191 78.668 284.995 78.2946C284.799 77.912 284.529 77.6133 284.183 77.3986C283.838 77.184 283.446 77.0766 283.007 77.0766C282.569 77.0766 282.172 77.1886 281.817 77.4126C281.472 77.6273 281.201 77.926 281.005 78.3086C280.809 78.682 280.716 79.1066 280.725 79.5826C280.716 80.0586 280.809 80.488 281.005 80.8706C281.201 81.244 281.472 81.5426 281.817 81.7666C282.172 81.9813 282.569 82.0886 283.007 82.0886ZM290.893 83.4046C290.37 83.4046 289.913 83.2833 289.521 83.0406C289.138 82.798 288.839 82.4573 288.625 82.0186C288.419 81.58 288.317 81.0573 288.317 80.4506V75.9146H289.759V80.0586C289.759 80.488 289.824 80.8613 289.955 81.1786C290.095 81.4866 290.291 81.7246 290.543 81.8926C290.804 82.0606 291.117 82.1446 291.481 82.1446C291.751 82.1446 291.999 82.1026 292.223 82.0186C292.447 81.9253 292.638 81.7993 292.797 81.6406C292.965 81.482 293.095 81.2906 293.189 81.0666C293.282 80.8426 293.329 80.6 293.329 80.3386V75.9146H294.771V83.2646H293.329V81.7246L293.581 81.5566C293.469 81.902 293.277 82.2146 293.007 82.4946C292.745 82.7746 292.433 82.9986 292.069 83.1666C291.705 83.3253 291.313 83.4046 290.893 83.4046ZM296.793 83.2646V75.9146H298.235V77.4266L297.983 77.5946C298.076 77.268 298.258 76.9693 298.529 76.6986C298.8 76.4186 299.122 76.1946 299.495 76.0266C299.868 75.8493 300.251 75.7606 300.643 75.7606C301.203 75.7606 301.67 75.8726 302.043 76.0966C302.416 76.3113 302.696 76.6426 302.883 77.0906C303.07 77.5386 303.163 78.1033 303.163 78.7846V83.2646H301.721V78.8826C301.721 78.4626 301.665 78.1173 301.553 77.8466C301.441 77.5666 301.268 77.366 301.035 77.2446C300.802 77.114 300.512 77.058 300.167 77.0766C299.887 77.0766 299.63 77.1233 299.397 77.2166C299.164 77.3006 298.958 77.422 298.781 77.5806C298.613 77.7393 298.478 77.926 298.375 78.1406C298.282 78.346 298.235 78.57 298.235 78.8126V83.2646H297.521C297.4 83.2646 297.278 83.2646 297.157 83.2646C297.036 83.2646 296.914 83.2646 296.793 83.2646ZM306.029 83.2646V74.0386H307.471V83.2646H306.029ZM304.503 77.3146V75.9146H309.179V77.3146H304.503Z" fill="#6A6A78"/>
<path d="M318.224 84.4246C317.392 84.4246 316.667 84.2433 316.048 83.8806C315.429 83.5073 314.859 82.878 314.336 81.9926L315.904 81.0006C316.149 81.3953 316.4 81.7153 316.656 81.9606C316.923 82.1953 317.189 82.3713 317.456 82.4886C317.733 82.5953 318.027 82.6486 318.336 82.6486C318.688 82.6486 319.008 82.5633 319.296 82.3926C319.595 82.222 319.829 81.9873 320 81.6886C320.181 81.39 320.272 81.0486 320.272 80.6646C320.272 80.2806 320.197 79.9553 320.048 79.6886C319.909 79.422 319.701 79.2193 319.424 79.0806C319.157 78.9313 318.832 78.8566 318.448 78.8566C318.277 78.8566 318.096 78.878 317.904 78.9206C317.712 78.9526 317.509 79.006 317.296 79.0806C317.083 79.1446 316.848 79.2246 316.592 79.3206L316.08 77.9606L319.264 74.4406L319.744 74.9046L315.024 74.8726V73.0326H321.6L321.984 73.8006L318.304 77.8166L317.824 77.2886C317.909 77.246 318.048 77.2086 318.24 77.1766C318.443 77.134 318.619 77.1126 318.768 77.1126C319.237 77.1126 319.685 77.2033 320.112 77.3846C320.539 77.5553 320.907 77.8006 321.216 78.1206C321.536 78.4406 321.787 78.814 321.968 79.2406C322.149 79.6566 322.24 80.11 322.24 80.6006C322.24 81.3366 322.059 81.9926 321.696 82.5686C321.344 83.134 320.864 83.5873 320.256 83.9286C319.648 84.2593 318.971 84.4246 318.224 84.4246ZM323.949 84.2646L323.421 82.9526L326.781 79.1926C326.973 79.0006 327.17 78.782 327.373 78.5366C327.575 78.2806 327.767 78.0193 327.949 77.7526C328.141 77.4753 328.295 77.2086 328.413 76.9526C328.53 76.686 328.589 76.4406 328.589 76.2166C328.589 75.9286 328.525 75.678 328.397 75.4646C328.279 75.2513 328.109 75.086 327.885 74.9686C327.661 74.8513 327.383 74.7926 327.053 74.7926C326.765 74.7926 326.482 74.878 326.205 75.0486C325.938 75.2086 325.687 75.4433 325.453 75.7526C325.229 76.0513 325.042 76.4086 324.893 76.8246L323.325 75.8966C323.517 75.278 323.805 74.7446 324.189 74.2966C324.583 73.838 325.042 73.486 325.565 73.2406C326.098 72.9953 326.674 72.8726 327.293 72.8726C327.933 72.8726 328.503 73.006 329.005 73.2726C329.506 73.5393 329.901 73.9073 330.189 74.3766C330.487 74.846 330.637 75.3953 330.637 76.0246C330.637 76.2593 330.61 76.5046 330.557 76.7606C330.503 77.006 330.418 77.2673 330.301 77.5446C330.194 77.8113 330.05 78.094 329.869 78.3926C329.687 78.6806 329.469 78.9846 329.213 79.3046C328.967 79.6246 328.685 79.9606 328.365 80.3126L325.821 83.0806L325.501 82.3446H331.037V84.2646H323.949ZM333.162 84.4406C332.778 84.4406 332.479 84.3286 332.266 84.1046C332.063 83.8806 331.962 83.566 331.962 83.1606C331.962 82.7873 332.069 82.4833 332.282 82.2486C332.506 82.0033 332.799 81.8806 333.162 81.8806C333.546 81.8806 333.839 81.9926 334.042 82.2166C334.255 82.43 334.362 82.7446 334.362 83.1606C334.362 83.534 334.25 83.8433 334.026 84.0886C333.813 84.3233 333.525 84.4406 333.162 84.4406ZM339.583 84.3126C338.868 84.3126 338.212 84.1686 337.615 83.8806C337.028 83.582 336.559 83.1873 336.207 82.6966C335.855 82.1953 335.679 81.6406 335.679 81.0326C335.679 80.67 335.727 80.334 335.823 80.0246C335.929 79.7153 336.079 79.438 336.271 79.1926C336.473 78.9473 336.713 78.7286 336.991 78.5366C337.279 78.334 337.604 78.158 337.967 78.0086L337.839 78.4566C337.561 78.3393 337.305 78.2006 337.071 78.0406C336.847 77.8806 336.649 77.6993 336.479 77.4966C336.319 77.2833 336.196 77.0593 336.111 76.8246C336.025 76.5793 335.983 76.3233 335.983 76.0566C335.983 75.4806 336.143 74.9633 336.463 74.5046C336.793 74.046 337.231 73.6833 337.775 73.4166C338.319 73.1393 338.921 73.0006 339.583 73.0006C340.255 73.0006 340.863 73.1393 341.407 73.4166C341.951 73.6833 342.383 74.046 342.703 74.5046C343.033 74.9633 343.199 75.4806 343.199 76.0566C343.199 76.3233 343.156 76.5793 343.071 76.8246C342.985 77.0593 342.863 77.278 342.703 77.4806C342.553 77.6726 342.361 77.854 342.127 78.0246C341.892 78.1846 341.62 78.3286 341.311 78.4566L341.231 78.0726C341.572 78.19 341.881 78.3446 342.159 78.5366C342.436 78.7286 342.676 78.9526 342.879 79.2086C343.081 79.4646 343.236 79.7473 343.343 80.0566C343.46 80.366 343.519 80.6913 343.519 81.0326C343.519 81.6513 343.343 82.2113 342.991 82.7126C342.639 83.2033 342.164 83.5926 341.567 83.8806C340.98 84.1686 340.319 84.3126 339.583 84.3126ZM339.583 82.5206C339.945 82.5206 340.271 82.4513 340.559 82.3126C340.847 82.174 341.071 81.9873 341.231 81.7526C341.401 81.518 341.487 81.246 341.487 80.9366C341.487 80.606 341.401 80.318 341.231 80.0726C341.071 79.8166 340.847 79.6193 340.559 79.4806C340.271 79.3313 339.945 79.2566 339.583 79.2566C339.231 79.2566 338.911 79.3313 338.623 79.4806C338.345 79.6193 338.121 79.8166 337.951 80.0726C337.78 80.318 337.695 80.606 337.695 80.9366C337.695 81.2353 337.78 81.502 337.951 81.7366C338.121 81.9713 338.345 82.1633 338.623 82.3126C338.911 82.4513 339.231 82.5206 339.583 82.5206ZM339.583 77.4966C339.903 77.4966 340.185 77.438 340.431 77.3206C340.687 77.2033 340.884 77.0433 341.023 76.8406C341.161 76.638 341.231 76.4033 341.231 76.1366C341.231 75.8593 341.161 75.6193 341.023 75.4166C340.884 75.2033 340.687 75.038 340.431 74.9206C340.185 74.7926 339.903 74.7286 339.583 74.7286C339.273 74.7286 338.991 74.7926 338.735 74.9206C338.489 75.038 338.297 75.2033 338.159 75.4166C338.02 75.6193 337.951 75.8593 337.951 76.1366C337.951 76.4033 338.02 76.638 338.159 76.8406C338.297 77.0433 338.489 77.2033 338.735 77.3206C338.991 77.438 339.273 77.4966 339.583 77.4966ZM347.662 84.2646L347.598 84.1046L350.99 77.0326L351.182 78.2326C351.022 78.574 350.824 78.878 350.59 79.1446C350.366 79.4113 350.104 79.646 349.806 79.8486C349.518 80.0406 349.219 80.19 348.91 80.2966C348.6 80.3926 348.291 80.4406 347.982 80.4406C347.374 80.4406 346.814 80.2806 346.302 79.9606C345.79 79.63 345.379 79.198 345.07 78.6646C344.76 78.1206 344.606 77.5286 344.606 76.8886C344.606 76.1313 344.782 75.4486 345.134 74.8406C345.486 74.222 345.96 73.7366 346.558 73.3846C347.166 73.022 347.848 72.8406 348.606 72.8406C349.15 72.8406 349.662 72.942 350.142 73.1446C350.632 73.3366 351.054 73.6086 351.406 73.9606C351.768 74.3126 352.051 74.718 352.254 75.1766C352.467 75.6353 352.574 76.1206 352.574 76.6326C352.574 76.942 352.542 77.262 352.478 77.5926C352.424 77.9126 352.334 78.2646 352.206 78.6486C352.078 79.0326 351.912 79.454 351.71 79.9126C351.518 80.3713 351.283 80.894 351.006 81.4806L349.646 84.2646H347.662ZM348.446 78.6486C348.83 78.6486 349.176 78.5633 349.486 78.3926C349.795 78.2113 350.035 77.9766 350.206 77.6886C350.376 77.4006 350.462 77.07 350.462 76.6966C350.462 76.3126 350.376 75.966 350.206 75.6566C350.035 75.3473 349.8 75.1073 349.502 74.9366C349.203 74.7553 348.862 74.6646 348.478 74.6646C348.115 74.6646 347.795 74.75 347.518 74.9206C347.24 75.0913 347.016 75.3313 346.846 75.6406C346.686 75.9393 346.606 76.2913 346.606 76.6966C346.606 77.038 346.686 77.358 346.846 77.6566C347.016 77.9553 347.24 78.1953 347.518 78.3766C347.806 78.558 348.115 78.6486 348.446 78.6486Z" fill="#0B2330"/>
</g>
<defs>
<filter id="filter0_d_1270_33922" x="0" y="0" width="382" height="128" filterUnits="userSpaceOnUse" color-interpolation-filters="sRGB">
<feFlood flood-opacity="0" result="BackgroundImageFix"/>
<feColorMatrix in="SourceAlpha" type="matrix" values="0 0 0 0 0 0 0 0 0 0 0 0 0 0 0 0 0 0 127 0" result="hardAlpha"/>
<feOffset dy="4"/>
<feGaussianBlur stdDeviation="8"/>
<feComposite in2="hardAlpha" operator="out"/>
<feColorMatrix type="matrix" values="0 0 0 0 0 0 0 0 0 0 0 0 0 0 0 0 0 0 0.05 0"/>
<feBlend mode="normal" in2="BackgroundImageFix" result="effect1_dropShadow_1270_33922"/>
<feBlend mode="normal" in="SourceGraphic" in2="effect1_dropShadow_1270_33922" result="shape"/>
</filter>
<clipPath id="clip0_1270_33922">
<rect width="16" height="16" fill="white" transform="translate(234 47.2646)"/>
</clipPath>
</defs>
</svg>
