<svg width="382" height="125" viewBox="0 0 382 125" fill="none" xmlns="http://www.w3.org/2000/svg">
<g filter="url(#filter0_d_1270_33897)">
<path d="M16 28.3408C16 19.5043 23.1634 12.3408 32 12.3408H350C358.837 12.3408 366 19.5043 366 28.3408V88.6055C366 97.442 358.837 104.605 350 104.605H32C23.1634 104.605 16 97.442 16 88.6055V28.3408Z" fill="white" shape-rendering="crispEdges"/>
<path d="M32 12.8408H350C358.56 12.8408 365.5 19.7804 365.5 28.3408V88.6055C365.5 97.1659 358.56 104.105 350 104.105H32C23.4396 104.105 16.5 97.1659 16.5 88.6055V28.3408C16.5 19.7804 23.4396 12.8408 32 12.8408Z" stroke="#EBEBF5" shape-rendering="crispEdges"/>
<path d="M28 35.4731C28 29.3249 32.9841 24.3408 39.1323 24.3408H50.397C56.5452 24.3408 61.5293 29.3249 61.5293 35.4731C61.5293 41.6214 56.5452 46.6055 50.397 46.6055H39.1323C32.9841 46.6055 28 41.6214 28 35.4731Z" fill="#BDFFC4"/>
<path d="M35.2952 39.4731V31.7989H38.5622C39.0665 31.7989 39.4904 31.872 39.8339 32.0182C40.1848 32.1644 40.4479 32.3836 40.6233 32.676C40.806 32.961 40.8974 33.3082 40.8974 33.7175C40.8974 34.1414 40.7841 34.4995 40.5575 34.7919C40.3309 35.0842 40.013 35.2852 39.6037 35.3949L39.5927 35.1756C39.9363 35.2487 40.2359 35.3802 40.4917 35.5703C40.7475 35.753 40.9449 35.9832 41.0837 36.2609C41.2299 36.5314 41.303 36.842 41.303 37.1928C41.303 37.5656 41.2409 37.8945 41.1166 38.1795C40.9997 38.4645 40.8243 38.7021 40.5904 38.8921C40.3565 39.0821 40.0788 39.2283 39.7572 39.3306C39.4356 39.4256 39.0738 39.4731 38.6718 39.4731H35.2952ZM36.6875 38.1905H38.6061C38.8765 38.1905 39.1031 38.1503 39.2858 38.0699C39.4758 37.9895 39.6183 37.8725 39.7133 37.719C39.8157 37.5582 39.8668 37.3682 39.8668 37.149C39.8668 36.9443 39.812 36.7689 39.7024 36.6227C39.6 36.4765 39.4502 36.3669 39.2529 36.2938C39.0555 36.2134 38.8217 36.1732 38.5512 36.1732H36.6875V38.1905ZM36.6875 34.9454H38.4306C38.6426 34.9454 38.8253 34.9052 38.9788 34.8248C39.1396 34.7444 39.2638 34.6347 39.3516 34.4959C39.4393 34.357 39.4831 34.1962 39.4831 34.0135C39.4831 33.7211 39.3844 33.4946 39.1871 33.3338C38.9898 33.1657 38.7011 33.0816 38.321 33.0816H36.6875V34.9454ZM44.6081 39.5828C44.1915 39.5828 43.8297 39.4914 43.5228 39.3087C43.2158 39.1187 42.9819 38.8519 42.8211 38.5084C42.6603 38.1576 42.5799 37.741 42.5799 37.2586V33.6956H43.9284V36.9735C43.9284 37.2805 43.9759 37.5436 44.0709 37.7629C44.1659 37.9748 44.3048 38.1393 44.4875 38.2562C44.6702 38.3732 44.8895 38.4316 45.1453 38.4316C45.3353 38.4316 45.5071 38.4024 45.6606 38.3439C45.8214 38.2782 45.9602 38.1905 46.0772 38.0808C46.1941 37.9639 46.2855 37.8287 46.3513 37.6752C46.417 37.5144 46.4499 37.3426 46.4499 37.1599V33.6956H47.7984V39.4731H46.4828L46.4609 38.2672L46.7021 38.1356C46.6144 38.4134 46.4646 38.6619 46.2526 38.8811C46.048 39.0931 45.8031 39.2648 45.5181 39.3964C45.233 39.5207 44.9297 39.5828 44.6081 39.5828ZM50.2559 41.9947L51.4838 39.1552L51.4948 40.0542L48.6444 33.6956H50.2011L51.7908 37.4669C51.842 37.5619 51.8931 37.6898 51.9443 37.8506C51.9954 38.0041 52.0393 38.1576 52.0758 38.3111L51.8018 38.3988C51.8529 38.2599 51.9077 38.1137 51.9662 37.9602C52.0247 37.7994 52.0795 37.635 52.1306 37.4669L53.4901 33.6956H55.0578L52.6459 39.4731L51.6592 41.9947H50.2559Z" fill="#0B2330"/>
<path d="M59.5177 75.4759C57.3808 84.0475 48.6992 89.2639 40.1267 87.1265C31.5578 84.9895 26.3413 76.3074 28.4792 67.7366C30.6152 59.1642 39.2967 53.9473 47.8666 56.0842C56.4385 58.2212 61.6546 66.9042 59.5175 75.4761L59.5176 75.4759H59.5177Z" fill="#50AF95"/>
<path fill-rule="evenodd" clip-rule="evenodd" d="M46.0252 73.4193C45.912 73.4278 45.3275 73.4627 44.0236 73.4627C42.9866 73.4627 42.2503 73.4315 41.9919 73.4193C37.9841 73.243 34.9927 72.5453 34.9927 71.71C34.9927 70.8747 37.9841 70.178 41.9919 69.9989V72.7245C42.254 72.7433 43.0045 72.7876 44.0415 72.7876C45.286 72.7876 45.9092 72.7358 46.0214 72.7254V70.0007C50.0207 70.1789 53.0056 70.8766 53.0056 71.71C53.0056 72.5434 50.0216 73.2411 46.0214 73.4183L46.0252 73.4193ZM46.0249 69.7188V67.2798H51.6062V63.5605H36.4103V67.2798H41.9907V69.7179C37.4549 69.9262 34.0439 70.8247 34.0439 71.9014C34.0439 72.9781 37.4549 73.8756 41.9907 74.0849V81.9006H46.0239V74.0821C50.5493 73.8737 53.9547 72.9762 53.9547 71.9004C53.9547 70.8247 50.5522 69.9272 46.0239 69.7179L46.0249 69.7188Z" fill="white"/>
<path d="M72.158 78.1055V67.3775H68.63V65.5055H77.738V67.3775H74.102V78.1055H72.158ZM82.1041 78.2855C81.1321 78.2855 80.2681 78.0815 79.5121 77.6735C78.7681 77.2535 78.1801 76.6835 77.7481 75.9635C77.3281 75.2435 77.1181 74.4155 77.1181 73.4795C77.1181 72.7355 77.2381 72.0575 77.4781 71.4455C77.7181 70.8335 78.0481 70.3055 78.4681 69.8615C78.9001 69.4055 79.4101 69.0575 79.9981 68.8175C80.5981 68.5655 81.2461 68.4395 81.9421 68.4395C82.5541 68.4395 83.1241 68.5595 83.6521 68.7995C84.1801 69.0275 84.6361 69.3455 85.0201 69.7535C85.4161 70.1615 85.7161 70.6475 85.9201 71.2115C86.1361 71.7635 86.2381 72.3695 86.2261 73.0295L86.2081 73.8215H78.4861L78.0721 72.3455H84.6061L84.3361 72.6515V72.2195C84.3001 71.8235 84.1681 71.4695 83.9401 71.1575C83.7121 70.8455 83.4241 70.5995 83.0761 70.4195C82.7281 70.2395 82.3501 70.1495 81.9421 70.1495C81.2941 70.1495 80.7481 70.2755 80.3041 70.5275C79.8601 70.7675 79.5241 71.1275 79.2961 71.6075C79.0681 72.0755 78.9541 72.6575 78.9541 73.3535C78.9541 74.0135 79.0921 74.5895 79.3681 75.0815C79.6441 75.5615 80.0341 75.9335 80.5381 76.1975C81.0421 76.4615 81.6241 76.5935 82.2841 76.5935C82.7521 76.5935 83.1841 76.5155 83.5801 76.3595C83.9881 76.2035 84.4261 75.9215 84.8941 75.5135L85.8301 76.8275C85.5421 77.1155 85.1881 77.3675 84.7681 77.5835C84.3601 77.7995 83.9221 77.9735 83.4541 78.1055C82.9981 78.2255 82.5481 78.2855 82.1041 78.2855ZM89.231 78.1055V66.2435H91.085V78.1055H89.231ZM87.269 70.4555V68.6555H93.281V70.4555H87.269ZM94.7892 78.1055V64.7855H96.6432V70.5995L96.3192 70.8155C96.4392 70.3955 96.6732 70.0115 97.0212 69.6635C97.3692 69.3035 97.7832 69.0155 98.2632 68.7995C98.7432 68.5715 99.2352 68.4575 99.7392 68.4575C100.459 68.4575 101.059 68.6015 101.539 68.8895C102.019 69.1655 102.379 69.5915 102.619 70.1675C102.859 70.7435 102.979 71.4695 102.979 72.3455V78.1055H101.125V72.4715C101.125 71.9315 101.053 71.4875 100.909 71.1395C100.765 70.7795 100.543 70.5215 100.243 70.3655C99.9432 70.1975 99.5712 70.1255 99.1272 70.1495C98.7672 70.1495 98.4372 70.2095 98.1372 70.3295C97.8372 70.4375 97.5732 70.5935 97.3452 70.7975C97.1292 71.0015 96.9552 71.2415 96.8232 71.5175C96.7032 71.7815 96.6432 72.0695 96.6432 72.3815V78.1055H95.7252C95.5692 78.1055 95.4132 78.1055 95.2572 78.1055C95.1012 78.1055 94.9452 78.1055 94.7892 78.1055ZM109.724 78.2855C108.752 78.2855 107.888 78.0815 107.132 77.6735C106.388 77.2535 105.8 76.6835 105.368 75.9635C104.948 75.2435 104.738 74.4155 104.738 73.4795C104.738 72.7355 104.858 72.0575 105.098 71.4455C105.338 70.8335 105.668 70.3055 106.088 69.8615C106.52 69.4055 107.03 69.0575 107.618 68.8175C108.218 68.5655 108.866 68.4395 109.562 68.4395C110.174 68.4395 110.744 68.5595 111.272 68.7995C111.8 69.0275 112.256 69.3455 112.64 69.7535C113.036 70.1615 113.336 70.6475 113.54 71.2115C113.756 71.7635 113.858 72.3695 113.846 73.0295L113.828 73.8215H106.106L105.692 72.3455H112.226L111.956 72.6515V72.2195C111.92 71.8235 111.788 71.4695 111.56 71.1575C111.332 70.8455 111.044 70.5995 110.696 70.4195C110.348 70.2395 109.97 70.1495 109.562 70.1495C108.914 70.1495 108.368 70.2755 107.924 70.5275C107.48 70.7675 107.144 71.1275 106.916 71.6075C106.688 72.0755 106.574 72.6575 106.574 73.3535C106.574 74.0135 106.712 74.5895 106.988 75.0815C107.264 75.5615 107.654 75.9335 108.158 76.1975C108.662 76.4615 109.244 76.5935 109.904 76.5935C110.372 76.5935 110.804 76.5155 111.2 76.3595C111.608 76.2035 112.046 75.9215 112.514 75.5135L113.45 76.8275C113.162 77.1155 112.808 77.3675 112.388 77.5835C111.98 77.7995 111.542 77.9735 111.074 78.1055C110.618 78.2255 110.168 78.2855 109.724 78.2855ZM115.681 78.1055V68.6555H117.553V71.6255L117.373 70.9055C117.505 70.4495 117.727 70.0355 118.039 69.6635C118.363 69.2915 118.729 68.9975 119.137 68.7815C119.557 68.5655 119.989 68.4575 120.433 68.4575C120.637 68.4575 120.829 68.4755 121.009 68.5115C121.201 68.5475 121.351 68.5895 121.459 68.6375L120.973 70.6535C120.829 70.5935 120.667 70.5455 120.487 70.5095C120.319 70.4615 120.151 70.4375 119.983 70.4375C119.659 70.4375 119.347 70.5035 119.047 70.6355C118.759 70.7555 118.501 70.9295 118.273 71.1575C118.057 71.3735 117.883 71.6315 117.751 71.9315C117.619 72.2195 117.553 72.5375 117.553 72.8855V78.1055H115.681Z" fill="#0B2330"/>
<path d="M137.354 75.2519C137.158 75.4472 136.842 75.4472 136.646 75.2519L131.854 70.459C131.539 70.144 131.762 69.6055 132.207 69.6055H141.793C142.238 69.6055 142.461 70.144 142.146 70.459L137.354 75.2519Z" fill="#0B2330"/>
<path d="M255.35 65.6055L259.144 55.8055H260.684L264.45 65.6055H262.84L260.6 59.6975C260.572 59.6321 260.516 59.4735 260.432 59.2215C260.357 58.9695 260.269 58.6895 260.166 58.3815C260.063 58.0735 259.97 57.7935 259.886 57.5415C259.802 57.2801 259.746 57.1121 259.718 57.0375L260.04 57.0235C259.984 57.1821 259.914 57.3828 259.83 57.6255C259.755 57.8681 259.671 58.1248 259.578 58.3955C259.494 58.6661 259.41 58.9228 259.326 59.1655C259.242 59.3988 259.172 59.5948 259.116 59.7535L256.89 65.6055H255.35ZM257.03 63.1695L257.59 61.7135H262.042L262.686 63.1695H257.03ZM265.783 65.6055V58.2555H267.239V59.8235L266.973 59.9915C267.047 59.7488 267.164 59.5155 267.323 59.2915C267.491 59.0675 267.691 58.8715 267.925 58.7035C268.167 58.5261 268.424 58.3861 268.695 58.2835C268.975 58.1808 269.259 58.1295 269.549 58.1295C269.969 58.1295 270.337 58.1995 270.655 58.3395C270.972 58.4795 271.233 58.6895 271.439 58.9695C271.644 59.2495 271.793 59.5995 271.887 60.0195L271.663 59.9635L271.761 59.7255C271.863 59.5108 272.003 59.3101 272.181 59.1235C272.367 58.9275 272.577 58.7548 272.811 58.6055C273.044 58.4561 273.291 58.3395 273.553 58.2555C273.814 58.1715 274.071 58.1295 274.323 58.1295C274.873 58.1295 275.326 58.2415 275.681 58.4655C276.045 58.6895 276.315 59.0301 276.493 59.4875C276.679 59.9448 276.773 60.5141 276.773 61.1955V65.6055H275.317V61.2795C275.317 60.8595 275.261 60.5188 275.149 60.2575C275.046 59.9868 274.887 59.7861 274.673 59.6555C274.458 59.5248 274.183 59.4595 273.847 59.4595C273.585 59.4595 273.338 59.5061 273.105 59.5995C272.881 59.6835 272.685 59.8048 272.517 59.9635C272.349 60.1221 272.218 60.3088 272.125 60.5235C272.031 60.7288 271.985 60.9575 271.985 61.2095V65.6055H270.529V61.2515C270.529 60.8688 270.473 60.5468 270.361 60.2855C270.249 60.0148 270.085 59.8095 269.871 59.6695C269.656 59.5295 269.395 59.4595 269.087 59.4595C268.825 59.4595 268.583 59.5061 268.359 59.5995C268.135 59.6835 267.939 59.8048 267.771 59.9635C267.603 60.1128 267.472 60.2948 267.379 60.5095C267.285 60.7148 267.239 60.9388 267.239 61.1815V65.6055H265.783ZM282.007 65.7455C281.289 65.7455 280.645 65.5821 280.075 65.2555C279.515 64.9195 279.072 64.4668 278.745 63.8975C278.419 63.3188 278.255 62.6608 278.255 61.9235C278.255 61.1861 278.419 60.5328 278.745 59.9635C279.072 59.3848 279.515 58.9321 280.075 58.6055C280.645 58.2695 281.289 58.1015 282.007 58.1015C282.717 58.1015 283.351 58.2695 283.911 58.6055C284.481 58.9321 284.929 59.3848 285.255 59.9635C285.582 60.5328 285.745 61.1861 285.745 61.9235C285.745 62.6608 285.582 63.3188 285.255 63.8975C284.929 64.4668 284.481 64.9195 283.911 65.2555C283.351 65.5821 282.717 65.7455 282.007 65.7455ZM282.007 64.4295C282.446 64.4295 282.838 64.3221 283.183 64.1075C283.529 63.8835 283.799 63.5848 283.995 63.2115C284.191 62.8288 284.285 62.3995 284.275 61.9235C284.285 61.4381 284.191 61.0088 283.995 60.6355C283.799 60.2528 283.529 59.9541 283.183 59.7395C282.838 59.5248 282.446 59.4175 282.007 59.4175C281.569 59.4175 281.172 59.5295 280.817 59.7535C280.472 59.9681 280.201 60.2668 280.005 60.6495C279.809 61.0228 279.716 61.4475 279.725 61.9235C279.716 62.3995 279.809 62.8288 280.005 63.2115C280.201 63.5848 280.472 63.8835 280.817 64.1075C281.172 64.3221 281.569 64.4295 282.007 64.4295ZM289.893 65.7455C289.37 65.7455 288.913 65.6241 288.521 65.3815C288.138 65.1388 287.839 64.7981 287.625 64.3595C287.419 63.9208 287.317 63.3981 287.317 62.7915V58.2555H288.759V62.3995C288.759 62.8288 288.824 63.2021 288.955 63.5195C289.095 63.8275 289.291 64.0655 289.543 64.2335C289.804 64.4015 290.117 64.4855 290.481 64.4855C290.751 64.4855 290.999 64.4435 291.223 64.3595C291.447 64.2661 291.638 64.1401 291.797 63.9815C291.965 63.8228 292.095 63.6315 292.189 63.4075C292.282 63.1835 292.329 62.9408 292.329 62.6795V58.2555H293.771V65.6055H292.329V64.0655L292.581 63.8975C292.469 64.2428 292.277 64.5555 292.007 64.8355C291.745 65.1155 291.433 65.3395 291.069 65.5075C290.705 65.6661 290.313 65.7455 289.893 65.7455ZM295.793 65.6055V58.2555H297.235V59.7675L296.983 59.9355C297.076 59.6088 297.258 59.3101 297.529 59.0395C297.8 58.7595 298.122 58.5355 298.495 58.3675C298.868 58.1901 299.251 58.1015 299.643 58.1015C300.203 58.1015 300.67 58.2135 301.043 58.4375C301.416 58.6521 301.696 58.9835 301.883 59.4315C302.07 59.8795 302.163 60.4441 302.163 61.1255V65.6055H300.721V61.2235C300.721 60.8035 300.665 60.4581 300.553 60.1875C300.441 59.9075 300.268 59.7068 300.035 59.5855C299.802 59.4548 299.512 59.3988 299.167 59.4175C298.887 59.4175 298.63 59.4641 298.397 59.5575C298.164 59.6415 297.958 59.7628 297.781 59.9215C297.613 60.0801 297.478 60.2668 297.375 60.4815C297.282 60.6868 297.235 60.9108 297.235 61.1535V65.6055H296.521C296.4 65.6055 296.278 65.6055 296.157 65.6055C296.036 65.6055 295.914 65.6055 295.793 65.6055ZM305.029 65.6055V56.3795H306.471V65.6055H305.029ZM303.503 59.6555V58.2555H308.179V59.6555H303.503Z" fill="#6A6A78"/>
<path d="M318.616 66.6055V57.5655L319.384 57.6455L315.576 62.3015L315.4 62.0135H322.52V63.8215H314.28L313.416 62.1575L318.984 55.3735H320.616V66.6055H318.616ZM327.252 66.7175C326.474 66.7175 325.77 66.5521 325.14 66.2215C324.511 65.8801 323.988 65.3895 323.572 64.7495L324.724 63.5015C325.194 64.0241 325.615 64.3868 325.988 64.5895C326.362 64.7815 326.772 64.8775 327.22 64.8775C327.626 64.8775 327.988 64.7921 328.308 64.6215C328.628 64.4401 328.884 64.2001 329.076 63.9015C329.268 63.5921 329.364 63.2561 329.364 62.8935C329.364 62.4988 329.274 62.1521 329.092 61.8535C328.911 61.5441 328.666 61.2988 328.356 61.1175C328.047 60.9361 327.695 60.8455 327.3 60.8455C327.087 60.8455 326.884 60.8615 326.692 60.8935C326.5 60.9255 326.276 60.9895 326.02 61.0855C325.775 61.1815 325.46 61.3308 325.076 61.5335L324.084 60.1895L324.74 55.3735H330.932V57.2135H325.908L326.372 56.7015L325.844 60.2535L325.252 59.8375C325.391 59.7095 325.594 59.5868 325.86 59.4695C326.138 59.3521 326.436 59.2561 326.756 59.1815C327.076 59.1068 327.391 59.0695 327.7 59.0695C328.394 59.0695 329.012 59.2295 329.556 59.5495C330.1 59.8695 330.532 60.3121 330.852 60.8775C331.172 61.4321 331.332 62.0721 331.332 62.7975C331.332 63.5335 331.151 64.2001 330.788 64.7975C330.436 65.3841 329.951 65.8535 329.332 66.2055C328.714 66.5468 328.02 66.7175 327.252 66.7175ZM333.99 66.7815C333.606 66.7815 333.308 66.6695 333.094 66.4455C332.892 66.2215 332.79 65.9068 332.79 65.5015C332.79 65.1281 332.897 64.8241 333.11 64.5895C333.334 64.3441 333.628 64.2215 333.99 64.2215C334.374 64.2215 334.668 64.3335 334.87 64.5575C335.084 64.7708 335.19 65.0855 335.19 65.5015C335.19 65.8748 335.078 66.1841 334.854 66.4295C334.641 66.6641 334.353 66.7815 333.99 66.7815ZM339.963 66.7655C339.131 66.7655 338.405 66.5841 337.787 66.2215C337.168 65.8481 336.597 65.2188 336.075 64.3335L337.643 63.3415C337.888 63.7361 338.139 64.0561 338.395 64.3015C338.661 64.5361 338.928 64.7121 339.195 64.8295C339.472 64.9361 339.765 64.9895 340.075 64.9895C340.427 64.9895 340.747 64.9041 341.035 64.7335C341.333 64.5628 341.568 64.3281 341.739 64.0295C341.92 63.7308 342.011 63.3895 342.011 63.0055C342.011 62.6215 341.936 62.2961 341.787 62.0295C341.648 61.7628 341.44 61.5601 341.163 61.4215C340.896 61.2721 340.571 61.1975 340.187 61.1975C340.016 61.1975 339.835 61.2188 339.643 61.2615C339.451 61.2935 339.248 61.3468 339.035 61.4215C338.821 61.4855 338.587 61.5655 338.331 61.6615L337.819 60.3015L341.003 56.7815L341.483 57.2455L336.763 57.2135V55.3735H343.339L343.723 56.1415L340.043 60.1575L339.563 59.6295C339.648 59.5868 339.787 59.5495 339.979 59.5175C340.181 59.4748 340.357 59.4535 340.507 59.4535C340.976 59.4535 341.424 59.5441 341.851 59.7255C342.277 59.8961 342.645 60.1415 342.955 60.4615C343.275 60.7815 343.525 61.1548 343.707 61.5815C343.888 61.9975 343.979 62.4508 343.979 62.9415C343.979 63.6775 343.797 64.3335 343.435 64.9095C343.083 65.4748 342.603 65.9281 341.995 66.2695C341.387 66.6001 340.709 66.7655 339.963 66.7655ZM346.023 66.6055L350.615 56.4615L350.999 57.2455H345.271V55.3735H352.327L352.567 56.5415L348.183 66.6055H346.023Z" fill="#0B2330"/>
<g clip-path="url(#clip0_1270_33897)">
<path d="M237.423 79.4438C239.413 78.4105 241.944 77.4572 244.306 76.8762C244.997 76.7062 245.711 76.9618 246.071 77.5758C246.327 78.0145 246.641 78.6158 246.972 79.4018M248.625 82.6278C248.604 82.0703 248.571 81.5133 248.527 80.9572C248.458 80.1068 247.797 79.4672 246.946 79.4082C245.966 79.3402 244.454 79.2722 242.333 79.2722C240.212 79.2722 238.7 79.3402 237.72 79.4082C236.869 79.4668 236.209 80.1068 236.14 80.9572C236.068 81.8352 236 83.1432 236 84.9388C236 86.7345 236.068 88.0422 236.14 88.9205C236.209 89.7708 236.869 90.4105 237.72 90.4695C238.7 90.5375 240.212 90.6055 242.333 90.6055C244.454 90.6055 245.967 90.5375 246.946 90.4695C247.797 90.4108 248.458 89.7708 248.527 88.9205C248.563 88.4762 248.599 87.9218 248.625 87.2498M244.688 85.9798C244.72 86.6898 245.267 87.2188 245.977 87.2472C246.338 87.2618 246.788 87.2722 247.333 87.2722C247.879 87.2722 248.328 87.2618 248.69 87.2472C249.4 87.2188 249.947 86.6898 249.979 85.9798C249.991 85.6908 250 85.3452 250 84.9388C250 84.5322 249.991 84.1868 249.979 83.8978C249.947 83.1878 249.4 82.6588 248.69 82.6305C248.238 82.6132 247.786 82.6048 247.333 82.6055C246.788 82.6055 246.338 82.6158 245.977 82.6305C245.267 82.6588 244.72 83.1878 244.688 83.8978C244.673 84.2446 244.666 84.5917 244.667 84.9388C244.667 85.3455 244.675 85.6908 244.688 85.9798Z" stroke="#6A6A78" stroke-width="1.2" stroke-linecap="round" stroke-linejoin="round"/>
<path d="M247 84.6055V85.2721" stroke="#6A6A78" stroke-width="1.2" stroke-linecap="round" stroke-linejoin="round"/>
</g>
<path d="M256.442 88.6055V78.8055H260.418C260.987 78.8055 261.477 78.9081 261.888 79.1135C262.308 79.3095 262.63 79.5941 262.854 79.9675C263.078 80.3315 263.19 80.7655 263.19 81.2695C263.19 81.8108 263.036 82.2775 262.728 82.6695C262.42 83.0521 262 83.3181 261.468 83.4675L261.44 83.2015C261.897 83.2855 262.294 83.4488 262.63 83.6915C262.966 83.9248 263.227 84.2141 263.414 84.5595C263.61 84.9048 263.708 85.2921 263.708 85.7215C263.708 86.1601 263.633 86.5568 263.484 86.9115C263.335 87.2661 263.12 87.5695 262.84 87.8215C262.569 88.0735 262.238 88.2695 261.846 88.4095C261.463 88.5401 261.034 88.6055 260.558 88.6055H256.442ZM257.534 87.5415H260.474C260.894 87.5415 261.258 87.4715 261.566 87.3315C261.883 87.1821 262.126 86.9721 262.294 86.7015C262.471 86.4308 262.56 86.1181 262.56 85.7635C262.56 85.4275 262.467 85.1335 262.28 84.8815C262.103 84.6295 261.851 84.4335 261.524 84.2935C261.207 84.1535 260.833 84.0835 260.404 84.0835H257.534V87.5415ZM257.534 83.0195H260.334C260.67 83.0195 260.969 82.9541 261.23 82.8235C261.491 82.6835 261.697 82.4968 261.846 82.2635C261.995 82.0208 262.07 81.7501 262.07 81.4515C262.07 80.9755 261.907 80.5928 261.58 80.3035C261.263 80.0141 260.815 79.8695 260.236 79.8695H257.534V83.0195ZM268.117 88.7455C267.482 88.7455 266.908 88.5821 266.395 88.2555C265.882 87.9195 265.476 87.4668 265.177 86.8975C264.878 86.3188 264.729 85.6655 264.729 84.9375C264.729 84.2001 264.883 83.5468 265.191 82.9775C265.499 82.4081 265.91 81.9601 266.423 81.6335C266.946 81.3068 267.529 81.1435 268.173 81.1435C268.556 81.1435 268.91 81.1995 269.237 81.3115C269.564 81.4235 269.853 81.5821 270.105 81.7875C270.366 81.9835 270.581 82.2168 270.749 82.4875C270.926 82.7488 271.048 83.0335 271.113 83.3415L270.805 83.1875L270.847 81.2975H271.897V88.6055H270.833V86.8135L271.113 86.6315C271.048 86.9115 270.922 87.1821 270.735 87.4435C270.548 87.6955 270.32 87.9195 270.049 88.1155C269.788 88.3115 269.489 88.4655 269.153 88.5775C268.826 88.6895 268.481 88.7455 268.117 88.7455ZM268.355 87.7375C268.84 87.7375 269.274 87.6208 269.657 87.3875C270.04 87.1448 270.338 86.8135 270.553 86.3935C270.777 85.9641 270.889 85.4788 270.889 84.9375C270.889 84.3961 270.777 83.9155 270.553 83.4955C270.338 83.0755 270.04 82.7441 269.657 82.5015C269.274 82.2588 268.84 82.1375 268.355 82.1375C267.86 82.1375 267.422 82.2588 267.039 82.5015C266.666 82.7441 266.367 83.0755 266.143 83.4955C265.928 83.9155 265.821 84.3961 265.821 84.9375C265.821 85.4695 265.928 85.9501 266.143 86.3795C266.358 86.7995 266.656 87.1308 267.039 87.3735C267.422 87.6161 267.86 87.7375 268.355 87.7375ZM273.831 88.6055V78.2455H274.881V88.6055H273.831ZM279.526 88.7455C278.892 88.7455 278.318 88.5821 277.804 88.2555C277.291 87.9195 276.885 87.4668 276.586 86.8975C276.288 86.3188 276.138 85.6655 276.138 84.9375C276.138 84.2001 276.292 83.5468 276.6 82.9775C276.908 82.4081 277.319 81.9601 277.832 81.6335C278.355 81.3068 278.938 81.1435 279.582 81.1435C279.965 81.1435 280.32 81.1995 280.646 81.3115C280.973 81.4235 281.262 81.5821 281.514 81.7875C281.776 81.9835 281.99 82.2168 282.158 82.4875C282.336 82.7488 282.457 83.0335 282.522 83.3415L282.214 83.1875L282.256 81.2975H283.306V88.6055H282.242V86.8135L282.522 86.6315C282.457 86.9115 282.331 87.1821 282.144 87.4435C281.958 87.6955 281.729 87.9195 281.458 88.1155C281.197 88.3115 280.898 88.4655 280.562 88.5775C280.236 88.6895 279.89 88.7455 279.526 88.7455ZM279.764 87.7375C280.25 87.7375 280.684 87.6208 281.066 87.3875C281.449 87.1448 281.748 86.8135 281.962 86.3935C282.186 85.9641 282.298 85.4788 282.298 84.9375C282.298 84.3961 282.186 83.9155 281.962 83.4955C281.748 83.0755 281.449 82.7441 281.066 82.5015C280.684 82.2588 280.25 82.1375 279.764 82.1375C279.27 82.1375 278.831 82.2588 278.448 82.5015C278.075 82.7441 277.776 83.0755 277.552 83.4955C277.338 83.9155 277.23 84.3961 277.23 84.9375C277.23 85.4695 277.338 85.9501 277.552 86.3795C277.767 86.7995 278.066 87.1308 278.448 87.3735C278.831 87.6161 279.27 87.7375 279.764 87.7375ZM285.212 88.6055V81.2975H286.248L286.29 82.8235L286.122 82.8935C286.215 82.5761 286.397 82.2868 286.668 82.0255C286.939 81.7641 287.261 81.5541 287.634 81.3955C288.017 81.2275 288.409 81.1435 288.81 81.1435C289.351 81.1435 289.804 81.2508 290.168 81.4655C290.532 81.6801 290.807 82.0115 290.994 82.4595C291.181 82.9075 291.274 83.4768 291.274 84.1675V88.6055H290.21V84.2235C290.21 83.7381 290.145 83.3415 290.014 83.0335C289.893 82.7161 289.701 82.4828 289.44 82.3335C289.179 82.1841 288.857 82.1141 288.474 82.1235C288.157 82.1235 287.863 82.1795 287.592 82.2915C287.321 82.3941 287.088 82.5388 286.892 82.7255C286.696 82.9121 286.542 83.1268 286.43 83.3695C286.318 83.6121 286.262 83.8735 286.262 84.1535V88.6055H285.744C285.679 88.6055 285.604 88.6055 285.52 88.6055C285.436 88.6055 285.333 88.6055 285.212 88.6055ZM296.218 88.7455C295.528 88.7455 294.912 88.5821 294.37 88.2555C293.829 87.9195 293.4 87.4668 293.082 86.8975C292.774 86.3188 292.62 85.6655 292.62 84.9375C292.62 84.2095 292.774 83.5608 293.082 82.9915C293.4 82.4128 293.829 81.9601 294.37 81.6335C294.912 81.3068 295.532 81.1435 296.232 81.1435C296.858 81.1435 297.427 81.2695 297.94 81.5215C298.454 81.7641 298.864 82.1048 299.172 82.5435L298.556 83.2995C298.379 83.0661 298.164 82.8608 297.912 82.6835C297.67 82.5061 297.404 82.3708 297.114 82.2775C296.834 82.1748 296.554 82.1235 296.274 82.1235C295.78 82.1235 295.336 82.2495 294.944 82.5015C294.552 82.7441 294.24 83.0755 294.006 83.4955C293.782 83.9155 293.67 84.3961 293.67 84.9375C293.67 85.4788 293.782 85.9641 294.006 86.3935C294.24 86.8135 294.552 87.1448 294.944 87.3875C295.336 87.6301 295.775 87.7515 296.26 87.7515C296.54 87.7515 296.816 87.7095 297.086 87.6255C297.357 87.5321 297.614 87.4015 297.856 87.2335C298.099 87.0655 298.323 86.8555 298.528 86.6035L299.144 87.3595C298.827 87.7795 298.402 88.1155 297.87 88.3675C297.338 88.6195 296.788 88.7455 296.218 88.7455ZM303.588 88.7455C302.86 88.7455 302.211 88.5868 301.642 88.2695C301.082 87.9521 300.643 87.5088 300.326 86.9395C300.008 86.3701 299.85 85.7168 299.85 84.9795C299.85 84.4101 299.938 83.8968 300.116 83.4395C300.293 82.9728 300.54 82.5668 300.858 82.2215C301.184 81.8761 301.572 81.6101 302.02 81.4235C302.468 81.2275 302.953 81.1295 303.476 81.1295C303.97 81.1295 304.418 81.2181 304.82 81.3955C305.23 81.5728 305.58 81.8201 305.87 82.1375C306.168 82.4455 306.392 82.8141 306.542 83.2435C306.691 83.6728 306.756 84.1441 306.738 84.6575L306.724 85.1475H300.634L300.48 84.2655H305.926L305.674 84.5035V84.1675C305.655 83.8315 305.557 83.5095 305.38 83.2015C305.202 82.8841 304.95 82.6275 304.624 82.4315C304.306 82.2355 303.924 82.1375 303.476 82.1375C302.953 82.1375 302.5 82.2448 302.118 82.4595C301.735 82.6648 301.441 82.9728 301.236 83.3835C301.03 83.7941 300.928 84.3028 300.928 84.9095C300.928 85.4881 301.04 85.9921 301.264 86.4215C301.488 86.8415 301.805 87.1681 302.216 87.4015C302.636 87.6348 303.14 87.7515 303.728 87.7515C304.073 87.7515 304.414 87.6955 304.75 87.5835C305.095 87.4621 305.473 87.2288 305.884 86.8835L306.43 87.6395C306.215 87.8541 305.958 88.0455 305.66 88.2135C305.361 88.3721 305.034 88.5028 304.68 88.6055C304.325 88.6988 303.961 88.7455 303.588 88.7455Z" fill="#6A6A78"/>
<path d="M316.06 88.6475C315.453 88.6475 314.898 88.5215 314.394 88.2695C313.899 88.0081 313.503 87.6628 313.204 87.2335C312.905 86.7948 312.756 86.3141 312.756 85.7915C312.756 85.5021 312.798 85.2315 312.882 84.9795C312.975 84.7181 313.106 84.4801 313.274 84.2655C313.451 84.0415 313.666 83.8408 313.918 83.6635C314.17 83.4768 314.459 83.3181 314.786 83.1875L314.702 83.4815C314.45 83.4068 314.221 83.2995 314.016 83.1595C313.811 83.0195 313.638 82.8608 313.498 82.6835C313.358 82.4968 313.251 82.2961 313.176 82.0815C313.101 81.8575 313.064 81.6288 313.064 81.3955C313.064 80.9195 313.195 80.4855 313.456 80.0935C313.727 79.7015 314.086 79.3888 314.534 79.1555C314.991 78.9221 315.5 78.8055 316.06 78.8055C316.611 78.8055 317.11 78.9221 317.558 79.1555C318.015 79.3888 318.375 79.7015 318.636 80.0935C318.907 80.4855 319.042 80.9195 319.042 81.3955C319.042 81.6288 319.005 81.8528 318.93 82.0675C318.865 82.2821 318.762 82.4828 318.622 82.6695C318.482 82.8468 318.305 83.0055 318.09 83.1455C317.885 83.2855 317.651 83.3975 317.39 83.4815L317.348 83.2435C317.647 83.3461 317.917 83.4908 318.16 83.6775C318.412 83.8548 318.627 84.0555 318.804 84.2795C318.981 84.5035 319.117 84.7461 319.21 85.0075C319.313 85.2595 319.364 85.5208 319.364 85.7915C319.364 86.3235 319.215 86.8088 318.916 87.2475C318.627 87.6768 318.23 88.0175 317.726 88.2695C317.231 88.5215 316.676 88.6475 316.06 88.6475ZM316.06 87.6115C316.48 87.6115 316.853 87.5321 317.18 87.3735C317.516 87.2055 317.777 86.9815 317.964 86.7015C318.16 86.4215 318.258 86.1088 318.258 85.7635C318.258 85.4088 318.16 85.0961 317.964 84.8255C317.777 84.5455 317.516 84.3261 317.18 84.1675C316.853 83.9995 316.48 83.9155 316.06 83.9155C315.64 83.9155 315.262 83.9995 314.926 84.1675C314.599 84.3261 314.338 84.5455 314.142 84.8255C313.955 85.0961 313.862 85.4088 313.862 85.7635C313.862 86.1088 313.955 86.4215 314.142 86.7015C314.338 86.9721 314.599 87.1915 314.926 87.3595C315.262 87.5275 315.64 87.6115 316.06 87.6115ZM316.06 82.9775C316.415 82.9775 316.732 82.9121 317.012 82.7815C317.301 82.6508 317.525 82.4688 317.684 82.2355C317.852 82.0021 317.936 81.7315 317.936 81.4235C317.936 81.1248 317.852 80.8588 317.684 80.6255C317.525 80.3828 317.301 80.1915 317.012 80.0515C316.732 79.9115 316.415 79.8415 316.06 79.8415C315.696 79.8415 315.369 79.9115 315.08 80.0515C314.8 80.1915 314.576 80.3828 314.408 80.6255C314.249 80.8588 314.17 81.1248 314.17 81.4235C314.17 81.7221 314.249 81.9928 314.408 82.2355C314.576 82.4688 314.8 82.6508 315.08 82.7815C315.369 82.9121 315.696 82.9775 316.06 82.9775ZM321.479 88.6055L325.595 79.4495L325.777 79.8275H320.527V78.8055H326.435L326.617 79.6595L322.669 88.6055H321.479ZM330.874 88.6755C330.389 88.6755 329.936 88.5915 329.516 88.4235C329.106 88.2555 328.746 88.0175 328.438 87.7095C328.14 87.3921 327.906 87.0235 327.738 86.6035C327.57 86.1741 327.486 85.7075 327.486 85.2035C327.486 84.9608 327.519 84.6948 327.584 84.4055C327.65 84.1068 327.748 83.7848 327.878 83.4395C328.009 83.0848 328.168 82.7161 328.354 82.3335C328.541 81.9508 328.756 81.5541 328.998 81.1435L330.426 78.7215H331.49L331.546 78.8615L329.964 81.5215C329.74 81.8948 329.535 82.2635 329.348 82.6275C329.171 82.9915 329.003 83.3601 328.844 83.7335C328.686 84.0975 328.532 84.4708 328.382 84.8535L328.186 83.8455C328.364 83.5468 328.555 83.2855 328.76 83.0615C328.975 82.8375 329.204 82.6461 329.446 82.4875C329.689 82.3195 329.946 82.1981 330.216 82.1235C330.496 82.0395 330.781 81.9975 331.07 81.9975C331.64 81.9975 332.153 82.1468 332.61 82.4455C333.077 82.7348 333.45 83.1221 333.73 83.6075C334.01 84.0928 334.15 84.6341 334.15 85.2315C334.15 85.8848 334.006 86.4728 333.716 86.9955C333.427 87.5181 333.03 87.9288 332.526 88.2275C332.032 88.5261 331.481 88.6755 330.874 88.6755ZM330.832 87.6535C331.252 87.6535 331.63 87.5508 331.966 87.3455C332.302 87.1401 332.568 86.8648 332.764 86.5195C332.96 86.1648 333.058 85.7681 333.058 85.3295C333.058 84.9188 332.96 84.5408 332.764 84.1955C332.568 83.8408 332.302 83.5608 331.966 83.3555C331.63 83.1408 331.257 83.0335 330.846 83.0335C330.408 83.0335 330.016 83.1361 329.67 83.3415C329.334 83.5468 329.068 83.8221 328.872 84.1675C328.676 84.5128 328.578 84.8955 328.578 85.3155C328.578 85.7541 328.676 86.1508 328.872 86.5055C329.068 86.8508 329.334 87.1308 329.67 87.3455C330.016 87.5508 330.403 87.6535 330.832 87.6535ZM336.281 88.7455C336.029 88.7455 335.833 88.6708 335.693 88.5215C335.563 88.3721 335.497 88.1575 335.497 87.8775C335.497 87.6255 335.567 87.4201 335.707 87.2615C335.857 87.0935 336.048 87.0095 336.281 87.0095C336.533 87.0095 336.725 87.0888 336.855 87.2475C336.995 87.3968 337.065 87.6068 337.065 87.8775C337.065 88.1388 336.991 88.3488 336.841 88.5075C336.701 88.6661 336.515 88.7455 336.281 88.7455ZM341.315 88.7455C340.624 88.7455 340.013 88.5915 339.481 88.2835C338.958 87.9661 338.468 87.4295 338.011 86.6735L338.907 86.1135C339.159 86.5148 339.416 86.8368 339.677 87.0795C339.948 87.3128 340.223 87.4808 340.503 87.5835C340.783 87.6861 341.082 87.7375 341.399 87.7375C341.791 87.7375 342.15 87.6441 342.477 87.4575C342.804 87.2615 343.065 87.0001 343.261 86.6735C343.457 86.3375 343.555 85.9641 343.555 85.5535C343.555 85.1335 343.466 84.7648 343.289 84.4475C343.112 84.1301 342.864 83.8828 342.547 83.7055C342.239 83.5281 341.88 83.4395 341.469 83.4395C341.32 83.4395 341.156 83.4581 340.979 83.4955C340.811 83.5235 340.624 83.5841 340.419 83.6775C340.223 83.7615 340.008 83.8875 339.775 84.0555L339.453 83.1875L342.911 79.4215L343.149 79.8275H338.697V78.8055H343.989L344.269 79.3655L340.909 82.9495L340.629 82.6695C340.75 82.5948 340.895 82.5341 341.063 82.4875C341.231 82.4315 341.399 82.4035 341.567 82.4035C341.996 82.4035 342.398 82.4828 342.771 82.6415C343.144 82.8001 343.466 83.0241 343.737 83.3135C344.017 83.5935 344.236 83.9201 344.395 84.2935C344.554 84.6668 344.633 85.0728 344.633 85.5115C344.633 86.1181 344.488 86.6688 344.199 87.1635C343.91 87.6488 343.513 88.0361 343.009 88.3255C342.505 88.6055 341.94 88.7455 341.315 88.7455ZM350.321 88.6055V80.1075L350.629 80.2055L346.569 85.1615L346.457 84.9095H353.093V85.9455H346.051L345.533 84.9095L350.531 78.8055H351.385V88.6055H350.321Z" fill="#6A6A78"/>
</g>
<defs>
<filter id="filter0_d_1270_33897" x="0" y="0.34082" width="382" height="124.265" filterUnits="userSpaceOnUse" color-interpolation-filters="sRGB">
<feFlood flood-opacity="0" result="BackgroundImageFix"/>
<feColorMatrix in="SourceAlpha" type="matrix" values="0 0 0 0 0 0 0 0 0 0 0 0 0 0 0 0 0 0 127 0" result="hardAlpha"/>
<feOffset dy="4"/>
<feGaussianBlur stdDeviation="8"/>
<feComposite in2="hardAlpha" operator="out"/>
<feColorMatrix type="matrix" values="0 0 0 0 0 0 0 0 0 0 0 0 0 0 0 0 0 0 0.05 0"/>
<feBlend mode="normal" in2="BackgroundImageFix" result="effect1_dropShadow_1270_33897"/>
<feBlend mode="normal" in="SourceGraphic" in2="effect1_dropShadow_1270_33897" result="shape"/>
</filter>
<clipPath id="clip0_1270_33897">
<rect width="16" height="16" fill="white" transform="translate(235 75.6055)"/>
</clipPath>
</defs>
</svg>
