<svg width="40" height="40" viewBox="0 0 40 40" fill="none" xmlns="http://www.w3.org/2000/svg">
<circle cx="20" cy="20" r="20" fill="black"/>
<path d="M12.3984 24.7382C12.537 24.5996 12.7276 24.5188 12.9297 24.5188H31.2589C31.5938 24.5188 31.7613 24.923 31.5245 25.1598L27.9037 28.7806C27.7651 28.9192 27.5746 29 27.3724 29H9.04327C8.70834 29 8.54087 28.5958 8.77763 28.359L12.3984 24.7382Z" fill="url(#paint0_linear_1053_3236)"/>
<path d="M12.3984 11.2194C12.5428 11.0808 12.7334 11 12.9297 11H31.2589C31.5938 11 31.7613 11.4042 31.5245 11.641L27.9037 15.2618C27.7651 15.4004 27.5746 15.4812 27.3724 15.4812H9.04327C8.70834 15.4812 8.54087 15.077 8.77763 14.8402L12.3984 11.2194Z" fill="url(#paint1_linear_1053_3236)"/>
<path d="M27.9037 17.9355C27.7651 17.7969 27.5746 17.7161 27.3724 17.7161H9.04327C8.70834 17.7161 8.54087 18.1203 8.77763 18.3571L12.3984 21.9779C12.537 22.1164 12.7276 22.1973 12.9297 22.1973H31.2589C31.5938 22.1973 31.7613 21.7931 31.5245 21.5563L27.9037 17.9355Z" fill="url(#paint2_linear_1053_3236)"/>
<defs>
<linearGradient id="paint0_linear_1053_3236" x1="-32.7603" y1="7.59961" x2="-33.248" y2="32.1393" gradientUnits="userSpaceOnUse">
<stop stop-color="#00FFA3"/>
<stop offset="1" stop-color="#DC1FFF"/>
</linearGradient>
<linearGradient id="paint1_linear_1053_3236" x1="-38.307" y1="4.70375" x2="-38.7947" y2="29.2435" gradientUnits="userSpaceOnUse">
<stop stop-color="#00FFA3"/>
<stop offset="1" stop-color="#DC1FFF"/>
</linearGradient>
<linearGradient id="paint2_linear_1053_3236" x1="-35.5514" y1="6.14244" x2="-36.039" y2="30.6822" gradientUnits="userSpaceOnUse">
<stop stop-color="#00FFA3"/>
<stop offset="1" stop-color="#DC1FFF"/>
</linearGradient>
</defs>
</svg>
