<svg width="160" height="55" viewBox="0 0 160 55" fill="none" xmlns="http://www.w3.org/2000/svg">
<rect x="0.666667" y="1.50016" width="158.667" height="52" rx="7.33333" fill="black"/>
<rect x="0.666667" y="1.50016" width="158.667" height="52" rx="7.33333" stroke="#A6A6A6" stroke-width="1.33333"/>
<path d="M32.9397 28.5178C32.9558 27.2913 33.2896 26.0886 33.9097 25.0219C34.5299 23.9551 35.4164 23.0587 36.4867 22.4163C35.8068 21.4683 34.9098 20.688 33.8669 20.1376C32.8241 19.5872 31.6642 19.2818 30.4793 19.2456C27.9517 18.9866 25.5014 20.7222 24.2133 20.7222C22.9004 20.7222 20.9173 19.2713 18.7819 19.3142C17.4006 19.3578 16.0544 19.7499 14.8746 20.4524C13.6947 21.1549 12.7213 22.1439 12.0493 23.3228C9.13835 28.2433 11.3097 35.4749 14.0982 39.4523C15.4933 41.3999 17.1238 43.5754 19.2574 43.4983C21.3452 43.4137 22.1249 42.1985 24.645 42.1985C27.1418 42.1985 27.8733 43.4983 30.0502 43.4492C32.2905 43.4137 33.7019 41.493 35.0482 39.5269C36.0506 38.1392 36.8219 36.6054 37.3337 34.9824C36.0321 34.445 34.9214 33.5454 34.14 32.3958C33.3586 31.2462 32.9412 29.8975 32.9397 28.5178Z" fill="white"/>
<path d="M28.8285 16.6295C30.05 15.1979 30.6518 13.3578 30.5061 11.5C28.6399 11.6914 26.9161 12.5621 25.6781 13.9388C25.0728 14.6114 24.6092 15.3938 24.3138 16.2413C24.0185 17.0889 23.8971 17.985 23.9566 18.8784C24.89 18.8878 25.8135 18.6903 26.6574 18.3007C27.5013 17.9112 28.2436 17.3398 28.8285 16.6295Z" fill="white"/>
<path d="M49.0547 16.002H51.8145C54.1992 16.002 55.3594 17.4199 55.3594 19.9922C55.3594 22.5645 54.1875 24 51.8145 24H49.0547V16.002ZM50.3848 17.1211V22.8809H51.668C53.25 22.8809 53.9941 21.9258 53.9941 20.0098C53.9941 18.082 53.2441 17.1211 51.668 17.1211H50.3848ZM59.5664 17.7012C61.1836 17.7012 62.3145 18.75 62.3145 20.4902V21.293C62.3145 23.0918 61.1836 24.1055 59.5664 24.1055C57.9258 24.1055 56.8066 23.1035 56.8066 21.2988V20.4961C56.8066 18.8027 57.9434 17.7012 59.5664 17.7012ZM59.5723 18.75C58.6465 18.75 58.1191 19.5234 58.1191 20.5605V21.252C58.1191 22.2891 58.6113 23.0566 59.5723 23.0566C60.5215 23.0566 61.0078 22.2949 61.0078 21.252V20.5605C61.0078 19.5234 60.498 18.75 59.5723 18.75ZM71.8652 17.8066L70.2363 24H68.9121L67.6172 19.4297H67.582L66.3105 24H64.9805L63.2812 17.8066H64.6816L65.6777 22.5293H65.7363L66.9844 17.8066H68.209L69.4922 22.5293H69.5508L70.5645 17.8066H71.8652ZM73.1543 24V17.8066H74.4316V18.9199H74.4961C74.6543 18.4336 75.1055 17.7129 76.3594 17.7129C77.6074 17.7129 78.4453 18.4043 78.4453 19.8164V24H77.1445V20.1973C77.1445 19.2539 76.6523 18.8203 75.9199 18.8203C74.959 18.8203 74.4551 19.5586 74.4551 20.5605V24H73.1543ZM80.4141 24V15.5801H81.7148V24H80.4141ZM86.1797 17.7012C87.7969 17.7012 88.9277 18.75 88.9277 20.4902V21.293C88.9277 23.0918 87.7969 24.1055 86.1797 24.1055C84.5391 24.1055 83.4199 23.1035 83.4199 21.2988V20.4961C83.4199 18.8027 84.5566 17.7012 86.1797 17.7012ZM86.1855 18.75C85.2598 18.75 84.7324 19.5234 84.7324 20.5605V21.252C84.7324 22.2891 85.2246 23.0566 86.1855 23.0566C87.1348 23.0566 87.6211 22.2949 87.6211 21.252V20.5605C87.6211 19.5234 87.1113 18.75 86.1855 18.75ZM92.2969 24.0938C91.0957 24.0938 90.2695 23.3555 90.2695 22.2012C90.2695 21.1055 91.0312 20.3672 92.4609 20.3672H94.0254V19.7871C94.0254 19.0781 93.5742 18.7441 92.8594 18.7441C92.1562 18.7441 91.8398 19.0371 91.7402 19.4473H90.5039C90.5801 18.4102 91.3594 17.7129 92.9004 17.7129C94.2246 17.7129 95.3203 18.2637 95.3203 19.8047V24H94.084V23.1973H94.0254C93.75 23.6719 93.2109 24.0938 92.2969 24.0938ZM92.7012 23.0859C93.4395 23.0859 94.0254 22.582 94.0254 21.9082V21.2402H92.666C91.9102 21.2402 91.5762 21.6211 91.5762 22.1367C91.5762 22.7812 92.1152 23.0859 92.7012 23.0859ZM99.3281 17.7246C100.201 17.7246 100.869 18.1113 101.109 18.7383H101.174V15.5801H102.475V24H101.209V23.0098H101.145C100.957 23.6367 100.213 24.082 99.3105 24.082C97.8867 24.082 96.9609 23.0684 96.9609 21.4336V20.373C96.9609 18.7383 97.9043 17.7246 99.3281 17.7246ZM99.6914 18.791C98.8242 18.791 98.2852 19.4355 98.2852 20.5605V21.2402C98.2852 22.3711 98.8301 23.0156 99.7207 23.0156C100.6 23.0156 101.174 22.377 101.174 21.3223V20.3848C101.174 19.4297 100.547 18.791 99.6914 18.791ZM109.617 17.7012C111.234 17.7012 112.365 18.75 112.365 20.4902V21.293C112.365 23.0918 111.234 24.1055 109.617 24.1055C107.977 24.1055 106.857 23.1035 106.857 21.2988V20.4961C106.857 18.8027 107.994 17.7012 109.617 17.7012ZM109.623 18.75C108.697 18.75 108.17 19.5234 108.17 20.5605V21.252C108.17 22.2891 108.662 23.0566 109.623 23.0566C110.572 23.0566 111.059 22.2949 111.059 21.252V20.5605C111.059 19.5234 110.549 18.75 109.623 18.75ZM114.041 24V17.8066H115.318V18.9199H115.383C115.541 18.4336 115.992 17.7129 117.246 17.7129C118.494 17.7129 119.332 18.4043 119.332 19.8164V24H118.031V20.1973C118.031 19.2539 117.539 18.8203 116.807 18.8203C115.846 18.8203 115.342 19.5586 115.342 20.5605V24H114.041ZM124.365 17.8477V16.3008H125.637V17.8477H127.025V18.8672H125.637V22.1543C125.637 22.8281 125.889 23.0156 126.586 23.0156C126.762 23.0156 126.996 23.0039 127.096 22.9922V23.9883C126.99 24.0059 126.557 24.041 126.264 24.041C124.758 24.041 124.348 23.502 124.348 22.2598V18.8672H123.404V17.8477H124.365ZM128.666 24V15.5801H129.961V18.9199H130.025C130.16 18.4805 130.664 17.7129 131.906 17.7129C133.113 17.7129 133.975 18.4102 133.975 19.8223V24H132.68V20.2031C132.68 19.2598 132.158 18.8203 131.42 18.8203C130.488 18.8203 129.961 19.5527 129.961 20.5605V24H128.666ZM138.34 24.1055C136.652 24.1055 135.604 23.0684 135.604 21.3223V20.4844C135.604 18.7266 136.752 17.7012 138.264 17.7012C139.816 17.7012 140.912 18.7793 140.912 20.4844V21.2109H136.893V21.5156C136.893 22.4062 137.42 23.0625 138.334 23.0625C139.014 23.0625 139.482 22.7402 139.57 22.3535H140.842C140.766 23.0684 140.01 24.1055 138.34 24.1055ZM136.893 20.3613H139.641V20.2793C139.641 19.3477 139.096 18.7266 138.27 18.7266C137.443 18.7266 136.893 19.3477 136.893 20.2793V20.3613Z" fill="white"/>
<path d="M50.9414 44H48.2344L53.7422 28.0039H56.7188L62.2148 44H59.4023L57.9844 39.5703H52.3711L50.9414 44ZM55.2422 30.7695H55.1367L52.9688 37.5312H57.3867L55.2422 30.7695ZM69.6858 44.1758C68.0804 44.1758 66.8616 43.4141 66.2054 42.2773H66.1116V48.1133H63.5101V31.6133H66.0413V33.4297H66.1351C66.8147 32.2461 68.0804 31.4492 69.7444 31.4492C72.5218 31.4492 74.5022 33.5469 74.5022 37.25V38.3516C74.5022 42.0312 72.5452 44.1758 69.6858 44.1758ZM69.0882 42.0312C70.7405 42.0312 71.8655 40.707 71.8655 38.2109V37.3438C71.8655 34.9414 70.8108 33.5703 69.0413 33.5703C67.2249 33.5703 66.0882 35.0469 66.0882 37.332V38.2109C66.0882 40.5547 67.2366 42.0312 69.0882 42.0312ZM82.9107 44.1758C81.3053 44.1758 80.0865 43.4141 79.4303 42.2773H79.3365V48.1133H76.7349V31.6133H79.2662V33.4297H79.3599C80.0396 32.2461 81.3053 31.4492 82.9693 31.4492C85.7467 31.4492 87.7271 33.5469 87.7271 37.25V38.3516C87.7271 42.0312 85.7701 44.1758 82.9107 44.1758ZM82.3131 42.0312C83.9654 42.0312 85.0904 40.707 85.0904 38.2109V37.3438C85.0904 34.9414 84.0357 33.5703 82.2662 33.5703C80.4498 33.5703 79.3131 35.0469 79.3131 37.332V38.2109C79.3131 40.5547 80.4615 42.0312 82.3131 42.0312ZM93.1183 39.5586H95.7199C95.8371 40.9414 97.0558 42.125 99.3176 42.125C101.392 42.125 102.622 41.1523 102.622 39.6406C102.622 38.4219 101.802 37.7656 100.091 37.3555L97.466 36.6992C95.4035 36.2188 93.5519 34.9883 93.5519 32.3867C93.5519 29.3281 96.2238 27.6523 99.3293 27.6523C102.435 27.6523 105.025 29.3281 105.083 32.3164H102.528C102.411 30.957 101.368 29.832 99.2941 29.832C97.466 29.832 96.2238 30.6992 96.2238 32.1875C96.2238 33.2305 96.9504 33.9805 98.4386 34.3203L101.052 34.9648C103.454 35.5508 105.282 36.6875 105.282 39.4062C105.282 42.5469 102.739 44.3164 99.1183 44.3164C94.6652 44.3164 93.1769 41.7148 93.1183 39.5586ZM108.453 31.6133V28.6016H111.007V31.6133H113.421V33.6992H111.007V40.3086C111.007 41.6562 111.511 42.0312 112.906 42.0312C113.128 42.0312 113.339 42.0312 113.492 42.0078V44C113.281 44.0352 112.789 44.082 112.261 44.082C109.249 44.082 108.417 43.0039 108.417 40.5195V33.6992H106.707V31.6133H108.453ZM120.447 31.4023C124.01 31.4023 125.943 33.9102 125.943 37.2852V38.2812C125.943 41.7734 124.021 44.2109 120.447 44.2109C116.873 44.2109 114.928 41.7734 114.928 38.2812V37.2852C114.928 33.9219 116.885 31.4023 120.447 31.4023ZM120.447 33.4883C118.513 33.4883 117.553 35.0703 117.553 37.3203V38.2695C117.553 40.4844 118.502 42.1133 120.447 42.1133C122.392 42.1133 123.33 40.4961 123.33 38.2695V37.3203C123.33 35.0586 122.381 33.4883 120.447 33.4883ZM128.141 44V31.6133H130.742V33.2422H130.836C131.152 32.4688 132.078 31.4375 133.801 31.4375C134.141 31.4375 134.434 31.4609 134.68 31.5078V33.8047C134.457 33.7461 134 33.7109 133.566 33.7109C131.481 33.7109 130.777 35 130.777 36.6641V44H128.141ZM140.991 44.2109C137.674 44.2109 135.565 42.0195 135.565 38.3516V37.0977C135.565 33.6406 137.627 31.4023 140.885 31.4023C144.19 31.4023 146.182 33.7227 146.182 37.2148V38.3984H138.131V38.6914C138.131 40.7773 139.256 42.1602 141.026 42.1602C142.35 42.1602 143.252 41.5039 143.569 40.4375H146.041C145.666 42.4414 144.049 44.2109 140.991 44.2109ZM138.131 36.582H143.639V36.5586C143.639 34.8008 142.549 33.418 140.897 33.418C139.221 33.418 138.131 34.8008 138.131 36.5586V36.582Z" fill="white"/>
</svg>
