<svg width="145" height="48" viewBox="0 0 145 48" fill="none" xmlns="http://www.w3.org/2000/svg">
<path d="M0.5 8C0.5 3.85787 3.85786 0.5 8 0.5H137C141.142 0.5 144.5 3.85786 144.5 8V40C144.5 44.1421 141.142 47.5 137 47.5H8C3.85787 47.5 0.5 44.1421 0.5 40V8Z" stroke="#18181B"/>
<path d="M43.5808 30.7033C43.2218 31.5418 42.7967 32.3136 42.3043 33.0232C41.633 33.9906 41.0834 34.6602 40.6598 35.0321C40.0032 35.6424 39.2997 35.955 38.5464 35.9728C38.0056 35.9728 37.3534 35.8172 36.5942 35.5016C35.8325 35.1876 35.1325 35.032 34.4925 35.032C33.8212 35.032 33.1013 35.1876 32.3312 35.5016C31.56 35.8172 30.9387 35.9816 30.4637 35.9979C29.7413 36.0291 29.0213 35.7076 28.3025 35.032C27.8438 34.6276 27.27 33.9343 26.5826 32.9521C25.8451 31.9032 25.2388 30.687 24.7637 29.3004C24.255 27.8027 24 26.3523 24 24.9482C24 23.3398 24.3438 21.9526 25.0325 20.7901C25.5738 19.8564 26.2939 19.1198 27.1951 18.5791C28.0963 18.0384 29.0701 17.7628 30.1187 17.7452C30.6925 17.7452 31.445 17.9246 32.38 18.2772C33.3125 18.6309 33.9112 18.8103 34.1737 18.8103C34.3699 18.8103 35.035 18.6006 36.1625 18.1824C37.2288 17.7945 38.1287 17.6339 38.8659 17.6972C40.8636 17.8601 42.3644 18.6561 43.3625 20.0901C41.5759 21.1843 40.6921 22.7169 40.7097 24.6829C40.7258 26.2142 41.2754 27.4886 42.3556 28.5004C42.8451 28.97 43.3918 29.333 44 29.5907C43.8681 29.9774 43.7289 30.3477 43.5808 30.7033ZM38.9993 12.4801C38.9993 13.6804 38.5654 14.8011 37.7007 15.8384C36.6572 17.0716 35.395 17.7841 34.0262 17.6717C34.0079 17.5208 33.9987 17.3689 33.9987 17.2169C33.9987 16.0646 34.4949 14.8315 35.3762 13.8232C35.8162 13.3127 36.3758 12.8882 37.0544 12.5496C37.7315 12.2161 38.372 12.0316 38.9744 12C38.992 12.1605 38.9993 12.3209 38.9993 12.4801Z" fill="black"/>
<path d="M52.224 29L56.046 19.2H57.754L61.548 29H59.658L57.558 23.428C57.5113 23.316 57.446 23.1387 57.362 22.896C57.2873 22.6533 57.2033 22.392 57.11 22.112C57.0167 21.8227 56.9327 21.5567 56.858 21.314C56.7833 21.062 56.7273 20.88 56.69 20.768L57.04 20.754C56.984 20.9407 56.9187 21.1507 56.844 21.384C56.7693 21.6173 56.69 21.86 56.606 22.112C56.522 22.364 56.438 22.6067 56.354 22.84C56.2793 23.0733 56.2093 23.2833 56.144 23.47L54.044 29H52.224ZM53.96 26.76L54.59 25.178H59.056L59.728 26.76H53.96ZM62.7834 32.08V21.622H64.4774L64.5054 23.302L64.2114 23.176C64.2674 22.8867 64.4261 22.616 64.6874 22.364C64.9487 22.1027 65.2661 21.8927 65.6394 21.734C66.0221 21.5753 66.4187 21.496 66.8294 21.496C67.4827 21.496 68.0614 21.6593 68.5654 21.986C69.0787 22.3127 69.4801 22.7607 69.7694 23.33C70.0681 23.8993 70.2174 24.5573 70.2174 25.304C70.2174 26.0413 70.0681 26.6993 69.7694 27.278C69.4801 27.8473 69.0787 28.3 68.5654 28.636C68.0614 28.9627 67.4921 29.126 66.8574 29.126C66.4281 29.126 66.0127 29.042 65.6114 28.874C65.2194 28.706 64.8834 28.4867 64.6034 28.216C64.3327 27.9453 64.1647 27.6607 64.0994 27.362L64.5194 27.166V32.08H62.7834ZM66.5074 27.6C66.8994 27.6 67.2494 27.502 67.5574 27.306C67.8654 27.11 68.1034 26.8393 68.2714 26.494C68.4487 26.1487 68.5374 25.752 68.5374 25.304C68.5374 24.856 68.4534 24.464 68.2854 24.128C68.1174 23.7827 67.8794 23.512 67.5714 23.316C67.2634 23.12 66.9087 23.022 66.5074 23.022C66.0967 23.022 65.7374 23.12 65.4294 23.316C65.1307 23.5027 64.8927 23.7687 64.7154 24.114C64.5381 24.4593 64.4494 24.856 64.4494 25.304C64.4494 25.752 64.5381 26.1487 64.7154 26.494C64.8927 26.8393 65.1307 27.11 65.4294 27.306C65.7374 27.502 66.0967 27.6 66.5074 27.6ZM71.7521 32.08V21.622H73.4461L73.4741 23.302L73.1801 23.176C73.2361 22.8867 73.3948 22.616 73.6561 22.364C73.9175 22.1027 74.2348 21.8927 74.6081 21.734C74.9908 21.5753 75.3875 21.496 75.7981 21.496C76.4515 21.496 77.0301 21.6593 77.5341 21.986C78.0475 22.3127 78.4488 22.7607 78.7381 23.33C79.0368 23.8993 79.1861 24.5573 79.1861 25.304C79.1861 26.0413 79.0368 26.6993 78.7381 27.278C78.4488 27.8473 78.0475 28.3 77.5341 28.636C77.0301 28.9627 76.4608 29.126 75.8261 29.126C75.3968 29.126 74.9815 29.042 74.5801 28.874C74.1881 28.706 73.8521 28.4867 73.5721 28.216C73.3015 27.9453 73.1335 27.6607 73.0681 27.362L73.4881 27.166V32.08H71.7521ZM75.4761 27.6C75.8681 27.6 76.2181 27.502 76.5261 27.306C76.8341 27.11 77.0721 26.8393 77.2401 26.494C77.4175 26.1487 77.5061 25.752 77.5061 25.304C77.5061 24.856 77.4221 24.464 77.2541 24.128C77.0861 23.7827 76.8481 23.512 76.5401 23.316C76.2321 23.12 75.8775 23.022 75.4761 23.022C75.0655 23.022 74.7061 23.12 74.3981 23.316C74.0995 23.5027 73.8615 23.7687 73.6841 24.114C73.5068 24.4593 73.4181 24.856 73.4181 25.304C73.4181 25.752 73.5068 26.1487 73.6841 26.494C73.8615 26.8393 74.0995 27.11 74.3981 27.306C74.7061 27.502 75.0655 27.6 75.4761 27.6ZM88.2521 29.14C87.6828 29.14 87.1601 29.07 86.6841 28.93C86.2081 28.7807 85.7788 28.5613 85.3961 28.272C85.0135 27.9827 84.6728 27.6327 84.3741 27.222L85.5641 25.878C86.0215 26.5127 86.4695 26.9513 86.9081 27.194C87.3468 27.4367 87.8415 27.558 88.3921 27.558C88.7095 27.558 88.9988 27.5113 89.2601 27.418C89.5215 27.3153 89.7268 27.18 89.8761 27.012C90.0255 26.8347 90.1001 26.634 90.1001 26.41C90.1001 26.2513 90.0675 26.1067 90.0021 25.976C89.9461 25.836 89.8575 25.7147 89.7361 25.612C89.6148 25.5 89.4655 25.3973 89.2881 25.304C89.1108 25.2107 88.9101 25.1313 88.6861 25.066C88.4621 25.0007 88.2148 24.94 87.9441 24.884C87.4308 24.7813 86.9828 24.646 86.6001 24.478C86.2175 24.3007 85.8955 24.086 85.6341 23.834C85.3728 23.5727 85.1815 23.2833 85.0601 22.966C84.9388 22.6393 84.8781 22.2707 84.8781 21.86C84.8781 21.4493 84.9668 21.0713 85.1441 20.726C85.3308 20.3807 85.5828 20.082 85.9001 19.83C86.2175 19.578 86.5861 19.382 87.0061 19.242C87.4261 19.102 87.8788 19.032 88.3641 19.032C88.9148 19.032 89.4048 19.0973 89.8341 19.228C90.2728 19.3587 90.6555 19.5547 90.9821 19.816C91.3181 20.068 91.5935 20.376 91.8081 20.74L90.6041 21.93C90.4175 21.6407 90.2075 21.4027 89.9741 21.216C89.7408 21.02 89.4888 20.8753 89.2181 20.782C88.9475 20.6793 88.6628 20.628 88.3641 20.628C88.0281 20.628 87.7341 20.6747 87.4821 20.768C87.2395 20.8613 87.0481 20.9967 86.9081 21.174C86.7681 21.342 86.6981 21.5473 86.6981 21.79C86.6981 21.9767 86.7401 22.1447 86.8241 22.294C86.9081 22.434 87.0248 22.56 87.1741 22.672C87.3328 22.784 87.5335 22.882 87.7761 22.966C88.0188 23.05 88.2941 23.1247 88.6021 23.19C89.1155 23.2927 89.5775 23.4327 89.9881 23.61C90.3988 23.778 90.7488 23.9833 91.0381 24.226C91.3275 24.4593 91.5468 24.73 91.6961 25.038C91.8455 25.3367 91.9201 25.6727 91.9201 26.046C91.9201 26.69 91.7661 27.2453 91.4581 27.712C91.1595 28.1693 90.7348 28.524 90.1841 28.776C89.6335 29.0187 88.9895 29.14 88.2521 29.14ZM94.4115 29V19.746H96.1335V29H94.4115ZM92.9555 23.218V21.622H97.7435V23.218H92.9555ZM102.361 29.14C101.623 29.14 100.965 28.9767 100.387 28.65C99.8078 28.314 99.3505 27.8567 99.0145 27.278C98.6785 26.6993 98.5105 26.0413 98.5105 25.304C98.5105 24.5667 98.6785 23.9087 99.0145 23.33C99.3505 22.7513 99.8078 22.2987 100.387 21.972C100.965 21.636 101.623 21.468 102.361 21.468C103.089 21.468 103.742 21.636 104.321 21.972C104.899 22.2987 105.352 22.7513 105.679 23.33C106.015 23.9087 106.183 24.5667 106.183 25.304C106.183 26.0413 106.015 26.6993 105.679 27.278C105.352 27.8567 104.899 28.314 104.321 28.65C103.742 28.9767 103.089 29.14 102.361 29.14ZM102.361 27.614C102.762 27.614 103.117 27.5113 103.425 27.306C103.742 27.1007 103.989 26.8253 104.167 26.48C104.353 26.1347 104.442 25.7427 104.433 25.304C104.442 24.856 104.353 24.4593 104.167 24.114C103.989 23.7687 103.742 23.498 103.425 23.302C103.117 23.0967 102.762 22.994 102.361 22.994C101.959 22.994 101.595 23.0967 101.269 23.302C100.951 23.498 100.704 23.7733 100.527 24.128C100.349 24.4733 100.261 24.8653 100.261 25.304C100.261 25.7427 100.349 26.1347 100.527 26.48C100.704 26.8253 100.951 27.1007 101.269 27.306C101.595 27.5113 101.959 27.614 102.361 27.614ZM107.723 29V21.622H109.417L109.445 23.974L109.207 23.442C109.31 23.0687 109.487 22.7327 109.739 22.434C109.991 22.1353 110.28 21.902 110.607 21.734C110.943 21.5567 111.293 21.468 111.657 21.468C111.816 21.468 111.965 21.482 112.105 21.51C112.254 21.538 112.376 21.5707 112.469 21.608L112.007 23.498C111.904 23.442 111.778 23.3953 111.629 23.358C111.48 23.3207 111.33 23.302 111.181 23.302C110.948 23.302 110.724 23.3487 110.509 23.442C110.304 23.526 110.122 23.6473 109.963 23.806C109.804 23.9647 109.678 24.1513 109.585 24.366C109.501 24.5713 109.459 24.8047 109.459 25.066V29H107.723ZM116.759 29.14C115.984 29.14 115.298 28.9767 114.701 28.65C114.113 28.3233 113.651 27.88 113.315 27.32C112.988 26.7507 112.825 26.102 112.825 25.374C112.825 24.7953 112.918 24.268 113.105 23.792C113.292 23.316 113.548 22.9053 113.875 22.56C114.211 22.2053 114.608 21.9347 115.065 21.748C115.532 21.552 116.04 21.454 116.591 21.454C117.076 21.454 117.529 21.5473 117.949 21.734C118.369 21.9207 118.733 22.1773 119.041 22.504C119.349 22.8213 119.582 23.204 119.741 23.652C119.909 24.0907 119.988 24.5713 119.979 25.094L119.965 25.696H113.987L113.665 24.52H118.523L118.299 24.758V24.45C118.271 24.1607 118.178 23.9087 118.019 23.694C117.86 23.47 117.655 23.2973 117.403 23.176C117.16 23.0453 116.89 22.98 116.591 22.98C116.134 22.98 115.746 23.0687 115.429 23.246C115.121 23.4233 114.888 23.68 114.729 24.016C114.57 24.3427 114.491 24.7533 114.491 25.248C114.491 25.724 114.589 26.1393 114.785 26.494C114.99 26.8487 115.275 27.124 115.639 27.32C116.012 27.5067 116.446 27.6 116.941 27.6C117.286 27.6 117.604 27.544 117.893 27.432C118.182 27.32 118.495 27.1193 118.831 26.83L119.685 28.02C119.433 28.2533 119.144 28.454 118.817 28.622C118.5 28.7807 118.164 28.9067 117.809 29C117.454 29.0933 117.104 29.14 116.759 29.14Z" fill="#18181B"/>
</svg>
