<svg width="49" height="48" viewBox="0 0 49 48" fill="none" xmlns="http://www.w3.org/2000/svg">
<path fill-rule="evenodd" clip-rule="evenodd" d="M27.6065 10.9387C27.8878 10.6578 28.269 10.5 28.6665 10.5C29.064 10.5 29.4453 10.6578 29.7265 10.9387L41.7265 22.9387C42.0074 23.2199 42.1652 23.6012 42.1652 23.9987C42.1652 24.3962 42.0074 24.7774 41.7265 25.0587L29.7265 37.0587C29.5892 37.2061 29.4236 37.3243 29.2396 37.4062C29.0556 37.4882 28.857 37.5323 28.6555 37.5359C28.4541 37.5394 28.2541 37.5024 28.0673 37.4269C27.8805 37.3515 27.7109 37.2392 27.5684 37.0968C27.426 36.9543 27.3137 36.7847 27.2383 36.5979C27.1628 36.4111 27.1258 36.211 27.1293 36.0096C27.1329 35.8082 27.177 35.6096 27.2589 35.4256C27.3409 35.2416 27.4591 35.076 27.6065 34.9387L37.0465 25.4987H8.6665C8.26868 25.4987 7.88715 25.3406 7.60584 25.0593C7.32454 24.778 7.1665 24.3965 7.1665 23.9987C7.1665 23.6009 7.32454 23.2193 7.60584 22.938C7.88715 22.6567 8.26868 22.4987 8.6665 22.4987H37.0465L27.6065 13.0587C27.3256 12.7774 27.1678 12.3962 27.1678 11.9987C27.1678 11.6012 27.3256 11.2199 27.6065 10.9387Z" fill="black"/>
</svg>
