<svg width="17" height="17" viewBox="0 0 17 17" fill="none" xmlns="http://www.w3.org/2000/svg">
<path fill-rule="evenodd" clip-rule="evenodd" d="M3.9999 8.49756C3.99999 7.57413 4.26652 6.67034 4.76753 5.89464C5.26853 5.11893 5.98271 4.50427 6.82439 4.12439C7.66606 3.74452 8.59947 3.61557 9.51261 3.75303C10.4257 3.89048 11.2798 4.2885 11.9724 4.89933C12.6649 5.51015 13.1665 6.30783 13.4169 7.19665C13.6674 8.08547 13.656 9.02767 13.3843 9.9102C13.1125 10.7927 12.5919 11.5781 11.8848 12.1721C11.1777 12.766 10.3143 13.1434 9.39814 13.2588V9.69717H10.5978C10.7568 9.69717 10.9094 9.63397 11.0219 9.52149C11.1344 9.409 11.1976 9.25644 11.1976 9.09736C11.1976 8.93829 11.1344 8.78572 11.0219 8.67324C10.9094 8.56075 10.7568 8.49756 10.5978 8.49756H9.39814V7.29795C9.39814 7.13887 9.46134 6.98631 9.57382 6.87382C9.68631 6.76134 9.83887 6.69814 9.99795 6.69814H10.2979C10.4569 6.69814 10.6095 6.63495 10.722 6.52247C10.8345 6.40998 10.8977 6.25742 10.8977 6.09834C10.8977 5.93926 10.8345 5.7867 10.722 5.67421C10.6095 5.56173 10.4569 5.49854 10.2979 5.49854H9.99795C9.52072 5.49854 9.06303 5.68812 8.72557 6.02557C8.38812 6.36303 8.19854 6.82071 8.19854 7.29795V8.49756H6.99893C6.83985 8.49756 6.68729 8.56075 6.5748 8.67324C6.46231 8.78572 6.39912 8.93829 6.39912 9.09736C6.39912 9.25644 6.46231 9.409 6.5748 9.52149C6.68729 9.63397 6.83985 9.69717 6.99893 9.69717H8.19854V13.2588C7.03888 13.1127 5.97243 12.5484 5.19936 11.6717C4.4263 10.7951 3.99979 9.66638 3.9999 8.49756ZM8.79834 14.4956C12.1111 14.4956 14.7964 11.8103 14.7964 8.49756C14.7964 5.18484 12.1111 2.49951 8.79834 2.49951C5.48562 2.49951 2.80029 5.18484 2.80029 8.49756C2.80029 11.8103 5.48562 14.4956 8.79834 14.4956Z" fill="black"/>
</svg>
