<svg width="162" height="48" viewBox="0 0 162 48" fill="none" xmlns="http://www.w3.org/2000/svg">
<path d="M0.5 8C0.5 3.85787 3.85786 0.5 8 0.5H154C158.142 0.5 161.5 3.85786 161.5 8V40C161.5 44.1421 158.142 47.5 154 47.5H8C3.85786 47.5 0.5 44.1421 0.5 40V8Z" stroke="#18181B"/>
<g clip-path="url(#clip0_1246_44970)">
<path d="M34.2743 23.4417L24.0913 33.9698C24.323 34.7802 24.9213 35.4395 25.7122 35.7557C26.503 36.072 27.3976 36.0098 28.1357 35.5872L39.5935 29.1475L34.2743 23.4417Z" fill="#EA4335"/>
<path d="M44.5711 21.6521L39.6162 18.8516L34.0391 23.6813L39.639 29.1326L44.5559 26.362C45.4438 25.9033 46.0002 24.996 46.0002 24.0071C46.0002 23.0181 45.4438 22.1108 44.5559 21.6521H44.5711Z" fill="#FBBC04"/>
<path d="M24.0911 13.9919C24.0296 14.2165 23.9989 14.4482 24 14.6808V33.281C24.0007 33.5135 24.0313 33.745 24.0911 33.9699L34.6232 23.7114L24.0911 13.9919Z" fill="#4285F4"/>
<path d="M34.3502 23.9808L39.6162 18.8515L28.1736 12.3819C27.7431 12.1331 27.2535 12.0013 26.7547 12C25.5165 11.9976 24.4281 12.8086 24.0913 13.9843L34.3502 23.9808Z" fill="#34A853"/>
</g>
<path d="M59.768 29.14C59.0307 29.14 58.3493 29.014 57.724 28.762C57.0987 28.5007 56.5527 28.1413 56.086 27.684C55.6287 27.2267 55.274 26.6947 55.022 26.088C54.77 25.472 54.644 24.8047 54.644 24.086C54.644 23.3767 54.77 22.7187 55.022 22.112C55.2833 21.496 55.6473 20.964 56.114 20.516C56.5807 20.0587 57.1267 19.704 57.752 19.452C58.3867 19.2 59.068 19.074 59.796 19.074C60.3093 19.074 60.804 19.144 61.28 19.284C61.756 19.424 62.1853 19.62 62.568 19.872C62.9507 20.124 63.268 20.4087 63.52 20.726L62.372 21.93C62.1107 21.678 61.84 21.468 61.56 21.3C61.2893 21.132 61.0047 21.0013 60.706 20.908C60.4073 20.8147 60.0993 20.768 59.782 20.768C59.3153 20.768 58.8813 20.852 58.48 21.02C58.088 21.188 57.7427 21.4213 57.444 21.72C57.1547 22.0187 56.926 22.3687 56.758 22.77C56.59 23.1713 56.506 23.61 56.506 24.086C56.506 24.5433 56.59 24.9773 56.758 25.388C56.9353 25.7987 57.178 26.158 57.486 26.466C57.794 26.774 58.1487 27.0167 58.55 27.194C58.9607 27.362 59.3947 27.446 59.852 27.446C60.1973 27.446 60.5193 27.3947 60.818 27.292C61.1167 27.1893 61.3827 27.0493 61.616 26.872C61.8493 26.6853 62.0267 26.4707 62.148 26.228C62.2787 25.9853 62.344 25.724 62.344 25.444V25.136L62.596 25.43H59.698V23.806H64.136C64.1547 23.9087 64.1687 24.0253 64.178 24.156C64.1873 24.2773 64.192 24.3987 64.192 24.52C64.2013 24.632 64.206 24.73 64.206 24.814C64.206 25.458 64.094 26.046 63.87 26.578C63.646 27.1007 63.3287 27.5533 62.918 27.936C62.5167 28.3187 62.0453 28.6173 61.504 28.832C60.972 29.0373 60.3933 29.14 59.768 29.14ZM69.1828 29.14C68.4454 29.14 67.7874 28.9767 67.2088 28.65C66.6301 28.314 66.1728 27.8567 65.8368 27.278C65.5008 26.6993 65.3328 26.0413 65.3328 25.304C65.3328 24.5667 65.5008 23.9087 65.8368 23.33C66.1728 22.7513 66.6301 22.2987 67.2088 21.972C67.7874 21.636 68.4454 21.468 69.1828 21.468C69.9108 21.468 70.5641 21.636 71.1428 21.972C71.7214 22.2987 72.1741 22.7513 72.5008 23.33C72.8368 23.9087 73.0048 24.5667 73.0048 25.304C73.0048 26.0413 72.8368 26.6993 72.5008 27.278C72.1741 27.8567 71.7214 28.314 71.1428 28.65C70.5641 28.9767 69.9108 29.14 69.1828 29.14ZM69.1828 27.614C69.5841 27.614 69.9388 27.5113 70.2468 27.306C70.5641 27.1007 70.8114 26.8253 70.9888 26.48C71.1754 26.1347 71.2641 25.7427 71.2548 25.304C71.2641 24.856 71.1754 24.4593 70.9888 24.114C70.8114 23.7687 70.5641 23.498 70.2468 23.302C69.9388 23.0967 69.5841 22.994 69.1828 22.994C68.7814 22.994 68.4174 23.0967 68.0908 23.302C67.7734 23.498 67.5261 23.7733 67.3488 24.128C67.1714 24.4733 67.0828 24.8653 67.0828 25.304C67.0828 25.7427 67.1714 26.1347 67.3488 26.48C67.5261 26.8253 67.7734 27.1007 68.0908 27.306C68.4174 27.5113 68.7814 27.614 69.1828 27.614ZM77.9191 29.14C77.1818 29.14 76.5238 28.9767 75.9451 28.65C75.3664 28.314 74.9091 27.8567 74.5731 27.278C74.2371 26.6993 74.0691 26.0413 74.0691 25.304C74.0691 24.5667 74.2371 23.9087 74.5731 23.33C74.9091 22.7513 75.3664 22.2987 75.9451 21.972C76.5238 21.636 77.1818 21.468 77.9191 21.468C78.6471 21.468 79.3004 21.636 79.8791 21.972C80.4578 22.2987 80.9104 22.7513 81.2371 23.33C81.5731 23.9087 81.7411 24.5667 81.7411 25.304C81.7411 26.0413 81.5731 26.6993 81.2371 27.278C80.9104 27.8567 80.4578 28.314 79.8791 28.65C79.3004 28.9767 78.6471 29.14 77.9191 29.14ZM77.9191 27.614C78.3204 27.614 78.6751 27.5113 78.9831 27.306C79.3004 27.1007 79.5478 26.8253 79.7251 26.48C79.9118 26.1347 80.0004 25.7427 79.9911 25.304C80.0004 24.856 79.9118 24.4593 79.7251 24.114C79.5478 23.7687 79.3004 23.498 78.9831 23.302C78.6751 23.0967 78.3204 22.994 77.9191 22.994C77.5178 22.994 77.1538 23.0967 76.8271 23.302C76.5098 23.498 76.2624 23.7733 76.0851 24.128C75.9078 24.4733 75.8191 24.8653 75.8191 25.304C75.8191 25.7427 75.9078 26.1347 76.0851 26.48C76.2624 26.8253 76.5098 27.1007 76.8271 27.306C77.1538 27.5113 77.5178 27.614 77.9191 27.614ZM86.5994 32.22C86.0488 32.22 85.4981 32.136 84.9474 31.968C84.4061 31.8 83.9674 31.5807 83.6314 31.31L84.2474 30.036C84.4434 30.176 84.6628 30.2973 84.9054 30.4C85.1481 30.5027 85.4048 30.582 85.6754 30.638C85.9554 30.694 86.2308 30.722 86.5014 30.722C86.9961 30.722 87.4068 30.6427 87.7334 30.484C88.0694 30.3347 88.3214 30.1013 88.4894 29.784C88.6574 29.476 88.7414 29.0887 88.7414 28.622V27.264L88.9934 27.362C88.9374 27.6513 88.7834 27.9267 88.5314 28.188C88.2794 28.4493 87.9621 28.664 87.5794 28.832C87.1968 28.9907 86.8048 29.07 86.4034 29.07C85.7034 29.07 85.0828 28.9067 84.5414 28.58C84.0094 28.2533 83.5848 27.81 83.2674 27.25C82.9594 26.6807 82.8054 26.0273 82.8054 25.29C82.8054 24.5527 82.9594 23.8993 83.2674 23.33C83.5754 22.7513 83.9954 22.2987 84.5274 21.972C85.0688 21.636 85.6754 21.468 86.3474 21.468C86.6274 21.468 86.8981 21.5007 87.1594 21.566C87.4208 21.6313 87.6588 21.7247 87.8734 21.846C88.0974 21.9673 88.2981 22.1027 88.4754 22.252C88.6528 22.4013 88.7974 22.56 88.9094 22.728C89.0214 22.896 89.0914 23.0593 89.1194 23.218L88.7554 23.33L88.7834 21.622H90.4774V28.496C90.4774 29.0933 90.3888 29.6207 90.2114 30.078C90.0341 30.5353 89.7774 30.9227 89.4414 31.24C89.1054 31.5667 88.6994 31.8093 88.2234 31.968C87.7474 32.136 87.2061 32.22 86.5994 32.22ZM86.6694 27.6C87.0894 27.6 87.4581 27.502 87.7754 27.306C88.1021 27.11 88.3541 26.8393 88.5314 26.494C88.7088 26.1487 88.7974 25.752 88.7974 25.304C88.7974 24.8467 88.7041 24.4453 88.5174 24.1C88.3401 23.7453 88.0928 23.47 87.7754 23.274C87.4581 23.078 87.0894 22.98 86.6694 22.98C86.2494 22.98 85.8808 23.0827 85.5634 23.288C85.2461 23.484 84.9941 23.7593 84.8074 24.114C84.6301 24.4593 84.5414 24.856 84.5414 25.304C84.5414 25.7427 84.6301 26.1393 84.8074 26.494C84.9941 26.8393 85.2461 27.11 85.5634 27.306C85.8808 27.502 86.2494 27.6 86.6694 27.6ZM92.4829 29V18.64H94.2189V29H92.4829ZM99.5637 29.14C98.789 29.14 98.103 28.9767 97.5057 28.65C96.9177 28.3233 96.4557 27.88 96.1197 27.32C95.793 26.7507 95.6297 26.102 95.6297 25.374C95.6297 24.7953 95.723 24.268 95.9097 23.792C96.0963 23.316 96.353 22.9053 96.6797 22.56C97.0157 22.2053 97.4123 21.9347 97.8697 21.748C98.3363 21.552 98.845 21.454 99.3957 21.454C99.881 21.454 100.334 21.5473 100.754 21.734C101.174 21.9207 101.538 22.1773 101.846 22.504C102.154 22.8213 102.387 23.204 102.546 23.652C102.714 24.0907 102.793 24.5713 102.784 25.094L102.77 25.696H96.7917L96.4697 24.52H101.328L101.104 24.758V24.45C101.076 24.1607 100.982 23.9087 100.824 23.694C100.665 23.47 100.46 23.2973 100.208 23.176C99.965 23.0453 99.6943 22.98 99.3957 22.98C98.9383 22.98 98.551 23.0687 98.2337 23.246C97.9257 23.4233 97.6923 23.68 97.5337 24.016C97.375 24.3427 97.2957 24.7533 97.2957 25.248C97.2957 25.724 97.3937 26.1393 97.5897 26.494C97.795 26.8487 98.0797 27.124 98.4437 27.32C98.817 27.5067 99.251 27.6 99.7457 27.6C100.091 27.6 100.408 27.544 100.698 27.432C100.987 27.32 101.3 27.1193 101.636 26.83L102.49 28.02C102.238 28.2533 101.948 28.454 101.622 28.622C101.304 28.7807 100.968 28.9067 100.614 29C100.259 29.0933 99.909 29.14 99.5637 29.14ZM108.732 29V19.2H112.806C113.366 19.2 113.87 19.3353 114.318 19.606C114.775 19.8767 115.139 20.2453 115.41 20.712C115.681 21.1787 115.816 21.7013 115.816 22.28C115.816 22.868 115.681 23.4 115.41 23.876C115.139 24.3427 114.775 24.716 114.318 24.996C113.87 25.276 113.366 25.416 112.806 25.416H110.552V29H108.732ZM110.552 23.736H112.68C112.913 23.736 113.123 23.6707 113.31 23.54C113.506 23.4093 113.66 23.2367 113.772 23.022C113.893 22.8073 113.954 22.5647 113.954 22.294C113.954 22.0233 113.893 21.7853 113.772 21.58C113.66 21.3653 113.506 21.1973 113.31 21.076C113.123 20.9453 112.913 20.88 112.68 20.88H110.552V23.736ZM117.448 29V18.64H119.184V29H117.448ZM123.857 29.14C123.25 29.14 122.699 28.972 122.205 28.636C121.71 28.3 121.313 27.8427 121.015 27.264C120.716 26.6853 120.567 26.0273 120.567 25.29C120.567 24.5527 120.716 23.8947 121.015 23.316C121.313 22.7373 121.719 22.2847 122.233 21.958C122.746 21.6313 123.325 21.468 123.969 21.468C124.342 21.468 124.683 21.524 124.991 21.636C125.299 21.7387 125.569 21.888 125.803 22.084C126.036 22.28 126.227 22.504 126.377 22.756C126.535 23.008 126.643 23.2787 126.699 23.568L126.321 23.47V21.622H128.057V29H126.307V27.236L126.713 27.166C126.647 27.418 126.526 27.6653 126.349 27.908C126.181 28.1413 125.966 28.3513 125.705 28.538C125.453 28.7153 125.168 28.86 124.851 28.972C124.543 29.084 124.211 29.14 123.857 29.14ZM124.333 27.614C124.734 27.614 125.089 27.516 125.397 27.32C125.705 27.124 125.943 26.8533 126.111 26.508C126.288 26.1533 126.377 25.7473 126.377 25.29C126.377 24.842 126.288 24.4453 126.111 24.1C125.943 23.7547 125.705 23.484 125.397 23.288C125.089 23.092 124.734 22.994 124.333 22.994C123.931 22.994 123.577 23.092 123.269 23.288C122.97 23.484 122.737 23.7547 122.569 24.1C122.401 24.4453 122.317 24.842 122.317 25.29C122.317 25.7473 122.401 26.1533 122.569 26.508C122.737 26.8533 122.97 27.124 123.269 27.32C123.577 27.516 123.931 27.614 124.333 27.614ZM131.009 32.22L132.577 28.594L132.591 29.742L128.951 21.622H130.939L132.969 26.438C133.034 26.5593 133.1 26.7227 133.165 26.928C133.23 27.124 133.286 27.32 133.333 27.516L132.983 27.628C133.048 27.4507 133.118 27.264 133.193 27.068C133.268 26.8627 133.338 26.6527 133.403 26.438L135.139 21.622H137.141L134.061 29L132.801 32.22H131.009Z" fill="#18181B"/>
<defs>
<clipPath id="clip0_1246_44970">
<rect width="22" height="24" fill="white" transform="translate(24 12)"/>
</clipPath>
</defs>
</svg>
