<svg width="160" height="55" viewBox="0 0 160 55" fill="none" xmlns="http://www.w3.org/2000/svg">
<rect x="0.666667" y="1.50016" width="158.667" height="52" rx="7.33333" fill="black"/>
<rect x="0.666667" y="1.50016" width="158.667" height="52" rx="7.33333" stroke="#A6A6A6" stroke-width="1.33333"/>
<path d="M23.7407 26.7822L10.7871 40.8412C10.7883 40.8437 10.7883 40.8475 10.7895 40.8499C11.1874 42.3765 12.55 43.5 14.1682 43.5C14.8154 43.5 15.4225 43.3208 15.9433 43.0073L15.9846 42.9824L30.5649 34.3791L23.7407 26.7822Z" fill="#EA4335"/>
<path d="M36.8447 24.3881L36.8325 24.3794L30.5376 20.6481L23.4458 27.1016L30.5632 34.3774L36.824 30.6835C37.9214 30.0764 38.6672 28.8932 38.6672 27.5296C38.6672 26.1735 37.9324 24.9965 36.8447 24.3881Z" fill="#FBBC04"/>
<path d="M10.7862 14.1578C10.7084 14.4515 10.667 14.76 10.667 15.0785V39.9219C10.667 40.2404 10.7084 40.5489 10.7874 40.8413L24.1851 27.1419L10.7862 14.1578Z" fill="#4285F4"/>
<path d="M23.8359 27.5L30.5396 20.6459L15.9763 12.0115C15.4471 11.6867 14.829 11.5001 14.1684 11.5001C12.5503 11.5001 11.1852 12.6261 10.7873 14.1539C10.7873 14.1552 10.7861 14.1564 10.7861 14.1576L23.8359 27.5Z" fill="#34A853"/>
<path d="M58.1467 16.1133C58.1467 17.4467 57.7511 18.5089 56.96 19.3C56.0711 20.2422 54.9022 20.7133 53.4533 20.7133C52.0667 20.7133 50.8933 20.2333 49.9333 19.2733C48.9733 18.3133 48.4933 17.1311 48.4933 15.7267C48.4933 14.3222 48.9733 13.14 49.9333 12.18C50.8933 11.22 52.0667 10.74 53.4533 10.74C54.1556 10.74 54.8178 10.8644 55.44 11.1133C56.0622 11.3622 56.5733 11.7133 56.9733 12.1667L56.0933 13.0467C55.8 12.6911 55.4178 12.4156 54.9467 12.22C54.4844 12.0156 53.9867 11.9133 53.4533 11.9133C52.4133 11.9133 51.5333 12.2733 50.8133 12.9933C50.1022 13.7222 49.7467 14.6333 49.7467 15.7267C49.7467 16.82 50.1022 17.7311 50.8133 18.46C51.5333 19.18 52.4133 19.54 53.4533 19.54C54.4044 19.54 55.1956 19.2733 55.8267 18.74C56.4578 18.2067 56.8222 17.4733 56.92 16.54H53.4533V15.3933H58.08C58.1244 15.6422 58.1467 15.8822 58.1467 16.1133ZM65.2104 10.9533V12.1267H60.8638V15.1533H64.7838V16.3H60.8638V19.3267H65.2104V20.5H59.6371V10.9533H65.2104ZM70.117 12.1267V20.5H68.8903V12.1267H66.2236V10.9533H72.7836V12.1267H70.117ZM78.2205 20.5H76.9939V10.9533H78.2205V20.5ZM83.3982 12.1267V20.5H82.1716V12.1267H79.5049V10.9533H86.0649V12.1267H83.3982ZM99.3614 15.7267C99.3614 17.14 98.8902 18.3222 97.948 19.2733C96.9969 20.2333 95.8325 20.7133 94.4547 20.7133C93.068 20.7133 91.9036 20.2333 90.9614 19.2733C90.0191 18.3222 89.548 17.14 89.548 15.7267C89.548 14.3133 90.0191 13.1311 90.9614 12.18C91.9036 11.22 93.068 10.74 94.4547 10.74C95.8414 10.74 97.0058 11.2244 97.948 12.1933C98.8902 13.1444 99.3614 14.3222 99.3614 15.7267ZM90.8014 15.7267C90.8014 16.8289 91.148 17.74 91.8414 18.46C92.5436 19.18 93.4147 19.54 94.4547 19.54C95.4947 19.54 96.3614 19.18 97.0547 18.46C97.7569 17.7489 98.108 16.8378 98.108 15.7267C98.108 14.6156 97.7569 13.7044 97.0547 12.9933C96.3614 12.2733 95.4947 11.9133 94.4547 11.9133C93.4147 11.9133 92.5436 12.2733 91.8414 12.9933C91.148 13.7133 90.8014 14.6244 90.8014 15.7267ZM102.036 20.5H100.809V10.9533H102.302L106.942 18.38H106.996L106.942 16.54V10.9533H108.169V20.5H106.889L102.036 12.7133H101.982L102.036 14.5533V20.5Z" fill="white"/>
<path d="M124.691 42.7129H126.863V28.0309H124.691V42.7129ZM144.252 33.3195L141.762 39.6851H141.688L139.104 33.3195H136.765L140.639 42.2161L138.431 47.1653H140.695L146.667 33.3195H144.252ZM131.936 41.0451C131.224 41.0451 130.232 40.6869 130.232 39.7978C130.232 38.6657 131.467 38.2311 132.534 38.2311C133.488 38.2311 133.939 38.439 134.518 38.722C134.35 40.0821 133.189 41.0451 131.936 41.0451ZM132.198 32.9989C130.625 32.9989 128.996 33.6977 128.323 35.2468L130.251 36.0583C130.663 35.2468 131.43 34.9814 132.235 34.9814C133.358 34.9814 134.5 35.6614 134.518 36.8711V37.0214C134.125 36.7947 133.284 36.4553 132.254 36.4553C130.176 36.4553 128.06 37.6075 128.06 39.7603C128.06 41.7251 129.764 42.9912 131.673 42.9912C133.133 42.9912 133.939 42.33 134.444 41.5548H134.518V42.6882H136.614V37.059C136.614 34.4528 134.687 32.9989 132.198 32.9989ZM118.776 35.107H115.687V30.0744H118.776C120.4 30.0744 121.321 31.4309 121.321 32.5901C121.321 33.7282 120.4 35.107 118.776 35.107ZM118.72 28.0309H113.517V42.7129H115.687V37.1506H118.72C121.127 37.1506 123.493 35.3912 123.493 32.5901C123.493 29.789 121.127 28.0309 118.72 28.0309ZM90.3444 41.0475C88.8442 41.0475 87.5884 39.7802 87.5884 38.0397C87.5884 36.2803 88.8442 34.9931 90.3444 34.9931C91.826 34.9931 92.9875 36.2803 92.9875 38.0397C92.9875 39.7802 91.826 41.0475 90.3444 41.0475ZM92.8385 34.1416H92.7629C92.2752 33.5556 91.3383 33.0259 90.157 33.0259C87.6815 33.0259 85.4132 35.2198 85.4132 38.0397C85.4132 40.8396 87.6815 43.0159 90.157 43.0159C91.3383 43.0159 92.2752 42.4862 92.7629 41.8802H92.8385V42.6001C92.8385 44.511 91.826 45.5328 90.1943 45.5328C88.8628 45.5328 88.0377 44.5674 87.7001 43.7534L85.8066 44.5486C86.3501 45.8734 87.7944 47.5 90.1943 47.5C92.7443 47.5 94.9009 45.9861 94.9009 42.2971V33.3277H92.8385V34.1416ZM96.4011 42.7129H98.5763V28.0297H96.4011V42.7129ZM101.782 37.8694C101.726 35.9397 103.263 34.9555 104.369 34.9555C105.232 34.9555 105.963 35.3901 106.207 36.0149L101.782 37.8694ZM108.532 36.204C108.12 35.0882 106.863 33.0259 104.294 33.0259C101.744 33.0259 99.6261 35.0495 99.6261 38.0209C99.6261 40.8208 101.726 43.0159 104.538 43.0159C106.807 43.0159 108.12 41.6159 108.663 40.802L106.976 39.6663C106.414 40.499 105.644 41.0475 104.538 41.0475C103.432 41.0475 102.644 40.5366 102.138 39.5348L108.757 36.7712L108.532 36.204ZM55.8001 34.5585V36.6773H60.8245C60.6743 37.8694 60.281 38.7396 59.6816 39.3445C58.9495 40.0832 57.8054 40.8971 55.8001 40.8971C52.7055 40.8971 50.287 38.3803 50.287 35.2585C50.287 32.1356 52.7055 29.6199 55.8001 29.6199C57.4691 29.6199 58.6876 30.2823 59.5873 31.1338L61.0689 29.6387C59.8119 28.4278 58.1441 27.5 55.8001 27.5C51.5625 27.5 48 30.9823 48 35.2585C48 39.5348 51.5625 43.0159 55.8001 43.0159C58.0871 43.0159 59.8119 42.2584 61.162 40.8396C62.5505 39.4396 62.9811 37.4724 62.9811 35.8822C62.9811 35.3901 62.9439 34.9367 62.8682 34.5585H55.8001ZM68.6944 41.0475C67.1942 41.0475 65.9 39.799 65.9 38.0209C65.9 36.2228 67.1942 34.9931 68.6944 34.9931C70.1935 34.9931 71.4877 36.2228 71.4877 38.0209C71.4877 39.799 70.1935 41.0475 68.6944 41.0475ZM68.6944 33.0259C65.9559 33.0259 63.7248 35.1258 63.7248 38.0209C63.7248 40.8971 65.9559 43.0159 68.6944 43.0159C71.4318 43.0159 73.6629 40.8971 73.6629 38.0209C73.6629 35.1258 71.4318 33.0259 68.6944 33.0259ZM79.5334 41.0475C78.0332 41.0475 76.739 39.799 76.739 38.0209C76.739 36.2228 78.0332 34.9931 79.5334 34.9931C81.0336 34.9931 82.3266 36.2228 82.3266 38.0209C82.3266 39.799 81.0336 41.0475 79.5334 41.0475ZM79.5334 33.0259C76.796 33.0259 74.5649 35.1258 74.5649 38.0209C74.5649 40.8971 76.796 43.0159 79.5334 43.0159C82.2708 43.0159 84.5019 40.8971 84.5019 38.0209C84.5019 35.1258 82.2708 33.0259 79.5334 33.0259Z" fill="white"/>
</svg>
