<svg width="344" height="125" viewBox="0 0 344 125" fill="none" xmlns="http://www.w3.org/2000/svg">
<g filter="url(#filter0_d_1158_15081)">
<path d="M16 28.3677C16 19.5311 23.1634 12.3677 32 12.3677H312C320.837 12.3677 328 19.5311 328 28.3677V88.6323C328 97.4689 320.837 104.632 312 104.632H32C23.1634 104.632 16 97.4689 16 88.6323V28.3677Z" fill="white" shape-rendering="crispEdges"/>
<path d="M16.5 28.3677C16.5 19.8073 23.4396 12.8677 32 12.8677H312C320.56 12.8677 327.5 19.8073 327.5 28.3677V88.6323C327.5 97.1927 320.56 104.132 312 104.132H32C23.4396 104.132 16.5 97.1927 16.5 88.6323V28.3677Z" stroke="#EBEBF5" shape-rendering="crispEdges"/>
<path d="M28 35.5C28 29.3518 32.9841 24.3677 39.1323 24.3677H50.397C56.5452 24.3677 61.5293 29.3518 61.5293 35.5C61.5293 41.6482 56.5452 46.6323 50.397 46.6323H39.1323C32.9841 46.6323 28 41.6482 28 35.5Z" fill="#BDFFC4"/>
<path d="M35.2952 39.5V31.8258H38.5622C39.0665 31.8258 39.4904 31.8989 39.8339 32.0451C40.1848 32.1912 40.4479 32.4105 40.6233 32.7028C40.806 32.9879 40.8974 33.3351 40.8974 33.7443C40.8974 34.1683 40.7841 34.5264 40.5575 34.8187C40.3309 35.1111 40.013 35.3121 39.6037 35.4217L39.5927 35.2024C39.9363 35.2755 40.2359 35.4071 40.4917 35.5971C40.7475 35.7798 40.9449 36.0101 41.0837 36.2878C41.2299 36.5582 41.303 36.8688 41.303 37.2197C41.303 37.5924 41.2409 37.9213 41.1166 38.2063C40.9997 38.4914 40.8243 38.7289 40.5904 38.919C40.3565 39.109 40.0788 39.2552 39.7572 39.3575C39.4356 39.4525 39.0738 39.5 38.6718 39.5H35.2952ZM36.6875 38.2173H38.6061C38.8765 38.2173 39.1031 38.1771 39.2858 38.0967C39.4758 38.0163 39.6183 37.8994 39.7133 37.7459C39.8157 37.5851 39.8668 37.3951 39.8668 37.1758C39.8668 36.9712 39.812 36.7958 39.7024 36.6496C39.6 36.5034 39.4502 36.3938 39.2529 36.3207C39.0555 36.2403 38.8217 36.2001 38.5512 36.2001H36.6875V38.2173ZM36.6875 34.9722H38.4306C38.6426 34.9722 38.8253 34.932 38.9788 34.8516C39.1396 34.7712 39.2638 34.6616 39.3516 34.5227C39.4393 34.3839 39.4831 34.2231 39.4831 34.0404C39.4831 33.748 39.3844 33.5214 39.1871 33.3606C38.9898 33.1925 38.7011 33.1085 38.321 33.1085H36.6875V34.9722ZM44.6081 39.6096C44.1915 39.6096 43.8297 39.5183 43.5228 39.3356C43.2158 39.1455 42.9819 38.8788 42.8211 38.5352C42.6603 38.1844 42.5799 37.7678 42.5799 37.2854V33.7224H43.9284V37.0004C43.9284 37.3074 43.9759 37.5705 44.0709 37.7897C44.1659 38.0017 44.3048 38.1661 44.4875 38.2831C44.6702 38.4 44.8895 38.4585 45.1453 38.4585C45.3353 38.4585 45.5071 38.4293 45.6606 38.3708C45.8214 38.305 45.9602 38.2173 46.0772 38.1077C46.1941 37.9907 46.2855 37.8555 46.3513 37.702C46.417 37.5413 46.4499 37.3695 46.4499 37.1868V33.7224H47.7984V39.5H46.4828L46.4609 38.2941L46.7021 38.1625C46.6144 38.4402 46.4646 38.6887 46.2526 38.908C46.048 39.1199 45.8031 39.2917 45.5181 39.4233C45.233 39.5475 44.9297 39.6096 44.6081 39.6096ZM50.2559 42.0215L51.4838 39.1821L51.4948 40.081L48.6444 33.7224H50.2011L51.7908 37.4937C51.842 37.5888 51.8931 37.7167 51.9443 37.8775C51.9954 38.0309 52.0393 38.1844 52.0758 38.3379L51.8018 38.4256C51.8529 38.2867 51.9077 38.1406 51.9662 37.9871C52.0247 37.8263 52.0795 37.6618 52.1306 37.4937L53.4901 33.7224H55.0578L52.6459 39.5L51.6592 42.0215H50.2559Z" fill="#0B2330"/>
<path d="M59.5177 75.5028C57.3808 84.0743 48.6992 89.2908 40.1267 87.1533C31.5578 85.0164 26.3413 76.3343 28.4792 67.7635C30.6152 59.191 39.2967 53.9742 47.8666 56.1111C56.4385 58.248 61.6546 66.9311 59.5175 75.503L59.5176 75.5028H59.5177Z" fill="#50AF95"/>
<path fill-rule="evenodd" clip-rule="evenodd" d="M46.0252 73.4461C45.912 73.4546 45.3275 73.4895 44.0236 73.4895C42.9866 73.4895 42.2503 73.4584 41.9919 73.4461C37.9841 73.2698 34.9927 72.5722 34.9927 71.7369C34.9927 70.9016 37.9841 70.2048 41.9919 70.0257V72.7513C42.254 72.7702 43.0045 72.8145 44.0415 72.8145C45.286 72.8145 45.9092 72.7626 46.0214 72.7523V70.0276C50.0207 70.2058 53.0056 70.9035 53.0056 71.7369C53.0056 72.5703 50.0216 73.268 46.0214 73.4452L46.0252 73.4461ZM46.0249 69.7457V67.3067H51.6062V63.5874H36.4103V67.3067H41.9907V69.7447C37.4549 69.9531 34.0439 70.8516 34.0439 71.9282C34.0439 73.0049 37.4549 73.9024 41.9907 74.1117V81.9274H46.0239V74.1089C50.5493 73.9006 53.9547 73.003 53.9547 71.9273C53.9547 70.8516 50.5522 69.954 46.0239 69.7447L46.0249 69.7457Z" fill="white"/>
<path d="M72.158 78.1323V67.4043H68.63V65.5323H77.738V67.4043H74.102V78.1323H72.158ZM82.1041 78.3123C81.1321 78.3123 80.2681 78.1083 79.5121 77.7003C78.7681 77.2803 78.1801 76.7103 77.7481 75.9903C77.3281 75.2703 77.1181 74.4423 77.1181 73.5063C77.1181 72.7623 77.2381 72.0843 77.4781 71.4723C77.7181 70.8603 78.0481 70.3323 78.4681 69.8883C78.9001 69.4323 79.4101 69.0843 79.9981 68.8443C80.5981 68.5923 81.2461 68.4663 81.9421 68.4663C82.5541 68.4663 83.1241 68.5863 83.6521 68.8263C84.1801 69.0543 84.6361 69.3723 85.0201 69.7803C85.4161 70.1883 85.7161 70.6743 85.9201 71.2383C86.1361 71.7903 86.2381 72.3963 86.2261 73.0563L86.2081 73.8483H78.4861L78.0721 72.3723H84.6061L84.3361 72.6783V72.2463C84.3001 71.8503 84.1681 71.4963 83.9401 71.1843C83.7121 70.8723 83.4241 70.6263 83.0761 70.4463C82.7281 70.2663 82.3501 70.1763 81.9421 70.1763C81.2941 70.1763 80.7481 70.3023 80.3041 70.5543C79.8601 70.7943 79.5241 71.1543 79.2961 71.6343C79.0681 72.1023 78.9541 72.6843 78.9541 73.3803C78.9541 74.0403 79.0921 74.6163 79.3681 75.1083C79.6441 75.5883 80.0341 75.9603 80.5381 76.2243C81.0421 76.4883 81.6241 76.6203 82.2841 76.6203C82.7521 76.6203 83.1841 76.5423 83.5801 76.3863C83.9881 76.2303 84.4261 75.9483 84.8941 75.5403L85.8301 76.8543C85.5421 77.1423 85.1881 77.3943 84.7681 77.6103C84.3601 77.8263 83.9221 78.0003 83.4541 78.1323C82.9981 78.2523 82.5481 78.3123 82.1041 78.3123ZM89.231 78.1323V66.2703H91.085V78.1323H89.231ZM87.269 70.4823V68.6823H93.281V70.4823H87.269ZM94.7892 78.1323V64.8123H96.6432V70.6263L96.3192 70.8423C96.4392 70.4223 96.6732 70.0383 97.0212 69.6903C97.3692 69.3303 97.7832 69.0423 98.2632 68.8263C98.7432 68.5983 99.2352 68.4843 99.7392 68.4843C100.459 68.4843 101.059 68.6283 101.539 68.9163C102.019 69.1923 102.379 69.6183 102.619 70.1943C102.859 70.7703 102.979 71.4963 102.979 72.3723V78.1323H101.125V72.4983C101.125 71.9583 101.053 71.5143 100.909 71.1663C100.765 70.8063 100.543 70.5483 100.243 70.3923C99.9432 70.2243 99.5712 70.1523 99.1272 70.1763C98.7672 70.1763 98.4372 70.2363 98.1372 70.3563C97.8372 70.4643 97.5732 70.6203 97.3452 70.8243C97.1292 71.0283 96.9552 71.2683 96.8232 71.5443C96.7032 71.8083 96.6432 72.0963 96.6432 72.4083V78.1323H95.7252C95.5692 78.1323 95.4132 78.1323 95.2572 78.1323C95.1012 78.1323 94.9452 78.1323 94.7892 78.1323ZM109.724 78.3123C108.752 78.3123 107.888 78.1083 107.132 77.7003C106.388 77.2803 105.8 76.7103 105.368 75.9903C104.948 75.2703 104.738 74.4423 104.738 73.5063C104.738 72.7623 104.858 72.0843 105.098 71.4723C105.338 70.8603 105.668 70.3323 106.088 69.8883C106.52 69.4323 107.03 69.0843 107.618 68.8443C108.218 68.5923 108.866 68.4663 109.562 68.4663C110.174 68.4663 110.744 68.5863 111.272 68.8263C111.8 69.0543 112.256 69.3723 112.64 69.7803C113.036 70.1883 113.336 70.6743 113.54 71.2383C113.756 71.7903 113.858 72.3963 113.846 73.0563L113.828 73.8483H106.106L105.692 72.3723H112.226L111.956 72.6783V72.2463C111.92 71.8503 111.788 71.4963 111.56 71.1843C111.332 70.8723 111.044 70.6263 110.696 70.4463C110.348 70.2663 109.97 70.1763 109.562 70.1763C108.914 70.1763 108.368 70.3023 107.924 70.5543C107.48 70.7943 107.144 71.1543 106.916 71.6343C106.688 72.1023 106.574 72.6843 106.574 73.3803C106.574 74.0403 106.712 74.6163 106.988 75.1083C107.264 75.5883 107.654 75.9603 108.158 76.2243C108.662 76.4883 109.244 76.6203 109.904 76.6203C110.372 76.6203 110.804 76.5423 111.2 76.3863C111.608 76.2303 112.046 75.9483 112.514 75.5403L113.45 76.8543C113.162 77.1423 112.808 77.3943 112.388 77.6103C111.98 77.8263 111.542 78.0003 111.074 78.1323C110.618 78.2523 110.168 78.3123 109.724 78.3123ZM115.681 78.1323V68.6823H117.553V71.6523L117.373 70.9323C117.505 70.4763 117.727 70.0623 118.039 69.6903C118.363 69.3183 118.729 69.0243 119.137 68.8083C119.557 68.5923 119.989 68.4843 120.433 68.4843C120.637 68.4843 120.829 68.5023 121.009 68.5383C121.201 68.5743 121.351 68.6163 121.459 68.6643L120.973 70.6803C120.829 70.6203 120.667 70.5723 120.487 70.5363C120.319 70.4883 120.151 70.4643 119.983 70.4643C119.659 70.4643 119.347 70.5303 119.047 70.6623C118.759 70.7823 118.501 70.9563 118.273 71.1843C118.057 71.4003 117.883 71.6583 117.751 71.9583C117.619 72.2463 117.553 72.5643 117.553 72.9123V78.1323H115.681Z" fill="#0B2330"/>
<path d="M137.354 75.2788C137.158 75.474 136.842 75.474 136.646 75.2788L131.854 70.4859C131.539 70.1709 131.762 69.6323 132.207 69.6323H141.793C142.238 69.6323 142.461 70.1709 142.146 70.4859L137.354 75.2788Z" fill="#0B2330"/>
<path d="M214.35 65.6323L218.144 55.8323H219.684L223.45 65.6323H221.84L219.6 59.7243C219.572 59.659 219.516 59.5003 219.432 59.2483C219.357 58.9963 219.269 58.7163 219.166 58.4083C219.063 58.1003 218.97 57.8203 218.886 57.5683C218.802 57.307 218.746 57.139 218.718 57.0643L219.04 57.0503C218.984 57.209 218.914 57.4097 218.83 57.6523C218.755 57.895 218.671 58.1517 218.578 58.4223C218.494 58.693 218.41 58.9497 218.326 59.1923C218.242 59.4257 218.172 59.6217 218.116 59.7803L215.89 65.6323H214.35ZM216.03 63.1963L216.59 61.7403H221.042L221.686 63.1963H216.03ZM224.783 65.6323V58.2823H226.239V59.8503L225.973 60.0183C226.047 59.7757 226.164 59.5423 226.323 59.3183C226.491 59.0943 226.691 58.8983 226.925 58.7303C227.167 58.553 227.424 58.413 227.695 58.3103C227.975 58.2077 228.259 58.1563 228.549 58.1563C228.969 58.1563 229.337 58.2263 229.655 58.3663C229.972 58.5063 230.233 58.7163 230.439 58.9963C230.644 59.2763 230.793 59.6263 230.887 60.0463L230.663 59.9903L230.761 59.7523C230.863 59.5377 231.003 59.337 231.181 59.1503C231.367 58.9543 231.577 58.7817 231.811 58.6323C232.044 58.483 232.291 58.3663 232.553 58.2823C232.814 58.1983 233.071 58.1563 233.323 58.1563C233.873 58.1563 234.326 58.2683 234.681 58.4923C235.045 58.7163 235.315 59.057 235.493 59.5143C235.679 59.9717 235.773 60.541 235.773 61.2223V65.6323H234.317V61.3063C234.317 60.8863 234.261 60.5457 234.149 60.2843C234.046 60.0137 233.887 59.813 233.673 59.6823C233.458 59.5517 233.183 59.4863 232.847 59.4863C232.585 59.4863 232.338 59.533 232.105 59.6263C231.881 59.7103 231.685 59.8317 231.517 59.9903C231.349 60.149 231.218 60.3357 231.125 60.5503C231.031 60.7557 230.985 60.9843 230.985 61.2363V65.6323H229.529V61.2783C229.529 60.8957 229.473 60.5737 229.361 60.3123C229.249 60.0417 229.085 59.8363 228.871 59.6963C228.656 59.5563 228.395 59.4863 228.087 59.4863C227.825 59.4863 227.583 59.533 227.359 59.6263C227.135 59.7103 226.939 59.8317 226.771 59.9903C226.603 60.1397 226.472 60.3217 226.379 60.5363C226.285 60.7417 226.239 60.9657 226.239 61.2083V65.6323H224.783ZM241.007 65.7723C240.289 65.7723 239.645 65.609 239.075 65.2823C238.515 64.9463 238.072 64.4937 237.745 63.9243C237.419 63.3457 237.255 62.6877 237.255 61.9503C237.255 61.213 237.419 60.5597 237.745 59.9903C238.072 59.4117 238.515 58.959 239.075 58.6323C239.645 58.2963 240.289 58.1283 241.007 58.1283C241.717 58.1283 242.351 58.2963 242.911 58.6323C243.481 58.959 243.929 59.4117 244.255 59.9903C244.582 60.5597 244.745 61.213 244.745 61.9503C244.745 62.6877 244.582 63.3457 244.255 63.9243C243.929 64.4937 243.481 64.9463 242.911 65.2823C242.351 65.609 241.717 65.7723 241.007 65.7723ZM241.007 64.4563C241.446 64.4563 241.838 64.349 242.183 64.1343C242.529 63.9103 242.799 63.6117 242.995 63.2383C243.191 62.8557 243.285 62.4263 243.275 61.9503C243.285 61.465 243.191 61.0357 242.995 60.6623C242.799 60.2797 242.529 59.981 242.183 59.7663C241.838 59.5517 241.446 59.4443 241.007 59.4443C240.569 59.4443 240.172 59.5563 239.817 59.7803C239.472 59.995 239.201 60.2937 239.005 60.6763C238.809 61.0497 238.716 61.4743 238.725 61.9503C238.716 62.4263 238.809 62.8557 239.005 63.2383C239.201 63.6117 239.472 63.9103 239.817 64.1343C240.172 64.349 240.569 64.4563 241.007 64.4563ZM248.893 65.7723C248.37 65.7723 247.913 65.651 247.521 65.4083C247.138 65.1657 246.839 64.825 246.625 64.3863C246.419 63.9477 246.317 63.425 246.317 62.8183V58.2823H247.759V62.4263C247.759 62.8557 247.824 63.229 247.955 63.5463C248.095 63.8543 248.291 64.0923 248.543 64.2603C248.804 64.4283 249.117 64.5123 249.481 64.5123C249.751 64.5123 249.999 64.4703 250.223 64.3863C250.447 64.293 250.638 64.167 250.797 64.0083C250.965 63.8497 251.095 63.6583 251.189 63.4343C251.282 63.2103 251.329 62.9677 251.329 62.7063V58.2823H252.771V65.6323H251.329V64.0923L251.581 63.9243C251.469 64.2697 251.277 64.5823 251.007 64.8623C250.745 65.1423 250.433 65.3663 250.069 65.5343C249.705 65.693 249.313 65.7723 248.893 65.7723ZM254.793 65.6323V58.2823H256.235V59.7943L255.983 59.9623C256.076 59.6357 256.258 59.337 256.529 59.0663C256.8 58.7863 257.122 58.5623 257.495 58.3943C257.868 58.217 258.251 58.1283 258.643 58.1283C259.203 58.1283 259.67 58.2403 260.043 58.4643C260.416 58.679 260.696 59.0103 260.883 59.4583C261.07 59.9063 261.163 60.471 261.163 61.1523V65.6323H259.721V61.2503C259.721 60.8303 259.665 60.485 259.553 60.2143C259.441 59.9343 259.268 59.7337 259.035 59.6123C258.802 59.4817 258.512 59.4257 258.167 59.4443C257.887 59.4443 257.63 59.491 257.397 59.5843C257.164 59.6683 256.958 59.7897 256.781 59.9483C256.613 60.107 256.478 60.2937 256.375 60.5083C256.282 60.7137 256.235 60.9377 256.235 61.1803V65.6323H255.521C255.4 65.6323 255.278 65.6323 255.157 65.6323C255.036 65.6323 254.914 65.6323 254.793 65.6323ZM264.029 65.6323V56.4063H265.471V65.6323H264.029ZM262.503 59.6823V58.2823H267.179V59.6823H262.503Z" fill="#6A6A78"/>
<path d="M275.87 66.7503V56.5263L276.536 57.3903L273.98 58.6863L273.458 56.6343L276.896 54.8523H278.192V66.7503H275.87ZM273.764 67.6323V65.4723H280.352V67.6323H273.764ZM283.366 67.8303C282.934 67.8303 282.598 67.7043 282.358 67.4523C282.13 67.2003 282.016 66.8463 282.016 66.3903C282.016 65.9703 282.136 65.6283 282.376 65.3643C282.628 65.0883 282.958 64.9503 283.366 64.9503C283.798 64.9503 284.128 65.0763 284.356 65.3283C284.596 65.5683 284.716 65.9223 284.716 66.3903C284.716 66.8103 284.59 67.1583 284.338 67.4343C284.098 67.6983 283.774 67.8303 283.366 67.8303ZM286.791 67.6323L286.197 66.1563L289.977 61.9263C290.193 61.7103 290.415 61.4643 290.643 61.1883C290.871 60.9003 291.087 60.6063 291.291 60.3063C291.507 59.9943 291.681 59.6943 291.813 59.4063C291.945 59.1063 292.011 58.8303 292.011 58.5783C292.011 58.2543 291.939 57.9723 291.795 57.7323C291.663 57.4923 291.471 57.3063 291.219 57.1743C290.967 57.0423 290.655 56.9763 290.283 56.9763C289.959 56.9763 289.641 57.0723 289.329 57.2643C289.029 57.4443 288.747 57.7083 288.483 58.0563C288.231 58.3923 288.021 58.7943 287.853 59.2623L286.089 58.2183C286.305 57.5223 286.629 56.9223 287.061 56.4183C287.505 55.9023 288.021 55.5063 288.609 55.2303C289.209 54.9543 289.857 54.8163 290.553 54.8163C291.273 54.8163 291.915 54.9663 292.479 55.2663C293.043 55.5663 293.487 55.9803 293.811 56.5083C294.147 57.0363 294.315 57.6543 294.315 58.3623C294.315 58.6263 294.285 58.9023 294.225 59.1903C294.165 59.4663 294.069 59.7603 293.937 60.0723C293.817 60.3723 293.655 60.6903 293.451 61.0263C293.247 61.3503 293.001 61.6923 292.713 62.0523C292.437 62.4123 292.119 62.7903 291.759 63.1863L288.897 66.3003L288.537 65.4723H294.765V67.6323H286.791ZM300.981 67.6323V57.4623L301.845 57.5523L297.561 62.7903L297.363 62.4663H305.373V64.5003H296.103L295.131 62.6283L301.395 54.9963H303.231V67.6323H300.981ZM310.661 67.8123C309.725 67.8123 308.909 67.6083 308.213 67.2003C307.517 66.7803 306.875 66.0723 306.287 65.0763L308.051 63.9603C308.327 64.4043 308.609 64.7643 308.897 65.0403C309.197 65.3043 309.497 65.5023 309.797 65.6343C310.109 65.7543 310.439 65.8143 310.787 65.8143C311.183 65.8143 311.543 65.7183 311.867 65.5263C312.203 65.3343 312.467 65.0703 312.659 64.7343C312.863 64.3983 312.965 64.0143 312.965 63.5823C312.965 63.1503 312.881 62.7843 312.713 62.4843C312.557 62.1843 312.323 61.9563 312.011 61.8003C311.711 61.6323 311.345 61.5483 310.913 61.5483C310.721 61.5483 310.517 61.5723 310.301 61.6203C310.085 61.6563 309.857 61.7163 309.617 61.8003C309.377 61.8723 309.113 61.9623 308.825 62.0703L308.249 60.5403L311.831 56.5803L312.371 57.1023L307.061 57.0663V54.9963H314.459L314.891 55.8603L310.751 60.3783L310.211 59.7843C310.307 59.7363 310.463 59.6943 310.679 59.6583C310.907 59.6103 311.105 59.5863 311.273 59.5863C311.801 59.5863 312.305 59.6883 312.785 59.8923C313.265 60.0843 313.679 60.3603 314.027 60.7203C314.387 61.0803 314.669 61.5003 314.873 61.9803C315.077 62.4483 315.179 62.9583 315.179 63.5103C315.179 64.3383 314.975 65.0763 314.567 65.7243C314.171 66.3603 313.631 66.8703 312.947 67.2543C312.263 67.6263 311.501 67.8123 310.661 67.8123Z" fill="#0B2330"/>
<g clip-path="url(#clip0_1158_15081)">
<path d="M199.423 79.4707C201.413 78.4374 203.944 77.484 206.306 76.903C206.997 76.733 207.711 76.9887 208.071 77.6027C208.327 78.0414 208.641 78.6427 208.972 79.4287M210.625 82.6547C210.604 82.0972 210.571 81.5402 210.527 80.984C210.458 80.1337 209.797 79.494 208.946 79.435C207.966 79.367 206.454 79.299 204.333 79.299C202.212 79.299 200.7 79.367 199.72 79.435C198.869 79.4937 198.209 80.1337 198.14 80.984C198.068 81.862 198 83.17 198 84.9657C198 86.7614 198.068 88.069 198.14 88.9474C198.209 89.7977 198.869 90.4374 199.72 90.4964C200.7 90.5644 202.212 90.6324 204.333 90.6324C206.454 90.6324 207.967 90.5644 208.946 90.4964C209.797 90.4377 210.458 89.7977 210.527 88.9474C210.563 88.503 210.599 87.9487 210.625 87.2767M206.688 86.0067C206.72 86.7167 207.267 87.2457 207.977 87.274C208.338 87.2887 208.788 87.299 209.333 87.299C209.879 87.299 210.328 87.2887 210.69 87.274C211.4 87.2457 211.947 86.7167 211.979 86.0067C211.991 85.7177 212 85.372 212 84.9657C212 84.559 211.991 84.2137 211.979 83.9247C211.947 83.2147 211.4 82.6857 210.69 82.6574C210.238 82.64 209.786 82.6317 209.333 82.6324C208.788 82.6324 208.338 82.6427 207.977 82.6574C207.267 82.6857 206.72 83.2147 206.688 83.9247C206.673 84.2715 206.666 84.6186 206.667 84.9657C206.667 85.3724 206.675 85.7177 206.688 86.0067Z" stroke="#6A6A78" stroke-width="1.2" stroke-linecap="round" stroke-linejoin="round"/>
<path d="M209 84.6323V85.299" stroke="#6A6A78" stroke-width="1.2" stroke-linecap="round" stroke-linejoin="round"/>
</g>
<path d="M218.442 88.6323V78.8323H222.418C222.987 78.8323 223.477 78.935 223.888 79.1403C224.308 79.3363 224.63 79.621 224.854 79.9943C225.078 80.3583 225.19 80.7923 225.19 81.2963C225.19 81.8377 225.036 82.3043 224.728 82.6963C224.42 83.079 224 83.345 223.468 83.4943L223.44 83.2283C223.897 83.3123 224.294 83.4757 224.63 83.7183C224.966 83.9517 225.227 84.241 225.414 84.5863C225.61 84.9317 225.708 85.319 225.708 85.7483C225.708 86.187 225.633 86.5837 225.484 86.9383C225.335 87.293 225.12 87.5963 224.84 87.8483C224.569 88.1003 224.238 88.2963 223.846 88.4363C223.463 88.567 223.034 88.6323 222.558 88.6323H218.442ZM219.534 87.5683H222.474C222.894 87.5683 223.258 87.4983 223.566 87.3583C223.883 87.209 224.126 86.999 224.294 86.7283C224.471 86.4577 224.56 86.145 224.56 85.7903C224.56 85.4543 224.467 85.1603 224.28 84.9083C224.103 84.6563 223.851 84.4603 223.524 84.3203C223.207 84.1803 222.833 84.1103 222.404 84.1103H219.534V87.5683ZM219.534 83.0463H222.334C222.67 83.0463 222.969 82.981 223.23 82.8503C223.491 82.7103 223.697 82.5237 223.846 82.2903C223.995 82.0477 224.07 81.777 224.07 81.4783C224.07 81.0023 223.907 80.6197 223.58 80.3303C223.263 80.041 222.815 79.8963 222.236 79.8963H219.534V83.0463ZM230.117 88.7723C229.482 88.7723 228.908 88.609 228.395 88.2823C227.882 87.9463 227.476 87.4937 227.177 86.9243C226.878 86.3457 226.729 85.6923 226.729 84.9643C226.729 84.227 226.883 83.5737 227.191 83.0043C227.499 82.435 227.91 81.987 228.423 81.6603C228.946 81.3337 229.529 81.1703 230.173 81.1703C230.556 81.1703 230.91 81.2263 231.237 81.3383C231.564 81.4503 231.853 81.609 232.105 81.8143C232.366 82.0103 232.581 82.2437 232.749 82.5143C232.926 82.7757 233.048 83.0603 233.113 83.3683L232.805 83.2143L232.847 81.3243H233.897V88.6323H232.833V86.8403L233.113 86.6583C233.048 86.9383 232.922 87.209 232.735 87.4703C232.548 87.7223 232.32 87.9463 232.049 88.1423C231.788 88.3383 231.489 88.4923 231.153 88.6043C230.826 88.7163 230.481 88.7723 230.117 88.7723ZM230.355 87.7643C230.84 87.7643 231.274 87.6477 231.657 87.4143C232.04 87.1717 232.338 86.8403 232.553 86.4203C232.777 85.991 232.889 85.5057 232.889 84.9643C232.889 84.423 232.777 83.9423 232.553 83.5223C232.338 83.1023 232.04 82.771 231.657 82.5283C231.274 82.2857 230.84 82.1643 230.355 82.1643C229.86 82.1643 229.422 82.2857 229.039 82.5283C228.666 82.771 228.367 83.1023 228.143 83.5223C227.928 83.9423 227.821 84.423 227.821 84.9643C227.821 85.4963 227.928 85.977 228.143 86.4063C228.358 86.8263 228.656 87.1577 229.039 87.4003C229.422 87.643 229.86 87.7643 230.355 87.7643ZM235.831 88.6323V78.2723H236.881V88.6323H235.831ZM241.526 88.7723C240.892 88.7723 240.318 88.609 239.804 88.2823C239.291 87.9463 238.885 87.4937 238.586 86.9243C238.288 86.3457 238.138 85.6923 238.138 84.9643C238.138 84.227 238.292 83.5737 238.6 83.0043C238.908 82.435 239.319 81.987 239.832 81.6603C240.355 81.3337 240.938 81.1703 241.582 81.1703C241.965 81.1703 242.32 81.2263 242.646 81.3383C242.973 81.4503 243.262 81.609 243.514 81.8143C243.776 82.0103 243.99 82.2437 244.158 82.5143C244.336 82.7757 244.457 83.0603 244.522 83.3683L244.214 83.2143L244.256 81.3243H245.306V88.6323H244.242V86.8403L244.522 86.6583C244.457 86.9383 244.331 87.209 244.144 87.4703C243.958 87.7223 243.729 87.9463 243.458 88.1423C243.197 88.3383 242.898 88.4923 242.562 88.6043C242.236 88.7163 241.89 88.7723 241.526 88.7723ZM241.764 87.7643C242.25 87.7643 242.684 87.6477 243.066 87.4143C243.449 87.1717 243.748 86.8403 243.962 86.4203C244.186 85.991 244.298 85.5057 244.298 84.9643C244.298 84.423 244.186 83.9423 243.962 83.5223C243.748 83.1023 243.449 82.771 243.066 82.5283C242.684 82.2857 242.25 82.1643 241.764 82.1643C241.27 82.1643 240.831 82.2857 240.448 82.5283C240.075 82.771 239.776 83.1023 239.552 83.5223C239.338 83.9423 239.23 84.423 239.23 84.9643C239.23 85.4963 239.338 85.977 239.552 86.4063C239.767 86.8263 240.066 87.1577 240.448 87.4003C240.831 87.643 241.27 87.7643 241.764 87.7643ZM247.212 88.6323V81.3243H248.248L248.29 82.8503L248.122 82.9203C248.215 82.603 248.397 82.3137 248.668 82.0523C248.939 81.791 249.261 81.581 249.634 81.4223C250.017 81.2543 250.409 81.1703 250.81 81.1703C251.351 81.1703 251.804 81.2777 252.168 81.4923C252.532 81.707 252.807 82.0383 252.994 82.4863C253.181 82.9343 253.274 83.5037 253.274 84.1943V88.6323H252.21V84.2503C252.21 83.765 252.145 83.3683 252.014 83.0603C251.893 82.743 251.701 82.5097 251.44 82.3603C251.179 82.211 250.857 82.141 250.474 82.1503C250.157 82.1503 249.863 82.2063 249.592 82.3183C249.321 82.421 249.088 82.5657 248.892 82.7523C248.696 82.939 248.542 83.1537 248.43 83.3963C248.318 83.639 248.262 83.9003 248.262 84.1803V88.6323H247.744C247.679 88.6323 247.604 88.6323 247.52 88.6323C247.436 88.6323 247.333 88.6323 247.212 88.6323ZM258.218 88.7723C257.528 88.7723 256.912 88.609 256.37 88.2823C255.829 87.9463 255.4 87.4937 255.082 86.9243C254.774 86.3457 254.62 85.6923 254.62 84.9643C254.62 84.2363 254.774 83.5877 255.082 83.0183C255.4 82.4397 255.829 81.987 256.37 81.6603C256.912 81.3337 257.532 81.1703 258.232 81.1703C258.858 81.1703 259.427 81.2963 259.94 81.5483C260.454 81.791 260.864 82.1317 261.172 82.5703L260.556 83.3263C260.379 83.093 260.164 82.8877 259.912 82.7103C259.67 82.533 259.404 82.3977 259.114 82.3043C258.834 82.2017 258.554 82.1503 258.274 82.1503C257.78 82.1503 257.336 82.2763 256.944 82.5283C256.552 82.771 256.24 83.1023 256.006 83.5223C255.782 83.9423 255.67 84.423 255.67 84.9643C255.67 85.5057 255.782 85.991 256.006 86.4203C256.24 86.8403 256.552 87.1717 256.944 87.4143C257.336 87.657 257.775 87.7783 258.26 87.7783C258.54 87.7783 258.816 87.7363 259.086 87.6523C259.357 87.559 259.614 87.4283 259.856 87.2603C260.099 87.0923 260.323 86.8823 260.528 86.6303L261.144 87.3863C260.827 87.8063 260.402 88.1423 259.87 88.3943C259.338 88.6463 258.788 88.7723 258.218 88.7723ZM265.588 88.7723C264.86 88.7723 264.211 88.6137 263.642 88.2963C263.082 87.979 262.643 87.5357 262.326 86.9663C262.008 86.397 261.85 85.7437 261.85 85.0063C261.85 84.437 261.938 83.9237 262.116 83.4663C262.293 82.9997 262.54 82.5937 262.858 82.2483C263.184 81.903 263.572 81.637 264.02 81.4503C264.468 81.2543 264.953 81.1563 265.476 81.1563C265.97 81.1563 266.418 81.245 266.82 81.4223C267.23 81.5997 267.58 81.847 267.87 82.1643C268.168 82.4723 268.392 82.841 268.542 83.2703C268.691 83.6997 268.756 84.171 268.738 84.6843L268.724 85.1743H262.634L262.48 84.2923H267.926L267.674 84.5303V84.1943C267.655 83.8583 267.557 83.5363 267.38 83.2283C267.202 82.911 266.95 82.6543 266.624 82.4583C266.306 82.2623 265.924 82.1643 265.476 82.1643C264.953 82.1643 264.5 82.2717 264.118 82.4863C263.735 82.6917 263.441 82.9997 263.236 83.4103C263.03 83.821 262.928 84.3297 262.928 84.9363C262.928 85.515 263.04 86.019 263.264 86.4483C263.488 86.8683 263.805 87.195 264.216 87.4283C264.636 87.6617 265.14 87.7783 265.728 87.7783C266.073 87.7783 266.414 87.7223 266.75 87.6103C267.095 87.489 267.473 87.2557 267.884 86.9103L268.43 87.6663C268.215 87.881 267.958 88.0723 267.66 88.2403C267.361 88.399 267.034 88.5297 266.68 88.6323C266.325 88.7257 265.961 88.7723 265.588 88.7723Z" fill="#6A6A78"/>
<path d="M275.302 88.6323L274.966 87.8203L278.27 84.1103C278.429 83.933 278.592 83.7323 278.76 83.5083C278.937 83.2843 279.101 83.051 279.25 82.8083C279.409 82.5563 279.535 82.309 279.628 82.0663C279.721 81.8237 279.768 81.5857 279.768 81.3523C279.768 81.007 279.693 80.7177 279.544 80.4843C279.395 80.2417 279.18 80.055 278.9 79.9243C278.629 79.7937 278.312 79.7283 277.948 79.7283C277.631 79.7283 277.318 79.803 277.01 79.9523C276.702 80.1017 276.422 80.3303 276.17 80.6383C275.918 80.9463 275.722 81.3383 275.582 81.8143L274.714 81.2963C274.882 80.727 275.129 80.251 275.456 79.8683C275.783 79.4763 276.17 79.1823 276.618 78.9863C277.066 78.7903 277.547 78.6923 278.06 78.6923C278.601 78.6923 279.087 78.8043 279.516 79.0283C279.945 79.243 280.286 79.551 280.538 79.9523C280.79 80.3443 280.916 80.797 280.916 81.3103C280.916 81.5343 280.888 81.7583 280.832 81.9823C280.785 82.2063 280.711 82.4303 280.608 82.6543C280.505 82.8783 280.379 83.107 280.23 83.3403C280.09 83.5737 279.922 83.8117 279.726 84.0543C279.539 84.297 279.329 84.549 279.096 84.8103L276.282 87.9463L276.114 87.5823H281.224V88.6323H275.302ZM285.128 88.7303C284.484 88.7303 283.901 88.5857 283.378 88.2963C282.855 87.9977 282.421 87.573 282.076 87.0223L282.734 86.3083C283.126 86.831 283.518 87.195 283.91 87.4003C284.311 87.5963 284.722 87.6943 285.142 87.6943C285.59 87.6943 285.996 87.5917 286.36 87.3863C286.733 87.1717 287.027 86.887 287.242 86.5323C287.457 86.1777 287.564 85.7857 287.564 85.3563C287.564 84.9363 287.466 84.5583 287.27 84.2223C287.074 83.877 286.808 83.6063 286.472 83.4103C286.136 83.205 285.749 83.1023 285.31 83.1023C285.077 83.1023 284.843 83.1303 284.61 83.1863C284.377 83.233 284.134 83.3123 283.882 83.4243C283.639 83.527 283.378 83.6577 283.098 83.8163L282.482 82.9903L283.056 78.8323H288.348V79.8543H283.63L283.98 79.6023L283.462 83.0323L283.14 82.8083C283.289 82.687 283.49 82.5703 283.742 82.4583C283.994 82.3463 284.269 82.2577 284.568 82.1923C284.876 82.1177 285.175 82.0803 285.464 82.0803C286.071 82.0803 286.612 82.2203 287.088 82.5003C287.564 82.771 287.942 83.149 288.222 83.6343C288.502 84.1103 288.642 84.661 288.642 85.2863C288.642 85.9397 288.488 86.5277 288.18 87.0503C287.872 87.5637 287.452 87.9743 286.92 88.2823C286.388 88.581 285.791 88.7303 285.128 88.7303ZM290.943 88.7723C290.691 88.7723 290.495 88.6977 290.355 88.5483C290.224 88.399 290.159 88.1843 290.159 87.9043C290.159 87.6523 290.229 87.447 290.369 87.2883C290.518 87.1203 290.71 87.0363 290.943 87.0363C291.195 87.0363 291.386 87.1157 291.517 87.2743C291.657 87.4237 291.727 87.6337 291.727 87.9043C291.727 88.1657 291.652 88.3757 291.503 88.5343C291.363 88.693 291.176 88.7723 290.943 88.7723ZM293.891 88.6323L298.007 79.4763L298.189 79.8543H292.938V78.8323H298.847L299.029 79.6863L295.08 88.6323H293.891ZM300.5 88.6323L300.164 87.8203L303.468 84.1103C303.626 83.933 303.79 83.7323 303.958 83.5083C304.135 83.2843 304.298 83.051 304.448 82.8083C304.606 82.5563 304.732 82.309 304.826 82.0663C304.919 81.8237 304.966 81.5857 304.966 81.3523C304.966 81.007 304.891 80.7177 304.742 80.4843C304.592 80.2417 304.378 80.055 304.098 79.9243C303.827 79.7937 303.51 79.7283 303.146 79.7283C302.828 79.7283 302.516 79.803 302.208 79.9523C301.9 80.1017 301.62 80.3303 301.368 80.6383C301.116 80.9463 300.92 81.3383 300.78 81.8143L299.912 81.2963C300.08 80.727 300.327 80.251 300.654 79.8683C300.98 79.4763 301.368 79.1823 301.816 78.9863C302.264 78.7903 302.744 78.6923 303.258 78.6923C303.799 78.6923 304.284 78.8043 304.714 79.0283C305.143 79.243 305.484 79.551 305.736 79.9523C305.988 80.3443 306.114 80.797 306.114 81.3103C306.114 81.5343 306.086 81.7583 306.03 81.9823C305.983 82.2063 305.908 82.4303 305.806 82.6543C305.703 82.8783 305.577 83.107 305.428 83.3403C305.288 83.5737 305.12 83.8117 304.924 84.0543C304.737 84.297 304.527 84.549 304.294 84.8103L301.48 87.9463L301.312 87.5823H306.422V88.6323H300.5ZM311.774 88.6323V80.1343L312.082 80.2323L308.022 85.1883L307.91 84.9363H314.546V85.9723H307.504L306.986 84.9363L311.984 78.8323H312.838V88.6323H311.774Z" fill="#6A6A78"/>
</g>
<defs>
<filter id="filter0_d_1158_15081" x="0" y="0.367676" width="344" height="124.265" filterUnits="userSpaceOnUse" color-interpolation-filters="sRGB">
<feFlood flood-opacity="0" result="BackgroundImageFix"/>
<feColorMatrix in="SourceAlpha" type="matrix" values="0 0 0 0 0 0 0 0 0 0 0 0 0 0 0 0 0 0 127 0" result="hardAlpha"/>
<feOffset dy="4"/>
<feGaussianBlur stdDeviation="8"/>
<feComposite in2="hardAlpha" operator="out"/>
<feColorMatrix type="matrix" values="0 0 0 0 0 0 0 0 0 0 0 0 0 0 0 0 0 0 0.05 0"/>
<feBlend mode="normal" in2="BackgroundImageFix" result="effect1_dropShadow_1158_15081"/>
<feBlend mode="normal" in="SourceGraphic" in2="effect1_dropShadow_1158_15081" result="shape"/>
</filter>
<clipPath id="clip0_1158_15081">
<rect width="16" height="16" fill="white" transform="translate(197 75.6323)"/>
</clipPath>
</defs>
</svg>
