<svg width="17" height="17" viewBox="0 0 17 17" fill="none" xmlns="http://www.w3.org/2000/svg">
<path d="M6.28118 2.50635H11.3168C13.2351 2.50635 14.7938 4.06499 14.7938 5.98333V11.019C14.7938 11.9411 14.4275 12.8255 13.7754 13.4775C13.1233 14.1296 12.239 14.4959 11.3168 14.4959H6.28118C4.36285 14.4959 2.8042 12.9373 2.8042 11.019V5.98333C2.8042 5.06117 3.17052 4.17679 3.82258 3.52473C4.47464 2.87267 5.35903 2.50635 6.28118 2.50635ZM6.16128 3.70531C5.58891 3.70531 5.03998 3.93268 4.63526 4.33741C4.23053 4.74213 4.00316 5.29106 4.00316 5.86343V11.1388C4.00316 12.3318 4.96832 13.297 6.16128 13.297H11.4367C12.0091 13.297 12.558 13.0696 12.9627 12.6649C13.3675 12.2601 13.5948 11.7112 13.5948 11.1388V5.86343C13.5948 4.67047 12.6297 3.70531 11.4367 3.70531H6.16128ZM11.9463 4.60452C12.145 4.60452 12.3356 4.68347 12.4761 4.824C12.6167 4.96453 12.6956 5.15513 12.6956 5.35387C12.6956 5.55261 12.6167 5.74321 12.4761 5.88374C12.3356 6.02427 12.145 6.10322 11.9463 6.10322C11.7475 6.10322 11.5569 6.02427 11.4164 5.88374C11.2759 5.74321 11.1969 5.55261 11.1969 5.35387C11.1969 5.15513 11.2759 4.96453 11.4164 4.824C11.5569 4.68347 11.7475 4.60452 11.9463 4.60452ZM8.79899 5.50374C9.59395 5.50374 10.3563 5.81954 10.9185 6.38166C11.4806 6.94378 11.7964 7.70618 11.7964 8.50114C11.7964 9.2961 11.4806 10.0585 10.9185 10.6206C10.3563 11.1827 9.59395 11.4985 8.79899 11.4985C8.00403 11.4985 7.24163 11.1827 6.67951 10.6206C6.11739 10.0585 5.80159 9.2961 5.80159 8.50114C5.80159 7.70618 6.11739 6.94378 6.67951 6.38166C7.24163 5.81954 8.00403 5.50374 8.79899 5.50374ZM8.79899 6.7027C8.32202 6.7027 7.86458 6.89218 7.5273 7.22945C7.19003 7.56672 7.00055 8.02416 7.00055 8.50114C7.00055 8.97811 7.19003 9.43555 7.5273 9.77283C7.86458 10.1101 8.32202 10.2996 8.79899 10.2996C9.27597 10.2996 9.73341 10.1101 10.0707 9.77283C10.408 9.43555 10.5974 8.97811 10.5974 8.50114C10.5974 8.02416 10.408 7.56672 10.0707 7.22945C9.73341 6.89218 9.27597 6.7027 8.79899 6.7027Z" fill="black"/>
</svg>
