<svg width="344" height="121" viewBox="0 0 344 121" fill="none" xmlns="http://www.w3.org/2000/svg">
<g filter="url(#filter0_d_1158_15106)">
<path d="M16 28.3677C16 19.5311 23.1634 12.3677 32 12.3677H312C320.837 12.3677 328 19.5311 328 28.3677V84.6323C328 93.4689 320.837 100.632 312 100.632H32C23.1634 100.632 16 93.4689 16 84.6323V28.3677Z" fill="white" shape-rendering="crispEdges"/>
<path d="M16.5 28.3677C16.5 19.8073 23.4396 12.8677 32 12.8677H312C320.56 12.8677 327.5 19.8073 327.5 28.3677V84.6323C327.5 93.1927 320.56 100.132 312 100.132H32C23.4396 100.132 16.5 93.1927 16.5 84.6323V28.3677Z" stroke="#EBEBF5" shape-rendering="crispEdges"/>
<path d="M28 35.5C28 29.3518 32.9841 24.3677 39.1323 24.3677H50.397C56.5452 24.3677 61.5293 29.3518 61.5293 35.5C61.5293 41.6482 56.5452 46.6323 50.397 46.6323H39.1323C32.9841 46.6323 28 41.6482 28 35.5Z" fill="#FFBDC6"/>
<path d="M35.2952 39.5V31.8258H38.5622C39.0665 31.8258 39.4904 31.8989 39.8339 32.0451C40.1848 32.1912 40.4479 32.4105 40.6233 32.7028C40.806 32.9879 40.8974 33.3351 40.8974 33.7443C40.8974 34.1683 40.7841 34.5264 40.5575 34.8187C40.3309 35.1111 40.013 35.3121 39.6037 35.4217L39.5927 35.2024C39.9363 35.2755 40.2359 35.4071 40.4917 35.5971C40.7475 35.7798 40.9449 36.0101 41.0837 36.2878C41.2299 36.5582 41.303 36.8688 41.303 37.2197C41.303 37.5924 41.2409 37.9213 41.1166 38.2063C40.9997 38.4914 40.8243 38.7289 40.5904 38.919C40.3565 39.109 40.0788 39.2552 39.7572 39.3575C39.4356 39.4525 39.0738 39.5 38.6718 39.5H35.2952ZM36.6875 38.2173H38.6061C38.8765 38.2173 39.1031 38.1771 39.2858 38.0967C39.4758 38.0163 39.6183 37.8994 39.7133 37.7459C39.8157 37.5851 39.8668 37.3951 39.8668 37.1758C39.8668 36.9712 39.812 36.7958 39.7024 36.6496C39.6 36.5034 39.4502 36.3938 39.2529 36.3207C39.0555 36.2403 38.8217 36.2001 38.5512 36.2001H36.6875V38.2173ZM36.6875 34.9722H38.4306C38.6426 34.9722 38.8253 34.932 38.9788 34.8516C39.1396 34.7712 39.2638 34.6616 39.3516 34.5227C39.4393 34.3839 39.4831 34.2231 39.4831 34.0404C39.4831 33.748 39.3844 33.5214 39.1871 33.3606C38.9898 33.1925 38.7011 33.1085 38.321 33.1085H36.6875V34.9722ZM44.6081 39.6096C44.1915 39.6096 43.8297 39.5183 43.5228 39.3356C43.2158 39.1455 42.9819 38.8788 42.8211 38.5352C42.6603 38.1844 42.5799 37.7678 42.5799 37.2854V33.7224H43.9284V37.0004C43.9284 37.3074 43.9759 37.5705 44.0709 37.7897C44.1659 38.0017 44.3048 38.1661 44.4875 38.2831C44.6702 38.4 44.8895 38.4585 45.1453 38.4585C45.3353 38.4585 45.5071 38.4293 45.6606 38.3708C45.8214 38.305 45.9602 38.2173 46.0772 38.1077C46.1941 37.9907 46.2855 37.8555 46.3513 37.702C46.417 37.5413 46.4499 37.3695 46.4499 37.1868V33.7224H47.7984V39.5H46.4828L46.4609 38.2941L46.7021 38.1625C46.6144 38.4402 46.4646 38.6887 46.2526 38.908C46.048 39.1199 45.8031 39.2917 45.5181 39.4233C45.233 39.5475 44.9297 39.6096 44.6081 39.6096ZM50.2559 42.0215L51.4838 39.1821L51.4948 40.081L48.6444 33.7224H50.2011L51.7908 37.4937C51.842 37.5888 51.8931 37.7167 51.9443 37.8775C51.9954 38.0309 52.0393 38.1844 52.0758 38.3379L51.8018 38.4256C51.8529 38.2867 51.9077 38.1406 51.9662 37.9871C52.0247 37.8263 52.0795 37.6618 52.1306 37.4937L53.4901 33.7224H55.0578L52.6459 39.5L51.6592 42.0215H50.2559Z" fill="#0B2330"/>
<path d="M59.5214 71.5028C57.3845 80.0743 48.7029 85.2908 40.1304 83.1533C31.5614 81.0164 26.345 72.3343 28.4828 63.7635C30.6188 55.191 39.3004 49.9742 47.8702 52.1111C56.4421 54.248 61.6583 62.9311 59.5211 71.503L59.5213 71.5028H59.5214Z" fill="#F7931A"/>
<path fill-rule="evenodd" clip-rule="evenodd" d="M51.0571 65.3528C51.3755 63.2235 49.7545 62.079 47.5378 61.3154L48.2569 58.4312L46.5012 57.9937L45.8011 60.802C45.3396 60.6869 44.8655 60.5784 44.3944 60.4709L45.0995 57.644L43.3449 57.2065L42.6254 60.0899C42.2434 60.0029 41.8683 59.9169 41.5043 59.8264L41.5063 59.8173L39.0851 59.2127L38.6181 61.0879C38.6181 61.0879 39.9207 61.3865 39.8933 61.4049C40.6042 61.5824 40.7328 62.053 40.7115 62.426L39.8923 65.7119C39.9413 65.7243 40.0048 65.7423 40.0749 65.7705L40.0239 65.7577C39.9805 65.7469 39.9355 65.7356 39.8893 65.7246L38.7411 70.3276C38.6542 70.5436 38.4337 70.8677 37.9366 70.7446C37.9542 70.7701 36.6605 70.4262 36.6605 70.4262L35.7888 72.4359L38.0736 73.0055C38.3238 73.0683 38.5711 73.1327 38.8158 73.1965C38.9869 73.2411 39.1567 73.2854 39.3254 73.3285L38.5989 76.2458L40.3526 76.6833L41.0721 73.797C41.5512 73.927 42.0161 74.047 42.4713 74.1601L41.7542 77.0328L43.51 77.4703L44.2365 74.5585C47.2304 75.1251 49.4815 74.8966 50.4291 72.1886C51.1926 70.0084 50.3911 68.7508 48.816 67.9308C49.9632 67.6662 50.8273 66.9117 51.0577 65.353L51.0572 65.3526L51.0571 65.3528ZM47.0456 70.9779C46.5478 72.9782 43.4168 72.1512 41.9842 71.7728C41.8554 71.7388 41.7403 71.7084 41.642 71.684L42.6062 67.819C42.7259 67.8489 42.8721 67.8817 43.0379 67.9189L43.0379 67.9189C44.5197 68.2515 47.5557 68.9328 47.0457 70.9779H47.0456ZM43.3351 66.1251C44.5294 66.4439 47.1349 67.1392 47.5886 65.3212H47.5888C48.0521 63.4618 45.5201 62.9012 44.2834 62.6274C44.1443 62.5966 44.0216 62.5694 43.9214 62.5445L43.0472 66.0497C43.1298 66.0703 43.2266 66.0962 43.3351 66.1251Z" fill="white"/>
<path d="M69.764 74.1323V61.5323H75.02C75.824 61.5323 76.502 61.6523 77.054 61.8923C77.606 62.1323 78.02 62.4923 78.296 62.9723C78.584 63.4403 78.728 64.0163 78.728 64.7003C78.728 65.3843 78.536 65.9663 78.152 66.4463C77.78 66.9263 77.258 67.2563 76.586 67.4363V67.0763C77.15 67.1963 77.642 67.4123 78.062 67.7243C78.482 68.0243 78.806 68.4023 79.034 68.8583C79.274 69.3143 79.394 69.8363 79.394 70.4243C79.394 71.0243 79.298 71.5583 79.106 72.0263C78.926 72.4823 78.65 72.8663 78.278 73.1783C77.918 73.4903 77.48 73.7303 76.964 73.8983C76.448 74.0543 75.86 74.1323 75.2 74.1323H69.764ZM71.708 72.2603H75.092C75.584 72.2603 75.998 72.1883 76.334 72.0443C76.682 71.9003 76.946 71.6903 77.126 71.4143C77.318 71.1263 77.414 70.7843 77.414 70.3883C77.414 70.0163 77.312 69.6983 77.108 69.4343C76.916 69.1703 76.64 68.9723 76.28 68.8403C75.92 68.6963 75.494 68.6243 75.002 68.6243H71.708V72.2603ZM71.708 66.7523H74.912C75.272 66.7523 75.59 66.6803 75.866 66.5363C76.154 66.3923 76.376 66.1943 76.532 65.9423C76.7 65.6903 76.784 65.4023 76.784 65.0783C76.784 64.5383 76.604 64.1243 76.244 63.8363C75.884 63.5483 75.368 63.4043 74.696 63.4043H71.708V66.7523ZM81.674 74.1323V64.6823H83.528V74.1323H81.674ZM82.574 62.5943C82.178 62.5943 81.872 62.4923 81.656 62.2883C81.44 62.0843 81.332 61.7963 81.332 61.4243C81.332 61.0763 81.44 60.7943 81.656 60.5783C81.884 60.3623 82.19 60.2543 82.574 60.2543C82.97 60.2543 83.276 60.3563 83.492 60.5603C83.708 60.7643 83.816 61.0523 83.816 61.4243C83.816 61.7723 83.702 62.0543 83.474 62.2703C83.258 62.4863 82.958 62.5943 82.574 62.5943ZM87.3677 74.1323V62.2703H89.2217V74.1323H87.3677ZM85.4057 66.4823V64.6823H91.4177V66.4823H85.4057ZM96.852 74.3123C95.976 74.3123 95.19 74.0963 94.494 73.6643C93.81 73.2323 93.264 72.6443 92.856 71.9003C92.46 71.1563 92.262 70.3223 92.262 69.3983C92.262 68.4743 92.46 67.6403 92.856 66.8963C93.264 66.1523 93.81 65.5643 94.494 65.1323C95.19 64.7003 95.976 64.4843 96.852 64.4843C97.692 64.4843 98.454 64.6583 99.138 65.0063C99.834 65.3423 100.362 65.8043 100.722 66.3923L99.696 67.6523C99.504 67.3763 99.258 67.1243 98.958 66.8963C98.658 66.6683 98.34 66.4883 98.004 66.3563C97.668 66.2243 97.344 66.1583 97.032 66.1583C96.456 66.1583 95.94 66.3023 95.484 66.5903C95.04 66.8663 94.686 67.2503 94.422 67.7423C94.158 68.2343 94.026 68.7863 94.026 69.3983C94.026 70.0103 94.164 70.5623 94.44 71.0543C94.716 71.5343 95.082 71.9183 95.538 72.2063C95.994 72.4943 96.498 72.6383 97.05 72.6383C97.374 72.6383 97.686 72.5843 97.986 72.4763C98.298 72.3683 98.598 72.2063 98.886 71.9903C99.174 71.7743 99.444 71.5103 99.696 71.1983L100.722 72.4583C100.338 72.9983 99.786 73.4423 99.066 73.7903C98.358 74.1383 97.62 74.3123 96.852 74.3123ZM106.539 74.3123C105.615 74.3123 104.787 74.1023 104.055 73.6823C103.335 73.2503 102.765 72.6683 102.345 71.9363C101.925 71.1923 101.715 70.3463 101.715 69.3983C101.715 68.4503 101.925 67.6103 102.345 66.8783C102.765 66.1343 103.335 65.5523 104.055 65.1323C104.787 64.7003 105.615 64.4843 106.539 64.4843C107.451 64.4843 108.267 64.7003 108.987 65.1323C109.719 65.5523 110.295 66.1343 110.715 66.8783C111.135 67.6103 111.345 68.4503 111.345 69.3983C111.345 70.3463 111.135 71.1923 110.715 71.9363C110.295 72.6683 109.719 73.2503 108.987 73.6823C108.267 74.1023 107.451 74.3123 106.539 74.3123ZM106.539 72.6203C107.103 72.6203 107.607 72.4823 108.051 72.2063C108.495 71.9183 108.843 71.5343 109.095 71.0543C109.347 70.5623 109.467 70.0103 109.455 69.3983C109.467 68.7743 109.347 68.2223 109.095 67.7423C108.843 67.2503 108.495 66.8663 108.051 66.5903C107.607 66.3143 107.103 66.1763 106.539 66.1763C105.975 66.1763 105.465 66.3203 105.009 66.6083C104.565 66.8843 104.217 67.2683 103.965 67.7603C103.713 68.2403 103.593 68.7863 103.605 69.3983C103.593 70.0103 103.713 70.5623 103.965 71.0543C104.217 71.5343 104.565 71.9183 105.009 72.2063C105.465 72.4823 105.975 72.6203 106.539 72.6203ZM113.491 74.1323V64.6823H115.345V74.1323H113.491ZM114.391 62.5943C113.995 62.5943 113.689 62.4923 113.473 62.2883C113.257 62.0843 113.149 61.7963 113.149 61.4243C113.149 61.0763 113.257 60.7943 113.473 60.5783C113.701 60.3623 114.007 60.2543 114.391 60.2543C114.787 60.2543 115.093 60.3563 115.309 60.5603C115.525 60.7643 115.633 61.0523 115.633 61.4243C115.633 61.7723 115.519 62.0543 115.291 62.2703C115.075 62.4863 114.775 62.5943 114.391 62.5943ZM118.015 74.1323V64.6823H119.869V66.6263L119.545 66.8423C119.665 66.4223 119.899 66.0383 120.247 65.6903C120.595 65.3303 121.009 65.0423 121.489 64.8263C121.969 64.5983 122.461 64.4843 122.965 64.4843C123.685 64.4843 124.285 64.6283 124.765 64.9163C125.245 65.1923 125.605 65.6183 125.845 66.1943C126.085 66.7703 126.205 67.4963 126.205 68.3723V74.1323H124.351V68.4983C124.351 67.9583 124.279 67.5143 124.135 67.1663C123.991 66.8063 123.769 66.5483 123.469 66.3923C123.169 66.2243 122.797 66.1523 122.353 66.1763C121.993 66.1763 121.663 66.2363 121.363 66.3563C121.063 66.4643 120.799 66.6203 120.571 66.8243C120.355 67.0283 120.181 67.2683 120.049 67.5443C119.929 67.8083 119.869 68.0963 119.869 68.4083V74.1323H118.951C118.795 74.1323 118.639 74.1323 118.483 74.1323C118.327 74.1323 118.171 74.1323 118.015 74.1323Z" fill="#0B2330"/>
<path d="M143.354 71.2788C143.158 71.474 142.842 71.474 142.646 71.2788L137.854 66.4859C137.539 66.1709 137.762 65.6323 138.207 65.6323H147.793C148.238 65.6323 148.461 66.1709 148.146 66.4859L143.354 71.2788Z" fill="#0B2330"/>
<path d="M214.35 61.6323L218.144 51.8323H219.684L223.45 61.6323H221.84L219.6 55.7243C219.572 55.659 219.516 55.5003 219.432 55.2483C219.357 54.9963 219.269 54.7163 219.166 54.4083C219.063 54.1003 218.97 53.8203 218.886 53.5683C218.802 53.307 218.746 53.139 218.718 53.0643L219.04 53.0503C218.984 53.209 218.914 53.4097 218.83 53.6523C218.755 53.895 218.671 54.1517 218.578 54.4223C218.494 54.693 218.41 54.9497 218.326 55.1923C218.242 55.4257 218.172 55.6217 218.116 55.7803L215.89 61.6323H214.35ZM216.03 59.1963L216.59 57.7403H221.042L221.686 59.1963H216.03ZM224.783 61.6323V54.2823H226.239V55.8503L225.973 56.0183C226.047 55.7757 226.164 55.5423 226.323 55.3183C226.491 55.0943 226.691 54.8983 226.925 54.7303C227.167 54.553 227.424 54.413 227.695 54.3103C227.975 54.2077 228.259 54.1563 228.549 54.1563C228.969 54.1563 229.337 54.2263 229.655 54.3663C229.972 54.5063 230.233 54.7163 230.439 54.9963C230.644 55.2763 230.793 55.6263 230.887 56.0463L230.663 55.9903L230.761 55.7523C230.863 55.5377 231.003 55.337 231.181 55.1503C231.367 54.9543 231.577 54.7817 231.811 54.6323C232.044 54.483 232.291 54.3663 232.553 54.2823C232.814 54.1983 233.071 54.1563 233.323 54.1563C233.873 54.1563 234.326 54.2683 234.681 54.4923C235.045 54.7163 235.315 55.057 235.493 55.5143C235.679 55.9717 235.773 56.541 235.773 57.2223V61.6323H234.317V57.3063C234.317 56.8863 234.261 56.5457 234.149 56.2843C234.046 56.0137 233.887 55.813 233.673 55.6823C233.458 55.5517 233.183 55.4863 232.847 55.4863C232.585 55.4863 232.338 55.533 232.105 55.6263C231.881 55.7103 231.685 55.8317 231.517 55.9903C231.349 56.149 231.218 56.3357 231.125 56.5503C231.031 56.7557 230.985 56.9843 230.985 57.2363V61.6323H229.529V57.2783C229.529 56.8957 229.473 56.5737 229.361 56.3123C229.249 56.0417 229.085 55.8363 228.871 55.6963C228.656 55.5563 228.395 55.4863 228.087 55.4863C227.825 55.4863 227.583 55.533 227.359 55.6263C227.135 55.7103 226.939 55.8317 226.771 55.9903C226.603 56.1397 226.472 56.3217 226.379 56.5363C226.285 56.7417 226.239 56.9657 226.239 57.2083V61.6323H224.783ZM241.007 61.7723C240.289 61.7723 239.645 61.609 239.075 61.2823C238.515 60.9463 238.072 60.4937 237.745 59.9243C237.419 59.3457 237.255 58.6877 237.255 57.9503C237.255 57.213 237.419 56.5597 237.745 55.9903C238.072 55.4117 238.515 54.959 239.075 54.6323C239.645 54.2963 240.289 54.1283 241.007 54.1283C241.717 54.1283 242.351 54.2963 242.911 54.6323C243.481 54.959 243.929 55.4117 244.255 55.9903C244.582 56.5597 244.745 57.213 244.745 57.9503C244.745 58.6877 244.582 59.3457 244.255 59.9243C243.929 60.4937 243.481 60.9463 242.911 61.2823C242.351 61.609 241.717 61.7723 241.007 61.7723ZM241.007 60.4563C241.446 60.4563 241.838 60.349 242.183 60.1343C242.529 59.9103 242.799 59.6117 242.995 59.2383C243.191 58.8557 243.285 58.4263 243.275 57.9503C243.285 57.465 243.191 57.0357 242.995 56.6623C242.799 56.2797 242.529 55.981 242.183 55.7663C241.838 55.5517 241.446 55.4443 241.007 55.4443C240.569 55.4443 240.172 55.5563 239.817 55.7803C239.472 55.995 239.201 56.2937 239.005 56.6763C238.809 57.0497 238.716 57.4743 238.725 57.9503C238.716 58.4263 238.809 58.8557 239.005 59.2383C239.201 59.6117 239.472 59.9103 239.817 60.1343C240.172 60.349 240.569 60.4563 241.007 60.4563ZM248.893 61.7723C248.37 61.7723 247.913 61.651 247.521 61.4083C247.138 61.1657 246.839 60.825 246.625 60.3863C246.419 59.9477 246.317 59.425 246.317 58.8183V54.2823H247.759V58.4263C247.759 58.8557 247.824 59.229 247.955 59.5463C248.095 59.8543 248.291 60.0923 248.543 60.2603C248.804 60.4283 249.117 60.5123 249.481 60.5123C249.751 60.5123 249.999 60.4703 250.223 60.3863C250.447 60.293 250.638 60.167 250.797 60.0083C250.965 59.8497 251.095 59.6583 251.189 59.4343C251.282 59.2103 251.329 58.9677 251.329 58.7063V54.2823H252.771V61.6323H251.329V60.0923L251.581 59.9243C251.469 60.2697 251.277 60.5823 251.007 60.8623C250.745 61.1423 250.433 61.3663 250.069 61.5343C249.705 61.693 249.313 61.7723 248.893 61.7723ZM254.793 61.6323V54.2823H256.235V55.7943L255.983 55.9623C256.076 55.6357 256.258 55.337 256.529 55.0663C256.8 54.7863 257.122 54.5623 257.495 54.3943C257.868 54.217 258.251 54.1283 258.643 54.1283C259.203 54.1283 259.67 54.2403 260.043 54.4643C260.416 54.679 260.696 55.0103 260.883 55.4583C261.07 55.9063 261.163 56.471 261.163 57.1523V61.6323H259.721V57.2503C259.721 56.8303 259.665 56.485 259.553 56.2143C259.441 55.9343 259.268 55.7337 259.035 55.6123C258.802 55.4817 258.512 55.4257 258.167 55.4443C257.887 55.4443 257.63 55.491 257.397 55.5843C257.164 55.6683 256.958 55.7897 256.781 55.9483C256.613 56.107 256.478 56.2937 256.375 56.5083C256.282 56.7137 256.235 56.9377 256.235 57.1803V61.6323H255.521C255.4 61.6323 255.278 61.6323 255.157 61.6323C255.036 61.6323 254.914 61.6323 254.793 61.6323ZM264.029 61.6323V52.4063H265.471V61.6323H264.029ZM262.503 55.6823V54.2823H267.179V55.6823H262.503Z" fill="#6A6A78"/>
<path d="M275.87 62.7503V52.5263L276.536 53.3903L273.98 54.6863L273.458 52.6343L276.896 50.8523H278.192V62.7503H275.87ZM273.764 63.6323V61.4723H280.352V63.6323H273.764ZM283.366 63.8303C282.934 63.8303 282.598 63.7043 282.358 63.4523C282.13 63.2003 282.016 62.8463 282.016 62.3903C282.016 61.9703 282.136 61.6283 282.376 61.3643C282.628 61.0883 282.958 60.9503 283.366 60.9503C283.798 60.9503 284.128 61.0763 284.356 61.3283C284.596 61.5683 284.716 61.9223 284.716 62.3903C284.716 62.8103 284.59 63.1583 284.338 63.4343C284.098 63.6983 283.774 63.8303 283.366 63.8303ZM286.791 63.6323L286.197 62.1563L289.977 57.9263C290.193 57.7103 290.415 57.4643 290.643 57.1883C290.871 56.9003 291.087 56.6063 291.291 56.3063C291.507 55.9943 291.681 55.6943 291.813 55.4063C291.945 55.1063 292.011 54.8303 292.011 54.5783C292.011 54.2543 291.939 53.9723 291.795 53.7323C291.663 53.4923 291.471 53.3063 291.219 53.1743C290.967 53.0423 290.655 52.9763 290.283 52.9763C289.959 52.9763 289.641 53.0723 289.329 53.2643C289.029 53.4443 288.747 53.7083 288.483 54.0563C288.231 54.3923 288.021 54.7943 287.853 55.2623L286.089 54.2183C286.305 53.5223 286.629 52.9223 287.061 52.4183C287.505 51.9023 288.021 51.5063 288.609 51.2303C289.209 50.9543 289.857 50.8163 290.553 50.8163C291.273 50.8163 291.915 50.9663 292.479 51.2663C293.043 51.5663 293.487 51.9803 293.811 52.5083C294.147 53.0363 294.315 53.6543 294.315 54.3623C294.315 54.6263 294.285 54.9023 294.225 55.1903C294.165 55.4663 294.069 55.7603 293.937 56.0723C293.817 56.3723 293.655 56.6903 293.451 57.0263C293.247 57.3503 293.001 57.6923 292.713 58.0523C292.437 58.4123 292.119 58.7903 291.759 59.1863L288.897 62.3003L288.537 61.4723H294.765V63.6323H286.791ZM300.981 63.6323V53.4623L301.845 53.5523L297.561 58.7903L297.363 58.4663H305.373V60.5003H296.103L295.131 58.6283L301.395 50.9963H303.231V63.6323H300.981ZM310.661 63.8123C309.725 63.8123 308.909 63.6083 308.213 63.2003C307.517 62.7803 306.875 62.0723 306.287 61.0763L308.051 59.9603C308.327 60.4043 308.609 60.7643 308.897 61.0403C309.197 61.3043 309.497 61.5023 309.797 61.6343C310.109 61.7543 310.439 61.8143 310.787 61.8143C311.183 61.8143 311.543 61.7183 311.867 61.5263C312.203 61.3343 312.467 61.0703 312.659 60.7343C312.863 60.3983 312.965 60.0143 312.965 59.5823C312.965 59.1503 312.881 58.7843 312.713 58.4843C312.557 58.1843 312.323 57.9563 312.011 57.8003C311.711 57.6323 311.345 57.5483 310.913 57.5483C310.721 57.5483 310.517 57.5723 310.301 57.6203C310.085 57.6563 309.857 57.7163 309.617 57.8003C309.377 57.8723 309.113 57.9623 308.825 58.0703L308.249 56.5403L311.831 52.5803L312.371 53.1023L307.061 53.0663V50.9963H314.459L314.891 51.8603L310.751 56.3783L310.211 55.7843C310.307 55.7363 310.463 55.6943 310.679 55.6583C310.907 55.6103 311.105 55.5863 311.273 55.5863C311.801 55.5863 312.305 55.6883 312.785 55.8923C313.265 56.0843 313.679 56.3603 314.027 56.7203C314.387 57.0803 314.669 57.5003 314.873 57.9803C315.077 58.4483 315.179 58.9583 315.179 59.5103C315.179 60.3383 314.975 61.0763 314.567 61.7243C314.171 62.3603 313.631 62.8703 312.947 63.2543C312.263 63.6263 311.501 63.8123 310.661 63.8123Z" fill="#0B2330"/>
<g clip-path="url(#clip0_1158_15106)">
<path d="M199.423 75.4707C201.413 74.4374 203.944 73.484 206.306 72.903C206.997 72.733 207.711 72.9887 208.071 73.6027C208.327 74.0414 208.641 74.6427 208.972 75.4287M210.625 78.6547C210.604 78.0972 210.571 77.5402 210.527 76.984C210.458 76.1337 209.797 75.494 208.946 75.435C207.966 75.367 206.454 75.299 204.333 75.299C202.212 75.299 200.7 75.367 199.72 75.435C198.869 75.4937 198.209 76.1337 198.14 76.984C198.068 77.862 198 79.17 198 80.9657C198 82.7614 198.068 84.069 198.14 84.9474C198.209 85.7977 198.869 86.4374 199.72 86.4964C200.7 86.5644 202.212 86.6324 204.333 86.6324C206.454 86.6324 207.967 86.5644 208.946 86.4964C209.797 86.4377 210.458 85.7977 210.527 84.9474C210.563 84.503 210.599 83.9487 210.625 83.2767M206.688 82.0067C206.72 82.7167 207.267 83.2457 207.977 83.274C208.338 83.2887 208.788 83.299 209.333 83.299C209.879 83.299 210.328 83.2887 210.69 83.274C211.4 83.2457 211.947 82.7167 211.979 82.0067C211.991 81.7177 212 81.372 212 80.9657C212 80.559 211.991 80.2137 211.979 79.9247C211.947 79.2147 211.4 78.6857 210.69 78.6574C210.238 78.64 209.786 78.6317 209.333 78.6324C208.788 78.6324 208.338 78.6427 207.977 78.6574C207.267 78.6857 206.72 79.2147 206.688 79.9247C206.673 80.2715 206.666 80.6186 206.667 80.9657C206.667 81.3724 206.675 81.7177 206.688 82.0067Z" stroke="#6A6A78" stroke-width="1.2" stroke-linecap="round" stroke-linejoin="round"/>
<path d="M209 80.6323V81.299" stroke="#6A6A78" stroke-width="1.2" stroke-linecap="round" stroke-linejoin="round"/>
</g>
<path d="M218.442 84.6323V74.8323H222.418C222.987 74.8323 223.477 74.935 223.888 75.1403C224.308 75.3363 224.63 75.621 224.854 75.9943C225.078 76.3583 225.19 76.7923 225.19 77.2963C225.19 77.8377 225.036 78.3043 224.728 78.6963C224.42 79.079 224 79.345 223.468 79.4943L223.44 79.2283C223.897 79.3123 224.294 79.4757 224.63 79.7183C224.966 79.9517 225.227 80.241 225.414 80.5863C225.61 80.9317 225.708 81.319 225.708 81.7483C225.708 82.187 225.633 82.5837 225.484 82.9383C225.335 83.293 225.12 83.5963 224.84 83.8483C224.569 84.1003 224.238 84.2963 223.846 84.4363C223.463 84.567 223.034 84.6323 222.558 84.6323H218.442ZM219.534 83.5683H222.474C222.894 83.5683 223.258 83.4983 223.566 83.3583C223.883 83.209 224.126 82.999 224.294 82.7283C224.471 82.4577 224.56 82.145 224.56 81.7903C224.56 81.4543 224.467 81.1603 224.28 80.9083C224.103 80.6563 223.851 80.4603 223.524 80.3203C223.207 80.1803 222.833 80.1103 222.404 80.1103H219.534V83.5683ZM219.534 79.0463H222.334C222.67 79.0463 222.969 78.981 223.23 78.8503C223.491 78.7103 223.697 78.5237 223.846 78.2903C223.995 78.0477 224.07 77.777 224.07 77.4783C224.07 77.0023 223.907 76.6197 223.58 76.3303C223.263 76.041 222.815 75.8963 222.236 75.8963H219.534V79.0463ZM230.117 84.7723C229.482 84.7723 228.908 84.609 228.395 84.2823C227.882 83.9463 227.476 83.4937 227.177 82.9243C226.878 82.3457 226.729 81.6923 226.729 80.9643C226.729 80.227 226.883 79.5737 227.191 79.0043C227.499 78.435 227.91 77.987 228.423 77.6603C228.946 77.3337 229.529 77.1703 230.173 77.1703C230.556 77.1703 230.91 77.2263 231.237 77.3383C231.564 77.4503 231.853 77.609 232.105 77.8143C232.366 78.0103 232.581 78.2437 232.749 78.5143C232.926 78.7757 233.048 79.0603 233.113 79.3683L232.805 79.2143L232.847 77.3243H233.897V84.6323H232.833V82.8403L233.113 82.6583C233.048 82.9383 232.922 83.209 232.735 83.4703C232.548 83.7223 232.32 83.9463 232.049 84.1423C231.788 84.3383 231.489 84.4923 231.153 84.6043C230.826 84.7163 230.481 84.7723 230.117 84.7723ZM230.355 83.7643C230.84 83.7643 231.274 83.6477 231.657 83.4143C232.04 83.1717 232.338 82.8403 232.553 82.4203C232.777 81.991 232.889 81.5057 232.889 80.9643C232.889 80.423 232.777 79.9423 232.553 79.5223C232.338 79.1023 232.04 78.771 231.657 78.5283C231.274 78.2857 230.84 78.1643 230.355 78.1643C229.86 78.1643 229.422 78.2857 229.039 78.5283C228.666 78.771 228.367 79.1023 228.143 79.5223C227.928 79.9423 227.821 80.423 227.821 80.9643C227.821 81.4963 227.928 81.977 228.143 82.4063C228.358 82.8263 228.656 83.1577 229.039 83.4003C229.422 83.643 229.86 83.7643 230.355 83.7643ZM235.831 84.6323V74.2723H236.881V84.6323H235.831ZM241.526 84.7723C240.892 84.7723 240.318 84.609 239.804 84.2823C239.291 83.9463 238.885 83.4937 238.586 82.9243C238.288 82.3457 238.138 81.6923 238.138 80.9643C238.138 80.227 238.292 79.5737 238.6 79.0043C238.908 78.435 239.319 77.987 239.832 77.6603C240.355 77.3337 240.938 77.1703 241.582 77.1703C241.965 77.1703 242.32 77.2263 242.646 77.3383C242.973 77.4503 243.262 77.609 243.514 77.8143C243.776 78.0103 243.99 78.2437 244.158 78.5143C244.336 78.7757 244.457 79.0603 244.522 79.3683L244.214 79.2143L244.256 77.3243H245.306V84.6323H244.242V82.8403L244.522 82.6583C244.457 82.9383 244.331 83.209 244.144 83.4703C243.958 83.7223 243.729 83.9463 243.458 84.1423C243.197 84.3383 242.898 84.4923 242.562 84.6043C242.236 84.7163 241.89 84.7723 241.526 84.7723ZM241.764 83.7643C242.25 83.7643 242.684 83.6477 243.066 83.4143C243.449 83.1717 243.748 82.8403 243.962 82.4203C244.186 81.991 244.298 81.5057 244.298 80.9643C244.298 80.423 244.186 79.9423 243.962 79.5223C243.748 79.1023 243.449 78.771 243.066 78.5283C242.684 78.2857 242.25 78.1643 241.764 78.1643C241.27 78.1643 240.831 78.2857 240.448 78.5283C240.075 78.771 239.776 79.1023 239.552 79.5223C239.338 79.9423 239.23 80.423 239.23 80.9643C239.23 81.4963 239.338 81.977 239.552 82.4063C239.767 82.8263 240.066 83.1577 240.448 83.4003C240.831 83.643 241.27 83.7643 241.764 83.7643ZM247.212 84.6323V77.3243H248.248L248.29 78.8503L248.122 78.9203C248.215 78.603 248.397 78.3137 248.668 78.0523C248.939 77.791 249.261 77.581 249.634 77.4223C250.017 77.2543 250.409 77.1703 250.81 77.1703C251.351 77.1703 251.804 77.2777 252.168 77.4923C252.532 77.707 252.807 78.0383 252.994 78.4863C253.181 78.9343 253.274 79.5037 253.274 80.1943V84.6323H252.21V80.2503C252.21 79.765 252.145 79.3683 252.014 79.0603C251.893 78.743 251.701 78.5097 251.44 78.3603C251.179 78.211 250.857 78.141 250.474 78.1503C250.157 78.1503 249.863 78.2063 249.592 78.3183C249.321 78.421 249.088 78.5657 248.892 78.7523C248.696 78.939 248.542 79.1537 248.43 79.3963C248.318 79.639 248.262 79.9003 248.262 80.1803V84.6323H247.744C247.679 84.6323 247.604 84.6323 247.52 84.6323C247.436 84.6323 247.333 84.6323 247.212 84.6323ZM258.218 84.7723C257.528 84.7723 256.912 84.609 256.37 84.2823C255.829 83.9463 255.4 83.4937 255.082 82.9243C254.774 82.3457 254.62 81.6923 254.62 80.9643C254.62 80.2363 254.774 79.5877 255.082 79.0183C255.4 78.4397 255.829 77.987 256.37 77.6603C256.912 77.3337 257.532 77.1703 258.232 77.1703C258.858 77.1703 259.427 77.2963 259.94 77.5483C260.454 77.791 260.864 78.1317 261.172 78.5703L260.556 79.3263C260.379 79.093 260.164 78.8877 259.912 78.7103C259.67 78.533 259.404 78.3977 259.114 78.3043C258.834 78.2017 258.554 78.1503 258.274 78.1503C257.78 78.1503 257.336 78.2763 256.944 78.5283C256.552 78.771 256.24 79.1023 256.006 79.5223C255.782 79.9423 255.67 80.423 255.67 80.9643C255.67 81.5057 255.782 81.991 256.006 82.4203C256.24 82.8403 256.552 83.1717 256.944 83.4143C257.336 83.657 257.775 83.7783 258.26 83.7783C258.54 83.7783 258.816 83.7363 259.086 83.6523C259.357 83.559 259.614 83.4283 259.856 83.2603C260.099 83.0923 260.323 82.8823 260.528 82.6303L261.144 83.3863C260.827 83.8063 260.402 84.1423 259.87 84.3943C259.338 84.6463 258.788 84.7723 258.218 84.7723ZM265.588 84.7723C264.86 84.7723 264.211 84.6137 263.642 84.2963C263.082 83.979 262.643 83.5357 262.326 82.9663C262.008 82.397 261.85 81.7437 261.85 81.0063C261.85 80.437 261.938 79.9237 262.116 79.4663C262.293 78.9997 262.54 78.5937 262.858 78.2483C263.184 77.903 263.572 77.637 264.02 77.4503C264.468 77.2543 264.953 77.1563 265.476 77.1563C265.97 77.1563 266.418 77.245 266.82 77.4223C267.23 77.5997 267.58 77.847 267.87 78.1643C268.168 78.4723 268.392 78.841 268.542 79.2703C268.691 79.6997 268.756 80.171 268.738 80.6843L268.724 81.1743H262.634L262.48 80.2923H267.926L267.674 80.5303V80.1943C267.655 79.8583 267.557 79.5363 267.38 79.2283C267.202 78.911 266.95 78.6543 266.624 78.4583C266.306 78.2623 265.924 78.1643 265.476 78.1643C264.953 78.1643 264.5 78.2717 264.118 78.4863C263.735 78.6917 263.441 78.9997 263.236 79.4103C263.03 79.821 262.928 80.3297 262.928 80.9363C262.928 81.515 263.04 82.019 263.264 82.4483C263.488 82.8683 263.805 83.195 264.216 83.4283C264.636 83.6617 265.14 83.7783 265.728 83.7783C266.073 83.7783 266.414 83.7223 266.75 83.6103C267.095 83.489 267.473 83.2557 267.884 82.9103L268.43 83.6663C268.215 83.881 267.958 84.0723 267.66 84.2403C267.361 84.399 267.034 84.5297 266.68 84.6323C266.325 84.7257 265.961 84.7723 265.588 84.7723Z" fill="#6A6A78"/>
<path d="M275.302 84.6323L274.966 83.8203L278.27 80.1103C278.429 79.933 278.592 79.7323 278.76 79.5083C278.937 79.2843 279.101 79.051 279.25 78.8083C279.409 78.5563 279.535 78.309 279.628 78.0663C279.721 77.8237 279.768 77.5857 279.768 77.3523C279.768 77.007 279.693 76.7177 279.544 76.4843C279.395 76.2417 279.18 76.055 278.9 75.9243C278.629 75.7937 278.312 75.7283 277.948 75.7283C277.631 75.7283 277.318 75.803 277.01 75.9523C276.702 76.1017 276.422 76.3303 276.17 76.6383C275.918 76.9463 275.722 77.3383 275.582 77.8143L274.714 77.2963C274.882 76.727 275.129 76.251 275.456 75.8683C275.783 75.4763 276.17 75.1823 276.618 74.9863C277.066 74.7903 277.547 74.6923 278.06 74.6923C278.601 74.6923 279.087 74.8043 279.516 75.0283C279.945 75.243 280.286 75.551 280.538 75.9523C280.79 76.3443 280.916 76.797 280.916 77.3103C280.916 77.5343 280.888 77.7583 280.832 77.9823C280.785 78.2063 280.711 78.4303 280.608 78.6543C280.505 78.8783 280.379 79.107 280.23 79.3403C280.09 79.5737 279.922 79.8117 279.726 80.0543C279.539 80.297 279.329 80.549 279.096 80.8103L276.282 83.9463L276.114 83.5823H281.224V84.6323H275.302ZM285.128 84.7303C284.484 84.7303 283.901 84.5857 283.378 84.2963C282.855 83.9977 282.421 83.573 282.076 83.0223L282.734 82.3083C283.126 82.831 283.518 83.195 283.91 83.4003C284.311 83.5963 284.722 83.6943 285.142 83.6943C285.59 83.6943 285.996 83.5917 286.36 83.3863C286.733 83.1717 287.027 82.887 287.242 82.5323C287.457 82.1777 287.564 81.7857 287.564 81.3563C287.564 80.9363 287.466 80.5583 287.27 80.2223C287.074 79.877 286.808 79.6063 286.472 79.4103C286.136 79.205 285.749 79.1023 285.31 79.1023C285.077 79.1023 284.843 79.1303 284.61 79.1863C284.377 79.233 284.134 79.3123 283.882 79.4243C283.639 79.527 283.378 79.6577 283.098 79.8163L282.482 78.9903L283.056 74.8323H288.348V75.8543H283.63L283.98 75.6023L283.462 79.0323L283.14 78.8083C283.289 78.687 283.49 78.5703 283.742 78.4583C283.994 78.3463 284.269 78.2577 284.568 78.1923C284.876 78.1177 285.175 78.0803 285.464 78.0803C286.071 78.0803 286.612 78.2203 287.088 78.5003C287.564 78.771 287.942 79.149 288.222 79.6343C288.502 80.1103 288.642 80.661 288.642 81.2863C288.642 81.9397 288.488 82.5277 288.18 83.0503C287.872 83.5637 287.452 83.9743 286.92 84.2823C286.388 84.581 285.791 84.7303 285.128 84.7303ZM290.943 84.7723C290.691 84.7723 290.495 84.6977 290.355 84.5483C290.224 84.399 290.159 84.1843 290.159 83.9043C290.159 83.6523 290.229 83.447 290.369 83.2883C290.518 83.1203 290.71 83.0363 290.943 83.0363C291.195 83.0363 291.386 83.1157 291.517 83.2743C291.657 83.4237 291.727 83.6337 291.727 83.9043C291.727 84.1657 291.652 84.3757 291.503 84.5343C291.363 84.693 291.176 84.7723 290.943 84.7723ZM293.891 84.6323L298.007 75.4763L298.189 75.8543H292.938V74.8323H298.847L299.029 75.6863L295.08 84.6323H293.891ZM300.5 84.6323L300.164 83.8203L303.468 80.1103C303.626 79.933 303.79 79.7323 303.958 79.5083C304.135 79.2843 304.298 79.051 304.448 78.8083C304.606 78.5563 304.732 78.309 304.826 78.0663C304.919 77.8237 304.966 77.5857 304.966 77.3523C304.966 77.007 304.891 76.7177 304.742 76.4843C304.592 76.2417 304.378 76.055 304.098 75.9243C303.827 75.7937 303.51 75.7283 303.146 75.7283C302.828 75.7283 302.516 75.803 302.208 75.9523C301.9 76.1017 301.62 76.3303 301.368 76.6383C301.116 76.9463 300.92 77.3383 300.78 77.8143L299.912 77.2963C300.08 76.727 300.327 76.251 300.654 75.8683C300.98 75.4763 301.368 75.1823 301.816 74.9863C302.264 74.7903 302.744 74.6923 303.258 74.6923C303.799 74.6923 304.284 74.8043 304.714 75.0283C305.143 75.243 305.484 75.551 305.736 75.9523C305.988 76.3443 306.114 76.797 306.114 77.3103C306.114 77.5343 306.086 77.7583 306.03 77.9823C305.983 78.2063 305.908 78.4303 305.806 78.6543C305.703 78.8783 305.577 79.107 305.428 79.3403C305.288 79.5737 305.12 79.8117 304.924 80.0543C304.737 80.297 304.527 80.549 304.294 80.8103L301.48 83.9463L301.312 83.5823H306.422V84.6323H300.5ZM311.774 84.6323V76.1343L312.082 76.2323L308.022 81.1883L307.91 80.9363H314.546V81.9723H307.504L306.986 80.9363L311.984 74.8323H312.838V84.6323H311.774Z" fill="#6A6A78"/>
</g>
<defs>
<filter id="filter0_d_1158_15106" x="0" y="0.367676" width="344" height="120.265" filterUnits="userSpaceOnUse" color-interpolation-filters="sRGB">
<feFlood flood-opacity="0" result="BackgroundImageFix"/>
<feColorMatrix in="SourceAlpha" type="matrix" values="0 0 0 0 0 0 0 0 0 0 0 0 0 0 0 0 0 0 127 0" result="hardAlpha"/>
<feOffset dy="4"/>
<feGaussianBlur stdDeviation="8"/>
<feComposite in2="hardAlpha" operator="out"/>
<feColorMatrix type="matrix" values="0 0 0 0 0 0 0 0 0 0 0 0 0 0 0 0 0 0 0.05 0"/>
<feBlend mode="normal" in2="BackgroundImageFix" result="effect1_dropShadow_1158_15106"/>
<feBlend mode="normal" in="SourceGraphic" in2="effect1_dropShadow_1158_15106" result="shape"/>
</filter>
<clipPath id="clip0_1158_15106">
<rect width="16" height="16" fill="white" transform="translate(197 71.6323)"/>
</clipPath>
</defs>
</svg>
