<svg width="17" height="17" viewBox="0 0 17 17" fill="none" xmlns="http://www.w3.org/2000/svg">
<path d="M13.7962 2.5C14.0411 2.50003 14.2774 2.58993 14.4604 2.75263C14.6434 2.91534 14.7603 3.13954 14.7889 3.38271L14.7959 3.49967V13.4964C14.7959 13.7413 14.706 13.9776 14.5433 14.1606C14.3806 14.3436 14.1564 14.4604 13.9132 14.4891L13.7962 14.4961H3.79948C3.55463 14.4961 3.3183 14.4062 3.13532 14.2435C2.95235 14.0808 2.83545 13.8566 2.8068 13.6134L2.7998 13.4964V3.49967C2.79984 3.25482 2.88973 3.01849 3.05244 2.83552C3.21514 2.65254 3.43935 2.53565 3.68252 2.507L3.79948 2.5H13.7962ZM13.7962 3.49967H3.79948V13.4964H13.7962V3.49967ZM10.5393 7.12849C12.0408 7.12849 12.3187 8.11617 12.3187 9.40075L12.3167 12.0169H10.8372L10.8342 9.49772C10.8242 8.98789 10.7362 8.43307 10.0654 8.43307C9.34267 8.43307 9.19372 8.9629 9.17773 9.54171L9.17573 12.0169H7.69521V7.24845H9.11675V7.89824H9.13674C9.27908 7.65504 9.48465 7.45495 9.73161 7.31924C9.97856 7.18353 10.2577 7.11826 10.5393 7.12849ZM6.76451 7.24745V12.0169H5.281V7.24745H6.76451ZM6.02375 4.87623C6.25177 4.87623 6.47044 4.9668 6.63167 5.12803C6.7929 5.28926 6.88347 5.50793 6.88347 5.73595C6.88347 5.96396 6.7929 6.18263 6.63167 6.34386C6.47044 6.50509 6.25177 6.59567 6.02375 6.59567C5.79574 6.59567 5.57707 6.50509 5.41584 6.34386C5.25461 6.18263 5.16403 5.96396 5.16403 5.73595C5.16403 5.50793 5.25461 5.28926 5.41584 5.12803C5.57707 4.9668 5.79574 4.87623 6.02375 4.87623Z" fill="black"/>
</svg>
