<svg width="288" height="168" viewBox="0 0 288 168" fill="none" xmlns="http://www.w3.org/2000/svg">
<path d="M62.5 48.65C62.5 46.0819 60.4153 43.9819 57.8543 44.1743C56.07 44.3084 54.2923 44.5196 52.5263 44.8075C49.9916 45.2206 48.4571 47.7507 49.059 50.2473C49.6609 52.7439 52.1715 54.2583 54.7115 53.8787C55.7557 53.7227 56.8043 53.5981 57.856 53.505C60.4142 53.2787 62.5 51.2181 62.5 48.65Z" fill="#D7D7D7"/>
<path d="M42.1827 52.3695C41.2729 49.9679 38.5794 48.7427 36.2527 49.8299C29.7096 52.8874 23.7398 57.0699 18.6206 62.1982C12.4044 68.4254 7.58486 75.9044 4.48229 84.138C1.37972 92.3717 0.0652036 101.171 0.626103 109.952C1.08802 117.184 2.81312 124.266 5.71144 130.881C6.74204 133.233 9.57436 134.09 11.8428 132.886C14.1112 131.682 14.9534 128.874 13.954 126.508C11.6566 121.07 10.2849 115.273 9.90719 109.359C9.43042 101.896 10.5478 94.4159 13.1849 87.4173C15.8221 80.4187 19.9188 74.0616 25.2025 68.7685C29.389 64.5746 34.2448 61.1248 39.5599 58.5549C41.8719 57.437 43.0925 54.7711 42.1827 52.3695Z" fill="#EF9A0A"/>
<path d="M14.9059 137.997C12.7746 139.43 12.1952 142.332 13.7836 144.35C22.4859 155.405 34.7267 163.212 48.5238 166.404C62.3209 169.597 76.7465 167.96 89.4204 161.851C91.7337 160.736 92.4878 157.874 91.2025 155.651C89.9172 153.427 87.0799 152.687 84.7519 153.772C74.1327 158.719 62.1196 160.004 50.6202 157.344C39.1208 154.683 28.8934 148.251 21.5261 139.143C19.9111 137.146 17.0372 136.564 14.9059 137.997Z" fill="#11B880"/>
<path d="M96.9589 151.843C98.502 153.896 101.43 154.322 103.362 152.63C111.613 145.399 117.821 136.087 121.311 125.627C125.294 113.694 125.552 100.83 122.051 88.7465C118.55 76.6626 111.456 65.9297 101.71 57.9733C93.1686 50.9997 82.9447 46.4483 72.1059 44.7486C69.5688 44.3508 67.3217 46.2762 67.1151 48.836C66.9084 51.3958 68.8218 53.6175 71.3535 54.049C80.3107 55.5754 88.7494 59.3976 95.8286 65.1773C104.112 71.9402 110.142 81.0632 113.118 91.3346C116.094 101.606 115.875 112.54 112.49 122.683C109.596 131.352 104.508 139.094 97.7541 145.172C95.8452 146.89 95.4159 149.79 96.9589 151.843Z" fill="#1555E6"/>
<path d="M30.8405 101.5V94.3149H28.4776V93.0611H34.5777V94.3149H32.1425V101.5H30.8405ZM37.514 101.621C36.8951 101.621 36.3406 101.48 35.8503 101.199C35.3681 100.909 34.9864 100.519 34.7051 100.029C34.4238 99.5309 34.2831 98.9643 34.2831 98.3294C34.2831 97.6945 34.4238 97.1319 34.7051 96.6416C34.9864 96.1433 35.3681 95.7535 35.8503 95.4722C36.3406 95.1829 36.8951 95.0382 37.514 95.0382C38.1248 95.0382 38.6713 95.1829 39.1536 95.4722C39.6438 95.7535 40.0296 96.1433 40.3109 96.6416C40.5922 97.1319 40.7328 97.6945 40.7328 98.3294C40.7328 98.9643 40.5922 99.5309 40.3109 100.029C40.0296 100.519 39.6438 100.909 39.1536 101.199C38.6713 101.48 38.1248 101.621 37.514 101.621ZM37.514 100.487C37.8917 100.487 38.2293 100.395 38.5267 100.21C38.824 100.017 39.0571 99.76 39.2259 99.4385C39.3947 99.109 39.475 98.7393 39.467 98.3294C39.475 97.9115 39.3947 97.5418 39.2259 97.2203C39.0571 96.8908 38.824 96.6336 38.5267 96.4487C38.2293 96.2639 37.8917 96.1714 37.514 96.1714C37.1363 96.1714 36.7947 96.2679 36.4893 96.4608C36.1919 96.6456 35.9588 96.9028 35.7901 97.2323C35.6213 97.5538 35.5409 97.9195 35.5489 98.3294C35.5409 98.7393 35.6213 99.109 35.7901 99.4385C35.9588 99.76 36.1919 100.017 36.4893 100.21C36.7947 100.395 37.1363 100.487 37.514 100.487ZM42.8695 101.5V93.5554H44.1112V101.5H42.8695ZM41.5554 96.3764V95.1708H45.582V96.3764H41.5554ZM49.089 101.621C48.5666 101.621 48.0884 101.476 47.6544 101.187C47.2285 100.897 46.8869 100.503 46.6297 100.005C46.3725 99.5068 46.2439 98.9442 46.2439 98.3173C46.2439 97.6824 46.3725 97.1198 46.6297 96.6296C46.8949 96.1313 47.2485 95.7415 47.6906 95.4602C48.1407 95.1789 48.643 95.0382 49.1975 95.0382C49.527 95.0382 49.8284 95.0864 50.1017 95.1829C50.375 95.2793 50.612 95.416 50.813 95.5928C51.0219 95.7616 51.1907 95.9585 51.3193 96.1835C51.4559 96.4085 51.5403 96.6496 51.5725 96.9068L51.2952 96.8104V95.1708H52.549V101.5H51.2952V99.9931L51.5845 99.9087C51.5363 100.126 51.4358 100.339 51.2831 100.548C51.1385 100.749 50.9496 100.929 50.7165 101.09C50.4915 101.251 50.2383 101.379 49.957 101.476C49.6838 101.572 49.3944 101.621 49.089 101.621ZM49.4145 100.475C49.7923 100.475 50.1258 100.383 50.4151 100.198C50.7045 100.013 50.9295 99.76 51.0903 99.4385C51.259 99.109 51.3434 98.7353 51.3434 98.3173C51.3434 97.9074 51.259 97.5418 51.0903 97.2203C50.9295 96.8988 50.7045 96.6456 50.4151 96.4608C50.1258 96.2759 49.7923 96.1835 49.4145 96.1835C49.0448 96.1835 48.7153 96.2759 48.426 96.4608C48.1447 96.6456 47.9196 96.8988 47.7509 97.2203C47.5901 97.5418 47.5098 97.9074 47.5098 98.3173C47.5098 98.7353 47.5901 99.109 47.7509 99.4385C47.9196 99.76 48.1447 100.013 48.426 100.198C48.7153 100.383 49.0448 100.475 49.4145 100.475ZM54.3068 101.5V92.5789H55.5485V101.5H54.3068ZM60.1206 101.5L63.3877 93.0611H64.7138L67.9567 101.5H66.5703L64.6414 96.4126C64.6173 96.3563 64.5691 96.2197 64.4968 96.0027C64.4325 95.7857 64.3561 95.5446 64.2677 95.2793C64.1793 95.0141 64.0989 94.773 64.0266 94.556C63.9543 94.331 63.9061 94.1863 63.8819 94.122L64.1592 94.1099C64.111 94.2466 64.0507 94.4194 63.9784 94.6283C63.9141 94.8373 63.8418 95.0583 63.7614 95.2914C63.6891 95.5245 63.6167 95.7455 63.5444 95.9544C63.4721 96.1554 63.4118 96.3241 63.3636 96.4608L61.4467 101.5H60.1206ZM61.5673 99.4023L62.0495 98.1486H65.8832L66.4377 99.4023H61.5673ZM71.2382 101.621C70.7077 101.621 70.2295 101.528 69.8036 101.343C69.3776 101.158 69.024 100.885 68.7427 100.524L69.5866 99.8002C69.8277 100.081 70.0889 100.286 70.3702 100.415C70.6595 100.536 70.985 100.596 71.3467 100.596C71.4914 100.596 71.624 100.58 71.7445 100.548C71.8731 100.507 71.9816 100.451 72.07 100.379C72.1665 100.306 72.2388 100.222 72.287 100.126C72.3352 100.021 72.3594 99.9087 72.3594 99.7881C72.3594 99.5791 72.283 99.4104 72.1303 99.2818C72.0499 99.2255 71.9213 99.1652 71.7445 99.1009C71.5757 99.0286 71.3547 98.9563 71.0815 98.8839C70.6153 98.7634 70.2336 98.6268 69.9362 98.4741C69.6388 98.3214 69.4098 98.1486 69.249 97.9557C69.1285 97.803 69.0401 97.6382 68.9838 97.4614C68.9275 97.2765 68.8994 97.0756 68.8994 96.8586C68.8994 96.5934 68.9557 96.3523 69.0682 96.1353C69.1887 95.9102 69.3495 95.7174 69.5504 95.5566C69.7594 95.3878 70.0005 95.2592 70.2737 95.1708C70.555 95.0824 70.8524 95.0382 71.1659 95.0382C71.4632 95.0382 71.7566 95.0784 72.0459 95.1588C72.3433 95.2391 72.6165 95.3557 72.8657 95.5084C73.1148 95.6611 73.3238 95.8419 73.4926 96.0509L72.7813 96.8345C72.6286 96.6818 72.4598 96.5492 72.275 96.4367C72.0982 96.3161 71.9173 96.2237 71.7325 96.1594C71.5476 96.0951 71.3788 96.0629 71.2261 96.0629C71.0574 96.0629 70.9047 96.079 70.768 96.1112C70.6314 96.1433 70.5149 96.1915 70.4184 96.2558C70.33 96.3201 70.2617 96.4005 70.2135 96.4969C70.1652 96.5934 70.1411 96.7019 70.1411 96.8224C70.1492 96.9269 70.1733 97.0274 70.2135 97.1238C70.2617 97.2122 70.326 97.2886 70.4064 97.3529C70.4948 97.4172 70.6274 97.4855 70.8042 97.5578C70.981 97.6302 71.206 97.6985 71.4793 97.7628C71.8812 97.8673 72.2107 97.9838 72.4679 98.1124C72.7331 98.2329 72.942 98.3736 73.0947 98.5343C73.2555 98.687 73.368 98.8639 73.4323 99.0648C73.4966 99.2657 73.5287 99.4907 73.5287 99.7399C73.5287 100.102 73.4243 100.427 73.2153 100.716C73.0144 100.998 72.7411 101.219 72.3955 101.379C72.0499 101.54 71.6642 101.621 71.2382 101.621ZM77.007 101.621C76.4765 101.621 75.9983 101.528 75.5724 101.343C75.1464 101.158 74.7928 100.885 74.5115 100.524L75.3554 99.8002C75.5965 100.081 75.8577 100.286 76.139 100.415C76.4283 100.536 76.7538 100.596 77.1155 100.596C77.2601 100.596 77.3927 100.58 77.5133 100.548C77.6419 100.507 77.7504 100.451 77.8388 100.379C77.9352 100.306 78.0076 100.222 78.0558 100.126C78.104 100.021 78.1281 99.9087 78.1281 99.7881C78.1281 99.5791 78.0518 99.4104 77.8991 99.2818C77.8187 99.2255 77.6901 99.1652 77.5133 99.1009C77.3445 99.0286 77.1235 98.9563 76.8502 98.8839C76.3841 98.7634 76.0023 98.6268 75.705 98.4741C75.4076 98.3214 75.1785 98.1486 75.0178 97.9557C74.8972 97.803 74.8088 97.6382 74.7526 97.4614C74.6963 97.2765 74.6682 97.0756 74.6682 96.8586C74.6682 96.5934 74.7244 96.3523 74.837 96.1353C74.9575 95.9102 75.1183 95.7174 75.3192 95.5566C75.5282 95.3878 75.7693 95.2592 76.0425 95.1708C76.3238 95.0824 76.6212 95.0382 76.9346 95.0382C77.232 95.0382 77.5254 95.0784 77.8147 95.1588C78.1121 95.2391 78.3853 95.3557 78.6345 95.5084C78.8836 95.6611 79.0926 95.8419 79.2614 96.0509L78.5501 96.8345C78.3974 96.6818 78.2286 96.5492 78.0437 96.4367C77.8669 96.3161 77.6861 96.2237 77.5012 96.1594C77.3164 96.0951 77.1476 96.0629 76.9949 96.0629C76.8261 96.0629 76.6734 96.079 76.5368 96.1112C76.4002 96.1433 76.2836 96.1915 76.1872 96.2558C76.0988 96.3201 76.0305 96.4005 75.9822 96.4969C75.934 96.5934 75.9099 96.7019 75.9099 96.8224C75.9179 96.9269 75.9421 97.0274 75.9822 97.1238C76.0305 97.2122 76.0948 97.2886 76.1751 97.3529C76.2635 97.4172 76.3962 97.4855 76.573 97.5578C76.7498 97.6302 76.9748 97.6985 77.2481 97.7628C77.6499 97.8673 77.9794 97.9838 78.2366 98.1124C78.5019 98.2329 78.7108 98.3736 78.8635 98.5343C79.0243 98.687 79.1368 98.8639 79.2011 99.0648C79.2654 99.2657 79.2975 99.4907 79.2975 99.7399C79.2975 100.102 79.193 100.427 78.9841 100.716C78.7832 100.998 78.5099 101.219 78.1643 101.379C77.8187 101.54 77.4329 101.621 77.007 101.621ZM83.6196 101.621C82.9686 101.621 82.39 101.484 81.8836 101.211C81.3853 100.929 80.9915 100.548 80.7022 100.065C80.4209 99.5832 80.2802 99.0286 80.2802 98.4017C80.2802 97.9034 80.3606 97.4493 80.5213 97.0394C80.6821 96.6296 80.9031 96.2759 81.1844 95.9786C81.4737 95.6731 81.8153 95.4401 82.2091 95.2793C82.611 95.1106 83.045 95.0262 83.5111 95.0262C83.921 95.0262 84.3028 95.1065 84.6564 95.2673C85.01 95.42 85.3154 95.633 85.5726 95.9062C85.8378 96.1795 86.0388 96.505 86.1754 96.8827C86.3201 97.2524 86.3884 97.6583 86.3803 98.1003L86.3683 98.6308H81.1965L80.9192 97.6422H85.2953L85.1145 97.8472V97.5578C85.0904 97.2926 85.002 97.0555 84.8493 96.8466C84.6966 96.6376 84.5037 96.4728 84.2706 96.3523C84.0375 96.2317 83.7844 96.1714 83.5111 96.1714C83.0771 96.1714 82.7114 96.2558 82.4141 96.4246C82.1167 96.5854 81.8917 96.8265 81.739 97.1479C81.5863 97.4614 81.5099 97.8512 81.5099 98.3173C81.5099 98.7594 81.6023 99.1451 81.7872 99.4747C81.972 99.7961 82.2332 100.045 82.5708 100.222C82.9083 100.399 83.2981 100.487 83.7402 100.487C84.0536 100.487 84.343 100.435 84.6082 100.331C84.8814 100.226 85.1748 100.037 85.4882 99.764L86.1151 100.644C85.9222 100.837 85.6851 101.006 85.4038 101.15C85.1306 101.295 84.8372 101.412 84.5238 101.5C84.2184 101.58 83.917 101.621 83.6196 101.621ZM88.5134 101.5V93.5554H89.7551V101.5H88.5134ZM87.1994 96.3764V95.1708H91.2259V96.3764H87.1994ZM94.7018 101.621C94.1713 101.621 93.6931 101.528 93.2672 101.343C92.8412 101.158 92.4876 100.885 92.2063 100.524L93.0502 99.8002C93.2913 100.081 93.5525 100.286 93.8338 100.415C94.1231 100.536 94.4486 100.596 94.8103 100.596C94.955 100.596 95.0876 100.58 95.2081 100.548C95.3367 100.507 95.4452 100.451 95.5336 100.379C95.6301 100.306 95.7024 100.222 95.7506 100.126C95.7988 100.021 95.823 99.9087 95.823 99.7881C95.823 99.5791 95.7466 99.4104 95.5939 99.2818C95.5135 99.2255 95.3849 99.1652 95.2081 99.1009C95.0393 99.0286 94.8183 98.9563 94.5451 98.8839C94.0789 98.7634 93.6972 98.6268 93.3998 98.4741C93.1024 98.3214 92.8734 98.1486 92.7126 97.9557C92.5921 97.803 92.5037 97.6382 92.4474 97.4614C92.3911 97.2765 92.363 97.0756 92.363 96.8586C92.363 96.5934 92.4193 96.3523 92.5318 96.1353C92.6523 95.9102 92.8131 95.7174 93.014 95.5566C93.223 95.3878 93.4641 95.2592 93.7373 95.1708C94.0186 95.0824 94.316 95.0382 94.6295 95.0382C94.9268 95.0382 95.2202 95.0784 95.5095 95.1588C95.8069 95.2391 96.0801 95.3557 96.3293 95.5084C96.5784 95.6611 96.7874 95.8419 96.9562 96.0509L96.2449 96.8345C96.0922 96.6818 95.9234 96.5492 95.7386 96.4367C95.5618 96.3161 95.3809 96.2237 95.1961 96.1594C95.0112 96.0951 94.8424 96.0629 94.6897 96.0629C94.521 96.0629 94.3683 96.079 94.2316 96.1112C94.095 96.1433 93.9785 96.1915 93.882 96.2558C93.7936 96.3201 93.7253 96.4005 93.6771 96.4969C93.6288 96.5934 93.6047 96.7019 93.6047 96.8224C93.6128 96.9269 93.6369 97.0274 93.6771 97.1238C93.7253 97.2122 93.7896 97.2886 93.87 97.3529C93.9584 97.4172 94.091 97.4855 94.2678 97.5578C94.4446 97.6302 94.6696 97.6985 94.9429 97.7628C95.3448 97.8673 95.6743 97.9838 95.9315 98.1124C96.1967 98.2329 96.4056 98.3736 96.5583 98.5343C96.7191 98.687 96.8316 98.8639 96.8959 99.0648C96.9602 99.2657 96.9923 99.4907 96.9923 99.7399C96.9923 100.102 96.8879 100.427 96.6789 100.716C96.478 100.998 96.2047 101.219 95.8591 101.379C95.5135 101.54 95.1278 101.621 94.7018 101.621Z" fill="#6A6A78"/>
<path d="M62.0707 122.084C61.1507 122.084 60.3173 121.878 59.5707 121.464C58.824 121.038 58.204 120.431 57.7107 119.644L58.9107 118.304C59.5373 118.998 60.084 119.471 60.5507 119.724C61.0173 119.978 61.524 120.104 62.0707 120.104C62.6173 120.104 63.1107 119.984 63.5507 119.744C63.9907 119.504 64.3373 119.178 64.5907 118.764C64.8573 118.351 64.9907 117.891 64.9907 117.384C64.9907 116.851 64.864 116.378 64.6107 115.964C64.3707 115.538 64.044 115.204 63.6307 114.964C63.2173 114.711 62.7507 114.584 62.2307 114.584C61.9773 114.584 61.7373 114.604 61.5107 114.644C61.284 114.671 61.0107 114.744 60.6907 114.864C60.3707 114.984 59.9507 115.171 59.4307 115.424L58.2907 113.884L59.1107 107.944H66.6707V109.944H60.4707L60.8907 109.564L60.2307 114.004L59.7307 113.424C59.864 113.291 60.0907 113.164 60.4107 113.044C60.7307 112.911 61.084 112.804 61.4707 112.724C61.8707 112.631 62.2507 112.584 62.6107 112.584C63.464 112.584 64.224 112.784 64.8907 113.184C65.5707 113.571 66.104 114.111 66.4907 114.804C66.8907 115.498 67.0907 116.291 67.0907 117.184C67.0907 118.104 66.8707 118.938 66.4307 119.684C65.9907 120.418 65.3907 121.004 64.6307 121.444C63.8707 121.871 63.0173 122.084 62.0707 122.084Z" fill="#0B2330"/>
<g filter="url(#filter0_d_1163_1607)">
<path d="M124 76C124 67.1634 131.163 60 140 60H256C264.837 60 272 67.1634 272 76C272 84.8366 264.837 92 256 92H140C131.163 92 124 84.8366 124 76Z" fill="white" shape-rendering="crispEdges"/>
<circle cx="136" cy="76" r="4" fill="#EF9A0A"/>
<path d="M159.761 77.9352C158.692 82.221 154.351 84.8292 150.065 83.7605C145.781 82.692 143.172 78.351 144.241 74.0656C145.309 69.7794 149.65 67.1709 153.935 68.2394C158.221 69.3078 160.829 73.6494 159.76 77.9353L159.761 77.9352H159.761Z" fill="#F7931A"/>
<path fill-rule="evenodd" clip-rule="evenodd" d="M155.528 74.8602C155.688 73.7956 154.877 73.2233 153.769 72.8416L154.128 71.3994L153.25 71.1807L152.9 72.5848C152.67 72.5273 152.433 72.473 152.197 72.4193L152.55 71.0059L151.672 70.7871L151.313 72.2288C151.122 72.1853 150.934 72.1423 150.752 72.097L150.753 72.0925L149.542 71.7902L149.309 72.7278C149.309 72.7278 149.96 72.8771 149.947 72.8863C150.302 72.975 150.366 73.2103 150.356 73.3969L149.946 75.0398C149.971 75.046 150.002 75.055 150.037 75.0691L150.012 75.0627C149.99 75.0573 149.968 75.0517 149.945 75.0461L149.37 77.3476C149.327 77.4556 149.217 77.6177 148.968 77.5562C148.977 77.5689 148.33 77.3969 148.33 77.3969L147.894 78.4018L149.037 78.6866C149.162 78.718 149.285 78.7502 149.408 78.7821C149.493 78.8044 149.578 78.8265 149.663 78.8481L149.299 80.3068L150.176 80.5255L150.536 79.0823C150.775 79.1473 151.008 79.2073 151.236 79.2639L150.877 80.7003L151.755 80.919L152.118 79.4631C153.615 79.7464 154.741 79.6322 155.214 78.2782C155.596 77.188 155.195 76.5593 154.408 76.1492C154.981 76.0169 155.414 75.6397 155.529 74.8603L155.528 74.8601L155.528 74.8602ZM153.523 77.6728C153.274 78.6729 151.708 78.2594 150.992 78.0702C150.928 78.0532 150.87 78.038 150.821 78.0258L151.303 76.0933C151.363 76.1083 151.436 76.1247 151.519 76.1433L151.519 76.1433C152.26 76.3096 153.778 76.6502 153.523 77.6728H153.523ZM151.667 75.2464C152.265 75.4058 153.567 75.7534 153.794 74.8444H153.794C154.026 73.9147 152.76 73.6344 152.142 73.4975C152.072 73.4821 152.011 73.4686 151.961 73.4561L151.524 75.2087C151.565 75.219 151.613 75.2319 151.667 75.2464Z" fill="white"/>
<path d="M164 76C164 73.7909 165.791 72 168 72H191C193.209 72 195 73.7909 195 76C195 78.2091 193.209 80 191 80H168C165.791 80 164 78.2091 164 76Z" fill="#D7D7D7"/>
<path d="M204 76C204 73.7909 205.791 72 208 72H223C225.209 72 227 73.7909 227 76C227 78.2091 225.209 80 223 80H208C205.791 80 204 78.2091 204 76Z" fill="#FCF4EB"/>
<path d="M231.54 78.18V77.1H237.552V78.18H231.54ZM233.904 80.496V74.7H235.164V80.496H233.904ZM240.982 81.12C240.39 81.12 239.874 80.984 239.434 80.712C239.002 80.44 238.594 79.984 238.21 79.344L239.218 78.708C239.418 79.004 239.614 79.248 239.806 79.44C240.006 79.624 240.21 79.76 240.418 79.848C240.626 79.936 240.846 79.98 241.078 79.98C241.358 79.98 241.618 79.912 241.858 79.776C242.098 79.632 242.29 79.436 242.434 79.188C242.578 78.94 242.65 78.66 242.65 78.348C242.65 78.036 242.594 77.772 242.482 77.556C242.37 77.332 242.206 77.164 241.99 77.052C241.774 76.932 241.518 76.872 241.222 76.872C241.086 76.872 240.942 76.888 240.79 76.92C240.646 76.944 240.49 76.984 240.322 77.04C240.154 77.088 239.97 77.152 239.77 77.232L239.41 76.284L242.002 73.428L242.254 73.8H238.678V72.6H243.49L243.73 73.08L240.982 76.128L240.682 75.816C240.746 75.784 240.85 75.756 240.994 75.732C241.146 75.7 241.27 75.684 241.366 75.684C241.718 75.684 242.046 75.752 242.35 75.888C242.662 76.016 242.93 76.2 243.154 76.44C243.386 76.672 243.566 76.948 243.694 77.268C243.83 77.58 243.898 77.916 243.898 78.276C243.898 78.82 243.766 79.308 243.502 79.74C243.246 80.164 242.898 80.5 242.458 80.748C242.018 80.996 241.526 81.12 240.982 81.12ZM245.569 81.132C245.305 81.132 245.101 81.056 244.957 80.904C244.813 80.744 244.741 80.52 244.741 80.232C244.741 79.968 244.817 79.752 244.969 79.584C245.121 79.416 245.321 79.332 245.569 79.332C245.833 79.332 246.037 79.412 246.181 79.572C246.325 79.724 246.397 79.944 246.397 80.232C246.397 80.496 246.321 80.712 246.169 80.88C246.017 81.048 245.817 81.132 245.569 81.132ZM250.731 81V74.232L251.031 74.304L248.271 77.676L248.223 77.532H253.443V78.72H247.419L246.867 77.64L250.983 72.6H251.979V81H250.731ZM255.377 81L260.933 72.6H262.169L256.553 81H255.377ZM256.145 77.052C255.785 77.052 255.465 76.956 255.185 76.764C254.913 76.564 254.697 76.296 254.537 75.96C254.385 75.616 254.309 75.224 254.309 74.784C254.309 74.344 254.385 73.952 254.537 73.608C254.697 73.256 254.917 72.984 255.197 72.792C255.477 72.592 255.797 72.492 256.157 72.492C256.517 72.492 256.833 72.592 257.105 72.792C257.385 72.984 257.601 73.256 257.753 73.608C257.913 73.952 257.993 74.344 257.993 74.784C257.993 75.208 257.913 75.592 257.753 75.936C257.593 76.28 257.373 76.552 257.093 76.752C256.813 76.952 256.497 77.052 256.145 77.052ZM256.157 76.152C256.325 76.152 256.469 76.096 256.589 75.984C256.717 75.872 256.813 75.716 256.877 75.516C256.949 75.308 256.985 75.064 256.985 74.784C256.985 74.504 256.949 74.26 256.877 74.052C256.813 73.844 256.717 73.684 256.589 73.572C256.469 73.46 256.321 73.404 256.145 73.404C255.977 73.404 255.829 73.464 255.701 73.584C255.573 73.696 255.473 73.856 255.401 74.064C255.337 74.264 255.305 74.504 255.305 74.784C255.305 75.064 255.337 75.308 255.401 75.516C255.473 75.716 255.573 75.872 255.701 75.984C255.829 76.096 255.981 76.152 256.157 76.152ZM261.461 81.108C261.101 81.108 260.781 81.008 260.501 80.808C260.229 80.608 260.013 80.34 259.853 80.004C259.693 79.66 259.613 79.272 259.613 78.84C259.613 78.4 259.689 78.008 259.841 77.664C260.001 77.312 260.221 77.04 260.501 76.848C260.781 76.648 261.101 76.548 261.461 76.548C261.821 76.548 262.137 76.648 262.409 76.848C262.689 77.04 262.905 77.312 263.057 77.664C263.217 78.008 263.297 78.4 263.297 78.84C263.297 79.264 263.217 79.648 263.057 79.992C262.897 80.336 262.677 80.608 262.397 80.808C262.125 81.008 261.813 81.108 261.461 81.108ZM261.461 80.22C261.629 80.22 261.777 80.164 261.905 80.052C262.033 79.932 262.129 79.772 262.193 79.572C262.265 79.364 262.301 79.12 262.301 78.84C262.301 78.56 262.265 78.32 262.193 78.12C262.129 77.912 262.033 77.752 261.905 77.64C261.777 77.52 261.629 77.46 261.461 77.46C261.285 77.46 261.133 77.516 261.005 77.628C260.877 77.74 260.777 77.9 260.705 78.108C260.641 78.316 260.609 78.56 260.609 78.84C260.609 79.12 260.641 79.364 260.705 79.572C260.777 79.772 260.877 79.932 261.005 80.052C261.133 80.164 261.285 80.22 261.461 80.22Z" fill="#10B981"/>
</g>
<g filter="url(#filter1_d_1163_1607)">
<path d="M108.5 28C108.5 19.1634 115.663 12 124.5 12H243.5C252.337 12 259.5 19.1634 259.5 28C259.5 36.8366 252.337 44 243.5 44H124.5C115.663 44 108.5 36.8366 108.5 28Z" fill="white" shape-rendering="crispEdges"/>
<circle cx="120.5" cy="28" r="4" fill="#1555E6"/>
<circle cx="136.5" cy="28" r="8" fill="#EDF0F4"/>
<path d="M136.478 23.2L136.415 23.4161V29.6883L136.478 29.7518L139.39 28.0309L136.478 23.2Z" fill="#343434"/>
<path d="M136.478 23.2L133.567 28.0309L136.478 29.7518V26.7075V23.2Z" fill="#8C8C8C"/>
<path d="M136.478 30.3031L136.442 30.3468V32.5811L136.478 32.6858L139.391 28.583L136.478 30.3031Z" fill="#3C3C3B"/>
<path d="M136.478 32.6858V30.3031L133.567 28.583L136.478 32.6858Z" fill="#8C8C8C"/>
<path d="M136.478 29.7519L139.39 28.0309L136.478 26.7075V29.7519Z" fill="#141414"/>
<path d="M133.567 28.0309L136.478 29.7519V26.7075L133.567 28.0309Z" fill="#393939"/>
<path d="M148.5 28C148.5 25.7909 150.291 24 152.5 24H175.5C177.709 24 179.5 25.7909 179.5 28C179.5 30.2091 177.709 32 175.5 32H152.5C150.291 32 148.5 30.2091 148.5 28Z" fill="#D7D7D7"/>
<path d="M192.5 28C192.5 25.7909 194.291 24 196.5 24H211.5C213.709 24 215.5 25.7909 215.5 28C215.5 30.2091 213.709 32 211.5 32H196.5C194.291 32 192.5 30.2091 192.5 28Z" fill="#FCF4EB"/>
<path d="M220.04 30.18V29.1H226.052V30.18H220.04ZM222.404 32.496V26.7H223.664V32.496H222.404ZM229.074 32.412V25.596L229.518 25.932L227.862 26.808L227.514 25.68L229.758 24.48H230.382V32.412H229.074ZM227.742 33V31.752H231.75V33H227.742ZM233.718 33.132C233.454 33.132 233.25 33.056 233.106 32.904C232.962 32.744 232.89 32.52 232.89 32.232C232.89 31.968 232.966 31.752 233.118 31.584C233.27 31.416 233.47 31.332 233.718 31.332C233.982 31.332 234.186 31.412 234.33 31.572C234.474 31.724 234.546 31.944 234.546 32.232C234.546 32.496 234.47 32.712 234.318 32.88C234.166 33.048 233.966 33.132 233.718 33.132ZM236.304 33L239.784 25.416L239.928 25.8H235.68V24.6H240.876L241.044 25.428L237.696 33H236.304ZM242.892 33L248.448 24.6H249.684L244.068 33H242.892ZM243.66 29.052C243.3 29.052 242.98 28.956 242.7 28.764C242.428 28.564 242.212 28.296 242.052 27.96C241.9 27.616 241.824 27.224 241.824 26.784C241.824 26.344 241.9 25.952 242.052 25.608C242.212 25.256 242.432 24.984 242.712 24.792C242.992 24.592 243.312 24.492 243.672 24.492C244.032 24.492 244.348 24.592 244.62 24.792C244.9 24.984 245.116 25.256 245.268 25.608C245.428 25.952 245.508 26.344 245.508 26.784C245.508 27.208 245.428 27.592 245.268 27.936C245.108 28.28 244.888 28.552 244.608 28.752C244.328 28.952 244.012 29.052 243.66 29.052ZM243.672 28.152C243.84 28.152 243.984 28.096 244.104 27.984C244.232 27.872 244.328 27.716 244.392 27.516C244.464 27.308 244.5 27.064 244.5 26.784C244.5 26.504 244.464 26.26 244.392 26.052C244.328 25.844 244.232 25.684 244.104 25.572C243.984 25.46 243.836 25.404 243.66 25.404C243.492 25.404 243.344 25.464 243.216 25.584C243.088 25.696 242.988 25.856 242.916 26.064C242.852 26.264 242.82 26.504 242.82 26.784C242.82 27.064 242.852 27.308 242.916 27.516C242.988 27.716 243.088 27.872 243.216 27.984C243.344 28.096 243.496 28.152 243.672 28.152ZM248.976 33.108C248.616 33.108 248.296 33.008 248.016 32.808C247.744 32.608 247.528 32.34 247.368 32.004C247.208 31.66 247.128 31.272 247.128 30.84C247.128 30.4 247.204 30.008 247.356 29.664C247.516 29.312 247.736 29.04 248.016 28.848C248.296 28.648 248.616 28.548 248.976 28.548C249.336 28.548 249.652 28.648 249.924 28.848C250.204 29.04 250.42 29.312 250.572 29.664C250.732 30.008 250.812 30.4 250.812 30.84C250.812 31.264 250.732 31.648 250.572 31.992C250.412 32.336 250.192 32.608 249.912 32.808C249.64 33.008 249.328 33.108 248.976 33.108ZM248.976 32.22C249.144 32.22 249.292 32.164 249.42 32.052C249.548 31.932 249.644 31.772 249.708 31.572C249.78 31.364 249.816 31.12 249.816 30.84C249.816 30.56 249.78 30.32 249.708 30.12C249.644 29.912 249.548 29.752 249.42 29.64C249.292 29.52 249.144 29.46 248.976 29.46C248.8 29.46 248.648 29.516 248.52 29.628C248.392 29.74 248.292 29.9 248.22 30.108C248.156 30.316 248.124 30.56 248.124 30.84C248.124 31.12 248.156 31.364 248.22 31.572C248.292 31.772 248.392 31.932 248.52 32.052C248.648 32.164 248.8 32.22 248.976 32.22Z" fill="#10B981"/>
</g>
<defs>
<filter id="filter0_d_1163_1607" x="108" y="48" width="180" height="64" filterUnits="userSpaceOnUse" color-interpolation-filters="sRGB">
<feFlood flood-opacity="0" result="BackgroundImageFix"/>
<feColorMatrix in="SourceAlpha" type="matrix" values="0 0 0 0 0 0 0 0 0 0 0 0 0 0 0 0 0 0 127 0" result="hardAlpha"/>
<feOffset dy="4"/>
<feGaussianBlur stdDeviation="8"/>
<feComposite in2="hardAlpha" operator="out"/>
<feColorMatrix type="matrix" values="0 0 0 0 0 0 0 0 0 0 0 0 0 0 0 0 0 0 0.05 0"/>
<feBlend mode="normal" in2="BackgroundImageFix" result="effect1_dropShadow_1163_1607"/>
<feBlend mode="normal" in="SourceGraphic" in2="effect1_dropShadow_1163_1607" result="shape"/>
</filter>
<filter id="filter1_d_1163_1607" x="92.5" y="0" width="183" height="64" filterUnits="userSpaceOnUse" color-interpolation-filters="sRGB">
<feFlood flood-opacity="0" result="BackgroundImageFix"/>
<feColorMatrix in="SourceAlpha" type="matrix" values="0 0 0 0 0 0 0 0 0 0 0 0 0 0 0 0 0 0 127 0" result="hardAlpha"/>
<feOffset dy="4"/>
<feGaussianBlur stdDeviation="8"/>
<feComposite in2="hardAlpha" operator="out"/>
<feColorMatrix type="matrix" values="0 0 0 0 0 0 0 0 0 0 0 0 0 0 0 0 0 0 0.05 0"/>
<feBlend mode="normal" in2="BackgroundImageFix" result="effect1_dropShadow_1163_1607"/>
<feBlend mode="normal" in="SourceGraphic" in2="effect1_dropShadow_1163_1607" result="shape"/>
</filter>
</defs>
</svg>
