<svg width="479" height="276" viewBox="0 0 479 276" fill="none" xmlns="http://www.w3.org/2000/svg">
<g filter="url(#filter0_d_1158_15130)">
<path d="M16 28C16 19.1634 23.1634 12 32 12H447C455.837 12 463 19.1634 463 28V240C463 248.837 455.837 256 447 256H32C23.1635 256 16 248.837 16 240V28Z" fill="white" shape-rendering="crispEdges"/>
<path d="M16.5 28C16.5 19.4396 23.4396 12.5 32 12.5H447C455.56 12.5 462.5 19.4396 462.5 28V240C462.5 248.56 455.56 255.5 447 255.5H32C23.4396 255.5 16.5 248.56 16.5 240V28Z" stroke="white" shape-rendering="crispEdges"/>
<path d="M87.3066 38.1096C87.0581 38.1096 86.8205 38.0767 86.594 38.011C86.3674 37.9452 86.1554 37.8502 85.9581 37.7259C85.7681 37.6017 85.5963 37.4555 85.4428 37.2874C85.2893 37.112 85.1578 36.922 85.0482 36.7173L85.7937 35.9389C85.9471 36.1582 86.086 36.3336 86.2103 36.4652C86.3418 36.5967 86.4661 36.699 86.583 36.7721C86.6999 36.8452 86.8169 36.8964 86.9338 36.9256C87.0508 36.9475 87.175 36.9585 87.3066 36.9585C87.5697 36.9585 87.7999 36.9 87.9972 36.7831C88.1946 36.6588 88.3481 36.4907 88.4577 36.2788C88.5673 36.0668 88.6221 35.8256 88.6221 35.5552V31.4221H87.2189V30.3258H90.9902V31.4221H89.8062V35.6648C89.8062 36.0157 89.744 36.3409 89.6198 36.6406C89.5029 36.9329 89.3311 37.1887 89.1045 37.408C88.8853 37.6273 88.6221 37.799 88.3152 37.9233C88.0155 38.0475 87.6793 38.1096 87.3066 38.1096ZM93.9919 38.1096C93.5168 38.1096 93.0819 37.9781 92.6872 37.715C92.2999 37.4518 91.9893 37.0937 91.7554 36.6406C91.5215 36.1874 91.4046 35.6758 91.4046 35.1057C91.4046 34.5283 91.5215 34.0167 91.7554 33.5709C91.9966 33.1177 92.3182 32.7633 92.7201 32.5075C93.1294 32.2517 93.5862 32.1238 94.0905 32.1238C94.3902 32.1238 94.6643 32.1676 94.9128 32.2553C95.1613 32.343 95.3769 32.4673 95.5596 32.6281C95.7496 32.7815 95.9031 32.9606 96.02 33.1652C96.1443 33.3699 96.221 33.5892 96.2503 33.823L95.9981 33.7353V32.2443H97.1383V38H95.9981V36.6296L96.2612 36.5529C96.2174 36.7502 96.126 36.9439 95.9872 37.1339C95.8556 37.3166 95.6838 37.4811 95.4719 37.6273C95.2672 37.7734 95.037 37.8904 94.7812 37.9781C94.5327 38.0658 94.2696 38.1096 93.9919 38.1096ZM94.2879 37.0681C94.6314 37.0681 94.9347 36.9841 95.1978 36.816C95.4609 36.6479 95.6656 36.4177 95.8117 36.1253C95.9652 35.8256 96.042 35.4858 96.042 35.1057C96.042 34.733 95.9652 34.4004 95.8117 34.1081C95.6656 33.8157 95.4609 33.5855 95.1978 33.4174C94.9347 33.2493 94.6314 33.1652 94.2879 33.1652C93.9517 33.1652 93.652 33.2493 93.3889 33.4174C93.1331 33.5855 92.9284 33.8157 92.775 34.1081C92.6288 34.4004 92.5557 34.733 92.5557 35.1057C92.5557 35.4858 92.6288 35.8256 92.775 36.1253C92.9284 36.4177 93.1331 36.6479 93.3889 36.816C93.652 36.9841 93.9517 37.0681 94.2879 37.0681ZM98.7149 38V32.2443H99.8441V33.4284L99.6468 33.5599C99.7199 33.3041 99.8624 33.0702 100.074 32.8583C100.286 32.639 100.538 32.4636 100.831 32.3321C101.123 32.1932 101.423 32.1238 101.73 32.1238C102.168 32.1238 102.534 32.2115 102.826 32.3869C103.118 32.555 103.338 32.8144 103.484 33.1652C103.63 33.5161 103.703 33.9583 103.703 34.4918V38H102.574V34.5685C102.574 34.2396 102.53 33.9692 102.442 33.7573C102.355 33.538 102.219 33.3809 102.037 33.2858C101.854 33.1835 101.627 33.1397 101.357 33.1543C101.138 33.1543 100.937 33.1908 100.754 33.2639C100.571 33.3297 100.411 33.4247 100.272 33.549C100.14 33.6732 100.034 33.8194 99.9538 33.9875C99.8807 34.1483 99.8441 34.3237 99.8441 34.5137V38H99.285C99.19 38 99.095 38 99 38C98.905 38 98.8099 38 98.7149 38Z" fill="#6A6A78"/>
<path d="M126.717 38V30.3258H127.901V38H126.717ZM127.244 34.733V33.5928H131.201V34.733H127.244ZM127.244 31.466V30.3258H131.695V31.466H127.244ZM135.553 38.1096C134.961 38.1096 134.435 37.9854 133.974 37.7369C133.521 37.4811 133.163 37.1339 132.9 36.6954C132.644 36.2569 132.516 35.7526 132.516 35.1825C132.516 34.7293 132.589 34.3164 132.735 33.9436C132.881 33.5709 133.082 33.2493 133.338 32.9789C133.601 32.7011 133.912 32.4892 134.27 32.343C134.636 32.1895 135.03 32.1128 135.454 32.1128C135.827 32.1128 136.174 32.1859 136.496 32.3321C136.817 32.4709 137.095 32.6646 137.329 32.9131C137.57 33.1616 137.753 33.4576 137.877 33.8011C138.009 34.1373 138.071 34.5064 138.063 34.9084L138.052 35.3908H133.349L133.097 34.4918H137.077L136.912 34.6782V34.415C136.89 34.1739 136.81 33.9583 136.671 33.7682C136.532 33.5782 136.357 33.4284 136.145 33.3187C135.933 33.2091 135.703 33.1543 135.454 33.1543C135.059 33.1543 134.727 33.231 134.456 33.3845C134.186 33.5307 133.981 33.75 133.843 34.0423C133.704 34.3273 133.634 34.6818 133.634 35.1057C133.634 35.5077 133.718 35.8585 133.886 36.1582C134.055 36.4505 134.292 36.6771 134.599 36.8379C134.906 36.9987 135.26 37.0791 135.662 37.0791C135.947 37.0791 136.211 37.0316 136.452 36.9366C136.7 36.8416 136.967 36.6698 137.252 36.4213L137.822 37.2216C137.647 37.397 137.431 37.5505 137.175 37.6821C136.927 37.8136 136.66 37.9196 136.375 38C136.097 38.0731 135.823 38.1096 135.553 38.1096ZM142.316 38.1096C142.068 38.1096 141.819 38.0694 141.571 37.989C141.33 37.9086 141.107 37.8027 140.902 37.6711C140.705 37.5322 140.537 37.3824 140.398 37.2216C140.266 37.0535 140.179 36.8854 140.135 36.7173L140.42 36.5638V37.9671H139.291V29.8873H140.42V33.5599L140.244 33.4613C140.281 33.2932 140.361 33.1324 140.486 32.9789C140.61 32.8181 140.767 32.6756 140.957 32.5513C141.154 32.4198 141.366 32.3174 141.593 32.2443C141.819 32.1639 142.05 32.1238 142.284 32.1238C142.802 32.1238 143.263 32.2517 143.665 32.5075C144.067 32.7633 144.385 33.1177 144.619 33.5709C144.853 34.0167 144.969 34.5283 144.969 35.1057C144.969 35.6831 144.853 36.1984 144.619 36.6515C144.392 37.1047 144.078 37.4628 143.676 37.7259C143.274 37.9817 142.821 38.1096 142.316 38.1096ZM142.13 37.0791C142.466 37.0791 142.766 36.995 143.029 36.8269C143.292 36.6515 143.5 36.4177 143.654 36.1253C143.807 35.8256 143.884 35.4858 143.884 35.1057C143.884 34.733 143.807 34.4004 143.654 34.1081C143.508 33.8084 143.303 33.5745 143.04 33.4064C142.777 33.2383 142.474 33.1543 142.13 33.1543C141.787 33.1543 141.483 33.2383 141.22 33.4064C140.957 33.5745 140.749 33.8084 140.595 34.1081C140.442 34.4004 140.365 34.733 140.365 35.1057C140.365 35.4858 140.442 35.8256 140.595 36.1253C140.749 36.4177 140.957 36.6515 141.22 36.8269C141.483 36.995 141.787 37.0791 142.13 37.0791Z" fill="#6A6A78"/>
<path d="M167.86 38V30.3258H169.022L171.818 34.8755L171.259 34.8645L174.087 30.3258H175.183V38H173.999V34.8536C173.999 34.1958 174.014 33.6038 174.043 33.0775C174.08 32.5513 174.138 32.0287 174.219 31.5098L174.372 31.9155L171.862 35.7964H171.138L168.704 31.9593L168.825 31.5098C168.905 31.9995 168.96 32.5038 168.989 33.0227C169.026 33.5343 169.044 34.1446 169.044 34.8536V38H167.86ZM179.265 38.1096C178.789 38.1096 178.355 37.9781 177.96 37.715C177.573 37.4518 177.262 37.0937 177.028 36.6406C176.794 36.1874 176.677 35.6758 176.677 35.1057C176.677 34.5283 176.794 34.0167 177.028 33.5709C177.269 33.1177 177.591 32.7633 177.993 32.5075C178.402 32.2517 178.859 32.1238 179.363 32.1238C179.663 32.1238 179.937 32.1676 180.185 32.2553C180.434 32.343 180.65 32.4673 180.832 32.6281C181.022 32.7815 181.176 32.9606 181.293 33.1652C181.417 33.3699 181.494 33.5892 181.523 33.823L181.271 33.7353V32.2443H182.411V38H181.271V36.6296L181.534 36.5529C181.49 36.7502 181.399 36.9439 181.26 37.1339C181.128 37.3166 180.957 37.4811 180.745 37.6273C180.54 37.7734 180.31 37.8904 180.054 37.9781C179.805 38.0658 179.542 38.1096 179.265 38.1096ZM179.561 37.0681C179.904 37.0681 180.207 36.9841 180.47 36.816C180.734 36.6479 180.938 36.4177 181.084 36.1253C181.238 35.8256 181.315 35.4858 181.315 35.1057C181.315 34.733 181.238 34.4004 181.084 34.1081C180.938 33.8157 180.734 33.5855 180.47 33.4174C180.207 33.2493 179.904 33.1652 179.561 33.1652C179.224 33.1652 178.925 33.2493 178.662 33.4174C178.406 33.5855 178.201 33.8157 178.048 34.1081C177.901 34.4004 177.828 34.733 177.828 35.1057C177.828 35.4858 177.901 35.8256 178.048 36.1253C178.201 36.4177 178.406 36.6479 178.662 36.816C178.925 36.9841 179.224 37.0681 179.561 37.0681ZM183.988 38V32.2443H185.128V34.0533L185.018 33.6147C185.099 33.337 185.234 33.0849 185.424 32.8583C185.621 32.6317 185.844 32.4526 186.093 32.3211C186.348 32.1895 186.611 32.1238 186.882 32.1238C187.006 32.1238 187.123 32.1347 187.233 32.1566C187.35 32.1786 187.441 32.2041 187.507 32.2334L187.211 33.4613C187.123 33.4247 187.024 33.3955 186.915 33.3735C186.812 33.3443 186.71 33.3297 186.608 33.3297C186.41 33.3297 186.22 33.3699 186.038 33.4503C185.862 33.5234 185.705 33.6294 185.566 33.7682C185.435 33.8998 185.329 34.0569 185.248 34.2396C185.168 34.415 185.128 34.6087 185.128 34.8207V38H183.988Z" fill="#6A6A78"/>
<path d="M209.203 38L212.174 30.3258H213.38L216.329 38H215.068L213.314 33.3735C213.292 33.3224 213.248 33.1981 213.182 33.0008C213.124 32.8035 213.055 32.5842 212.974 32.343C212.894 32.1018 212.821 31.8826 212.755 31.6852C212.689 31.4806 212.645 31.349 212.623 31.2906L212.875 31.2796C212.832 31.4038 212.777 31.561 212.711 31.751C212.653 31.941 212.587 32.142 212.514 32.354C212.448 32.5659 212.382 32.7669 212.316 32.957C212.251 33.1397 212.196 33.2932 212.152 33.4174L210.409 38H209.203ZM210.518 36.0924L210.957 34.9522H214.443L214.947 36.0924H210.518ZM217.394 40.4119V32.2443H218.535V33.5599L218.359 33.4613C218.403 33.242 218.527 33.0337 218.732 32.8364C218.937 32.6317 219.185 32.4673 219.477 32.343C219.777 32.2115 220.084 32.1457 220.398 32.1457C220.917 32.1457 221.378 32.2736 221.78 32.5294C222.182 32.7852 222.5 33.136 222.733 33.5818C222.967 34.0277 223.084 34.5393 223.084 35.1167C223.084 35.6868 222.967 36.1984 222.733 36.6515C222.507 37.0974 222.193 37.4518 221.791 37.715C221.389 37.9708 220.936 38.0987 220.431 38.0987C220.095 38.0987 219.77 38.0329 219.455 37.9013C219.141 37.7625 218.874 37.5871 218.655 37.3751C218.436 37.1631 218.301 36.9439 218.25 36.7173L218.535 36.5638V40.4119H217.394ZM220.245 37.0572C220.581 37.0572 220.881 36.9731 221.144 36.805C221.407 36.6369 221.615 36.4067 221.769 36.1143C221.922 35.822 221.999 35.4894 221.999 35.1167C221.999 34.7439 221.922 34.415 221.769 34.13C221.623 33.8377 221.418 33.6074 221.155 33.4393C220.892 33.2712 220.588 33.1872 220.245 33.1872C219.901 33.1872 219.598 33.2712 219.335 33.4393C219.072 33.6001 218.863 33.8267 218.71 34.119C218.556 34.4114 218.48 34.7439 218.48 35.1167C218.48 35.4894 218.556 35.822 218.71 36.1143C218.863 36.4067 219.072 36.6369 219.335 36.805C219.598 36.9731 219.901 37.0572 220.245 37.0572ZM224.311 38V32.2443H225.451V34.0533L225.341 33.6147C225.422 33.337 225.557 33.0849 225.747 32.8583C225.944 32.6317 226.167 32.4526 226.416 32.3211C226.671 32.1895 226.934 32.1238 227.205 32.1238C227.329 32.1238 227.446 32.1347 227.556 32.1566C227.673 32.1786 227.764 32.2041 227.83 32.2334L227.534 33.4613C227.446 33.4247 227.347 33.3955 227.238 33.3735C227.135 33.3443 227.033 33.3297 226.931 33.3297C226.733 33.3297 226.543 33.3699 226.361 33.4503C226.185 33.5234 226.028 33.6294 225.889 33.7682C225.758 33.8998 225.652 34.0569 225.571 34.2396C225.491 34.415 225.451 34.6087 225.451 34.8207V38H224.311Z" fill="#6A6A78"/>
<path d="M251.146 38V30.3258H252.308L255.103 34.8755L254.544 34.8645L257.373 30.3258H258.469V38H257.285V34.8536C257.285 34.1958 257.3 33.6038 257.329 33.0775C257.365 32.5513 257.424 32.0287 257.504 31.5098L257.658 31.9155L255.147 35.7964H254.424L251.99 31.9593L252.11 31.5098C252.191 31.9995 252.246 32.5038 252.275 33.0227C252.311 33.5343 252.33 34.1446 252.33 34.8536V38H251.146ZM262.55 38.1096C262.075 38.1096 261.64 37.9781 261.246 37.715C260.858 37.4518 260.548 37.0937 260.314 36.6406C260.08 36.1874 259.963 35.6758 259.963 35.1057C259.963 34.5283 260.08 34.0167 260.314 33.5709C260.555 33.1177 260.876 32.7633 261.278 32.5075C261.688 32.2517 262.145 32.1238 262.649 32.1238C262.949 32.1238 263.223 32.1676 263.471 32.2553C263.72 32.343 263.935 32.4673 264.118 32.6281C264.308 32.7815 264.461 32.9606 264.578 33.1652C264.703 33.3699 264.779 33.5892 264.809 33.823L264.556 33.7353V32.2443H265.697V38H264.556V36.6296L264.82 36.5529C264.776 36.7502 264.684 36.9439 264.545 37.1339C264.414 37.3166 264.242 37.4811 264.03 37.6273C263.826 37.7734 263.595 37.8904 263.34 37.9781C263.091 38.0658 262.828 38.1096 262.55 38.1096ZM262.846 37.0681C263.19 37.0681 263.493 36.9841 263.756 36.816C264.019 36.6479 264.224 36.4177 264.37 36.1253C264.524 35.8256 264.6 35.4858 264.6 35.1057C264.6 34.733 264.524 34.4004 264.37 34.1081C264.224 33.8157 264.019 33.5855 263.756 33.4174C263.493 33.2493 263.19 33.1652 262.846 33.1652C262.51 33.1652 262.21 33.2493 261.947 33.4174C261.691 33.5855 261.487 33.8157 261.333 34.1081C261.187 34.4004 261.114 34.733 261.114 35.1057C261.114 35.4858 261.187 35.8256 261.333 36.1253C261.487 36.4177 261.691 36.6479 261.947 36.816C262.21 36.9841 262.51 37.0681 262.846 37.0681ZM268.11 40.5215L269.272 37.8356L269.283 38.7345L266.41 32.2443H267.726L269.524 36.4761C269.56 36.5492 269.604 36.6625 269.655 36.816C269.706 36.9622 269.75 37.1083 269.787 37.2545L269.502 37.3203C269.56 37.1668 269.615 37.0133 269.666 36.8598C269.725 36.7063 269.78 36.5529 269.831 36.3994L271.333 32.2443H272.67L270.302 38L269.326 40.5215H268.11Z" fill="#6A6A78"/>
<path d="M297.021 38.1096C296.772 38.1096 296.535 38.0767 296.308 38.011C296.082 37.9452 295.87 37.8502 295.672 37.7259C295.482 37.6017 295.311 37.4555 295.157 37.2874C295.004 37.112 294.872 36.922 294.763 36.7173L295.508 35.9389C295.661 36.1582 295.8 36.3336 295.925 36.4652C296.056 36.5967 296.18 36.699 296.297 36.7721C296.414 36.8452 296.531 36.8964 296.648 36.9256C296.765 36.9475 296.889 36.9585 297.021 36.9585C297.284 36.9585 297.514 36.9 297.712 36.7831C297.909 36.6588 298.062 36.4907 298.172 36.2788C298.282 36.0668 298.337 35.8256 298.337 35.5552V31.4221H296.933V30.3258H300.705V31.4221H299.521V35.6648C299.521 36.0157 299.458 36.3409 299.334 36.6406C299.217 36.9329 299.045 37.1887 298.819 37.408C298.6 37.6273 298.337 37.799 298.03 37.9233C297.73 38.0475 297.394 38.1096 297.021 38.1096ZM303.509 38.1096C303.1 38.1096 302.741 38.0146 302.434 37.8246C302.135 37.6346 301.901 37.3678 301.733 37.0243C301.572 36.6808 301.492 36.2715 301.492 35.7964V32.2443H302.621V35.4894C302.621 35.8256 302.672 36.118 302.774 36.3665C302.884 36.6077 303.037 36.7941 303.235 36.9256C303.439 37.0572 303.684 37.1229 303.969 37.1229C304.181 37.1229 304.375 37.0901 304.55 37.0243C304.726 36.9512 304.876 36.8525 305 36.7283C305.131 36.604 305.234 36.4542 305.307 36.2788C305.38 36.1034 305.416 35.9133 305.416 35.7087V32.2443H306.546V38H305.416V36.7941L305.614 36.6625C305.526 36.9329 305.376 37.1778 305.164 37.397C304.96 37.6163 304.715 37.7917 304.43 37.9233C304.145 38.0475 303.838 38.1096 303.509 38.1096ZM308.13 38V32.2443H309.259V33.4284L309.061 33.5599C309.134 33.3041 309.277 33.0702 309.489 32.8583C309.701 32.639 309.953 32.4636 310.245 32.3321C310.538 32.1932 310.837 32.1238 311.144 32.1238C311.583 32.1238 311.948 32.2115 312.241 32.3869C312.533 32.555 312.752 32.8144 312.898 33.1652C313.045 33.5161 313.118 33.9583 313.118 34.4918V38H311.989V34.5685C311.989 34.2396 311.945 33.9692 311.857 33.7573C311.769 33.538 311.634 33.3809 311.451 33.2858C311.269 33.1835 311.042 33.1397 310.772 33.1543C310.552 33.1543 310.351 33.1908 310.169 33.2639C309.986 33.3297 309.825 33.4247 309.686 33.549C309.555 33.6732 309.449 33.8194 309.368 33.9875C309.295 34.1483 309.259 34.3237 309.259 34.5137V38H308.7C308.605 38 308.51 38 308.415 38C308.32 38 308.225 38 308.13 38Z" fill="#6A6A78"/>
<path d="M338.164 38.1096C337.915 38.1096 337.677 38.0767 337.451 38.011C337.224 37.9452 337.012 37.8502 336.815 37.7259C336.625 37.6017 336.453 37.4555 336.3 37.2874C336.146 37.112 336.015 36.922 335.905 36.7173L336.651 35.9389C336.804 36.1582 336.943 36.3336 337.067 36.4652C337.199 36.5967 337.323 36.699 337.44 36.7721C337.557 36.8452 337.674 36.8964 337.791 36.9256C337.908 36.9475 338.032 36.9585 338.164 36.9585C338.427 36.9585 338.657 36.9 338.854 36.7831C339.052 36.6588 339.205 36.4907 339.315 36.2788C339.424 36.0668 339.479 35.8256 339.479 35.5552V31.4221H338.076V30.3258H341.847V31.4221H340.663V35.6648C340.663 36.0157 340.601 36.3409 340.477 36.6406C340.36 36.9329 340.188 37.1887 339.961 37.408C339.742 37.6273 339.479 37.799 339.172 37.9233C338.872 38.0475 338.536 38.1096 338.164 38.1096ZM344.651 38.1096C344.242 38.1096 343.884 38.0146 343.577 37.8246C343.277 37.6346 343.044 37.3678 342.875 37.0243C342.715 36.6808 342.634 36.2715 342.634 35.7964V32.2443H343.763V35.4894C343.763 35.8256 343.815 36.118 343.917 36.3665C344.027 36.6077 344.18 36.7941 344.377 36.9256C344.582 37.0572 344.827 37.1229 345.112 37.1229C345.324 37.1229 345.518 37.0901 345.693 37.0243C345.868 36.9512 346.018 36.8525 346.142 36.7283C346.274 36.604 346.376 36.4542 346.449 36.2788C346.523 36.1034 346.559 35.9133 346.559 35.7087V32.2443H347.688V38H346.559V36.7941L346.756 36.6625C346.669 36.9329 346.519 37.1778 346.307 37.397C346.102 37.6163 345.857 37.7917 345.572 37.9233C345.287 38.0475 344.98 38.1096 344.651 38.1096ZM349.294 38V29.8873H350.423V38H349.294Z" fill="#6A6A78"/>
<path d="M372.774 38L375.745 30.3258H376.951L379.9 38H378.639L376.885 33.3735C376.863 33.3224 376.819 33.1981 376.754 33.0008C376.695 32.8035 376.626 32.5842 376.545 32.343C376.465 32.1018 376.392 31.8826 376.326 31.6852C376.26 31.4806 376.217 31.349 376.195 31.2906L376.447 31.2796C376.403 31.4038 376.348 31.561 376.282 31.751C376.224 31.941 376.158 32.142 376.085 32.354C376.019 32.5659 375.953 32.7669 375.888 32.957C375.822 33.1397 375.767 33.2932 375.723 33.4174L373.98 38H372.774ZM374.09 36.0924L374.528 34.9522H378.014L378.519 36.0924H374.09ZM382.876 38.1096C382.467 38.1096 382.108 38.0146 381.801 37.8246C381.502 37.6346 381.268 37.3678 381.1 37.0243C380.939 36.6808 380.859 36.2715 380.859 35.7964V32.2443H381.988V35.4894C381.988 35.8256 382.039 36.118 382.141 36.3665C382.251 36.6077 382.404 36.7941 382.602 36.9256C382.806 37.0572 383.051 37.1229 383.336 37.1229C383.548 37.1229 383.742 37.0901 383.917 37.0243C384.093 36.9512 384.243 36.8525 384.367 36.7283C384.498 36.604 384.601 36.4542 384.674 36.2788C384.747 36.1034 384.783 35.9133 384.783 35.7087V32.2443H385.913V38H384.783V36.7941L384.981 36.6625C384.893 36.9329 384.743 37.1778 384.531 37.397C384.327 37.6163 384.082 37.7917 383.797 37.9233C383.512 38.0475 383.205 38.1096 382.876 38.1096ZM389.966 40.5215C389.556 40.5215 389.147 40.4557 388.738 40.3242C388.336 40.1999 388.011 40.0355 387.762 39.8308L388.179 38.9538C388.325 39.0634 388.497 39.1584 388.694 39.2388C388.891 39.3265 389.1 39.3923 389.319 39.4362C389.538 39.4873 389.754 39.5129 389.966 39.5129C390.368 39.5129 390.704 39.4471 390.974 39.3156C391.245 39.184 391.449 38.9903 391.588 38.7345C391.727 38.4787 391.797 38.1608 391.797 37.7807V36.6735L391.917 36.7502C391.881 36.9768 391.76 37.196 391.555 37.408C391.358 37.6126 391.11 37.7807 390.81 37.9123C390.51 38.0439 390.203 38.1096 389.889 38.1096C389.341 38.1096 388.851 37.9817 388.42 37.7259C387.996 37.4628 387.66 37.1083 387.411 36.6625C387.163 36.2094 387.039 35.6941 387.039 35.1167C387.039 34.5393 387.159 34.0277 387.4 33.5818C387.649 33.1287 387.985 32.7742 388.409 32.5184C388.84 32.2553 389.323 32.1238 389.856 32.1238C390.075 32.1238 390.287 32.153 390.492 32.2115C390.697 32.2626 390.887 32.3394 391.062 32.4417C391.237 32.5367 391.395 32.6427 391.533 32.7596C391.672 32.8766 391.786 33.0008 391.873 33.1324C391.961 33.2639 392.016 33.3882 392.038 33.5051L391.797 33.5928V32.2443H392.926V37.6492C392.926 38.1096 392.856 38.5153 392.718 38.8661C392.586 39.2242 392.392 39.5239 392.136 39.7651C391.881 40.0136 391.57 40.1999 391.205 40.3242C390.839 40.4557 390.426 40.5215 389.966 40.5215ZM390.01 37.0681C390.368 37.0681 390.686 36.9841 390.963 36.816C391.241 36.6479 391.457 36.4177 391.61 36.1253C391.764 35.833 391.84 35.4967 391.84 35.1167C391.84 34.7366 391.76 34.4004 391.599 34.1081C391.446 33.8084 391.23 33.5745 390.952 33.4064C390.682 33.2383 390.368 33.1543 390.01 33.1543C389.659 33.1543 389.345 33.242 389.067 33.4174C388.796 33.5855 388.581 33.8194 388.42 34.119C388.266 34.4114 388.19 34.7439 388.19 35.1167C388.19 35.4894 388.266 35.8256 388.42 36.1253C388.581 36.4177 388.796 36.6479 389.067 36.816C389.345 36.9841 389.659 37.0681 390.01 37.0681Z" fill="#6A6A78"/>
<g clip-path="url(#clip0_1158_15130)">
<path d="M78.3731 174.33C80.8581 172.391 84.9084 168.806 88.9314 161.45C90.6317 158.34 92.3363 154.534 94.0145 150.787C94.5612 149.567 95.105 148.353 95.6449 147.171C97.8876 142.263 100.033 137.985 102.099 135.67C104.018 133.519 105.868 133.085 107.911 132.884C108.242 132.851 108.59 132.825 108.952 132.799C110.798 132.664 112.998 132.502 115.13 131.232C117.642 129.736 120.005 126.779 122.241 123.269C124.504 119.717 126.754 115.404 128.977 111.004C129.706 109.562 130.432 108.11 131.157 106.662C134.885 99.2082 138.559 91.8626 142.227 86.5413C146.464 80.394 150.685 76.972 155.031 73.4491C155.124 73.3731 155.218 73.297 155.312 73.2209C155.604 72.9844 155.895 72.748 156.186 72.512C160.356 69.1264 164.44 65.8098 168.513 63.3094C170.73 61.9478 172.689 60.9984 174.53 60.942C176.229 60.89 178.079 61.6004 180.111 64.2321C182.211 66.9514 184.376 71.5584 186.604 77.0065C187.832 80.0076 189.037 83.1535 190.248 86.3154C191.246 88.922 192.249 91.5394 193.271 94.0956C195.501 99.6678 197.753 104.749 200.026 108.674C201.163 110.638 202.324 112.347 203.515 113.696C204.697 115.034 205.972 116.091 207.354 116.64C208.785 117.21 210.256 117.204 211.69 116.607C213.081 116.027 214.36 114.924 215.551 113.433C217.924 110.461 220.207 105.614 222.443 98.9372C223.565 95.5873 224.685 91.7477 225.795 87.9149L225.965 87.3264C227.022 83.6795 228.07 80.059 229.118 76.8405C230.227 73.4327 231.308 70.5592 232.359 68.6148C232.888 67.635 233.362 66.9839 233.759 66.6171C233.952 66.4392 234.089 66.3644 234.165 66.3355C234.222 66.3136 234.241 66.3183 234.247 66.3198L234.248 66.32C234.32 66.3357 234.629 66.4726 235.133 67.1479C235.606 67.7805 236.116 68.7037 236.655 69.8991C237.729 72.2835 238.821 75.5232 239.932 79.1294C240.536 81.0934 241.147 83.1676 241.761 85.2547C243.373 90.7346 245.012 96.3037 246.647 100.203C247.785 102.919 248.97 104.953 250.234 106.313C251.514 107.688 252.979 108.472 254.606 108.393C256.181 108.315 257.586 107.438 258.807 106.233C260.04 105.017 261.221 103.336 262.361 101.356C263.905 98.6738 265.464 95.2678 266.992 91.9306C267.695 90.3939 268.392 88.8717 269.078 87.4415C270.184 85.1346 271.266 83.0505 272.329 81.4179C273.423 79.7382 274.373 78.7359 275.148 78.3468C275.786 78.0267 276.464 78.0603 277.378 78.442C278.142 78.7609 278.895 79.2429 279.76 79.7969C280.004 79.9528 280.257 80.1144 280.521 80.2797C281.624 80.9702 282.962 81.7414 284.398 81.9178C285.98 82.1121 287.503 81.5749 288.873 80.0802C290.143 78.6944 291.328 76.4281 292.436 74.0031C293.181 72.3747 293.932 70.5756 294.673 68.8007C295.047 67.9047 295.418 67.0148 295.785 66.1562C296.899 63.5484 297.972 61.2202 299.015 59.6044C299.539 58.793 300.003 58.2448 300.396 57.931C300.781 57.6238 300.953 57.6487 300.992 57.656C301.102 57.6767 301.409 57.8108 301.895 58.3813C302.358 58.9248 302.861 59.719 303.396 60.7478C304.465 62.802 305.551 65.5665 306.664 68.5758C307.018 69.532 307.374 70.5137 307.732 71.4999C308.488 73.5816 309.251 75.6835 310.01 77.6084C311.121 80.4279 312.282 83.0263 313.495 84.7468C314.73 86.4984 316.162 87.5383 317.83 87.6443C319.44 87.7466 320.881 86.9463 322.086 85.9678C323.308 84.9745 324.491 83.6272 325.607 82.2774C325.994 81.8089 326.371 81.3427 326.743 80.8832C327.476 79.9773 328.187 79.0977 328.913 78.2787C331.097 75.8129 333.095 74.2783 334.91 73.8283C335.78 73.6126 336.619 73.6433 337.464 73.9579C338.325 74.2784 339.267 74.9215 340.276 76.0438C342.35 78.35 344.499 82.4224 346.735 87.1312C347.43 88.5938 348.132 90.1137 348.837 91.6422C350.36 94.9419 351.901 98.2815 353.433 101.169C355.687 105.421 357.979 108.815 360.322 111.239C362.659 113.657 365.141 115.204 367.771 115.553C370.444 115.907 373.022 114.994 375.453 113.019C377.86 111.064 380.181 108.025 382.446 103.964C386.731 96.2793 390.991 84.5896 393.303 78.1424V174.33H78.3731Z" fill="url(#paint0_linear_1158_15130)" stroke="#11B880" stroke-width="2.65179"/>
</g>
<path d="M194.204 199V193.416L194.316 194.2L189.788 187.8H191.308L195.02 193.112L194.684 193.08L198.092 187.8H199.532L195.196 194.376L195.436 193.288V199H194.204ZM203.395 199.16C202.563 199.16 201.822 198.973 201.171 198.6C200.531 198.227 200.025 197.709 199.651 197.048C199.289 196.387 199.107 195.635 199.107 194.792C199.107 193.96 199.289 193.219 199.651 192.568C200.025 191.917 200.531 191.405 201.171 191.032C201.822 190.659 202.563 190.472 203.395 190.472C204.217 190.472 204.947 190.659 205.587 191.032C206.238 191.405 206.745 191.917 207.107 192.568C207.481 193.219 207.667 193.96 207.667 194.792C207.667 195.635 207.481 196.387 207.107 197.048C206.745 197.709 206.238 198.227 205.587 198.6C204.947 198.973 204.217 199.16 203.395 199.16ZM203.395 198.024C203.982 198.024 204.505 197.885 204.963 197.608C205.422 197.32 205.779 196.936 206.035 196.456C206.291 195.965 206.419 195.411 206.419 194.792C206.419 194.173 206.291 193.624 206.035 193.144C205.779 192.664 205.422 192.291 204.963 192.024C204.505 191.747 203.982 191.608 203.395 191.608C202.809 191.608 202.281 191.747 201.811 192.024C201.353 192.291 200.99 192.669 200.723 193.16C200.467 193.64 200.345 194.184 200.355 194.792C200.345 195.411 200.467 195.965 200.723 196.456C200.99 196.936 201.353 197.32 201.811 197.608C202.281 197.885 202.809 198.024 203.395 198.024ZM212.378 199.16C211.738 199.16 211.194 199.032 210.746 198.776C210.309 198.509 209.973 198.125 209.738 197.624C209.514 197.123 209.402 196.499 209.402 195.752V190.648H210.618V195.512C210.618 196.077 210.693 196.552 210.842 196.936C211.002 197.309 211.237 197.592 211.546 197.784C211.866 197.976 212.255 198.072 212.714 198.072C213.066 198.072 213.391 198.013 213.69 197.896C213.989 197.768 214.25 197.597 214.474 197.384C214.698 197.171 214.874 196.92 215.002 196.632C215.13 196.344 215.194 196.04 215.194 195.72V190.648H216.394V199H215.21L215.162 197.24L215.354 197.144C215.226 197.517 215.013 197.859 214.714 198.168C214.415 198.467 214.058 198.707 213.642 198.888C213.237 199.069 212.815 199.16 212.378 199.16ZM218.731 199V190.648H219.931L219.963 192.872L219.835 192.568C219.952 192.195 220.139 191.848 220.395 191.528C220.661 191.208 220.976 190.952 221.339 190.76C221.701 190.568 222.101 190.472 222.539 190.472C222.72 190.472 222.891 190.488 223.051 190.52C223.211 190.541 223.344 190.573 223.451 190.616L223.115 191.96C222.976 191.896 222.832 191.853 222.683 191.832C222.544 191.8 222.411 191.784 222.283 191.784C221.92 191.784 221.595 191.848 221.307 191.976C221.019 192.104 220.773 192.285 220.571 192.52C220.368 192.744 220.213 193.005 220.107 193.304C220 193.603 219.947 193.923 219.947 194.264V199H218.731ZM229.664 199V187.8H234.208C234.858 187.8 235.418 187.917 235.888 188.152C236.368 188.376 236.736 188.701 236.992 189.128C237.248 189.544 237.376 190.04 237.376 190.616C237.376 191.235 237.2 191.768 236.848 192.216C236.496 192.653 236.016 192.957 235.408 193.128L235.376 192.824C235.898 192.92 236.352 193.107 236.736 193.384C237.12 193.651 237.418 193.981 237.632 194.376C237.856 194.771 237.968 195.213 237.968 195.704C237.968 196.205 237.882 196.659 237.712 197.064C237.541 197.469 237.296 197.816 236.976 198.104C236.666 198.392 236.288 198.616 235.84 198.776C235.402 198.925 234.912 199 234.368 199H229.664ZM230.912 197.784H234.272C234.752 197.784 235.168 197.704 235.52 197.544C235.882 197.373 236.16 197.133 236.352 196.824C236.554 196.515 236.656 196.157 236.656 195.752C236.656 195.368 236.549 195.032 236.336 194.744C236.133 194.456 235.845 194.232 235.472 194.072C235.109 193.912 234.682 193.832 234.192 193.832H230.912V197.784ZM230.912 192.616H234.112C234.496 192.616 234.837 192.541 235.136 192.392C235.434 192.232 235.669 192.019 235.84 191.752C236.01 191.475 236.096 191.165 236.096 190.824C236.096 190.28 235.909 189.843 235.536 189.512C235.173 189.181 234.661 189.016 234 189.016H230.912V192.616ZM243.166 199.16C242.441 199.16 241.785 198.973 241.198 198.6C240.612 198.216 240.148 197.699 239.806 197.048C239.465 196.387 239.294 195.64 239.294 194.808C239.294 193.965 239.47 193.219 239.822 192.568C240.174 191.917 240.644 191.405 241.23 191.032C241.828 190.659 242.494 190.472 243.23 190.472C243.668 190.472 244.073 190.536 244.446 190.664C244.82 190.792 245.15 190.973 245.438 191.208C245.737 191.432 245.982 191.699 246.174 192.008C246.377 192.307 246.516 192.632 246.59 192.984L246.238 192.808L246.286 190.648H247.486V199H246.27V196.952L246.59 196.744C246.516 197.064 246.372 197.373 246.158 197.672C245.945 197.96 245.684 198.216 245.374 198.44C245.076 198.664 244.734 198.84 244.35 198.968C243.977 199.096 243.582 199.16 243.166 199.16ZM243.438 198.008C243.993 198.008 244.489 197.875 244.926 197.608C245.364 197.331 245.705 196.952 245.95 196.472C246.206 195.981 246.334 195.427 246.334 194.808C246.334 194.189 246.206 193.64 245.95 193.16C245.705 192.68 245.364 192.301 244.926 192.024C244.489 191.747 243.993 191.608 243.438 191.608C242.873 191.608 242.372 191.747 241.934 192.024C241.508 192.301 241.166 192.68 240.91 193.16C240.665 193.64 240.542 194.189 240.542 194.808C240.542 195.416 240.665 195.965 240.91 196.456C241.156 196.936 241.497 197.315 241.934 197.592C242.372 197.869 242.873 198.008 243.438 198.008ZM249.856 199V187.16H251.056V199H249.856ZM256.526 199.16C255.8 199.16 255.144 198.973 254.558 198.6C253.971 198.216 253.507 197.699 253.166 197.048C252.824 196.387 252.654 195.64 252.654 194.808C252.654 193.965 252.83 193.219 253.182 192.568C253.534 191.917 254.003 191.405 254.59 191.032C255.187 190.659 255.854 190.472 256.59 190.472C257.027 190.472 257.432 190.536 257.806 190.664C258.179 190.792 258.51 190.973 258.798 191.208C259.096 191.432 259.342 191.699 259.534 192.008C259.736 192.307 259.875 192.632 259.95 192.984L259.598 192.808L259.646 190.648H260.846V199H259.63V196.952L259.95 196.744C259.875 197.064 259.731 197.373 259.518 197.672C259.304 197.96 259.043 198.216 258.734 198.44C258.435 198.664 258.094 198.84 257.71 198.968C257.336 199.096 256.942 199.16 256.526 199.16ZM256.798 198.008C257.352 198.008 257.848 197.875 258.286 197.608C258.723 197.331 259.064 196.952 259.31 196.472C259.566 195.981 259.694 195.427 259.694 194.808C259.694 194.189 259.566 193.64 259.31 193.16C259.064 192.68 258.723 192.301 258.286 192.024C257.848 191.747 257.352 191.608 256.798 191.608C256.232 191.608 255.731 191.747 255.294 192.024C254.867 192.301 254.526 192.68 254.27 193.16C254.024 193.64 253.902 194.189 253.902 194.808C253.902 195.416 254.024 195.965 254.27 196.456C254.515 196.936 254.856 197.315 255.294 197.592C255.731 197.869 256.232 198.008 256.798 198.008ZM263.184 199V190.648H264.368L264.416 192.392L264.224 192.472C264.33 192.109 264.538 191.779 264.848 191.48C265.157 191.181 265.525 190.941 265.952 190.76C266.389 190.568 266.837 190.472 267.296 190.472C267.914 190.472 268.432 190.595 268.848 190.84C269.264 191.085 269.578 191.464 269.792 191.976C270.005 192.488 270.112 193.139 270.112 193.928V199H268.896V193.992C268.896 193.437 268.821 192.984 268.672 192.632C268.533 192.269 268.314 192.003 268.016 191.832C267.717 191.661 267.349 191.581 266.912 191.592C266.549 191.592 266.213 191.656 265.904 191.784C265.594 191.901 265.328 192.067 265.104 192.28C264.88 192.493 264.704 192.739 264.576 193.016C264.448 193.293 264.384 193.592 264.384 193.912V199H263.792C263.717 199 263.632 199 263.536 199C263.44 199 263.322 199 263.184 199ZM275.922 199.16C275.133 199.16 274.429 198.973 273.81 198.6C273.192 198.216 272.701 197.699 272.338 197.048C271.986 196.387 271.81 195.64 271.81 194.808C271.81 193.976 271.986 193.235 272.338 192.584C272.701 191.923 273.192 191.405 273.81 191.032C274.429 190.659 275.138 190.472 275.938 190.472C276.653 190.472 277.304 190.616 277.89 190.904C278.477 191.181 278.946 191.571 279.298 192.072L278.594 192.936C278.392 192.669 278.146 192.435 277.858 192.232C277.581 192.029 277.277 191.875 276.946 191.768C276.626 191.651 276.306 191.592 275.986 191.592C275.421 191.592 274.914 191.736 274.466 192.024C274.018 192.301 273.661 192.68 273.394 193.16C273.138 193.64 273.01 194.189 273.01 194.808C273.01 195.427 273.138 195.981 273.394 196.472C273.661 196.952 274.018 197.331 274.466 197.608C274.914 197.885 275.416 198.024 275.97 198.024C276.29 198.024 276.605 197.976 276.914 197.88C277.224 197.773 277.517 197.624 277.794 197.432C278.072 197.24 278.328 197 278.562 196.712L279.266 197.576C278.904 198.056 278.418 198.44 277.81 198.728C277.202 199.016 276.573 199.16 275.922 199.16ZM284.504 199.16C283.672 199.16 282.931 198.979 282.28 198.616C281.64 198.253 281.139 197.747 280.776 197.096C280.414 196.445 280.232 195.699 280.232 194.856C280.232 194.205 280.334 193.619 280.536 193.096C280.739 192.563 281.022 192.099 281.384 191.704C281.758 191.309 282.2 191.005 282.712 190.792C283.224 190.568 283.779 190.456 284.376 190.456C284.942 190.456 285.454 190.557 285.912 190.76C286.382 190.963 286.782 191.245 287.112 191.608C287.454 191.96 287.71 192.381 287.88 192.872C288.051 193.363 288.126 193.901 288.104 194.488L288.088 195.048H281.128L280.952 194.04H287.176L286.888 194.312V193.928C286.867 193.544 286.755 193.176 286.552 192.824C286.35 192.461 286.062 192.168 285.688 191.944C285.326 191.72 284.888 191.608 284.376 191.608C283.779 191.608 283.262 191.731 282.824 191.976C282.387 192.211 282.051 192.563 281.816 193.032C281.582 193.501 281.464 194.083 281.464 194.776C281.464 195.437 281.592 196.013 281.848 196.504C282.104 196.984 282.467 197.357 282.936 197.624C283.416 197.891 283.992 198.024 284.664 198.024C285.059 198.024 285.448 197.96 285.832 197.832C286.227 197.693 286.659 197.427 287.128 197.032L287.752 197.896C287.507 198.141 287.214 198.36 286.872 198.552C286.531 198.733 286.158 198.883 285.752 199C285.347 199.107 284.931 199.16 284.504 199.16Z" fill="#6A6A78"/>
<path d="M176.904 233.28C175.149 233.28 173.619 232.991 172.312 232.412C171.024 231.815 169.913 230.947 168.98 229.808L171.192 226.56C172.181 227.717 173.143 228.529 174.076 228.996C175.028 229.463 176.055 229.696 177.156 229.696C177.735 229.696 178.248 229.621 178.696 229.472C179.163 229.304 179.527 229.071 179.788 228.772C180.049 228.473 180.18 228.119 180.18 227.708C180.18 227.409 180.115 227.139 179.984 226.896C179.853 226.635 179.667 226.411 179.424 226.224C179.181 226.019 178.892 225.841 178.556 225.692C178.22 225.524 177.847 225.384 177.436 225.272C177.025 225.141 176.577 225.039 176.092 224.964C174.692 224.665 173.525 224.245 172.592 223.704C171.677 223.163 170.987 222.491 170.52 221.688C170.072 220.885 169.848 219.933 169.848 218.832C169.848 217.992 170.035 217.217 170.408 216.508C170.781 215.78 171.295 215.155 171.948 214.632C172.62 214.109 173.385 213.708 174.244 213.428C175.121 213.148 176.045 213.008 177.016 213.008C178.584 213.008 179.965 213.269 181.16 213.792C182.373 214.296 183.419 215.08 184.296 216.144L182.28 219.056C181.589 218.253 180.796 217.647 179.9 217.236C179.023 216.825 178.089 216.62 177.1 216.62C176.484 216.62 175.952 216.704 175.504 216.872C175.056 217.021 174.701 217.245 174.44 217.544C174.197 217.843 174.076 218.207 174.076 218.636C174.076 218.972 174.16 219.271 174.328 219.532C174.496 219.793 174.739 220.027 175.056 220.232C175.373 220.419 175.756 220.587 176.204 220.736C176.652 220.885 177.147 221.016 177.688 221.128C178.715 221.333 179.639 221.604 180.46 221.94C181.281 222.276 181.981 222.687 182.56 223.172C183.157 223.639 183.615 224.199 183.932 224.852C184.249 225.487 184.408 226.205 184.408 227.008C184.408 228.333 184.091 229.463 183.456 230.396C182.821 231.329 181.944 232.048 180.824 232.552C179.704 233.037 178.397 233.28 176.904 233.28ZM175.224 235.548L175.448 222.612L177.828 223.536L178.052 235.548H175.224ZM178.668 223.564L176.288 222.64L176.064 210.992H178.892L178.668 223.564ZM193.504 233C192.515 233 191.581 232.823 190.704 232.468C189.845 232.113 189.089 231.619 188.436 230.984C187.801 230.349 187.297 229.603 186.924 228.744C186.569 227.885 186.392 226.961 186.392 225.972C186.392 225.356 186.467 224.731 186.616 224.096C186.765 223.443 186.971 222.771 187.232 222.08C187.512 221.389 187.848 220.671 188.24 219.924C188.632 219.177 189.071 218.403 189.556 217.6L192.244 213.092H196.164L196.276 213.372L192.72 219.112C192.216 219.933 191.768 220.717 191.376 221.464C191.003 222.211 190.667 222.929 190.368 223.62C190.088 224.311 189.827 225.011 189.584 225.72L188.772 223.48C189.015 222.845 189.341 222.276 189.752 221.772C190.163 221.249 190.629 220.811 191.152 220.456C191.675 220.083 192.225 219.803 192.804 219.616C193.383 219.411 193.952 219.308 194.512 219.308C195.613 219.308 196.621 219.607 197.536 220.204C198.469 220.783 199.207 221.557 199.748 222.528C200.308 223.499 200.588 224.563 200.588 225.72C200.588 227.12 200.28 228.371 199.664 229.472C199.067 230.555 198.227 231.413 197.144 232.048C196.08 232.683 194.867 233 193.504 233ZM193.56 229.444C194.195 229.444 194.755 229.304 195.24 229.024C195.744 228.725 196.136 228.315 196.416 227.792C196.696 227.269 196.836 226.672 196.836 226C196.836 225.421 196.687 224.88 196.388 224.376C196.108 223.853 195.716 223.433 195.212 223.116C194.727 222.799 194.185 222.64 193.588 222.64C192.935 222.64 192.347 222.799 191.824 223.116C191.32 223.415 190.919 223.816 190.62 224.32C190.34 224.805 190.2 225.356 190.2 225.972C190.2 226.644 190.34 227.241 190.62 227.764C190.919 228.268 191.32 228.679 191.824 228.996C192.328 229.295 192.907 229.444 193.56 229.444ZM203.731 233L211.655 215.192L212.663 217.012H202.527V213.288H215.099L215.519 215.444L208.015 233H203.731ZM215.834 238.404L214.602 236.92C215.33 236.565 215.908 236.136 216.338 235.632C216.786 235.128 217.01 234.689 217.01 234.316C217.01 234.148 216.963 233.971 216.87 233.784C216.776 233.597 216.571 233.364 216.254 233.084C215.843 232.767 215.563 232.468 215.414 232.188C215.283 231.889 215.218 231.572 215.218 231.236C215.218 230.695 215.414 230.265 215.806 229.948C216.198 229.631 216.702 229.472 217.318 229.472C217.822 229.472 218.279 229.621 218.69 229.92C219.119 230.2 219.455 230.601 219.698 231.124C219.94 231.628 220.062 232.216 220.062 232.888C220.062 233.485 219.959 234.064 219.754 234.624C219.548 235.203 219.25 235.735 218.858 236.22C218.484 236.724 218.036 237.163 217.514 237.536C217.01 237.909 216.45 238.199 215.834 238.404ZM228.721 233.28C227.209 233.28 225.883 232.953 224.745 232.3C223.625 231.647 222.589 230.527 221.637 228.94L224.717 226.98C225.146 227.633 225.575 228.165 226.005 228.576C226.453 228.987 226.919 229.285 227.405 229.472C227.89 229.659 228.394 229.752 228.917 229.752C229.477 229.752 229.999 229.621 230.485 229.36C230.97 229.099 231.353 228.735 231.633 228.268C231.931 227.783 232.081 227.232 232.081 226.616C232.081 225.981 231.959 225.449 231.717 225.02C231.474 224.591 231.119 224.264 230.653 224.04C230.186 223.816 229.635 223.704 229.001 223.704C228.721 223.704 228.413 223.732 228.077 223.788C227.741 223.844 227.395 223.937 227.041 224.068C226.686 224.18 226.303 224.32 225.893 224.488L224.913 221.912L230.093 216.256L231.157 217.012L222.925 216.9V213.288H234.713L235.469 214.828L229.001 221.828L228.021 220.68C228.17 220.605 228.413 220.54 228.749 220.484C229.103 220.409 229.43 220.372 229.729 220.372C230.587 220.372 231.39 220.531 232.137 220.848C232.883 221.165 233.546 221.604 234.125 222.164C234.703 222.724 235.151 223.377 235.469 224.124C235.805 224.871 235.973 225.673 235.973 226.532C235.973 227.82 235.646 228.977 234.993 230.004C234.358 231.012 233.49 231.815 232.389 232.412C231.306 232.991 230.083 233.28 228.721 233.28ZM245.025 233.084C243.718 233.084 242.533 232.832 241.469 232.328C240.405 231.805 239.555 231.105 238.921 230.228C238.286 229.351 237.969 228.38 237.969 227.316C237.969 226.625 238.053 226 238.221 225.44C238.407 224.88 238.678 224.376 239.033 223.928C239.406 223.48 239.854 223.088 240.377 222.752C240.899 222.416 241.506 222.127 242.197 221.884L241.917 222.864C241.394 222.659 240.927 222.416 240.517 222.136C240.106 221.837 239.751 221.501 239.453 221.128C239.173 220.755 238.949 220.353 238.781 219.924C238.631 219.476 238.557 219.009 238.557 218.524C238.557 217.516 238.846 216.611 239.425 215.808C240.003 215.005 240.778 214.371 241.749 213.904C242.719 213.419 243.811 213.176 245.025 213.176C246.219 213.176 247.302 213.419 248.273 213.904C249.243 214.371 250.018 215.005 250.597 215.808C251.175 216.611 251.465 217.516 251.465 218.524C251.465 219.009 251.39 219.476 251.241 219.924C251.091 220.353 250.877 220.745 250.597 221.1C250.317 221.455 249.962 221.781 249.533 222.08C249.122 222.379 248.637 222.64 248.077 222.864L247.909 221.996C248.525 222.183 249.085 222.444 249.589 222.78C250.111 223.097 250.55 223.489 250.905 223.956C251.278 224.404 251.567 224.908 251.773 225.468C251.978 226.028 252.081 226.644 252.081 227.316C252.081 228.399 251.763 229.379 251.129 230.256C250.494 231.133 249.645 231.824 248.581 232.328C247.517 232.832 246.331 233.084 245.025 233.084ZM245.025 229.64C245.585 229.64 246.098 229.528 246.565 229.304C247.031 229.08 247.395 228.781 247.657 228.408C247.918 228.016 248.049 227.568 248.049 227.064C248.049 226.541 247.918 226.084 247.657 225.692C247.395 225.281 247.031 224.955 246.565 224.712C246.117 224.469 245.603 224.348 245.025 224.348C244.446 224.348 243.923 224.469 243.457 224.712C243.009 224.955 242.654 225.281 242.393 225.692C242.131 226.084 242.001 226.541 242.001 227.064C242.001 227.549 242.131 227.988 242.393 228.38C242.654 228.753 243.009 229.061 243.457 229.304C243.923 229.528 244.446 229.64 245.025 229.64ZM245.025 220.932C245.529 220.932 245.977 220.839 246.369 220.652C246.761 220.447 247.069 220.185 247.293 219.868C247.535 219.532 247.657 219.14 247.657 218.692C247.657 218.263 247.535 217.88 247.293 217.544C247.069 217.189 246.761 216.909 246.369 216.704C245.977 216.499 245.529 216.396 245.025 216.396C244.521 216.396 244.063 216.499 243.653 216.704C243.261 216.909 242.943 217.189 242.701 217.544C242.477 217.88 242.365 218.263 242.365 218.692C242.365 219.14 242.477 219.532 242.701 219.868C242.943 220.185 243.261 220.447 243.653 220.652C244.063 220.839 244.521 220.932 245.025 220.932ZM254.987 233L254.063 230.704L259.859 224.292C260.176 223.956 260.512 223.564 260.867 223.116C261.24 222.668 261.595 222.211 261.931 221.744C262.286 221.259 262.566 220.792 262.771 220.344C262.976 219.877 263.079 219.457 263.079 219.084C263.079 218.655 262.986 218.281 262.799 217.964C262.612 217.628 262.342 217.367 261.987 217.18C261.632 216.993 261.194 216.9 260.671 216.9C260.186 216.9 259.728 217.031 259.299 217.292C258.87 217.535 258.468 217.899 258.095 218.384C257.722 218.869 257.395 219.457 257.115 220.148L253.979 218.384C254.352 217.301 254.884 216.359 255.575 215.556C256.266 214.753 257.087 214.128 258.039 213.68C258.991 213.232 260.008 213.008 261.091 213.008C262.23 213.027 263.256 213.269 264.171 213.736C265.086 214.203 265.804 214.856 266.327 215.696C266.85 216.536 267.111 217.507 267.111 218.608C267.111 219.019 267.064 219.439 266.971 219.868C266.896 220.297 266.756 220.745 266.551 221.212C266.364 221.679 266.112 222.173 265.795 222.696C265.496 223.2 265.123 223.741 264.675 224.32C264.246 224.88 263.751 225.468 263.191 226.084L258.739 230.928L258.179 229.22H267.923V233H254.987ZM271.559 233.308C270.831 233.308 270.271 233.103 269.879 232.692C269.487 232.281 269.291 231.693 269.291 230.928C269.291 230.237 269.496 229.677 269.907 229.248C270.336 228.8 270.887 228.576 271.559 228.576C272.268 228.576 272.819 228.781 273.211 229.192C273.603 229.603 273.799 230.181 273.799 230.928C273.799 231.637 273.594 232.216 273.183 232.664C272.772 233.093 272.231 233.308 271.559 233.308ZM283.853 233.28C282.173 233.28 280.736 232.879 279.541 232.076C278.365 231.273 277.46 230.125 276.825 228.632C276.209 227.12 275.901 225.309 275.901 223.2C275.901 221.091 276.209 219.289 276.825 217.796C277.46 216.284 278.365 215.127 279.541 214.324C280.736 213.521 282.173 213.12 283.853 213.12C285.533 213.12 286.97 213.521 288.165 214.324C289.36 215.127 290.265 216.284 290.881 217.796C291.516 219.289 291.833 221.091 291.833 223.2C291.833 225.309 291.516 227.12 290.881 228.632C290.265 230.125 289.36 231.273 288.165 232.076C286.97 232.879 285.533 233.28 283.853 233.28ZM283.853 229.668C285.104 229.668 286.074 229.108 286.765 227.988C287.456 226.868 287.801 225.272 287.801 223.2C287.801 221.091 287.456 219.467 286.765 218.328C286.074 217.189 285.104 216.62 283.853 216.62C282.584 216.62 281.604 217.189 280.913 218.328C280.241 219.467 279.905 221.091 279.905 223.2C279.905 225.272 280.241 226.868 280.913 227.988C281.604 229.108 282.584 229.668 283.853 229.668ZM302.538 233V217.152L304.498 217.264L297.61 225.692L297.134 224.992H309.846V228.548H295.09L293.354 225.244L303.238 213.288H306.598V233H302.538Z" fill="#0B2330"/>
</g>
<defs>
<filter id="filter0_d_1158_15130" x="0" y="0" width="479" height="276" filterUnits="userSpaceOnUse" color-interpolation-filters="sRGB">
<feFlood flood-opacity="0" result="BackgroundImageFix"/>
<feColorMatrix in="SourceAlpha" type="matrix" values="0 0 0 0 0 0 0 0 0 0 0 0 0 0 0 0 0 0 127 0" result="hardAlpha"/>
<feOffset dy="4"/>
<feGaussianBlur stdDeviation="8"/>
<feComposite in2="hardAlpha" operator="out"/>
<feColorMatrix type="matrix" values="0 0 0 0 0 0 0 0 0 0 0 0 0 0 0 0 0 0 0.05 0"/>
<feBlend mode="normal" in2="BackgroundImageFix" result="effect1_dropShadow_1158_15130"/>
<feBlend mode="normal" in="SourceGraphic" in2="effect1_dropShadow_1158_15130" result="shape"/>
</filter>
<linearGradient id="paint0_linear_1158_15130" x1="225.073" y1="56.3259" x2="225.073" y2="126.096" gradientUnits="userSpaceOnUse">
<stop stop-color="#11B880"/>
<stop offset="1" stop-color="white" stop-opacity="0"/>
</linearGradient>
<clipPath id="clip0_1158_15130">
<rect width="297" height="111.375" fill="white" transform="translate(91 55)"/>
</clipPath>
</defs>
</svg>
