<svg width="545" height="281" viewBox="0 0 545 281" fill="none" xmlns="http://www.w3.org/2000/svg">
<g filter="url(#filter0_d_1258_16083)">
<g clip-path="url(#clip0_1258_16083)">
<path d="M16.5 30.3408C16.5 21.5043 23.6634 14.3408 32.5 14.3408H513C521.837 14.3408 529 21.5043 529 30.3408V247C529 255.837 521.837 263 513 263H32.5C23.6634 263 16.5 255.837 16.5 247V30.3408Z" fill="white"/>
<path d="M120.557 40.4505C120.308 40.4505 120.071 40.4176 119.844 40.3518C119.617 40.286 119.405 40.191 119.208 40.0667C119.018 39.9425 118.846 39.7963 118.693 39.6282C118.539 39.4528 118.408 39.2628 118.298 39.0581L119.044 38.2797C119.197 38.499 119.336 38.6744 119.46 38.806C119.592 38.9375 119.716 39.0399 119.833 39.1129C119.95 39.186 120.067 39.2372 120.184 39.2664C120.301 39.2884 120.425 39.2993 120.557 39.2993C120.82 39.2993 121.05 39.2409 121.247 39.1239C121.445 38.9997 121.598 38.8316 121.708 38.6196C121.817 38.4077 121.872 38.1665 121.872 37.896V33.7629H120.469V32.6666H124.24V33.7629H123.056V38.0057C123.056 38.3565 122.994 38.6817 122.87 38.9814C122.753 39.2737 122.581 39.5295 122.355 39.7488C122.135 39.9681 121.872 40.1398 121.565 40.2641C121.266 40.3883 120.929 40.4505 120.557 40.4505ZM127.242 40.4505C126.767 40.4505 126.332 40.3189 125.937 40.0558C125.55 39.7927 125.239 39.4345 125.005 38.9814C124.771 38.5282 124.655 38.0166 124.655 37.4465C124.655 36.8692 124.771 36.3575 125.005 35.9117C125.247 35.4586 125.568 35.1041 125.97 34.8483C126.379 34.5925 126.836 34.4646 127.341 34.4646C127.64 34.4646 127.914 34.5084 128.163 34.5961C128.411 34.6838 128.627 34.8081 128.81 34.9689C129 35.1224 129.153 35.3014 129.27 35.5061C129.394 35.7107 129.471 35.93 129.5 36.1639L129.248 36.0762V34.5852H130.388V40.3408H129.248V38.9704L129.511 38.8937C129.467 39.091 129.376 39.2847 129.237 39.4747C129.106 39.6575 128.934 39.8219 128.722 39.9681C128.517 40.1142 128.287 40.2312 128.031 40.3189C127.783 40.4066 127.52 40.4505 127.242 40.4505ZM127.538 39.409C127.881 39.409 128.185 39.3249 128.448 39.1568C128.711 38.9887 128.916 38.7585 129.062 38.4661C129.215 38.1665 129.292 37.8266 129.292 37.4465C129.292 37.0738 129.215 36.7413 129.062 36.4489C128.916 36.1566 128.711 35.9263 128.448 35.7582C128.185 35.5901 127.881 35.5061 127.538 35.5061C127.202 35.5061 126.902 35.5901 126.639 35.7582C126.383 35.9263 126.178 36.1566 126.025 36.4489C125.879 36.7413 125.806 37.0738 125.806 37.4465C125.806 37.8266 125.879 38.1665 126.025 38.4661C126.178 38.7585 126.383 38.9887 126.639 39.1568C126.902 39.3249 127.202 39.409 127.538 39.409ZM131.965 40.3408V34.5852H133.094V35.7692L132.897 35.9007C132.97 35.6449 133.112 35.4111 133.324 35.1991C133.536 34.9798 133.788 34.8044 134.081 34.6729C134.373 34.534 134.673 34.4646 134.98 34.4646C135.418 34.4646 135.784 34.5523 136.076 34.7277C136.368 34.8958 136.588 35.1552 136.734 35.5061C136.88 35.8569 136.953 36.2991 136.953 36.8326V40.3408H135.824V36.9094C135.824 36.5805 135.78 36.31 135.692 36.0981C135.605 35.8788 135.469 35.7217 135.287 35.6267C135.104 35.5243 134.877 35.4805 134.607 35.4951C134.388 35.4951 134.187 35.5317 134.004 35.6047C133.821 35.6705 133.661 35.7655 133.522 35.8898C133.39 36.014 133.284 36.1602 133.204 36.3283C133.131 36.4891 133.094 36.6645 133.094 36.8545V40.3408H132.535C132.44 40.3408 132.345 40.3408 132.25 40.3408C132.155 40.3408 132.06 40.3408 131.965 40.3408Z" fill="#6A6A78"/>
<path d="M159.967 40.3408V32.6666H161.151V40.3408H159.967ZM160.494 37.0738V35.9336H164.451V37.0738H160.494ZM160.494 33.8068V32.6666H164.945V33.8068H160.494ZM168.803 40.4505C168.211 40.4505 167.685 40.3262 167.224 40.0777C166.771 39.8219 166.413 39.4747 166.15 39.0362C165.894 38.5977 165.766 38.0934 165.766 37.5233C165.766 37.0701 165.839 36.6572 165.985 36.2845C166.131 35.9117 166.332 35.5901 166.588 35.3197C166.851 35.042 167.162 34.83 167.52 34.6838C167.886 34.5303 168.28 34.4536 168.704 34.4536C169.077 34.4536 169.424 34.5267 169.746 34.6729C170.067 34.8117 170.345 35.0054 170.579 35.2539C170.82 35.5024 171.003 35.7984 171.127 36.1419C171.259 36.4781 171.321 36.8472 171.313 37.2492L171.302 37.7316H166.599L166.347 36.8326H170.327L170.162 37.019V36.7559C170.14 36.5147 170.06 36.2991 169.921 36.109C169.782 35.919 169.607 35.7692 169.395 35.6596C169.183 35.5499 168.953 35.4951 168.704 35.4951C168.309 35.4951 167.977 35.5718 167.706 35.7253C167.436 35.8715 167.231 36.0908 167.093 36.3831C166.954 36.6682 166.884 37.0226 166.884 37.4465C166.884 37.8485 166.968 38.1994 167.136 38.499C167.305 38.7914 167.542 39.0179 167.849 39.1787C168.156 39.3395 168.51 39.4199 168.912 39.4199C169.197 39.4199 169.461 39.3724 169.702 39.2774C169.95 39.1824 170.217 39.0106 170.502 38.7621L171.072 39.5624C170.897 39.7378 170.681 39.8913 170.425 40.0229C170.177 40.1544 169.91 40.2604 169.625 40.3408C169.347 40.4139 169.073 40.4505 168.803 40.4505ZM175.566 40.4505C175.318 40.4505 175.069 40.4103 174.821 40.3299C174.58 40.2495 174.357 40.1435 174.152 40.0119C173.955 39.8731 173.787 39.7232 173.648 39.5624C173.516 39.3943 173.429 39.2262 173.385 39.0581L173.67 38.9046V40.3079H172.541V32.2281H173.67V35.9007L173.494 35.8021C173.531 35.634 173.611 35.4732 173.736 35.3197C173.86 35.1589 174.017 35.0164 174.207 34.8921C174.404 34.7606 174.616 34.6583 174.843 34.5852C175.069 34.5048 175.3 34.4646 175.534 34.4646C176.052 34.4646 176.513 34.5925 176.915 34.8483C177.317 35.1041 177.635 35.4586 177.869 35.9117C178.103 36.3575 178.219 36.8692 178.219 37.4465C178.219 38.0239 178.103 38.5392 177.869 38.9924C177.642 39.4455 177.328 39.8036 176.926 40.0667C176.524 40.3225 176.071 40.4505 175.566 40.4505ZM175.38 39.4199C175.716 39.4199 176.016 39.3359 176.279 39.1678C176.542 38.9924 176.75 38.7585 176.904 38.4661C177.057 38.1665 177.134 37.8266 177.134 37.4465C177.134 37.0738 177.057 36.7413 176.904 36.4489C176.758 36.1492 176.553 35.9154 176.29 35.7473C176.027 35.5792 175.724 35.4951 175.38 35.4951C175.037 35.4951 174.733 35.5792 174.47 35.7473C174.207 35.9154 173.999 36.1492 173.845 36.4489C173.692 36.7413 173.615 37.0738 173.615 37.4465C173.615 37.8266 173.692 38.1665 173.845 38.4661C173.999 38.7585 174.207 38.9924 174.47 39.1678C174.733 39.3359 175.037 39.4199 175.38 39.4199Z" fill="#6A6A78"/>
<path d="M201.11 40.3408V32.6666H202.272L205.068 37.2163L204.509 37.2054L207.337 32.6666H208.433V40.3408H207.249V37.1944C207.249 36.5366 207.264 35.9446 207.293 35.4184C207.33 34.8921 207.388 34.3696 207.469 33.8506L207.622 34.2563L205.112 38.1372H204.388L201.954 34.3001L202.075 33.8506C202.155 34.3403 202.21 34.8446 202.239 35.3635C202.276 35.8752 202.294 36.4854 202.294 37.1944V40.3408H201.11ZM212.515 40.4505C212.039 40.4505 211.605 40.3189 211.21 40.0558C210.823 39.7927 210.512 39.4345 210.278 38.9814C210.044 38.5282 209.927 38.0166 209.927 37.4465C209.927 36.8692 210.044 36.3575 210.278 35.9117C210.519 35.4586 210.841 35.1041 211.243 34.8483C211.652 34.5925 212.109 34.4646 212.613 34.4646C212.913 34.4646 213.187 34.5084 213.435 34.5961C213.684 34.6838 213.9 34.8081 214.082 34.9689C214.272 35.1224 214.426 35.3014 214.543 35.5061C214.667 35.7107 214.744 35.93 214.773 36.1639L214.521 36.0762V34.5852H215.661V40.3408H214.521V38.9704L214.784 38.8937C214.74 39.091 214.649 39.2847 214.51 39.4747C214.378 39.6575 214.207 39.8219 213.995 39.9681C213.79 40.1142 213.56 40.2312 213.304 40.3189C213.055 40.4066 212.792 40.4505 212.515 40.4505ZM212.811 39.409C213.154 39.409 213.457 39.3249 213.72 39.1568C213.984 38.9887 214.188 38.7585 214.334 38.4661C214.488 38.1665 214.565 37.8266 214.565 37.4465C214.565 37.0738 214.488 36.7413 214.334 36.4489C214.188 36.1566 213.984 35.9263 213.72 35.7582C213.457 35.5901 213.154 35.5061 212.811 35.5061C212.474 35.5061 212.175 35.5901 211.912 35.7582C211.656 35.9263 211.451 36.1566 211.298 36.4489C211.151 36.7413 211.078 37.0738 211.078 37.4465C211.078 37.8266 211.151 38.1665 211.298 38.4661C211.451 38.7585 211.656 38.9887 211.912 39.1568C212.175 39.3249 212.474 39.409 212.811 39.409ZM217.238 40.3408V34.5852H218.378V36.3941L218.268 35.9556C218.349 35.6778 218.484 35.4257 218.674 35.1991C218.871 34.9725 219.094 34.7935 219.343 34.6619C219.598 34.5303 219.861 34.4646 220.132 34.4646C220.256 34.4646 220.373 34.4755 220.483 34.4975C220.6 34.5194 220.691 34.545 220.757 34.5742L220.461 35.8021C220.373 35.7655 220.274 35.7363 220.165 35.7144C220.062 35.6851 219.96 35.6705 219.858 35.6705C219.66 35.6705 219.47 35.7107 219.288 35.7911C219.112 35.8642 218.955 35.9702 218.816 36.109C218.685 36.2406 218.579 36.3977 218.498 36.5805C218.418 36.7559 218.378 36.9496 218.378 37.1615V40.3408H217.238Z" fill="#6A6A78"/>
<path d="M242.453 40.3408L245.424 32.6666H246.63L249.579 40.3408H248.318L246.564 35.7144C246.542 35.6632 246.498 35.539 246.432 35.3416C246.374 35.1443 246.305 34.925 246.224 34.6838C246.144 34.4426 246.071 34.2234 246.005 34.026C245.939 33.8214 245.895 33.6898 245.873 33.6314L246.125 33.6204C246.082 33.7447 246.027 33.9018 245.961 34.0918C245.903 34.2819 245.837 34.4828 245.764 34.6948C245.698 34.9068 245.632 35.1077 245.566 35.2978C245.501 35.4805 245.446 35.634 245.402 35.7582L243.659 40.3408H242.453ZM243.768 38.4332L244.207 37.2931H247.693L248.197 38.4332H243.768ZM250.644 42.7527V34.5852H251.785V35.9007L251.609 35.8021C251.653 35.5828 251.777 35.3745 251.982 35.1772C252.187 34.9725 252.435 34.8081 252.727 34.6838C253.027 34.5523 253.334 34.4865 253.648 34.4865C254.167 34.4865 254.628 34.6144 255.03 34.8702C255.432 35.126 255.75 35.4768 255.983 35.9227C256.217 36.3685 256.334 36.8801 256.334 37.4575C256.334 38.0276 256.217 38.5392 255.983 38.9924C255.757 39.4382 255.443 39.7927 255.041 40.0558C254.639 40.3116 254.186 40.4395 253.681 40.4395C253.345 40.4395 253.02 40.3737 252.705 40.2422C252.391 40.1033 252.124 39.9279 251.905 39.7159C251.686 39.504 251.551 39.2847 251.5 39.0581L251.785 38.9046V42.7527H250.644ZM253.495 39.398C253.831 39.398 254.131 39.3139 254.394 39.1458C254.657 38.9777 254.865 38.7475 255.019 38.4552C255.172 38.1628 255.249 37.8303 255.249 37.4575C255.249 37.0848 255.172 36.7559 255.019 36.4708C254.873 36.1785 254.668 35.9483 254.405 35.7801C254.142 35.612 253.838 35.528 253.495 35.528C253.151 35.528 252.848 35.612 252.585 35.7801C252.322 35.9409 252.113 36.1675 251.96 36.4599C251.806 36.7522 251.73 37.0848 251.73 37.4575C251.73 37.8303 251.806 38.1628 251.96 38.4552C252.113 38.7475 252.322 38.9777 252.585 39.1458C252.848 39.3139 253.151 39.398 253.495 39.398ZM257.561 40.3408V34.5852H258.701V36.3941L258.591 35.9556C258.672 35.6778 258.807 35.4257 258.997 35.1991C259.194 34.9725 259.417 34.7935 259.666 34.6619C259.921 34.5303 260.184 34.4646 260.455 34.4646C260.579 34.4646 260.696 34.4755 260.806 34.4975C260.923 34.5194 261.014 34.545 261.08 34.5742L260.784 35.8021C260.696 35.7655 260.597 35.7363 260.488 35.7144C260.385 35.6851 260.283 35.6705 260.181 35.6705C259.983 35.6705 259.793 35.7107 259.611 35.7911C259.435 35.8642 259.278 35.9702 259.139 36.109C259.008 36.2406 258.902 36.3977 258.821 36.5805C258.741 36.7559 258.701 36.9496 258.701 37.1615V40.3408H257.561Z" fill="#6A6A78"/>
<path d="M284.396 40.3408V32.6666H285.558L288.353 37.2163L287.794 37.2054L290.623 32.6666H291.719V40.3408H290.535V37.1944C290.535 36.5366 290.55 35.9446 290.579 35.4184C290.615 34.8921 290.674 34.3696 290.754 33.8506L290.908 34.2563L288.397 38.1372H287.674L285.24 34.3001L285.36 33.8506C285.441 34.3403 285.496 34.8446 285.525 35.3635C285.561 35.8752 285.58 36.4854 285.58 37.1944V40.3408H284.396ZM295.8 40.4505C295.325 40.4505 294.89 40.3189 294.496 40.0558C294.108 39.7927 293.798 39.4345 293.564 38.9814C293.33 38.5282 293.213 38.0166 293.213 37.4465C293.213 36.8692 293.33 36.3575 293.564 35.9117C293.805 35.4586 294.126 35.1041 294.528 34.8483C294.938 34.5925 295.395 34.4646 295.899 34.4646C296.199 34.4646 296.473 34.5084 296.721 34.5961C296.97 34.6838 297.185 34.8081 297.368 34.9689C297.558 35.1224 297.711 35.3014 297.828 35.5061C297.953 35.7107 298.029 35.93 298.059 36.1639L297.806 36.0762V34.5852H298.947V40.3408H297.806V38.9704L298.07 38.8937C298.026 39.091 297.934 39.2847 297.795 39.4747C297.664 39.6575 297.492 39.8219 297.28 39.9681C297.076 40.1142 296.845 40.2312 296.59 40.3189C296.341 40.4066 296.078 40.4505 295.8 40.4505ZM296.096 39.409C296.44 39.409 296.743 39.3249 297.006 39.1568C297.269 38.9887 297.474 38.7585 297.62 38.4661C297.774 38.1665 297.85 37.8266 297.85 37.4465C297.85 37.0738 297.774 36.7413 297.62 36.4489C297.474 36.1566 297.269 35.9263 297.006 35.7582C296.743 35.5901 296.44 35.5061 296.096 35.5061C295.76 35.5061 295.46 35.5901 295.197 35.7582C294.941 35.9263 294.737 36.1566 294.583 36.4489C294.437 36.7413 294.364 37.0738 294.364 37.4465C294.364 37.8266 294.437 38.1665 294.583 38.4661C294.737 38.7585 294.941 38.9887 295.197 39.1568C295.46 39.3249 295.76 39.409 296.096 39.409ZM301.36 42.8623L302.522 40.1764L302.533 41.0754L299.66 34.5852H300.976L302.774 38.8169C302.81 38.89 302.854 39.0033 302.905 39.1568C302.956 39.303 303 39.4492 303.037 39.5953L302.752 39.6611C302.81 39.5076 302.865 39.3541 302.916 39.2007C302.975 39.0472 303.03 38.8937 303.081 38.7402L304.583 34.5852H305.92L303.552 40.3408L302.576 42.8623H301.36Z" fill="#6A6A78"/>
<path d="M330.271 40.4505C330.022 40.4505 329.785 40.4176 329.558 40.3518C329.332 40.286 329.12 40.191 328.922 40.0667C328.732 39.9425 328.561 39.7963 328.407 39.6282C328.254 39.4528 328.122 39.2628 328.013 39.0581L328.758 38.2797C328.911 38.499 329.05 38.6744 329.175 38.806C329.306 38.9375 329.43 39.0399 329.547 39.1129C329.664 39.186 329.781 39.2372 329.898 39.2664C330.015 39.2884 330.139 39.2993 330.271 39.2993C330.534 39.2993 330.764 39.2409 330.962 39.1239C331.159 38.9997 331.312 38.8316 331.422 38.6196C331.532 38.4077 331.587 38.1665 331.587 37.896V33.7629H330.183V32.6666H333.955V33.7629H332.771V38.0057C332.771 38.3565 332.708 38.6817 332.584 38.9814C332.467 39.2737 332.295 39.5295 332.069 39.7488C331.85 39.9681 331.587 40.1398 331.28 40.2641C330.98 40.3883 330.644 40.4505 330.271 40.4505ZM336.759 40.4505C336.35 40.4505 335.991 40.3554 335.684 40.1654C335.385 39.9754 335.151 39.7086 334.983 39.3651C334.822 39.0216 334.742 38.6123 334.742 38.1372V34.5852H335.871V37.8303C335.871 38.1665 335.922 38.4588 336.024 38.7073C336.134 38.9485 336.287 39.1349 336.485 39.2664C336.689 39.398 336.934 39.4638 337.219 39.4638C337.431 39.4638 337.625 39.4309 337.8 39.3651C337.976 39.292 338.126 39.1933 338.25 39.0691C338.381 38.9448 338.484 38.795 338.557 38.6196C338.63 38.4442 338.666 38.2542 338.666 38.0495V34.5852H339.796V40.3408H338.666V39.1349L338.864 39.0033C338.776 39.2737 338.626 39.5186 338.414 39.7378C338.21 39.9571 337.965 40.1325 337.68 40.2641C337.395 40.3883 337.088 40.4505 336.759 40.4505ZM341.38 40.3408V34.5852H342.509V35.7692L342.311 35.9007C342.384 35.6449 342.527 35.4111 342.739 35.1991C342.951 34.9798 343.203 34.8044 343.495 34.6729C343.788 34.534 344.087 34.4646 344.394 34.4646C344.833 34.4646 345.198 34.5523 345.491 34.7277C345.783 34.8958 346.002 35.1552 346.148 35.5061C346.295 35.8569 346.368 36.2991 346.368 36.8326V40.3408H345.239V36.9094C345.239 36.5805 345.195 36.31 345.107 36.0981C345.019 35.8788 344.884 35.7217 344.701 35.6267C344.519 35.5243 344.292 35.4805 344.022 35.4951C343.802 35.4951 343.601 35.5317 343.419 35.6047C343.236 35.6705 343.075 35.7655 342.936 35.8898C342.805 36.014 342.699 36.1602 342.618 36.3283C342.545 36.4891 342.509 36.6645 342.509 36.8545V40.3408H341.95C341.855 40.3408 341.76 40.3408 341.665 40.3408C341.57 40.3408 341.475 40.3408 341.38 40.3408Z" fill="#6A6A78"/>
<path d="M371.414 40.4505C371.165 40.4505 370.927 40.4176 370.701 40.3518C370.474 40.286 370.262 40.191 370.065 40.0667C369.875 39.9425 369.703 39.7963 369.55 39.6282C369.396 39.4528 369.265 39.2628 369.155 39.0581L369.901 38.2797C370.054 38.499 370.193 38.6744 370.317 38.806C370.449 38.9375 370.573 39.0399 370.69 39.1129C370.807 39.186 370.924 39.2372 371.041 39.2664C371.158 39.2884 371.282 39.2993 371.414 39.2993C371.677 39.2993 371.907 39.2409 372.104 39.1239C372.302 38.9997 372.455 38.8316 372.565 38.6196C372.674 38.4077 372.729 38.1665 372.729 37.896V33.7629H371.326V32.6666H375.097V33.7629H373.913V38.0057C373.913 38.3565 373.851 38.6817 373.727 38.9814C373.61 39.2737 373.438 39.5295 373.211 39.7488C372.992 39.9681 372.729 40.1398 372.422 40.2641C372.122 40.3883 371.786 40.4505 371.414 40.4505ZM377.901 40.4505C377.492 40.4505 377.134 40.3554 376.827 40.1654C376.527 39.9754 376.294 39.7086 376.125 39.3651C375.965 39.0216 375.884 38.6123 375.884 38.1372V34.5852H377.013V37.8303C377.013 38.1665 377.065 38.4588 377.167 38.7073C377.277 38.9485 377.43 39.1349 377.627 39.2664C377.832 39.398 378.077 39.4638 378.362 39.4638C378.574 39.4638 378.768 39.4309 378.943 39.3651C379.118 39.292 379.268 39.1933 379.392 39.0691C379.524 38.9448 379.626 38.795 379.699 38.6196C379.773 38.4442 379.809 38.2542 379.809 38.0495V34.5852H380.938V40.3408H379.809V39.1349L380.006 39.0033C379.919 39.2737 379.769 39.5186 379.557 39.7378C379.352 39.9571 379.107 40.1325 378.822 40.2641C378.537 40.3883 378.23 40.4505 377.901 40.4505ZM382.544 40.3408V32.2281H383.673V40.3408H382.544Z" fill="#6A6A78"/>
<path d="M406.024 40.3408L408.995 32.6666H410.201L413.15 40.3408H411.889L410.135 35.7144C410.113 35.6632 410.069 35.539 410.004 35.3416C409.945 35.1443 409.876 34.925 409.795 34.6838C409.715 34.4426 409.642 34.2234 409.576 34.026C409.51 33.8214 409.467 33.6898 409.445 33.6314L409.697 33.6204C409.653 33.7447 409.598 33.9018 409.532 34.0918C409.474 34.2819 409.408 34.4828 409.335 34.6948C409.269 34.9068 409.203 35.1077 409.138 35.2978C409.072 35.4805 409.017 35.634 408.973 35.7582L407.23 40.3408H406.024ZM407.34 38.4332L407.778 37.2931H411.264L411.769 38.4332H407.34ZM416.126 40.4505C415.717 40.4505 415.358 40.3554 415.051 40.1654C414.752 39.9754 414.518 39.7086 414.35 39.3651C414.189 39.0216 414.109 38.6123 414.109 38.1372V34.5852H415.238V37.8303C415.238 38.1665 415.289 38.4588 415.391 38.7073C415.501 38.9485 415.654 39.1349 415.852 39.2664C416.056 39.398 416.301 39.4638 416.586 39.4638C416.798 39.4638 416.992 39.4309 417.167 39.3651C417.343 39.292 417.493 39.1933 417.617 39.0691C417.748 38.9448 417.851 38.795 417.924 38.6196C417.997 38.4442 418.033 38.2542 418.033 38.0495V34.5852H419.163V40.3408H418.033V39.1349L418.231 39.0033C418.143 39.2737 417.993 39.5186 417.781 39.7378C417.577 39.9571 417.332 40.1325 417.047 40.2641C416.762 40.3883 416.455 40.4505 416.126 40.4505ZM423.216 42.8623C422.806 42.8623 422.397 42.7966 421.988 42.665C421.586 42.5408 421.261 42.3763 421.012 42.1717L421.429 41.2946C421.575 41.4042 421.747 41.4993 421.944 41.5797C422.141 41.6674 422.35 41.7331 422.569 41.777C422.788 41.8282 423.004 41.8537 423.216 41.8537C423.618 41.8537 423.954 41.788 424.224 41.6564C424.495 41.5248 424.699 41.3312 424.838 41.0754C424.977 40.8195 425.047 40.5016 425.047 40.1216V39.0143L425.167 39.091C425.131 39.3176 425.01 39.5369 424.805 39.7488C424.608 39.9535 424.36 40.1216 424.06 40.2531C423.76 40.3847 423.453 40.4505 423.139 40.4505C422.591 40.4505 422.101 40.3225 421.67 40.0667C421.246 39.8036 420.91 39.4492 420.661 39.0033C420.413 38.5502 420.289 38.0349 420.289 37.4575C420.289 36.8801 420.409 36.3685 420.65 35.9227C420.899 35.4695 421.235 35.1151 421.659 34.8592C422.09 34.5961 422.573 34.4646 423.106 34.4646C423.325 34.4646 423.537 34.4938 423.742 34.5523C423.947 34.6034 424.137 34.6802 424.312 34.7825C424.487 34.8775 424.645 34.9835 424.783 35.1004C424.922 35.2174 425.036 35.3416 425.123 35.4732C425.211 35.6047 425.266 35.729 425.288 35.8459L425.047 35.9336V34.5852H426.176V39.99C426.176 40.4505 426.106 40.8561 425.968 41.2069C425.836 41.565 425.642 41.8647 425.386 42.1059C425.131 42.3544 424.82 42.5408 424.455 42.665C424.089 42.7966 423.676 42.8623 423.216 42.8623ZM423.26 39.409C423.618 39.409 423.936 39.3249 424.213 39.1568C424.491 38.9887 424.707 38.7585 424.86 38.4661C425.014 38.1738 425.09 37.8376 425.09 37.4575C425.09 37.0775 425.01 36.7413 424.849 36.4489C424.696 36.1492 424.48 35.9154 424.202 35.7473C423.932 35.5792 423.618 35.4951 423.26 35.4951C422.909 35.4951 422.595 35.5828 422.317 35.7582C422.046 35.9263 421.831 36.1602 421.67 36.4599C421.516 36.7522 421.44 37.0848 421.44 37.4575C421.44 37.8303 421.516 38.1665 421.67 38.4661C421.831 38.7585 422.046 38.9887 422.317 39.1568C422.595 39.3249 422.909 39.409 423.26 39.409Z" fill="#6A6A78"/>
<g clip-path="url(#clip1_1258_16083)">
<path d="M111.623 176.671C114.108 174.732 118.158 171.147 122.181 163.79C123.882 160.681 125.586 156.875 127.265 153.128C127.811 151.908 128.355 150.694 128.895 149.512C131.138 144.603 133.283 140.326 135.349 138.011C137.268 135.86 139.118 135.426 141.161 135.224C141.492 135.192 141.84 135.166 142.202 135.14C144.048 135.004 146.248 134.843 148.38 133.573C150.892 132.077 153.255 129.119 155.491 125.61C157.754 122.058 160.004 117.745 162.227 113.345C162.956 111.903 163.682 110.451 164.407 109.002C168.135 101.549 171.809 94.2035 175.477 88.8821C179.714 82.7348 183.935 79.3128 188.281 75.7899C188.374 75.7139 188.468 75.6378 188.562 75.5617C188.854 75.3252 189.145 75.0888 189.436 74.8528C193.606 71.4672 197.69 68.1506 201.763 65.6502C203.98 64.2886 205.939 63.3392 207.78 63.2828C209.479 63.2308 211.329 63.9412 213.361 66.5729C215.461 69.2922 217.626 73.8992 219.854 79.3473C221.082 82.3484 222.287 85.4943 223.498 88.6562C224.496 91.2628 225.499 93.8803 226.521 96.4364C228.751 102.009 231.003 107.089 233.276 111.015C234.413 112.979 235.574 114.688 236.765 116.036C237.947 117.374 239.222 118.431 240.604 118.981C242.035 119.551 243.506 119.545 244.94 118.948C246.331 118.368 247.61 117.265 248.801 115.774C251.174 112.802 253.457 107.955 255.693 101.278C256.815 97.9281 257.935 94.0885 259.045 90.2557L259.215 89.6673C260.272 86.0204 261.32 82.3998 262.368 79.1813C263.477 75.7736 264.558 72.9 265.609 70.9556C266.138 69.9758 266.612 69.3247 267.009 68.9579C267.202 68.78 267.339 68.7052 267.415 68.6763C267.472 68.6544 267.491 68.6592 267.497 68.6606L267.498 68.6609C267.57 68.6765 267.879 68.8134 268.383 69.4887C268.856 70.1213 269.366 71.0445 269.905 72.2399C270.979 74.6243 272.071 77.864 273.182 81.4702C273.786 83.4343 274.397 85.5084 275.011 87.5955C276.623 93.0754 278.262 98.6445 279.897 102.544C281.035 105.26 282.22 107.294 283.484 108.653C284.764 110.029 286.229 110.813 287.856 110.733C289.431 110.656 290.836 109.779 292.057 108.574C293.29 107.358 294.471 105.677 295.611 103.697C297.155 101.015 298.714 97.6086 300.242 94.2714C300.945 92.7347 301.642 91.2125 302.328 89.7823C303.434 87.4754 304.516 85.3913 305.579 83.7587C306.673 82.0791 307.623 81.0767 308.398 80.6876C309.036 80.3675 309.714 80.4011 310.628 80.7828C311.392 81.1018 312.145 81.5837 313.01 82.1377C313.254 82.2936 313.507 82.4553 313.771 82.6206C314.874 83.3111 316.212 84.0822 317.648 84.2586C319.23 84.4529 320.753 83.9157 322.123 82.4211C323.393 81.0352 324.578 78.7689 325.686 76.344C326.431 74.7155 327.182 72.9164 327.923 71.1416C328.297 70.2455 328.668 69.3556 329.035 68.497C330.149 65.8892 331.222 63.5611 332.265 61.9452C332.789 61.1338 333.253 60.5856 333.646 60.2718C334.031 59.9646 334.203 59.9895 334.242 59.9968C334.352 60.0176 334.659 60.1517 335.145 60.7221C335.608 61.2656 336.111 62.0598 336.646 63.0886C337.715 65.1428 338.801 67.9073 339.914 70.9166C340.268 71.8728 340.624 72.8545 340.982 73.8407C341.738 75.9224 342.501 78.0243 343.26 79.9492C344.371 82.7687 345.532 85.3671 346.745 87.0877C347.98 88.8392 349.412 89.8791 351.08 89.9851C352.69 90.0874 354.131 89.2871 355.336 88.3087C356.558 87.3153 357.741 85.968 358.857 84.6182C359.244 84.1497 359.621 83.6835 359.993 83.224C360.726 82.3181 361.437 81.4385 362.163 80.6195C364.347 78.1537 366.345 76.6192 368.16 76.1692C369.03 75.9534 369.869 75.9841 370.714 76.2988C371.575 76.6192 372.517 77.2623 373.526 78.3846C375.6 80.6908 377.749 84.7633 379.985 89.4721C380.68 90.9346 381.382 92.4545 382.087 93.9831C383.61 97.2827 385.151 100.622 386.683 103.51C388.937 107.762 391.229 111.156 393.572 113.58C395.909 115.998 398.391 117.545 401.021 117.894C403.694 118.248 406.272 117.335 408.703 115.36C411.11 113.404 413.431 110.366 415.696 106.305C419.981 98.6201 424.241 86.9304 426.553 80.4832V176.671H111.623Z" fill="url(#paint0_linear_1258_16083)" stroke="#11B880" stroke-width="2.65179"/>
</g>
<path d="M227.454 203.67V198.086L227.566 198.87L223.038 192.47H224.558L228.27 197.782L227.934 197.75L231.342 192.47H232.782L228.446 199.046L228.686 197.958V203.67H227.454ZM236.645 203.83C235.813 203.83 235.072 203.644 234.421 203.27C233.781 202.897 233.275 202.38 232.901 201.718C232.539 201.057 232.357 200.305 232.357 199.462C232.357 198.63 232.539 197.889 232.901 197.238C233.275 196.588 233.781 196.076 234.421 195.702C235.072 195.329 235.813 195.142 236.645 195.142C237.467 195.142 238.197 195.329 238.837 195.702C239.488 196.076 239.995 196.588 240.357 197.238C240.731 197.889 240.917 198.63 240.917 199.462C240.917 200.305 240.731 201.057 240.357 201.718C239.995 202.38 239.488 202.897 238.837 203.27C238.197 203.644 237.467 203.83 236.645 203.83ZM236.645 202.694C237.232 202.694 237.755 202.556 238.213 202.278C238.672 201.99 239.029 201.606 239.285 201.126C239.541 200.636 239.669 200.081 239.669 199.462C239.669 198.844 239.541 198.294 239.285 197.814C239.029 197.334 238.672 196.961 238.213 196.694C237.755 196.417 237.232 196.278 236.645 196.278C236.059 196.278 235.531 196.417 235.061 196.694C234.603 196.961 234.24 197.34 233.973 197.83C233.717 198.31 233.595 198.854 233.605 199.462C233.595 200.081 233.717 200.636 233.973 201.126C234.24 201.606 234.603 201.99 235.061 202.278C235.531 202.556 236.059 202.694 236.645 202.694ZM245.628 203.83C244.988 203.83 244.444 203.702 243.996 203.446C243.559 203.18 243.223 202.796 242.988 202.294C242.764 201.793 242.652 201.169 242.652 200.422V195.318H243.868V200.182C243.868 200.748 243.943 201.222 244.092 201.606C244.252 201.98 244.487 202.262 244.796 202.454C245.116 202.646 245.505 202.742 245.964 202.742C246.316 202.742 246.641 202.684 246.94 202.566C247.239 202.438 247.5 202.268 247.724 202.054C247.948 201.841 248.124 201.59 248.252 201.302C248.38 201.014 248.444 200.71 248.444 200.39V195.318H249.644V203.67H248.46L248.412 201.91L248.604 201.814C248.476 202.188 248.263 202.529 247.964 202.838C247.665 203.137 247.308 203.377 246.892 203.558C246.487 203.74 246.065 203.83 245.628 203.83ZM251.981 203.67V195.318H253.181L253.213 197.542L253.085 197.238C253.202 196.865 253.389 196.518 253.645 196.198C253.911 195.878 254.226 195.622 254.589 195.43C254.951 195.238 255.351 195.142 255.789 195.142C255.97 195.142 256.141 195.158 256.301 195.19C256.461 195.212 256.594 195.244 256.701 195.286L256.365 196.63C256.226 196.566 256.082 196.524 255.933 196.502C255.794 196.47 255.661 196.454 255.533 196.454C255.17 196.454 254.845 196.518 254.557 196.646C254.269 196.774 254.023 196.956 253.821 197.19C253.618 197.414 253.463 197.676 253.357 197.974C253.25 198.273 253.197 198.593 253.197 198.934V203.67H251.981ZM262.914 203.67V192.47H267.458C268.108 192.47 268.668 192.588 269.138 192.822C269.618 193.046 269.986 193.372 270.242 193.798C270.498 194.214 270.626 194.71 270.626 195.286C270.626 195.905 270.45 196.438 270.098 196.886C269.746 197.324 269.266 197.628 268.658 197.798L268.626 197.494C269.148 197.59 269.602 197.777 269.986 198.054C270.37 198.321 270.668 198.652 270.882 199.046C271.106 199.441 271.218 199.884 271.218 200.374C271.218 200.876 271.132 201.329 270.962 201.734C270.791 202.14 270.546 202.486 270.226 202.774C269.916 203.062 269.538 203.286 269.09 203.446C268.652 203.596 268.162 203.67 267.618 203.67H262.914ZM264.162 202.454H267.522C268.002 202.454 268.418 202.374 268.77 202.214C269.132 202.044 269.41 201.804 269.602 201.494C269.804 201.185 269.906 200.828 269.906 200.422C269.906 200.038 269.799 199.702 269.586 199.414C269.383 199.126 269.095 198.902 268.722 198.742C268.359 198.582 267.932 198.502 267.442 198.502H264.162V202.454ZM264.162 197.286H267.362C267.746 197.286 268.087 197.212 268.386 197.062C268.684 196.902 268.919 196.689 269.09 196.422C269.26 196.145 269.346 195.836 269.346 195.494C269.346 194.95 269.159 194.513 268.786 194.182C268.423 193.852 267.911 193.686 267.25 193.686H264.162V197.286ZM276.416 203.83C275.691 203.83 275.035 203.644 274.448 203.27C273.862 202.886 273.398 202.369 273.056 201.718C272.715 201.057 272.544 200.31 272.544 199.478C272.544 198.636 272.72 197.889 273.072 197.238C273.424 196.588 273.894 196.076 274.48 195.702C275.078 195.329 275.744 195.142 276.48 195.142C276.918 195.142 277.323 195.206 277.696 195.334C278.07 195.462 278.4 195.644 278.688 195.878C278.987 196.102 279.232 196.369 279.424 196.678C279.627 196.977 279.766 197.302 279.84 197.654L279.488 197.478L279.536 195.318H280.736V203.67H279.52V201.622L279.84 201.414C279.766 201.734 279.622 202.044 279.408 202.342C279.195 202.63 278.934 202.886 278.624 203.11C278.326 203.334 277.984 203.51 277.6 203.638C277.227 203.766 276.832 203.83 276.416 203.83ZM276.688 202.678C277.243 202.678 277.739 202.545 278.176 202.278C278.614 202.001 278.955 201.622 279.2 201.142C279.456 200.652 279.584 200.097 279.584 199.478C279.584 198.86 279.456 198.31 279.2 197.83C278.955 197.35 278.614 196.972 278.176 196.694C277.739 196.417 277.243 196.278 276.688 196.278C276.123 196.278 275.622 196.417 275.184 196.694C274.758 196.972 274.416 197.35 274.16 197.83C273.915 198.31 273.792 198.86 273.792 199.478C273.792 200.086 273.915 200.636 274.16 201.126C274.406 201.606 274.747 201.985 275.184 202.262C275.622 202.54 276.123 202.678 276.688 202.678ZM283.106 203.67V191.83H284.306V203.67H283.106ZM289.776 203.83C289.05 203.83 288.394 203.644 287.808 203.27C287.221 202.886 286.757 202.369 286.416 201.718C286.074 201.057 285.904 200.31 285.904 199.478C285.904 198.636 286.08 197.889 286.432 197.238C286.784 196.588 287.253 196.076 287.84 195.702C288.437 195.329 289.104 195.142 289.84 195.142C290.277 195.142 290.682 195.206 291.056 195.334C291.429 195.462 291.76 195.644 292.048 195.878C292.346 196.102 292.592 196.369 292.784 196.678C292.986 196.977 293.125 197.302 293.2 197.654L292.848 197.478L292.896 195.318H294.096V203.67H292.88V201.622L293.2 201.414C293.125 201.734 292.981 202.044 292.768 202.342C292.554 202.63 292.293 202.886 291.984 203.11C291.685 203.334 291.344 203.51 290.96 203.638C290.586 203.766 290.192 203.83 289.776 203.83ZM290.048 202.678C290.602 202.678 291.098 202.545 291.536 202.278C291.973 202.001 292.314 201.622 292.56 201.142C292.816 200.652 292.944 200.097 292.944 199.478C292.944 198.86 292.816 198.31 292.56 197.83C292.314 197.35 291.973 196.972 291.536 196.694C291.098 196.417 290.602 196.278 290.048 196.278C289.482 196.278 288.981 196.417 288.544 196.694C288.117 196.972 287.776 197.35 287.52 197.83C287.274 198.31 287.152 198.86 287.152 199.478C287.152 200.086 287.274 200.636 287.52 201.126C287.765 201.606 288.106 201.985 288.544 202.262C288.981 202.54 289.482 202.678 290.048 202.678ZM296.434 203.67V195.318H297.618L297.666 197.062L297.474 197.142C297.58 196.78 297.788 196.449 298.098 196.15C298.407 195.852 298.775 195.612 299.202 195.43C299.639 195.238 300.087 195.142 300.546 195.142C301.164 195.142 301.682 195.265 302.098 195.51C302.514 195.756 302.828 196.134 303.042 196.646C303.255 197.158 303.362 197.809 303.362 198.598V203.67H302.146V198.662C302.146 198.108 302.071 197.654 301.922 197.302C301.783 196.94 301.564 196.673 301.266 196.502C300.967 196.332 300.599 196.252 300.162 196.262C299.799 196.262 299.463 196.326 299.154 196.454C298.844 196.572 298.578 196.737 298.354 196.95C298.13 197.164 297.954 197.409 297.826 197.686C297.698 197.964 297.634 198.262 297.634 198.582V203.67H297.042C296.967 203.67 296.882 203.67 296.786 203.67C296.69 203.67 296.572 203.67 296.434 203.67ZM309.172 203.83C308.383 203.83 307.679 203.644 307.06 203.27C306.442 202.886 305.951 202.369 305.588 201.718C305.236 201.057 305.06 200.31 305.06 199.478C305.06 198.646 305.236 197.905 305.588 197.254C305.951 196.593 306.442 196.076 307.06 195.702C307.679 195.329 308.388 195.142 309.188 195.142C309.903 195.142 310.554 195.286 311.14 195.574C311.727 195.852 312.196 196.241 312.548 196.742L311.844 197.606C311.642 197.34 311.396 197.105 311.108 196.902C310.831 196.7 310.527 196.545 310.196 196.438C309.876 196.321 309.556 196.262 309.236 196.262C308.671 196.262 308.164 196.406 307.716 196.694C307.268 196.972 306.911 197.35 306.644 197.83C306.388 198.31 306.26 198.86 306.26 199.478C306.26 200.097 306.388 200.652 306.644 201.142C306.911 201.622 307.268 202.001 307.716 202.278C308.164 202.556 308.666 202.694 309.22 202.694C309.54 202.694 309.855 202.646 310.164 202.55C310.474 202.444 310.767 202.294 311.044 202.102C311.322 201.91 311.578 201.67 311.812 201.382L312.516 202.246C312.154 202.726 311.668 203.11 311.06 203.398C310.452 203.686 309.823 203.83 309.172 203.83ZM317.754 203.83C316.922 203.83 316.181 203.649 315.53 203.286C314.89 202.924 314.389 202.417 314.026 201.766C313.664 201.116 313.482 200.369 313.482 199.526C313.482 198.876 313.584 198.289 313.786 197.766C313.989 197.233 314.272 196.769 314.634 196.374C315.008 195.98 315.45 195.676 315.962 195.462C316.474 195.238 317.029 195.126 317.626 195.126C318.192 195.126 318.704 195.228 319.162 195.43C319.632 195.633 320.032 195.916 320.362 196.278C320.704 196.63 320.96 197.052 321.13 197.542C321.301 198.033 321.376 198.572 321.354 199.158L321.338 199.718H314.378L314.202 198.71H320.426L320.138 198.982V198.598C320.117 198.214 320.005 197.846 319.802 197.494C319.6 197.132 319.312 196.838 318.938 196.614C318.576 196.39 318.138 196.278 317.626 196.278C317.029 196.278 316.512 196.401 316.074 196.646C315.637 196.881 315.301 197.233 315.066 197.702C314.832 198.172 314.714 198.753 314.714 199.446C314.714 200.108 314.842 200.684 315.098 201.174C315.354 201.654 315.717 202.028 316.186 202.294C316.666 202.561 317.242 202.694 317.914 202.694C318.309 202.694 318.698 202.63 319.082 202.502C319.477 202.364 319.909 202.097 320.378 201.702L321.002 202.566C320.757 202.812 320.464 203.03 320.122 203.222C319.781 203.404 319.408 203.553 319.002 203.67C318.597 203.777 318.181 203.83 317.754 203.83Z" fill="#6A6A78"/>
<path d="M210.154 237.95C208.399 237.95 206.869 237.661 205.562 237.082C204.274 236.485 203.163 235.617 202.23 234.478L204.442 231.23C205.431 232.388 206.393 233.2 207.326 233.666C208.278 234.133 209.305 234.366 210.406 234.366C210.985 234.366 211.498 234.292 211.946 234.142C212.413 233.974 212.777 233.741 213.038 233.442C213.299 233.144 213.43 232.789 213.43 232.378C213.43 232.08 213.365 231.809 213.234 231.566C213.103 231.305 212.917 231.081 212.674 230.894C212.431 230.689 212.142 230.512 211.806 230.362C211.47 230.194 211.097 230.054 210.686 229.942C210.275 229.812 209.827 229.709 209.342 229.634C207.942 229.336 206.775 228.916 205.842 228.374C204.927 227.833 204.237 227.161 203.77 226.358C203.322 225.556 203.098 224.604 203.098 223.502C203.098 222.662 203.285 221.888 203.658 221.178C204.031 220.45 204.545 219.825 205.198 219.302C205.87 218.78 206.635 218.378 207.494 218.098C208.371 217.818 209.295 217.678 210.266 217.678C211.834 217.678 213.215 217.94 214.41 218.462C215.623 218.966 216.669 219.75 217.546 220.814L215.53 223.726C214.839 222.924 214.046 222.317 213.15 221.906C212.273 221.496 211.339 221.29 210.35 221.29C209.734 221.29 209.202 221.374 208.754 221.542C208.306 221.692 207.951 221.916 207.69 222.214C207.447 222.513 207.326 222.877 207.326 223.306C207.326 223.642 207.41 223.941 207.578 224.202C207.746 224.464 207.989 224.697 208.306 224.902C208.623 225.089 209.006 225.257 209.454 225.406C209.902 225.556 210.397 225.686 210.938 225.798C211.965 226.004 212.889 226.274 213.71 226.61C214.531 226.946 215.231 227.357 215.81 227.842C216.407 228.309 216.865 228.869 217.182 229.522C217.499 230.157 217.658 230.876 217.658 231.678C217.658 233.004 217.341 234.133 216.706 235.066C216.071 236 215.194 236.718 214.074 237.222C212.954 237.708 211.647 237.95 210.154 237.95ZM208.474 240.218L208.698 227.282L211.078 228.206L211.302 240.218H208.474ZM211.918 228.234L209.538 227.31L209.314 215.662H212.142L211.918 228.234ZM226.754 237.67C225.765 237.67 224.831 237.493 223.954 237.138C223.095 236.784 222.339 236.289 221.686 235.654C221.051 235.02 220.547 234.273 220.174 233.414C219.819 232.556 219.642 231.632 219.642 230.642C219.642 230.026 219.717 229.401 219.866 228.766C220.015 228.113 220.221 227.441 220.482 226.75C220.762 226.06 221.098 225.341 221.49 224.594C221.882 223.848 222.321 223.073 222.806 222.27L225.494 217.762H229.414L229.526 218.042L225.97 223.782C225.466 224.604 225.018 225.388 224.626 226.134C224.253 226.881 223.917 227.6 223.618 228.29C223.338 228.981 223.077 229.681 222.834 230.39L222.022 228.15C222.265 227.516 222.591 226.946 223.002 226.442C223.413 225.92 223.879 225.481 224.402 225.126C224.925 224.753 225.475 224.473 226.054 224.286C226.633 224.081 227.202 223.978 227.762 223.978C228.863 223.978 229.871 224.277 230.786 224.874C231.719 225.453 232.457 226.228 232.998 227.198C233.558 228.169 233.838 229.233 233.838 230.39C233.838 231.79 233.53 233.041 232.914 234.142C232.317 235.225 231.477 236.084 230.394 236.718C229.33 237.353 228.117 237.67 226.754 237.67ZM226.81 234.114C227.445 234.114 228.005 233.974 228.49 233.694C228.994 233.396 229.386 232.985 229.666 232.462C229.946 231.94 230.086 231.342 230.086 230.67C230.086 230.092 229.937 229.55 229.638 229.046C229.358 228.524 228.966 228.104 228.462 227.786C227.977 227.469 227.435 227.31 226.838 227.31C226.185 227.31 225.597 227.469 225.074 227.786C224.57 228.085 224.169 228.486 223.87 228.99C223.59 229.476 223.45 230.026 223.45 230.642C223.45 231.314 223.59 231.912 223.87 232.434C224.169 232.938 224.57 233.349 225.074 233.666C225.578 233.965 226.157 234.114 226.81 234.114ZM236.981 237.67L244.905 219.862L245.913 221.682H235.777V217.958H248.349L248.769 220.114L241.265 237.67H236.981ZM249.084 243.074L247.852 241.59C248.58 241.236 249.158 240.806 249.588 240.302C250.036 239.798 250.26 239.36 250.26 238.986C250.26 238.818 250.213 238.641 250.12 238.454C250.026 238.268 249.821 238.034 249.504 237.754C249.093 237.437 248.813 237.138 248.664 236.858C248.533 236.56 248.468 236.242 248.468 235.906C248.468 235.365 248.664 234.936 249.056 234.618C249.448 234.301 249.952 234.142 250.568 234.142C251.072 234.142 251.529 234.292 251.94 234.59C252.369 234.87 252.705 235.272 252.948 235.794C253.19 236.298 253.312 236.886 253.312 237.558C253.312 238.156 253.209 238.734 253.004 239.294C252.798 239.873 252.5 240.405 252.108 240.89C251.734 241.394 251.286 241.833 250.764 242.206C250.26 242.58 249.7 242.869 249.084 243.074ZM261.971 237.95C260.459 237.95 259.133 237.624 257.995 236.97C256.875 236.317 255.839 235.197 254.887 233.61L257.967 231.65C258.396 232.304 258.825 232.836 259.255 233.246C259.703 233.657 260.169 233.956 260.655 234.142C261.14 234.329 261.644 234.422 262.167 234.422C262.727 234.422 263.249 234.292 263.735 234.03C264.22 233.769 264.603 233.405 264.883 232.938C265.181 232.453 265.331 231.902 265.331 231.286C265.331 230.652 265.209 230.12 264.967 229.69C264.724 229.261 264.369 228.934 263.903 228.71C263.436 228.486 262.885 228.374 262.251 228.374C261.971 228.374 261.663 228.402 261.327 228.458C260.991 228.514 260.645 228.608 260.291 228.738C259.936 228.85 259.553 228.99 259.143 229.158L258.163 226.582L263.343 220.926L264.407 221.682L256.175 221.57V217.958H267.963L268.719 219.498L262.251 226.498L261.271 225.35C261.42 225.276 261.663 225.21 261.999 225.154C262.353 225.08 262.68 225.042 262.979 225.042C263.837 225.042 264.64 225.201 265.387 225.518C266.133 225.836 266.796 226.274 267.375 226.834C267.953 227.394 268.401 228.048 268.719 228.794C269.055 229.541 269.223 230.344 269.223 231.202C269.223 232.49 268.896 233.648 268.243 234.674C267.608 235.682 266.74 236.485 265.639 237.082C264.556 237.661 263.333 237.95 261.971 237.95ZM278.275 237.754C276.968 237.754 275.783 237.502 274.719 236.998C273.655 236.476 272.805 235.776 272.171 234.898C271.536 234.021 271.219 233.05 271.219 231.986C271.219 231.296 271.303 230.67 271.471 230.11C271.657 229.55 271.928 229.046 272.283 228.598C272.656 228.15 273.104 227.758 273.627 227.422C274.149 227.086 274.756 226.797 275.447 226.554L275.167 227.534C274.644 227.329 274.177 227.086 273.767 226.806C273.356 226.508 273.001 226.172 272.703 225.798C272.423 225.425 272.199 225.024 272.031 224.594C271.881 224.146 271.807 223.68 271.807 223.194C271.807 222.186 272.096 221.281 272.675 220.478C273.253 219.676 274.028 219.041 274.999 218.574C275.969 218.089 277.061 217.846 278.275 217.846C279.469 217.846 280.552 218.089 281.523 218.574C282.493 219.041 283.268 219.676 283.847 220.478C284.425 221.281 284.715 222.186 284.715 223.194C284.715 223.68 284.64 224.146 284.491 224.594C284.341 225.024 284.127 225.416 283.847 225.77C283.567 226.125 283.212 226.452 282.783 226.75C282.372 227.049 281.887 227.31 281.327 227.534L281.159 226.666C281.775 226.853 282.335 227.114 282.839 227.45C283.361 227.768 283.8 228.16 284.155 228.626C284.528 229.074 284.817 229.578 285.023 230.138C285.228 230.698 285.331 231.314 285.331 231.986C285.331 233.069 285.013 234.049 284.379 234.926C283.744 235.804 282.895 236.494 281.831 236.998C280.767 237.502 279.581 237.754 278.275 237.754ZM278.275 234.31C278.835 234.31 279.348 234.198 279.815 233.974C280.281 233.75 280.645 233.452 280.907 233.078C281.168 232.686 281.299 232.238 281.299 231.734C281.299 231.212 281.168 230.754 280.907 230.362C280.645 229.952 280.281 229.625 279.815 229.382C279.367 229.14 278.853 229.018 278.275 229.018C277.696 229.018 277.173 229.14 276.707 229.382C276.259 229.625 275.904 229.952 275.643 230.362C275.381 230.754 275.251 231.212 275.251 231.734C275.251 232.22 275.381 232.658 275.643 233.05C275.904 233.424 276.259 233.732 276.707 233.974C277.173 234.198 277.696 234.31 278.275 234.31ZM278.275 225.602C278.779 225.602 279.227 225.509 279.619 225.322C280.011 225.117 280.319 224.856 280.543 224.538C280.785 224.202 280.907 223.81 280.907 223.362C280.907 222.933 280.785 222.55 280.543 222.214C280.319 221.86 280.011 221.58 279.619 221.374C279.227 221.169 278.779 221.066 278.275 221.066C277.771 221.066 277.313 221.169 276.903 221.374C276.511 221.58 276.193 221.86 275.951 222.214C275.727 222.55 275.615 222.933 275.615 223.362C275.615 223.81 275.727 224.202 275.951 224.538C276.193 224.856 276.511 225.117 276.903 225.322C277.313 225.509 277.771 225.602 278.275 225.602ZM288.237 237.67L287.313 235.374L293.109 228.962C293.426 228.626 293.762 228.234 294.117 227.786C294.49 227.338 294.845 226.881 295.181 226.414C295.536 225.929 295.816 225.462 296.021 225.014C296.226 224.548 296.329 224.128 296.329 223.754C296.329 223.325 296.236 222.952 296.049 222.634C295.862 222.298 295.592 222.037 295.237 221.85C294.882 221.664 294.444 221.57 293.921 221.57C293.436 221.57 292.978 221.701 292.549 221.962C292.12 222.205 291.718 222.569 291.345 223.054C290.972 223.54 290.645 224.128 290.365 224.818L287.229 223.054C287.602 221.972 288.134 221.029 288.825 220.226C289.516 219.424 290.337 218.798 291.289 218.35C292.241 217.902 293.258 217.678 294.341 217.678C295.48 217.697 296.506 217.94 297.421 218.406C298.336 218.873 299.054 219.526 299.577 220.366C300.1 221.206 300.361 222.177 300.361 223.278C300.361 223.689 300.314 224.109 300.221 224.538C300.146 224.968 300.006 225.416 299.801 225.882C299.614 226.349 299.362 226.844 299.045 227.366C298.746 227.87 298.373 228.412 297.925 228.99C297.496 229.55 297.001 230.138 296.441 230.754L291.989 235.598L291.429 233.89H301.173V237.67H288.237ZM304.809 237.978C304.081 237.978 303.521 237.773 303.129 237.362C302.737 236.952 302.541 236.364 302.541 235.598C302.541 234.908 302.746 234.348 303.157 233.918C303.586 233.47 304.137 233.246 304.809 233.246C305.518 233.246 306.069 233.452 306.461 233.862C306.853 234.273 307.049 234.852 307.049 235.598C307.049 236.308 306.844 236.886 306.433 237.334C306.022 237.764 305.481 237.978 304.809 237.978ZM317.103 237.95C315.423 237.95 313.986 237.549 312.791 236.746C311.615 235.944 310.71 234.796 310.075 233.302C309.459 231.79 309.151 229.98 309.151 227.87C309.151 225.761 309.459 223.96 310.075 222.466C310.71 220.954 311.615 219.797 312.791 218.994C313.986 218.192 315.423 217.79 317.103 217.79C318.783 217.79 320.22 218.192 321.415 218.994C322.61 219.797 323.515 220.954 324.131 222.466C324.766 223.96 325.083 225.761 325.083 227.87C325.083 229.98 324.766 231.79 324.131 233.302C323.515 234.796 322.61 235.944 321.415 236.746C320.22 237.549 318.783 237.95 317.103 237.95ZM317.103 234.338C318.354 234.338 319.324 233.778 320.015 232.658C320.706 231.538 321.051 229.942 321.051 227.87C321.051 225.761 320.706 224.137 320.015 222.998C319.324 221.86 318.354 221.29 317.103 221.29C315.834 221.29 314.854 221.86 314.163 222.998C313.491 224.137 313.155 225.761 313.155 227.87C313.155 229.942 313.491 231.538 314.163 232.658C314.854 233.778 315.834 234.338 317.103 234.338ZM335.788 237.67V221.822L337.748 221.934L330.86 230.362L330.384 229.662H343.096V233.218H328.34L326.604 229.914L336.488 217.958H339.848V237.67H335.788Z" fill="#0B2330"/>
</g>
<path d="M32.5 14.8408H513C521.56 14.8408 528.5 21.7804 528.5 30.3408V247C528.5 255.56 521.56 262.5 513 262.5H32.5C23.9396 262.5 17 255.56 17 247V30.3408C17 21.7804 23.9396 14.8408 32.5 14.8408Z" stroke="white"/>
</g>
<defs>
<filter id="filter0_d_1258_16083" x="0.5" y="0.34082" width="544.5" height="280.659" filterUnits="userSpaceOnUse" color-interpolation-filters="sRGB">
<feFlood flood-opacity="0" result="BackgroundImageFix"/>
<feColorMatrix in="SourceAlpha" type="matrix" values="0 0 0 0 0 0 0 0 0 0 0 0 0 0 0 0 0 0 127 0" result="hardAlpha"/>
<feOffset dy="2"/>
<feGaussianBlur stdDeviation="8"/>
<feComposite in2="hardAlpha" operator="out"/>
<feColorMatrix type="matrix" values="0 0 0 0 0.509804 0 0 0 0 0.592157 0 0 0 0 0.635294 0 0 0 0.03 0"/>
<feBlend mode="normal" in2="BackgroundImageFix" result="effect1_dropShadow_1258_16083"/>
<feBlend mode="normal" in="SourceGraphic" in2="effect1_dropShadow_1258_16083" result="shape"/>
</filter>
<linearGradient id="paint0_linear_1258_16083" x1="258.323" y1="58.6667" x2="258.323" y2="128.437" gradientUnits="userSpaceOnUse">
<stop stop-color="#11B880"/>
<stop offset="1" stop-color="white" stop-opacity="0"/>
</linearGradient>
<clipPath id="clip0_1258_16083">
<path d="M16.5 30.3408C16.5 21.5043 23.6634 14.3408 32.5 14.3408H513C521.837 14.3408 529 21.5043 529 30.3408V247C529 255.837 521.837 263 513 263H32.5C23.6634 263 16.5 255.837 16.5 247V30.3408Z" fill="white"/>
</clipPath>
<clipPath id="clip1_1258_16083">
<rect width="297" height="111.375" fill="white" transform="translate(124.25 57.3408)"/>
</clipPath>
</defs>
</svg>
