<svg width="93" height="102" viewBox="0 0 93 102" fill="none" xmlns="http://www.w3.org/2000/svg">
<path d="M46.8134 100.5C70.2854 100.5 89.3133 81.4721 89.3133 58C89.3133 34.528 70.2854 15.5001 46.8134 15.5001C23.3413 15.5001 4.31348 34.528 4.31348 58C4.31348 81.4721 23.3413 100.5 46.8134 100.5Z" stroke="#263238" stroke-width="1.5" stroke-miterlimit="10" stroke-linecap="round"/>
<path d="M71.0717 45.2864C71.0717 45.2864 60.8252 43.9503 46.9055 29.6252V29.4275L46.8079 29.5251L46.7128 29.4275V29.6252C32.8031 43.9503 22.5541 45.2864 22.5541 45.2864C18.9034 75.2928 44.2606 85.5718 46.7178 86.5026V86.5727L46.8129 86.5377L46.9105 86.5727V86.5026C49.3676 85.5718 74.7249 75.2803 71.0717 45.2864Z" fill="#263238"/>
<path d="M69.1751 46.2648C69.1751 46.2648 59.7343 45.0362 46.9055 31.8321V31.6494L46.8154 31.742L46.7278 31.6494V31.8321C33.8966 45.0437 24.4583 46.2648 24.4583 46.2648C21.0903 73.9341 44.4759 83.4199 46.7278 84.2732V84.3382L46.8154 84.3057L46.9055 84.3382V84.2732C49.17 83.4199 72.5505 73.9341 69.1751 46.2648Z" fill="#FEDF2E"/>
<path opacity="0.5" d="M64.5563 48.6917C64.5563 48.6917 57.0497 47.7234 46.8833 37.2442V37.1016C46.8608 37.1241 46.8382 37.1491 46.8132 37.1716L46.7432 37.1016V37.2442C36.5667 47.7234 29.0726 48.6917 29.0726 48.6917C26.4003 70.636 44.9466 78.1601 46.7432 78.8357V78.8883L46.8132 78.8607L46.8833 78.8883V78.8357C48.6824 78.1601 67.2262 70.636 64.5563 48.6917Z" fill="white"/>
<path d="M46.617 22.2944C51.6436 22.2944 55.7184 18.2196 55.7184 13.1931C55.7184 8.1665 51.6436 4.09167 46.617 4.09167C41.5905 4.09167 37.5156 8.1665 37.5156 13.1931C37.5156 18.2196 41.5905 22.2944 46.617 22.2944Z" fill="#FEDF2E"/>
<path d="M51.687 20.7716L51.6204 20.8116" stroke="white" stroke-width="0.44397" stroke-miterlimit="10"/>
<path d="M41.689 20.8337C43.1653 21.8011 44.8919 22.3165 46.657 22.3166" stroke="white" stroke-width="0.44397" stroke-miterlimit="10"/>
<path d="M54.8568 9.29059C54.3308 8.19359 53.5912 7.21253 52.6814 6.40479" stroke="white" stroke-width="0.44397" stroke-miterlimit="10"/>
<path d="M51.6203 20.8337C50.1456 21.801 48.4204 22.3164 46.6567 22.3166" stroke="white" stroke-width="0.44397" stroke-miterlimit="10"/>
<path d="M51.687 20.7716C52.7936 20.0332 53.7254 19.0619 54.4174 17.9258" stroke="white" stroke-width="0.44397" stroke-miterlimit="10"/>
<path d="M54.4172 17.9258C54.9657 17.0382 55.3549 16.0616 55.5671 15.04" stroke="white" stroke-width="0.44397" stroke-miterlimit="10"/>
<path d="M41.6886 20.8338C40.5537 20.0914 39.5982 19.1056 38.8916 17.948" stroke="white" stroke-width="0.44397" stroke-miterlimit="10"/>
<path d="M40.6277 6.38256C42.2886 4.9057 44.4342 4.09044 46.6568 4.09168" stroke="white" stroke-width="0.44397" stroke-miterlimit="10"/>
<path d="M52.6814 6.38256C51.0216 4.90672 48.8778 4.09153 46.6567 4.09167" stroke="white" stroke-width="0.44397" stroke-miterlimit="10"/>
<path d="M55.5671 15.0622C55.6939 14.4547 55.7579 13.8358 55.758 13.2153C55.756 12.868 55.7338 12.5211 55.6914 12.1764" stroke="white" stroke-width="0.44397" stroke-miterlimit="10"/>
<path d="M54.8569 9.29065C55.2958 10.1987 55.578 11.1743 55.6916 12.1765" stroke="white" stroke-width="0.44397" stroke-miterlimit="10"/>
<path d="M40.6276 6.38245C39.7178 7.19019 38.9782 8.17126 38.4521 9.26825" stroke="white" stroke-width="0.44397" stroke-miterlimit="10"/>
<path d="M46.6567 6.38245H52.6814" stroke="white" stroke-width="0.44397" stroke-miterlimit="10"/>
<path d="M40.6277 6.38245H46.6568" stroke="white" stroke-width="0.44397" stroke-miterlimit="10"/>
<path d="M54.8568 9.26831H38.4521" stroke="white" stroke-width="0.44397" stroke-miterlimit="10"/>
<path d="M55.6914 12.1542H37.6174" stroke="white" stroke-width="0.44397" stroke-miterlimit="10"/>
<path d="M51.687 15.04H55.5673" stroke="white" stroke-width="0.44397" stroke-miterlimit="10"/>
<path d="M41.8087 15.04H37.7419" stroke="white" stroke-width="0.44397" stroke-miterlimit="10"/>
<path d="M51.6869 15.04H41.8086" stroke="white" stroke-width="0.44397" stroke-miterlimit="10"/>
<path d="M54.4172 17.9258H38.8916" stroke="white" stroke-width="0.44397" stroke-miterlimit="10"/>
<path d="M51.6204 20.8115H51.687" stroke="white" stroke-width="0.44397" stroke-miterlimit="10"/>
<path d="M46.6567 20.8115H51.6203" stroke="white" stroke-width="0.44397" stroke-miterlimit="10"/>
<path d="M41.8088 20.8115H41.689" stroke="white" stroke-width="0.44397" stroke-miterlimit="10"/>
<path d="M46.6567 20.8115H41.8086" stroke="white" stroke-width="0.44397" stroke-miterlimit="10"/>
<path d="M46.6567 6.38256V4.09167" stroke="white" stroke-width="0.44397" stroke-miterlimit="10"/>
<path d="M51.687 6.60449V9.26831" stroke="white" stroke-width="0.44397" stroke-miterlimit="10"/>
<path d="M41.8086 6.60449V9.26831" stroke="white" stroke-width="0.44397" stroke-miterlimit="10"/>
<path d="M46.6567 9.37927V12.123" stroke="white" stroke-width="0.44397" stroke-miterlimit="10"/>
<path d="M51.687 15.0399V12.3894" stroke="white" stroke-width="0.44397" stroke-miterlimit="10"/>
<path d="M41.8086 12.3894V15.0399" stroke="white" stroke-width="0.44397" stroke-miterlimit="10"/>
<path d="M46.6567 15.151V17.8947" stroke="white" stroke-width="0.44397" stroke-miterlimit="10"/>
<path d="M46.6567 20.8115V22.2944" stroke="white" stroke-width="0.44397" stroke-miterlimit="10"/>
<path d="M51.687 20.7717V18.1611" stroke="white" stroke-width="0.44397" stroke-miterlimit="10"/>
<path d="M51.687 20.7716V20.8116" stroke="white" stroke-width="0.44397" stroke-miterlimit="10"/>
<path d="M41.8086 18.1611V20.8116" stroke="white" stroke-width="0.44397" stroke-miterlimit="10"/>
<path d="M46.617 22.2944C51.6436 22.2944 55.7184 18.2196 55.7184 13.1931C55.7184 8.1665 51.6436 4.09167 46.617 4.09167C41.5905 4.09167 37.5156 8.1665 37.5156 13.1931C37.5156 18.2196 41.5905 22.2944 46.617 22.2944Z" stroke="#263238" stroke-miterlimit="10"/>
<path d="M59.1103 12.3984C57.6763 13.8013 55.1989 14.4007 53.2676 13.455C51.7448 12.7092 50.5195 11.4527 50.7858 9.60582C51.0522 7.7589 52.7038 6.73333 53.3964 5.06401C54.1378 3.28813 54.1867 0.5 54.1867 0.5C54.1867 0.5 55.4697 1.95622 55.6162 2.84416C55.7075 3.38271 55.7579 3.92738 55.7672 4.47353L56.7306 1.90294C56.9437 2.79088 57.1124 3.72322 57.3877 4.59784C57.876 6.12953 59.2568 6.90204 59.9494 8.24283C60.642 9.58362 60.1758 11.3329 59.1103 12.3984Z" fill="#263238"/>
<path d="M55.4874 13.2597C55.4874 13.2597 54.0356 12.1853 54.3153 10.6891C54.595 9.19291 55.5318 8.91321 55.5318 8.91321C55.8449 9.19469 56.0913 9.54232 56.2534 9.93088C56.4154 10.3194 56.4889 10.7392 56.4686 11.1597C56.432 11.9619 56.0793 12.7169 55.4874 13.2597Z" fill="#FEDF2E" stroke="#263238" stroke-width="0.44397" stroke-linecap="round" stroke-linejoin="round"/>
<path d="M9.85284 84.145C14.8794 84.145 18.9542 80.0702 18.9542 75.0436C18.9542 70.0171 14.8794 65.9423 9.85284 65.9423C4.82629 65.9423 0.751465 70.0171 0.751465 75.0436C0.751465 80.0702 4.82629 84.145 9.85284 84.145Z" fill="#FEDF2E"/>
<path d="M9.8525 84.145C13.734 84.145 16.8805 80.0702 16.8805 75.0436C16.8805 70.0171 13.734 65.9423 9.8525 65.9423C5.97102 65.9423 2.82446 70.0171 2.82446 75.0436C2.82446 80.0702 5.97102 84.145 9.8525 84.145Z" stroke="white" stroke-width="0.44397" stroke-miterlimit="10"/>
<path d="M9.85248 84.145C11.6915 84.145 13.1822 80.0702 13.1822 75.0436C13.1822 70.0171 11.6915 65.9423 9.85248 65.9423C8.01349 65.9423 6.52271 70.0171 6.52271 75.0436C6.52271 80.0702 8.01349 84.145 9.85248 84.145Z" stroke="white" stroke-width="0.44397" stroke-miterlimit="10"/>
<path d="M5.11108 67.2743H14.4478" stroke="white" stroke-width="0.44397" stroke-miterlimit="10"/>
<path d="M1.22192 71.9092H18.3414" stroke="white" stroke-width="0.44397" stroke-miterlimit="10"/>
<path d="M0.751465 76.5442H18.8077" stroke="white" stroke-width="0.44397" stroke-miterlimit="10"/>
<path d="M2.62036 81.1836H16.9384" stroke="white" stroke-width="0.44397" stroke-miterlimit="10"/>
<path d="M9.85284 84.145C14.8794 84.145 18.9542 80.0702 18.9542 75.0436C18.9542 70.0171 14.8794 65.9423 9.85284 65.9423C4.82629 65.9423 0.751465 70.0171 0.751465 75.0436C0.751465 80.0702 4.82629 84.145 9.85284 84.145Z" stroke="#263238" stroke-miterlimit="10"/>
<path d="M15.9793 73.6716C15.126 73.6728 14.3079 74.0123 13.7046 74.6157C13.1012 75.2191 12.7617 76.0371 12.7605 76.8904V84.2381H19.1981V76.9126C19.2004 76.4882 19.1189 76.0675 18.9582 75.6747C18.7976 75.2819 18.5609 74.9247 18.2619 74.6235C17.9628 74.3224 17.6072 74.0833 17.2155 73.9199C16.8238 73.7566 16.4037 73.6722 15.9793 73.6716ZM13.6484 77.7783V76.8904C13.6484 76.2722 13.894 75.6794 14.3311 75.2423C14.7682 74.8051 15.3611 74.5596 15.9793 74.5596C16.5975 74.5596 17.1903 74.8051 17.6274 75.2423C18.0645 75.6794 18.3101 76.2722 18.3101 76.8904V77.7783H13.6484Z" fill="#263238"/>
<path d="M16.8452 80.2424C16.8435 80.0833 16.7992 79.9276 16.7168 79.7915C16.6344 79.6555 16.517 79.544 16.3768 79.4689C16.2366 79.3937 16.0787 79.3576 15.9198 79.3643C15.7609 79.371 15.6066 79.4203 15.4733 79.507C15.3399 79.5938 15.2323 79.7147 15.1616 79.8572C15.091 79.9998 15.06 80.1587 15.0718 80.3173C15.0836 80.476 15.1378 80.6285 15.2287 80.7591C15.3197 80.8896 15.444 80.9933 15.5887 81.0593L15.3534 83.0083H16.5477L16.3124 81.0593C16.4712 80.99 16.6063 80.8757 16.701 80.7306C16.7956 80.5854 16.8458 80.4157 16.8452 80.2424Z" fill="white"/>
<path d="M82.8216 84.0452C87.8481 84.0452 91.923 79.9703 91.923 74.9438C91.923 69.9172 87.8481 65.8424 82.8216 65.8424C77.795 65.8424 73.7202 69.9172 73.7202 74.9438C73.7202 79.9703 77.795 84.0452 82.8216 84.0452Z" fill="white" stroke="#263238" stroke-miterlimit="10"/>
<path d="M85.8569 73.8091H77.4138V70.3939H84.7208L85.8569 73.8091Z" fill="#FEDF2E" stroke="#263238" stroke-width="0.44397" stroke-miterlimit="10"/>
<path d="M88.2295 72.3865H77.4141V79.7867H88.2295V72.3865Z" fill="#FEDF2E" stroke="#263238" stroke-width="0.44397" stroke-miterlimit="10"/>
<path d="M88.2469 73.7939C87.3935 73.7951 86.5755 74.1346 85.9721 74.738C85.3688 75.3414 85.0293 76.1594 85.0281 77.0127V84.3382H91.4656V77.0349C91.468 76.6105 91.3865 76.1898 91.2258 75.797C91.0652 75.4042 90.8285 75.047 90.5294 74.7458C90.2304 74.4447 89.8748 74.2056 89.4831 74.0423C89.0914 73.8789 88.6713 73.7945 88.2469 73.7939ZM85.916 77.9229V77.0349C85.916 76.4167 86.1616 75.8239 86.5987 75.3868C87.0358 74.9497 87.6287 74.7041 88.2469 74.7041C88.865 74.7041 89.4579 74.9497 89.895 75.3868C90.3321 75.8239 90.5777 76.4167 90.5777 77.0349V77.9229H85.916Z" fill="#263238"/>
<path d="M89.1125 80.3514C89.1113 80.192 89.0671 80.0359 88.9847 79.8995C88.9024 79.763 88.7848 79.6513 88.6444 79.5759C88.5039 79.5006 88.3458 79.4644 88.1866 79.4713C88.0273 79.4781 87.8729 79.5277 87.7394 79.6148C87.6059 79.7018 87.4984 79.8233 87.428 79.9662C87.3576 80.1092 87.327 80.2685 87.3394 80.4274C87.3517 80.5863 87.4067 80.7389 87.4984 80.8693C87.5901 80.9996 87.7152 81.1029 87.8605 81.1683L87.6252 83.1173H88.8151L88.5798 81.1683C88.7386 81.0989 88.8737 80.9847 88.9683 80.8395C89.063 80.6943 89.1131 80.5247 89.1125 80.3514Z" fill="white"/>
</svg>
