<svg width="181" height="137" viewBox="0 0 181 137" fill="none" xmlns="http://www.w3.org/2000/svg">
<circle cx="67.9993" cy="68.5" r="67.9993" fill="#374A53"/>
<path d="M111.791 42.2227C111.791 42.2227 105.405 93.7721 94.7618 105.373C82.0608 119.281 72.8484 117.199 67.7159 124.425C62.5952 117.235 53.371 119.281 40.6581 105.362C30.0147 93.7603 23.6523 42.2109 23.6523 42.2109C51.538 28.682 67.7159 13.5093 67.7159 13.5093C68.2126 13.9941 84.3313 28.9067 111.791 42.2227Z" fill="#FFC727"/>
<path opacity="0.2" d="M67.7159 13.5329V124.425C62.5952 117.235 53.371 119.281 40.6581 105.362C30.0147 93.7603 23.6523 42.2109 23.6523 42.2109C51.538 28.682 67.7159 13.5093 67.7159 13.5093V13.5329Z" fill="black"/>
<path opacity="0.1" d="M112.075 42.1905C112.075 42.1905 105.689 93.7399 95.046 105.341C82.3449 119.248 73.1325 117.167 68 124.393V13.5007C68.4967 13.9619 84.6155 28.8745 112.075 42.1905Z" fill="#FEDF2E"/>
<path d="M104.468 45.744C104.468 45.744 99.0163 89.299 90.0995 99.0909C79.3616 110.917 71.5682 109.131 67.2281 115.198C62.8998 109.131 55.1065 110.87 44.3685 99.0909C35.4281 89.2871 30 45.744 30 45.744C53.5573 34.3082 67.2281 21.5007 67.2281 21.5007C67.2281 21.5007 80.9226 34.3082 104.468 45.744Z" fill="#FFEF97"/>
<path d="M172.478 59.9133H80.3539C75.8081 59.9133 72.123 63.5984 72.123 68.1442C72.123 72.69 75.8081 76.3751 80.3539 76.3751H172.478C177.024 76.3751 180.709 72.69 180.709 68.1442C180.709 63.5984 177.024 59.9133 172.478 59.9133Z" fill="white"/>
<path d="M69.2248 80.9188C76.28 80.9188 81.9994 75.1995 81.9994 68.1442C81.9994 61.089 76.28 55.3696 69.2248 55.3696C62.1696 55.3696 56.4502 61.089 56.4502 68.1442C56.4502 75.1995 62.1696 80.9188 69.2248 80.9188Z" fill="#0B2330"/>
<path d="M75.5541 64.908H62.8931V76.4051H75.5541V64.908Z" fill="white"/>
<path d="M74.2913 68.4567H72.9996V63.3327C72.9996 62.3313 72.6018 61.371 71.8938 60.6629C71.1857 59.9548 70.2253 59.557 69.224 59.557C68.2226 59.557 67.2623 59.9548 66.5542 60.6629C65.8462 61.371 65.4484 62.3313 65.4484 63.3327V68.4567H64.1567V63.3327C64.1567 61.9887 64.6906 60.6999 65.6409 59.7496C66.5912 58.7993 67.8801 58.2654 69.224 58.2654C70.5679 58.2654 71.8568 58.7993 72.8071 59.7496C73.7574 60.6999 74.2913 61.9887 74.2913 63.3327V68.4567Z" fill="white"/>
<path d="M69.7634 70.7981L70.2886 73.3247H68.0318L68.5711 70.7981C68.4057 70.7009 68.2687 70.5619 68.174 70.3949C68.0793 70.228 68.0303 70.0391 68.0318 69.8471C68.0629 69.5697 68.1952 69.3134 68.4034 69.1273C68.6116 68.9412 68.881 68.8384 69.1602 68.8384C69.4394 68.8384 69.7088 68.9412 69.917 69.1273C70.1251 69.3134 70.2574 69.5697 70.2886 69.8471C70.2888 70.0372 70.2407 70.2241 70.1489 70.3905C70.057 70.5568 69.9244 70.6971 69.7634 70.7981Z" fill="#37474F"/>
<path d="M90.9497 64.6436H89.7671V72.1767H90.9497V64.6436Z" fill="#0B2330"/>
<path d="M94.1196 67.813H86.5864V68.9956H94.1196V67.813Z" fill="#0B2330"/>
<path d="M92.5992 65.3229L87.2725 70.6497L88.1087 71.4859L93.4354 66.1591L92.5992 65.3229Z" fill="#0B2330"/>
<path d="M88.118 65.323L87.2817 66.1592L92.6085 71.4859L93.4447 70.6497L88.118 65.323Z" fill="#0B2330"/>
<path d="M103.733 64.6436H102.551V72.1767H103.733V64.6436Z" fill="#0B2330"/>
<path d="M106.915 67.813H99.3823V68.9956H106.915V67.813Z" fill="#0B2330"/>
<path d="M105.397 65.3219L100.07 70.6487L100.906 71.4849L106.233 66.1582L105.397 65.3219Z" fill="#0B2330"/>
<path d="M100.906 65.3305L100.07 66.1667L105.397 71.4935L106.233 70.6573L100.906 65.3305Z" fill="#0B2330"/>
<path d="M116.529 64.6436H115.347V72.1767H116.529V64.6436Z" fill="#0B2330"/>
<path d="M119.698 67.813H112.165V68.9956H119.698V67.813Z" fill="#0B2330"/>
<path d="M118.173 65.329L112.847 70.6558L113.683 71.492L119.01 66.1652L118.173 65.329Z" fill="#0B2330"/>
<path d="M113.691 65.3293L112.854 66.1655L118.181 71.4923L119.017 70.656L113.691 65.3293Z" fill="#0B2330"/>
<path d="M129.325 64.6436H128.143V72.1767H129.325V64.6436Z" fill="#0B2330"/>
<path d="M132.495 67.813H124.962V68.9956H132.495V67.813Z" fill="#0B2330"/>
<path d="M130.97 65.3283L125.644 70.655L126.48 71.4913L131.807 66.1645L130.97 65.3283Z" fill="#0B2330"/>
<path d="M126.488 65.3278L125.651 66.1641L130.978 71.4908L131.814 70.6546L126.488 65.3278Z" fill="#0B2330"/>
<path d="M142.109 64.6436H140.926V72.1767H142.109V64.6436Z" fill="#0B2330"/>
<path d="M145.291 67.813H137.758V68.9956H145.291V67.813Z" fill="#0B2330"/>
<path d="M143.766 65.3271L138.439 70.6538L139.276 71.49L144.602 66.1633L143.766 65.3271Z" fill="#0B2330"/>
<path d="M139.276 65.3354L138.439 66.1716L143.766 71.4984L144.602 70.6621L139.276 65.3354Z" fill="#0B2330"/>
<path d="M154.905 64.6436H153.722V72.1767H154.905V64.6436Z" fill="#0B2330"/>
<path d="M158.073 67.813H150.54V68.9956H158.073V67.813Z" fill="#0B2330"/>
<path d="M156.556 65.3224L151.229 70.6492L152.065 71.4854L157.392 66.1587L156.556 65.3224Z" fill="#0B2330"/>
<path d="M152.073 65.3227L151.237 66.1589L156.564 71.4857L157.4 70.6495L152.073 65.3227Z" fill="#0B2330"/>
</svg>
