<svg width="142" height="101" viewBox="0 0 142 101" fill="none" xmlns="http://www.w3.org/2000/svg">
<path d="M90.2317 2.53462C84.8154 2.18557 79.3329 2.96793 73.8925 2.63092C68.3438 2.2939 62.9214 0.825474 57.3787 0.325969C51.836 -0.173536 45.866 0.542621 41.527 4.0211C46.3214 5.13725 50.8227 7.26276 54.7308 10.2559C48.5682 11.4896 42.189 10.8577 35.9301 11.4595C29.6713 12.0613 23.0453 14.1978 19.4826 19.3794C22.5604 18.7346 25.7623 19.0563 28.6503 20.3005C31.5383 21.5447 33.9715 23.6506 35.6172 26.3303C30.1624 31.4696 23.0082 34.4234 15.5166 34.6293C16.9971 41.0567 23.942 44.4148 30.1467 46.6656C36.3514 48.9164 43.3866 51.5283 45.842 57.6547L38.3915 58.9486C43.5069 62.9025 47.4849 68.1022 51.6314 73.0852C55.7779 78.0682 60.2012 82.979 65.8824 86.0663C71.5635 89.1536 78.7551 90.1526 84.4784 87.1315L125.799 31.4457C121.436 15.7204 106.487 3.56974 90.2317 2.53462Z" fill="#FEDF2E"/>
<path d="M101.257 11.3451C123.04 16.3462 136.645 38.0591 131.644 59.8424C126.643 81.6257 104.93 95.2304 83.1466 90.2293C61.3633 85.2283 47.7586 63.5153 52.7597 41.732C57.7607 19.9488 79.4737 6.3441 101.257 11.3451Z" fill="#F5F5F5" stroke="#263238" stroke-width="1.5"/>
<path d="M130.018 49.801C129.969 40.0667 126.125 30.7355 119.303 23.7912C112.481 16.847 103.22 12.8374 93.4879 12.615C93.1991 12.615 92.9162 12.615 92.6213 12.615C87.5446 12.6116 82.5206 13.6442 77.8568 15.6496C73.1929 17.655 68.9874 20.5911 65.4976 24.2781C58.9244 31.1835 55.248 40.3457 55.2246 49.8793C55.2246 49.9214 55.2246 49.9696 55.2246 50.0117C55.2157 59.8085 59.064 69.2151 65.9369 76.1966L76.1136 65.1894C72.2388 61.0869 70.0849 55.6547 70.0954 50.0117C70.0954 49.9635 70.0954 49.9154 70.0954 49.8672C70.1208 44.4374 72.1503 39.2083 75.7946 35.183C77.8615 32.8818 80.3889 31.0406 83.213 29.7789C86.0371 28.5172 89.0949 27.8631 92.188 27.8589C92.5852 27.8589 92.9824 27.8589 93.3916 27.895C99.0128 28.1994 104.307 30.6341 108.196 34.7036C112.086 38.7732 114.279 44.1719 114.329 49.801C114.329 49.8612 114.329 49.9274 114.329 49.9936C114.331 52.901 113.759 55.7802 112.644 58.4655C111.53 61.1508 109.895 63.5893 107.835 65.6408L118.975 76.5155C122.478 73.0424 125.258 68.909 127.154 64.3545C129.049 59.8 130.023 54.9148 130.018 49.9816C130.024 49.9274 130.018 49.8612 130.018 49.801Z" fill="#FFEF97"/>
<path d="M75.7941 35.171C72.9475 32.1619 67.8321 26.6914 65.4971 24.2842L75.776 35.171H75.7941Z" fill="#FEDF2E"/>
<g opacity="0.6">
<path d="M114.334 49.9936C114.337 52.901 113.764 55.7801 112.65 58.4654C111.535 61.1508 109.901 63.5893 107.841 65.6407L118.98 76.5155C122.484 73.0423 125.264 68.9089 127.159 64.3544C129.055 59.7999 130.028 54.9147 130.024 49.9815C130.024 49.9153 130.024 49.8491 130.024 49.7889H114.328C114.328 49.8612 114.334 49.9274 114.334 49.9936Z" fill="#FEDF2E"/>
</g>
<g opacity="0.5">
<path d="M114.328 49.801H130.018C129.982 40.1103 126.172 30.8149 119.396 23.887L108.28 34.7918C112.128 38.8459 114.29 44.2117 114.328 49.801Z" fill="#FEDF2E"/>
</g>
<g opacity="0.4">
<path d="M93.3916 27.895C99.0573 28.1918 104.39 30.6621 108.28 34.7918L119.396 23.887C112.575 16.8734 103.269 12.8245 93.4879 12.615L93.3916 27.889V27.895Z" fill="#FEDF2E"/>
</g>
<g opacity="0.3">
<path d="M92.1875 27.8589C92.5847 27.8589 92.9819 27.8589 93.3911 27.895L93.4874 12.621C93.1985 12.621 92.9157 12.621 92.6208 12.621C87.5441 12.6176 82.5201 13.6502 77.8563 15.6556C73.1924 17.661 68.9869 20.5971 65.4971 24.2841C67.8321 26.6914 72.9475 32.1077 75.7941 35.1709C77.8621 32.8719 80.39 31.033 83.214 29.7734C86.0381 28.5138 89.0953 27.8615 92.1875 27.8589Z" fill="#FEDF2E"/>
</g>
<g opacity="0.2">
<path d="M70.0774 49.8491C70.1027 44.4193 72.1323 39.1901 75.7765 35.1649L65.4976 24.26C58.9244 31.1654 55.248 40.3275 55.2246 49.8612C58.0832 49.9153 64.9559 49.8792 70.0774 49.8491Z" fill="#FFEF97"/>
</g>
<path d="M133.424 50.818C133.424 50.818 133.424 50.5893 133.424 50.15V49.3255C133.424 49.0005 133.424 48.6214 133.37 48.1881C133.316 47.7548 133.298 47.2794 133.255 46.7498C133.213 46.2202 133.117 45.6424 133.039 45.0165C132.864 43.7708 132.587 42.3385 132.202 40.7497C131.754 38.989 131.189 37.26 130.511 35.5741C129.714 33.5661 128.756 31.6259 127.647 29.7726C124.932 25.2424 121.38 21.27 117.181 18.0673C112.085 14.1873 106.151 11.5534 99.8548 10.3762C96.3589 9.71884 92.7927 9.51655 89.2449 9.77434C87.3899 9.90512 85.5461 10.1625 83.7262 10.5447C81.8606 10.9485 80.0232 11.4731 78.2257 12.1154C76.3902 12.7966 74.6027 13.6008 72.8755 14.5227C71.1116 15.4744 69.4164 16.5482 67.8022 17.7363C66.1673 18.9622 64.6171 20.2973 63.1623 21.7324C61.6991 23.2163 60.3416 24.8009 59.1 26.4747C57.8383 28.1879 56.7154 29.9991 55.7419 31.891C55.5072 32.3664 55.2364 32.8358 55.0257 33.3293C54.8151 33.8228 54.5804 34.3043 54.3637 34.7977C53.9666 35.8028 53.5513 36.8018 53.2263 37.8068C52.5306 39.8826 52.0073 42.0122 51.6616 44.174C50.943 48.558 50.943 53.0299 51.6616 57.4139C52.0093 59.5758 52.5347 61.7054 53.2323 63.7811L53.4911 64.5514L53.6235 64.9366L53.768 65.3157L54.3698 66.8263L55.0378 68.2947C55.2484 68.7882 55.5132 69.2576 55.7539 69.733C56.7276 71.6235 57.8484 73.4345 59.106 75.1493C60.3461 76.8243 61.7036 78.409 63.1683 79.8916C64.6264 81.3272 66.1785 82.6642 67.8143 83.8937C69.4274 85.0785 71.1205 86.1502 72.8815 87.1013C76.286 88.9305 79.9334 90.2659 83.7142 91.0673C85.5345 91.4465 87.3782 91.7039 89.2328 91.8376C92.7806 92.0987 96.3473 91.8964 99.8428 91.2358C103.111 90.63 106.291 89.6192 109.309 88.2267C112.101 86.9602 114.739 85.3814 117.175 83.5206C121.371 80.3182 124.92 76.3481 127.635 71.8213C128.746 69.9666 129.704 68.0243 130.499 66.0138C131.176 64.3296 131.741 62.6026 132.19 60.8442C132.591 59.2394 132.87 57.8151 133.027 56.5714C133.105 55.9695 133.189 55.3677 133.243 54.8441C133.298 54.3206 133.322 53.8331 133.358 53.4058C133.394 52.9785 133.406 52.5934 133.412 52.2684V51.4439C133.412 51.6666 133.412 51.9374 133.412 52.2684C133.412 52.5994 133.412 52.9725 133.364 53.4058C133.316 53.8391 133.298 54.3145 133.255 54.8502C133.213 55.3858 133.123 55.9515 133.051 56.5834C132.876 57.8291 132.612 59.2615 132.226 60.8563C131.784 62.6213 131.223 64.3544 130.547 66.0439C129.758 68.0648 128.804 70.0173 127.695 71.8815C124.982 76.425 121.43 80.4115 117.229 83.6289C112.121 87.5326 106.168 90.1834 99.8488 91.3682C96.3411 92.0289 92.7625 92.2312 89.2027 91.97C87.3421 91.8363 85.4925 91.5789 83.666 91.1997C79.8626 90.401 76.1927 89.0635 72.7672 87.2277C71.0001 86.2726 69.301 85.1968 67.6819 84.008C64.3398 81.5426 61.3915 78.5841 58.9375 75.2336C57.6761 73.5178 56.5493 71.707 55.5674 69.8173C55.3266 69.3358 55.0619 68.8664 54.8452 68.3729L54.1772 66.8925L53.5754 65.3819L53.4249 65.0028L53.2925 64.6176L53.0337 63.8413C52.3265 61.7549 51.795 59.613 51.445 57.438C51.0966 55.2483 50.9155 53.0352 50.9033 50.818C50.917 48.5909 51.0981 46.368 51.445 44.168C51.7955 42.0007 52.3208 39.8653 53.0157 37.7827C53.3467 36.7416 53.7619 35.7366 54.1591 34.7315L54.8271 33.2511C55.0378 32.7576 55.3086 32.2882 55.5433 31.8067C56.5236 29.9161 57.6505 28.1051 58.9135 26.3904C60.1596 24.7094 61.5231 23.1186 62.9938 21.6301C64.4551 20.1873 66.0134 18.8461 67.6578 17.616C70.8585 15.2499 74.3832 13.3568 78.1233 11.995C79.9279 11.3555 81.7711 10.8308 83.642 10.4243C88.9737 9.31605 94.4703 9.25677 99.8247 10.2498C106.14 11.4378 112.09 14.086 117.199 17.9831C121.41 21.1893 124.972 25.1679 127.695 29.7064C129.729 33.1403 131.257 36.8495 132.232 40.7196C132.618 42.3084 132.882 43.7287 133.057 44.9925C133.129 45.5943 133.213 46.1961 133.261 46.7257C133.31 47.2553 133.34 47.7367 133.37 48.17C133.4 48.6033 133.418 48.9825 133.418 49.3075C133.418 49.6324 133.418 49.9093 133.418 50.1319C133.424 50.5713 133.424 50.818 133.424 50.818Z" fill="#263238"/>
<path d="M95.9359 58.7203C100.311 56.8892 102.374 51.858 100.542 47.4827C98.7113 43.1075 93.6801 41.0451 89.3049 42.8762C84.9296 44.7073 82.8672 49.7385 84.6983 54.1137C86.5294 58.489 91.5606 60.5514 95.9359 58.7203Z" fill="#DBDBDB"/>
<path d="M90.0933 51.3717C90.1791 51.68 90.3255 51.9682 90.524 52.2192C90.7224 52.4703 90.969 52.6793 91.2492 52.834C91.5293 52.9886 91.8376 53.0859 92.1558 53.12C92.474 53.1541 92.7958 53.1244 93.1024 53.0327L122.97 44.5592L92.1455 48.2664C91.7936 48.3081 91.4551 48.426 91.1535 48.6119C90.8518 48.7979 90.5944 49.0474 90.399 49.343C90.2037 49.6386 90.0751 49.9732 90.0223 50.3236C89.9695 50.674 89.9938 51.0317 90.0933 51.3717Z" fill="#263238"/>
<path d="M108.16 41.7909C108.134 41.7559 108.114 41.7174 108.1 41.6765L107.931 41.3275C107.853 41.177 107.775 40.9845 107.66 40.7678L107.233 39.9854C107.077 39.7026 106.878 39.3836 106.673 39.0767C106.469 38.7698 106.21 38.4087 105.939 38.0416C105.309 37.2249 104.615 36.4602 103.863 35.7547C101.898 33.934 99.5554 32.5695 97.0023 31.7587C95.4914 31.2861 93.921 31.0308 92.3382 31.0004C88.9215 30.9317 85.5547 31.8286 82.625 33.5882C81.2648 34.4001 80.0285 35.4033 78.9539 36.5671C77.1337 38.5456 75.7751 40.9031 74.9759 43.4699C74.6782 44.4544 74.4569 45.4605 74.3139 46.479C74.2598 46.9304 74.2176 47.3516 74.1875 47.7368C74.1574 48.122 74.1514 48.483 74.1574 48.802C74.1635 49.121 74.1574 49.4038 74.1574 49.6566C74.1574 49.9093 74.1875 50.1079 74.1996 50.2584C74.2116 50.4089 74.1996 50.5473 74.2297 50.6436C74.2374 50.6874 74.2374 50.7322 74.2297 50.776V50.6436C74.2297 50.5533 74.2297 50.4269 74.1875 50.2644C74.1454 50.1019 74.1394 49.8853 74.1274 49.6626C74.1153 49.4399 74.1274 49.133 74.0912 48.808C74.0551 48.483 74.0912 48.134 74.0912 47.7428C74.0912 47.3516 74.1574 46.9243 74.2056 46.473C74.3361 45.4439 74.5514 44.4274 74.8495 43.4338C75.6394 40.8433 76.9985 38.4622 78.8275 36.4648C79.9096 35.2885 81.1562 34.2749 82.5287 33.4558C85.482 31.6773 88.8795 30.7736 92.3262 30.8499C93.9217 30.8809 95.5045 31.1403 97.0264 31.6202C99.6078 32.4433 101.972 33.8333 103.947 35.6885C104.701 36.4028 105.397 37.1755 106.029 37.9995C106.3 38.3666 106.541 38.7156 106.758 39.0466C106.974 39.3776 107.155 39.6785 107.305 39.9614L107.703 40.7197C107.811 40.9423 107.889 41.1349 107.961 41.2914L108.112 41.6464C108.132 41.6932 108.148 41.7415 108.16 41.7909Z" fill="#263238"/>
<path d="M74.2297 50.6436C74.1996 50.5473 74.2116 50.4089 74.1996 50.2584C74.1875 50.1079 74.1574 49.9093 74.1574 49.6566C74.1574 49.4038 74.1635 49.121 74.1574 48.802C74.1514 48.483 74.1574 48.122 74.1875 47.7368C74.2176 47.3516 74.2598 46.9304 74.3139 46.479C74.4569 45.4604 74.6782 44.4544 74.9759 43.4699C75.7751 40.9031 77.1337 38.5456 78.9539 36.5671C80.0285 35.4033 81.2648 34.4001 82.625 33.5882C85.5547 31.8286 88.9215 30.9317 92.3382 31.0004C93.921 31.0308 95.4914 31.2861 97.0023 31.7587C99.5554 32.5695 101.898 33.934 103.863 35.7547C104.615 36.4602 105.309 37.2249 105.939 38.0416C106.21 38.4087 106.469 38.7698 106.673 39.0767C106.878 39.3836 107.077 39.7026 107.233 39.9854L107.66 40.7678C107.775 40.9845 107.853 41.177 107.931 41.3275L108.1 41.6765C108.114 41.7174 108.134 41.7559 108.16 41.7909C108.148 41.7415 108.132 41.6932 108.112 41.6464L107.961 41.2914C107.889 41.1349 107.811 40.9423 107.703 40.7197L107.305 39.9614C107.155 39.6785 106.974 39.3776 106.758 39.0466C106.541 38.7156 106.3 38.3666 106.029 37.9995C105.397 37.1755 104.701 36.4028 103.947 35.6885C101.972 33.8333 99.6078 32.4433 97.0264 31.6202C95.5045 31.1403 93.9217 30.8809 92.3262 30.8499C88.8795 30.7736 85.482 31.6773 82.5287 33.4558C81.1562 34.2749 79.9096 35.2885 78.8275 36.4648C76.9985 38.4622 75.6394 40.8433 74.8495 43.4338C74.5514 44.4274 74.3361 45.4439 74.2056 46.473C74.1574 46.9243 74.0912 47.3516 74.0912 47.7428C74.0912 48.134 74.0551 48.483 74.0912 48.808C74.1274 49.133 74.1153 49.4399 74.1274 49.6626C74.1394 49.8853 74.1454 50.1019 74.1875 50.2644C74.2297 50.4269 74.2297 50.5533 74.2297 50.6436ZM74.2297 50.6436C74.2374 50.6874 74.2374 50.7322 74.2297 50.776V50.6436Z" stroke="#263238" stroke-linecap="round"/>
<path d="M104.609 40.9062C104.552 40.8496 104.502 40.787 104.459 40.7196C104.362 40.5993 104.242 40.4007 104.055 40.172C103.562 39.5046 103.014 38.8787 102.419 38.3004C100.89 36.8006 99.0605 35.6426 97.0509 34.9028C95.0413 34.1631 92.8975 33.8586 90.7614 34.0094C89.5254 34.0929 88.3033 34.3211 87.1205 34.6895C86.3226 34.9357 85.5457 35.2456 84.7975 35.6163C84.5327 35.7426 84.3341 35.863 84.1957 35.9292C84.1269 35.9702 84.0544 36.0045 83.979 36.0315C84.0407 35.9809 84.1072 35.9366 84.1776 35.8991C84.31 35.8209 84.5026 35.6945 84.7794 35.5621C85.5231 35.1651 86.3004 34.8348 87.1024 34.5751C89.1535 33.8921 91.3278 33.6601 93.4768 33.8948C95.6257 34.1296 97.6987 34.8256 99.5539 35.9352C100.629 36.5705 101.622 37.3366 102.509 38.2161C103.109 38.8052 103.657 39.4456 104.146 40.1299C104.32 40.3706 104.435 40.5692 104.525 40.7016C104.615 40.834 104.609 40.9062 104.609 40.9062Z" fill="#263238" stroke="#263238" stroke-linecap="round"/>
<path d="M17.5627 27.0164C15.986 24.8438 11.2858 23.4958 8.64383 24.0073C7.2055 24.2721 5.89355 24.9702 4.52141 25.4757C3.14928 25.9813 1.60863 26.2822 0.248535 25.7526C4.46123 29.6584 12.7301 30.1217 17.5627 27.0344" fill="#FEDF2E"/>
</svg>
