<svg width="79" height="101" viewBox="0 0 79 101" fill="none" xmlns="http://www.w3.org/2000/svg">
<path d="M10.8972 78.2886H19.9866L19.186 82.3655H2.81299L3.4613 79.124L13.3164 71.4009C15.753 69.4516 16.497 68.3116 16.497 66.8888C16.497 65.466 15.4136 64.5088 13.3164 64.5088C12.4312 64.5221 11.56 64.7315 10.7655 65.122C9.97101 65.5125 9.27298 66.0743 8.72171 66.767L5.354 64.3261C7.09442 61.946 10.3272 60.371 14.0561 60.371C18.629 60.371 21.6226 62.8119 21.6226 66.1796C21.6226 68.7424 20.4521 70.9049 16.6493 73.8418L10.8972 78.2886Z" fill="#263238"/>
<path d="M41.6414 77.8273H38.091L37.1947 82.3654H32.3128L33.2395 77.8273H21.5918L22.2401 74.4596L34.9713 60.7407H40.4362L28.5752 73.746H34.2577L35.0626 69.6995H39.727L38.922 73.746H42.4768L41.6414 77.8273Z" fill="#263238"/>
<path d="M55.8346 56.8184H60.3467L44.4697 85.9182H39.9707L55.8346 56.8184Z" fill="#263238"/>
<path d="M76.5197 60.7407L75.8714 63.9866L64.3193 82.3654H58.7587L69.8452 64.8177H62.8356L62.1221 68.342H57.6753L59.1938 60.7407H76.5197Z" fill="#263238"/>
<path d="M0.789551 99.4261L2.05571 97.0243C3.18418 97.7453 4.49332 98.1329 5.83242 98.1425C7.06811 98.1425 7.78168 97.7553 7.78168 97.1374C7.78168 95.6102 2.26456 96.4543 2.26456 92.8865C2.26456 90.4368 4.35741 88.8313 7.71642 88.8313C9.14105 88.784 10.5522 89.1206 11.8021 89.8059L10.636 92.1903C9.69962 91.6139 8.62011 91.3124 7.52062 91.3201C6.1892 91.3201 5.47563 91.8074 5.47563 92.4253C5.47563 93.9829 10.9928 93.091 10.9928 96.5935C10.9928 99.0258 8.85204 100.631 5.52784 100.631C3.57857 100.64 1.81205 100.122 0.789551 99.4261Z" fill="#263238"/>
<path d="M16.7142 91.5418L16.3444 93.4563H21.3873L20.9043 95.8537H15.8571L15.4481 97.9335H21.4047L20.8825 100.414H11.7671L14.0557 89.0791H22.9449L22.4402 91.5636L16.7142 91.5418Z" fill="#263238"/>
<path d="M31.2295 97.0067L33.1614 100.414H29.8024L28.1142 97.3983H26.4956L25.8952 100.414H22.6841L24.951 89.0791H29.8024C32.7045 89.0791 34.3753 90.4279 34.3753 92.6992C34.3981 93.6633 34.1022 94.608 33.5334 95.3868C32.9647 96.1656 32.1549 96.735 31.2295 97.0067ZM29.3499 91.5897H27.6617L26.996 94.9139H28.9104C30.3245 94.9139 31.1512 94.2351 31.1512 92.9863C31.1338 92.0291 30.4507 91.5897 29.3499 91.5897Z" fill="#263238"/>
<path d="M48.4511 89.0791L41.3545 100.414H38.1913L35.5894 89.0791H38.8831L40.506 96.4759L45.1443 89.0791H48.4511Z" fill="#263238"/>
<path d="M49.1295 89.0791H52.3449L50.0563 100.414H46.8452L49.1295 89.0791Z" fill="#263238"/>
<path d="M52.8457 95.6448C52.8457 91.7027 55.7479 88.8311 59.964 88.8311C62.0569 88.8311 63.7625 89.5968 64.5718 90.9718L62.2396 92.821C61.9791 92.399 61.6096 92.055 61.1701 91.8253C60.7306 91.5956 60.2373 91.4886 59.7421 91.5157C57.5361 91.5157 56.0742 93.2169 56.0742 95.4533C56.0742 96.9806 57.1141 98.0031 58.8501 98.0031C59.3802 98.0056 59.9041 97.8897 60.3836 97.6639C60.8631 97.4381 61.2861 97.108 61.6218 96.6978L63.5188 98.56C62.2396 100.105 60.5688 100.67 58.5412 100.67C55.0691 100.64 52.8457 98.6122 52.8457 95.6448Z" fill="#263238"/>
<path d="M69.2574 91.5418L68.8832 93.4563H73.926L73.4561 95.8537H68.3959L67.9912 97.9335H73.9434L73.4257 100.414H64.3276L66.5902 89.0791H75.4794L74.979 91.5636L69.2574 91.5418Z" fill="#263238"/>
<path d="M45.8701 3.31091H38.0977V10.3583H45.8701V3.31091Z" fill="#263238"/>
<path d="M3.92027 52.6411H10.2396C10.3858 43.633 14.2165 35.0709 20.0761 28.7243C26.0502 22.2536 34.1682 18.0502 42.7014 18.058M3.92027 52.6411L42.7009 18.5922M3.92027 52.6411C4.06162 42.6696 8.1505 32.5136 15.197 24.6841M42.7014 18.058L42.7009 18.5922M42.7014 18.058C42.7013 18.058 42.7011 18.058 42.7009 18.058V18.5922M42.7014 18.058C51.3557 18.0581 58.6257 21.1336 63.7305 26.5279C68.7331 31.8142 71.6196 39.2882 71.7308 48.1744M42.7009 18.5922C59.7466 18.5922 71.1999 30.6945 71.1999 48.7085V48.1744H71.7308M71.7308 48.1744C71.733 48.3519 71.7341 48.5299 71.7341 48.7085H78.0377C78.0377 48.53 78.0367 48.352 78.0348 48.1744H71.7308Z" fill="#FEDF2E" stroke="#263238" stroke-width="1.06832"/>
<path d="M14.8202 51.1219C16.0016 51.1219 16.9598 51.2385 16.9548 51.345C16.9497 51.4514 15.9965 51.5326 14.8202 51.5326C13.644 51.5326 12.6807 51.4362 12.6807 51.3095C12.6807 51.1827 13.644 51.1016 14.8202 51.1219Z" fill="#263238"/>
<path d="M19.9212 34.928C20.9352 35.577 21.6197 36.2412 21.5082 36.4186C21.3966 36.5961 20.4941 36.2361 19.4801 35.6226C18.4661 35.0091 17.7918 34.3348 17.8982 34.132C18.0047 33.9292 18.9325 34.2841 19.9212 34.928Z" fill="#263238"/>
<path d="M32.6976 23.7687C33.1793 24.8486 33.4176 25.7967 33.2047 25.8778C32.9917 25.959 32.4492 25.1731 31.9321 24.1134C31.4149 23.0538 31.1766 22.0854 31.425 22.0043C31.6735 21.9232 32.2211 22.6735 32.6976 23.7687Z" fill="#263238"/>
<path d="M49.5305 22.4404C49.2364 23.5862 48.8358 24.4684 48.6381 24.4279C48.4404 24.3873 48.4809 23.4139 48.7344 22.2528C48.988 21.0918 49.3834 20.2248 49.6268 20.2704C49.8701 20.316 49.8245 21.2996 49.5305 22.4404Z" fill="#263238"/>
<path d="M63.2802 32.104C62.2966 32.7529 61.4093 33.1484 61.2927 32.9862C61.1761 32.8239 61.8606 32.1242 62.8138 31.4296C63.7669 30.735 64.6593 30.3446 64.8012 30.5474C64.9432 30.7502 64.2638 31.4499 63.2802 32.104Z" fill="#263238"/>
<path d="M67.8078 48.0241C66.6316 48.0241 65.6733 47.9328 65.6733 47.8314C65.6733 47.73 66.6265 47.6286 67.8078 47.6134C68.9892 47.5982 69.9424 47.6844 69.9474 47.8061C69.9525 47.9278 68.9993 48.0241 67.8078 48.0241Z" fill="#263238"/>
<path d="M40.6829 50.2244C40.3149 50.227 39.9571 50.1035 39.6689 49.8746L27.2522 40.2414C26.908 39.9725 26.6847 39.5778 26.6314 39.1442C26.5782 38.7107 26.6994 38.2737 26.9683 37.9295C27.2372 37.5852 27.6319 37.3619 28.0655 37.3087C28.499 37.2554 28.936 37.3766 29.2803 37.6455L40.6069 46.4269L56.2481 32.0633C56.5675 31.7668 56.9915 31.6094 57.427 31.6255C57.8625 31.6417 58.2737 31.8302 58.5702 32.1495C58.8667 32.4689 59.0242 32.893 59.008 33.3284C58.9919 33.7639 58.8034 34.1751 58.484 34.4716L41.8186 49.7833C41.51 50.0696 41.1038 50.2274 40.6829 50.2244Z" fill="#FEDF2E"/>
<path d="M49.1042 0.32959H34.8673C34.6461 0.32959 34.4668 0.508917 34.4668 0.730128V5.88642C34.4668 6.10763 34.6461 6.28695 34.8673 6.28695H49.1042C49.3254 6.28695 49.5047 6.10763 49.5047 5.88642V0.730128C49.5047 0.508917 49.3254 0.32959 49.1042 0.32959Z" fill="#FFEF97"/>
<path d="M9.90222 18.5616L4.06372 25.7922C3.8368 26.0732 3.88065 26.485 4.16169 26.7119L8.15368 29.9354C8.43472 30.1623 8.84651 30.1184 9.07344 29.8374L14.9119 22.6068C15.1389 22.3258 15.095 21.914 14.814 21.6871L10.822 18.4636C10.5409 18.2367 10.1291 18.2806 9.90222 18.5616Z" fill="#FFEF97"/>
<path d="M49.1045 6.28699C49.1045 6.37318 45.9154 6.4391 42.0063 6.4391C38.0973 6.4391 34.9082 6.37318 34.9082 6.28699C34.9082 6.2008 38.0922 6.13489 42.0063 6.13489C45.9205 6.13489 49.1045 6.20587 49.1045 6.28699Z" fill="#FFEF97"/>
<path d="M9.77052 28.5955C9.68939 28.6868 8.61453 27.8654 7.28617 26.8666C5.9578 25.8678 4.87787 25.0566 4.94378 24.9552C5.00969 24.8538 6.20117 25.5129 7.54474 26.5219C8.88832 27.5308 9.84657 28.5094 9.77052 28.5955Z" fill="#263238"/>
<path d="M11.008 26.7752C10.9269 26.8665 9.85201 26.0451 8.52365 25.0463C7.19528 24.0475 6.11028 23.2363 6.17619 23.1349C6.2421 23.0335 7.43865 23.6926 8.78222 24.7066C10.1258 25.7206 11.084 26.689 11.008 26.7752Z" fill="#263238"/>
<path d="M12.5239 25.2492C12.4479 25.3405 11.373 24.5191 10.0447 23.5203C8.7163 22.5215 7.65158 21.7103 7.69721 21.6089C7.74285 21.5075 8.95967 22.1666 10.2982 23.1806C11.6367 24.1946 12.6051 25.163 12.5239 25.2492Z" fill="#263238"/>
<path d="M13.9939 23.429C13.9179 23.5203 12.8379 22.6989 11.5096 21.7001C10.1812 20.7013 9.10127 19.8901 9.17226 19.7887C9.24324 19.6873 10.4347 20.3464 11.7732 21.3604C13.1117 22.3745 14.07 23.3428 13.9939 23.429Z" fill="#263238"/>
<path d="M77.7239 20.847L71.4394 14.0006C71.1951 13.7345 70.7813 13.7168 70.5152 13.9611L66.7353 17.4308C66.4692 17.6751 66.4515 18.0888 66.6958 18.3549L72.9804 25.2013C73.2246 25.4674 73.6384 25.4851 73.9045 25.2408L77.6844 21.7711C77.9505 21.5269 77.9682 21.1131 77.7239 20.847Z" fill="#FFEF97"/>
<path d="M67.8182 19.2361C67.7421 19.1448 68.7105 18.2221 69.8969 17.0357C71.0833 15.8493 72.0415 14.9214 72.1328 15.0076C72.2241 15.0938 71.3976 16.1738 70.196 17.35C68.9944 18.5263 67.8891 19.3223 67.8182 19.2361Z" fill="#263238"/>
<path d="M69.4349 20.7267C69.3538 20.6354 70.3272 19.7127 71.5086 18.5263C72.6899 17.3399 73.6583 16.412 73.7496 16.4982C73.8408 16.5844 73.0093 17.6644 71.8128 18.8406C70.6162 20.0169 69.5059 20.8129 69.4349 20.7267Z" fill="#263238"/>
<path d="M70.7186 22.4556C70.6375 22.3643 71.6109 21.4416 72.7923 20.2552C73.9736 19.0687 74.942 18.1409 75.0332 18.2271C75.1245 18.3133 74.293 19.3882 73.0914 20.5644C71.8898 21.7407 70.7896 22.5418 70.7186 22.4556Z" fill="#263238"/>
<path d="M72.3001 24.1945C72.219 24.1032 73.1925 23.1804 74.3738 21.994C75.5551 20.8076 76.5235 19.8798 76.6148 19.966C76.7061 20.0522 75.8746 21.1321 74.6729 22.3084C73.4713 23.4846 72.3711 24.2654 72.3001 24.1945Z" fill="#263238"/>
<path d="M36.4649 6.282C36.3483 6.282 36.252 4.96378 36.252 3.34642C36.252 1.72905 36.3483 0.405762 36.4649 0.405762C36.5815 0.405762 36.6829 1.72398 36.6829 3.34642C36.6829 4.96885 36.5866 6.282 36.4649 6.282Z" fill="#263238"/>
<path d="M39.253 6.282C39.1364 6.282 39.04 4.96378 39.04 3.34642C39.04 1.72905 39.1364 0.405762 39.253 0.405762C39.3696 0.405762 39.4659 1.72398 39.4659 3.34642C39.4659 4.96885 39.3696 6.282 39.253 6.282Z" fill="#263238"/>
<path d="M42.0367 6.282C41.9201 6.282 41.8237 4.96378 41.8237 3.34642C41.8237 1.72905 41.9201 0.405762 42.0367 0.405762C42.1533 0.405762 42.2496 1.72398 42.2496 3.34642C42.2496 4.96885 42.1584 6.282 42.0367 6.282Z" fill="#263238"/>
<path d="M44.8253 6.282C44.7036 6.282 44.6123 4.96378 44.6123 3.34642C44.6123 1.72905 44.7036 0.405762 44.8253 0.405762C44.9469 0.405762 45.0382 1.72398 45.0382 3.34642C45.0382 4.96885 44.9419 6.282 44.8253 6.282Z" fill="#263238"/>
<path d="M47.6089 6.282C47.4923 6.282 47.396 4.96378 47.396 3.34642C47.396 1.72905 47.4923 0.405762 47.6089 0.405762C47.7256 0.405762 47.8219 1.72398 47.8219 3.34642C47.8219 4.96885 47.7053 6.282 47.6089 6.282Z" fill="#263238"/>
<path d="M43.6966 50.6488C45.15 49.1955 45.15 46.8392 43.6966 45.3859C42.2433 43.9325 39.887 43.9326 38.4337 45.3859C36.9804 46.8392 36.9804 49.1955 38.4337 50.6488C39.887 52.1021 42.2433 52.1021 43.6966 50.6488Z" fill="#FFEF97"/>
<path d="M44.7849 48.024C44.7494 48.024 44.7545 47.6945 44.5973 47.1317C44.3718 46.3464 43.8921 45.6581 43.2334 45.1746C42.7054 44.7826 42.0789 44.5449 41.4237 44.4882C40.7684 44.4315 40.1104 44.5579 39.5228 44.8535C38.9353 45.149 38.4414 45.6019 38.0964 46.1618C37.7513 46.7216 37.5685 47.3664 37.5685 48.024C37.5685 48.6817 37.7513 49.3264 38.0964 49.8863C38.4414 50.4461 38.9353 50.8991 39.5228 51.1946C40.1104 51.4901 40.7684 51.6166 41.4237 51.5599C42.0789 51.5032 42.7054 51.2655 43.2334 50.8734C43.891 50.3889 44.3704 49.701 44.5973 48.9164C44.7545 48.3536 44.7494 48.024 44.7849 48.024C44.8204 48.024 44.7849 48.1052 44.7849 48.2623C44.7929 48.4943 44.769 48.7264 44.7139 48.9519C44.5319 49.7983 44.0581 50.5539 43.3754 51.0864C42.8653 51.4869 42.2621 51.7518 41.6221 51.8564C40.982 51.961 40.3259 51.9019 39.7148 51.6846C38.9583 51.4165 38.3034 50.9206 37.8402 50.2651C37.3771 49.6096 37.1284 48.8267 37.1284 48.024C37.1284 47.2214 37.3771 46.4385 37.8402 45.783C38.3034 45.1275 38.9583 44.6315 39.7148 44.3634C40.3257 44.1469 40.9813 44.0877 41.621 44.1914C42.2608 44.2951 42.8642 44.5583 43.3754 44.9566C44.0578 45.4916 44.5314 46.2486 44.7139 47.0962C44.769 47.3217 44.7929 47.5537 44.7849 47.7857C44.8103 47.9328 44.8001 48.024 44.7849 48.024Z" fill="#FFEF97"/>
<path d="M44.7849 48.024C44.7494 48.024 44.7545 47.6945 44.5973 47.1317C44.3718 46.3464 43.8921 45.6581 43.2335 45.1746C42.7054 44.7826 42.0789 44.5449 41.4237 44.4882C40.7684 44.4315 40.1104 44.5579 39.5228 44.8535C38.9353 45.149 38.4414 45.6019 38.0964 46.1618C37.7513 46.7216 37.5685 47.3664 37.5685 48.024C37.5685 48.6817 37.7513 49.3264 38.0964 49.8863C38.4414 50.4461 38.9353 50.8991 39.5228 51.1946C40.1104 51.4901 40.7684 51.6166 41.4237 51.5599C42.0789 51.5032 42.7054 51.2655 43.2335 50.8734C43.891 50.3889 44.3704 49.701 44.5973 48.9164C44.7545 48.3536 44.7494 48.024 44.7849 48.024ZM44.7849 48.024C44.8204 48.024 44.7849 48.1052 44.7849 48.2623C44.7929 48.4943 44.769 48.7264 44.7139 48.9519C44.5319 49.7983 44.0581 50.5539 43.3754 51.0864C42.8653 51.4869 42.2621 51.7518 41.6221 51.8564C40.982 51.961 40.3259 51.9019 39.7148 51.6846C38.9583 51.4165 38.3034 50.9206 37.8402 50.2651C37.3771 49.6096 37.1284 48.8267 37.1284 48.024C37.1284 47.2214 37.3771 46.4385 37.8402 45.783C38.3034 45.1275 38.9583 44.6315 39.7148 44.3634C40.3257 44.1469 40.9813 44.0877 41.621 44.1914C42.2608 44.2951 42.8642 44.5583 43.3754 44.9566C44.0578 45.4916 44.5314 46.2486 44.7139 47.0962C44.769 47.3217 44.7929 47.5537 44.7849 47.7857C44.8103 47.9328 44.8001 48.024 44.7849 48.024Z" stroke="#263238" stroke-width="1.06832"/>
</svg>
