<svg width="17" height="17" viewBox="0 0 17 17" fill="none" xmlns="http://www.w3.org/2000/svg">
<path fill-rule="evenodd" clip-rule="evenodd" d="M7.86594 6.39198C7.80008 6.35244 7.7249 6.3311 7.64809 6.33011C7.57128 6.32913 7.49559 6.34855 7.42874 6.38639C7.36189 6.42423 7.30628 6.47913 7.26758 6.54549C7.22889 6.61185 7.2085 6.68729 7.2085 6.7641V10.2365C7.2085 10.3133 7.22889 10.3888 7.26758 10.4551C7.30628 10.5215 7.36189 10.5764 7.42874 10.6142C7.49559 10.6521 7.57128 10.6715 7.64809 10.6705C7.7249 10.6695 7.80008 10.6482 7.86594 10.6086L10.7596 8.87243C10.8238 8.83386 10.877 8.77931 10.9139 8.7141C10.9508 8.64889 10.9702 8.57524 10.9702 8.50031C10.9702 8.42537 10.9508 8.35172 10.9139 8.28651C10.877 8.2213 10.8238 8.16675 10.7596 8.12818L7.86594 6.39198ZM9.69242 8.50031L8.0766 9.46969V7.53093L9.69242 8.50031Z" fill="black"/>
<path fill-rule="evenodd" clip-rule="evenodd" d="M11.7109 4.24112C9.77316 4.08955 7.82655 4.08955 5.88882 4.24112L4.59188 4.34298C4.20866 4.37285 3.84646 4.5301 3.56297 4.78968C3.27948 5.04926 3.091 5.39624 3.02756 5.77535C2.72649 7.57932 2.72649 9.42073 3.02756 11.2247C3.091 11.6038 3.27948 11.9508 3.56297 12.2104C3.84646 12.4699 4.20866 12.6272 4.59188 12.6571L5.88824 12.7589C7.82642 12.9106 9.77328 12.9106 11.7115 12.7589L13.0078 12.6571C13.391 12.6272 13.7532 12.4699 14.0367 12.2104C14.3202 11.9508 14.5087 11.6038 14.5721 11.2247C14.8731 9.42079 14.8731 7.57926 14.5721 5.77535C14.5087 5.39624 14.3202 5.04926 14.0367 4.78968C13.7532 4.5301 13.391 4.37285 13.0078 4.34298L11.7109 4.24112ZM5.95653 5.10691C7.84957 4.9588 9.75129 4.9588 11.6443 5.10691L12.9407 5.20819C13.3319 5.23886 13.652 5.53228 13.7162 5.91887C14.0024 7.62774 14.0024 9.37231 13.7162 11.0812C13.6849 11.2692 13.5915 11.4414 13.4509 11.5702C13.3104 11.699 13.1308 11.777 12.9407 11.7919L11.6443 11.8931C9.75129 12.0413 7.84957 12.0413 5.95653 11.8931L4.66017 11.7919C4.47011 11.777 4.29049 11.699 4.14995 11.5702C4.0094 11.4414 3.91601 11.2692 3.88467 11.0812C3.59845 9.37231 3.59845 7.62774 3.88467 5.91887C3.91601 5.73083 4.0094 5.55869 4.14995 5.42989C4.29049 5.30109 4.47011 5.22304 4.66017 5.20819L5.95653 5.10691Z" fill="black"/>
</svg>
